G04*
G04 #@! TF.GenerationSoftware,Altium Limited,Altium Designer,24.3.1 (35)*
G04*
G04 Layer_Color=16711935*
%FSLAX25Y25*%
%MOIN*%
G70*
G04*
G04 #@! TF.SameCoordinates,990AA879-4203-459C-8826-AB23A681A769*
G04*
G04*
G04 #@! TF.FilePolarity,Positive*
G04*
G01*
G75*
%ADD53C,0.00394*%
D53*
X553839Y504362D02*
Y507905D01*
X560532Y504362D02*
Y507905D01*
X553839D02*
X560532D01*
X553839Y504362D02*
X560532D01*
X488287D02*
Y507905D01*
X494980Y504362D02*
Y507905D01*
X488287D02*
X494980D01*
X488287Y504362D02*
X494980D01*
X422736D02*
Y507905D01*
X429429Y504362D02*
Y507905D01*
X422736D02*
X429429D01*
X422736Y504362D02*
X429429D01*
X357185D02*
Y507905D01*
X363878Y504362D02*
Y507905D01*
X357185D02*
X363878D01*
X357185Y504362D02*
X363878D01*
X422736Y897669D02*
Y901213D01*
X429429Y897669D02*
Y901213D01*
X422736D02*
X429429D01*
X422736Y897669D02*
X429429D01*
X881594Y635465D02*
Y639008D01*
X888287Y635465D02*
Y639008D01*
X881594D02*
X888287D01*
X881594Y635465D02*
X888287D01*
X226083Y504362D02*
Y507905D01*
X232776Y504362D02*
Y507905D01*
X226083D02*
X232776D01*
X226083Y504362D02*
X232776D01*
X291634D02*
Y507905D01*
X298327Y504362D02*
Y507905D01*
X291634D02*
X298327D01*
X291634Y504362D02*
X298327D01*
X357185Y897669D02*
Y901213D01*
X363878Y897669D02*
Y901213D01*
X357185D02*
X363878D01*
X357185Y897669D02*
X363878D01*
X750492Y635465D02*
Y639008D01*
X757185Y635465D02*
Y639008D01*
X750492D02*
X757185D01*
X750492Y635465D02*
X757185D01*
X750492Y832118D02*
Y835661D01*
X757185Y832118D02*
Y835661D01*
X750492D02*
X757185D01*
X750492Y832118D02*
X757185D01*
X684941Y569913D02*
Y573457D01*
X691634Y569913D02*
Y573457D01*
X684941D02*
X691634D01*
X684941Y569913D02*
X691634D01*
X619390D02*
Y573457D01*
X626083Y569913D02*
Y573457D01*
X619390D02*
X626083D01*
X619390Y569913D02*
X626083D01*
X553839D02*
Y573457D01*
X560532Y569913D02*
Y573457D01*
X553839D02*
X560532D01*
X553839Y569913D02*
X560532D01*
X488287D02*
Y573457D01*
X494980Y569913D02*
Y573457D01*
X488287D02*
X494980D01*
X488287Y569913D02*
X494980D01*
X750492D02*
Y573457D01*
X757185Y569913D02*
Y573457D01*
X750492D02*
X757185D01*
X750492Y569913D02*
X757185D01*
X553839Y897669D02*
Y901213D01*
X560532Y897669D02*
Y901213D01*
X553839D02*
X560532D01*
X553839Y897669D02*
X560532D01*
X357185Y373260D02*
Y376803D01*
X363878Y373260D02*
Y376803D01*
X357185D02*
X363878D01*
X357185Y373260D02*
X363878D01*
X357185Y438811D02*
Y442354D01*
X363878Y438811D02*
Y442354D01*
X357185D02*
X363878D01*
X357185Y438811D02*
X363878D01*
X422736D02*
Y442354D01*
X429429Y438811D02*
Y442354D01*
X422736D02*
X429429D01*
X422736Y438811D02*
X429429D01*
X160531Y373260D02*
Y376803D01*
X167224Y373260D02*
Y376803D01*
X160531D02*
X167224D01*
X160531Y373260D02*
X167224D01*
X94980D02*
Y376803D01*
X101673Y373260D02*
Y376803D01*
X94980D02*
X101673D01*
X94980Y373260D02*
X101673D01*
X1012697Y45504D02*
Y49047D01*
X1019390Y45504D02*
Y49047D01*
X1012697D02*
X1019390D01*
X1012697Y45504D02*
X1019390D01*
X488287Y438811D02*
Y442354D01*
X494980Y438811D02*
Y442354D01*
X488287D02*
X494980D01*
X488287Y438811D02*
X494980D01*
X1012697Y111055D02*
Y114598D01*
X1019390Y111055D02*
Y114598D01*
X1012697D02*
X1019390D01*
X1012697Y111055D02*
X1019390D01*
X1012697Y176606D02*
Y180150D01*
X1019390Y176606D02*
Y180150D01*
X1012697D02*
X1019390D01*
X1012697Y176606D02*
X1019390D01*
X1012697Y242158D02*
Y245701D01*
X1019390Y242158D02*
Y245701D01*
X1012697D02*
X1019390D01*
X1012697Y242158D02*
X1019390D01*
X1012697Y307709D02*
Y311252D01*
X1019390Y307709D02*
Y311252D01*
X1012697D02*
X1019390D01*
X1012697Y307709D02*
X1019390D01*
X1012697Y373260D02*
Y376803D01*
X1019390Y373260D02*
Y376803D01*
X1012697D02*
X1019390D01*
X1012697Y373260D02*
X1019390D01*
X1012697Y438811D02*
Y442354D01*
X1019390Y438811D02*
Y442354D01*
X1012697D02*
X1019390D01*
X1012697Y438811D02*
X1019390D01*
X1012697Y504362D02*
Y507905D01*
X1019390Y504362D02*
Y507905D01*
X1012697D02*
X1019390D01*
X1012697Y504362D02*
X1019390D01*
X1012697Y569913D02*
Y573457D01*
X1019390Y569913D02*
Y573457D01*
X1012697D02*
X1019390D01*
X1012697Y569913D02*
X1019390D01*
X422736Y963221D02*
Y966764D01*
X429429Y963221D02*
Y966764D01*
X422736D02*
X429429D01*
X422736Y963221D02*
X429429D01*
X226083Y701016D02*
Y704559D01*
X232776Y701016D02*
Y704559D01*
X226083D02*
X232776D01*
X226083Y701016D02*
X232776D01*
X160531D02*
Y704559D01*
X167224Y701016D02*
Y704559D01*
X160531D02*
X167224D01*
X160531Y701016D02*
X167224D01*
X160531Y897669D02*
Y901213D01*
X167224Y897669D02*
Y901213D01*
X160531D02*
X167224D01*
X160531Y897669D02*
X167224D01*
X94980Y701016D02*
Y704559D01*
X101673Y701016D02*
Y704559D01*
X94980D02*
X101673D01*
X94980Y701016D02*
X101673D01*
X291634Y766567D02*
Y770110D01*
X298327Y766567D02*
Y770110D01*
X291634D02*
X298327D01*
X291634Y766567D02*
X298327D01*
X226083D02*
Y770110D01*
X232776Y766567D02*
Y770110D01*
X226083D02*
X232776D01*
X226083Y766567D02*
X232776D01*
X94980D02*
Y770110D01*
X101673Y766567D02*
Y770110D01*
X94980D02*
X101673D01*
X94980Y766567D02*
X101673D01*
X881594Y1028772D02*
Y1032315D01*
X888287Y1028772D02*
Y1032315D01*
X881594D02*
X888287D01*
X881594Y1028772D02*
X888287D01*
X881594Y963221D02*
Y966764D01*
X888287Y963221D02*
Y966764D01*
X881594D02*
X888287D01*
X881594Y963221D02*
X888287D01*
X947146Y1028772D02*
Y1032315D01*
X953839Y1028772D02*
Y1032315D01*
X947146D02*
X953839D01*
X947146Y1028772D02*
X953839D01*
X94980Y832118D02*
Y835661D01*
X101673Y832118D02*
Y835661D01*
X94980D02*
X101673D01*
X94980Y832118D02*
X101673D01*
X750492Y1028772D02*
Y1032315D01*
X757185Y1028772D02*
Y1032315D01*
X750492D02*
X757185D01*
X750492Y1028772D02*
X757185D01*
X947146Y963221D02*
Y966764D01*
X953839Y963221D02*
Y966764D01*
X947146D02*
X953839D01*
X947146Y963221D02*
X953839D01*
X816043Y1028772D02*
Y1032315D01*
X822736Y1028772D02*
Y1032315D01*
X816043D02*
X822736D01*
X816043Y1028772D02*
X822736D01*
X291634D02*
Y1032315D01*
X298327Y1028772D02*
Y1032315D01*
X291634D02*
X298327D01*
X291634Y1028772D02*
X298327D01*
X291634Y897669D02*
Y901213D01*
X298327Y897669D02*
Y901213D01*
X291634D02*
X298327D01*
X291634Y897669D02*
X298327D01*
X684941Y635465D02*
Y639008D01*
X691634Y635465D02*
Y639008D01*
X684941D02*
X691634D01*
X684941Y635465D02*
X691634D01*
X619390D02*
Y639008D01*
X626083Y635465D02*
Y639008D01*
X619390D02*
X626083D01*
X619390Y635465D02*
X626083D01*
X553839D02*
Y639008D01*
X560532Y635465D02*
Y639008D01*
X553839D02*
X560532D01*
X553839Y635465D02*
X560532D01*
X488287D02*
Y639008D01*
X494980Y635465D02*
Y639008D01*
X488287D02*
X494980D01*
X488287Y635465D02*
X494980D01*
X291634D02*
Y639008D01*
X298327Y635465D02*
Y639008D01*
X291634D02*
X298327D01*
X291634Y635465D02*
X298327D01*
X226083D02*
Y639008D01*
X232776Y635465D02*
Y639008D01*
X226083D02*
X232776D01*
X226083Y635465D02*
X232776D01*
X357185D02*
Y639008D01*
X363878Y635465D02*
Y639008D01*
X357185D02*
X363878D01*
X357185Y635465D02*
X363878D01*
X226083Y897669D02*
Y901213D01*
X232776Y897669D02*
Y901213D01*
X226083D02*
X232776D01*
X226083Y897669D02*
X232776D01*
X553839Y701016D02*
Y704559D01*
X560532Y701016D02*
Y704559D01*
X553839D02*
X560532D01*
X553839Y701016D02*
X560532D01*
X553839Y766567D02*
Y770110D01*
X560532Y766567D02*
Y770110D01*
X553839D02*
X560532D01*
X553839Y766567D02*
X560532D01*
X553839Y832118D02*
Y835661D01*
X560532Y832118D02*
Y835661D01*
X553839D02*
X560532D01*
X553839Y832118D02*
X560532D01*
X357185Y701016D02*
Y704559D01*
X363878Y701016D02*
Y704559D01*
X357185D02*
X363878D01*
X357185Y701016D02*
X363878D01*
X488287Y766567D02*
Y770110D01*
X494980Y766567D02*
Y770110D01*
X488287D02*
X494980D01*
X488287Y766567D02*
X494980D01*
X488287Y701016D02*
Y704559D01*
X494980Y701016D02*
Y704559D01*
X488287D02*
X494980D01*
X488287Y701016D02*
X494980D01*
X422736D02*
Y704559D01*
X429429Y701016D02*
Y704559D01*
X422736D02*
X429429D01*
X422736Y701016D02*
X429429D01*
X619390Y45504D02*
Y49047D01*
X626083Y45504D02*
Y49047D01*
X619390D02*
X626083D01*
X619390Y45504D02*
X626083D01*
X684941D02*
Y49047D01*
X691634Y45504D02*
Y49047D01*
X684941D02*
X691634D01*
X684941Y45504D02*
X691634D01*
X947146Y635465D02*
Y639008D01*
X953839Y635465D02*
Y639008D01*
X947146D02*
X953839D01*
X947146Y635465D02*
X953839D01*
X750492Y45504D02*
Y49047D01*
X757185Y45504D02*
Y49047D01*
X750492D02*
X757185D01*
X750492Y45504D02*
X757185D01*
X816043D02*
Y49047D01*
X822736Y45504D02*
Y49047D01*
X816043D02*
X822736D01*
X816043Y45504D02*
X822736D01*
X881594D02*
Y49047D01*
X888287Y45504D02*
Y49047D01*
X881594D02*
X888287D01*
X881594Y45504D02*
X888287D01*
X553839D02*
Y49047D01*
X560532Y45504D02*
Y49047D01*
X553839D02*
X560532D01*
X553839Y45504D02*
X560532D01*
X947146D02*
Y49047D01*
X953839Y45504D02*
Y49047D01*
X947146D02*
X953839D01*
X947146Y45504D02*
X953839D01*
X881594Y504362D02*
Y507905D01*
X888287Y504362D02*
Y507905D01*
X881594D02*
X888287D01*
X881594Y504362D02*
X888287D01*
X947146D02*
Y507905D01*
X953839Y504362D02*
Y507905D01*
X947146D02*
X953839D01*
X947146Y504362D02*
X953839D01*
X750492Y438811D02*
Y442354D01*
X757185Y438811D02*
Y442354D01*
X750492D02*
X757185D01*
X750492Y438811D02*
X757185D01*
X947146Y569913D02*
Y573457D01*
X953839Y569913D02*
Y573457D01*
X947146D02*
X953839D01*
X947146Y569913D02*
X953839D01*
X947146Y701016D02*
Y704559D01*
X953839Y701016D02*
Y704559D01*
X947146D02*
X953839D01*
X947146Y701016D02*
X953839D01*
X947146Y766567D02*
Y770110D01*
X953839Y766567D02*
Y770110D01*
X947146D02*
X953839D01*
X947146Y766567D02*
X953839D01*
X947146Y832118D02*
Y835661D01*
X953839Y832118D02*
Y835661D01*
X947146D02*
X953839D01*
X947146Y832118D02*
X953839D01*
X947146Y897669D02*
Y901213D01*
X953839Y897669D02*
Y901213D01*
X947146D02*
X953839D01*
X947146Y897669D02*
X953839D01*
X357185Y1028772D02*
Y1032315D01*
X363878Y1028772D02*
Y1032315D01*
X357185D02*
X363878D01*
X357185Y1028772D02*
X363878D01*
X226083D02*
Y1032315D01*
X232776Y1028772D02*
Y1032315D01*
X226083D02*
X232776D01*
X226083Y1028772D02*
X232776D01*
X160531Y963221D02*
Y966764D01*
X167224Y963221D02*
Y966764D01*
X160531D02*
X167224D01*
X160531Y963221D02*
X167224D01*
X160531Y1028772D02*
Y1032315D01*
X167224Y1028772D02*
Y1032315D01*
X160531D02*
X167224D01*
X160531Y1028772D02*
X167224D01*
X94980D02*
Y1032315D01*
X101673Y1028772D02*
Y1032315D01*
X94980D02*
X101673D01*
X94980Y1028772D02*
X101673D01*
X226083Y963221D02*
Y966764D01*
X232776Y963221D02*
Y966764D01*
X226083D02*
X232776D01*
X226083Y963221D02*
X232776D01*
X29429Y1028772D02*
Y1032315D01*
X36122Y1028772D02*
Y1032315D01*
X29429D02*
X36122D01*
X29429Y1028772D02*
X36122D01*
X94980Y963221D02*
Y966764D01*
X101673Y963221D02*
Y966764D01*
X94980D02*
X101673D01*
X94980Y963221D02*
X101673D01*
X29429Y45504D02*
Y49047D01*
X36122Y45504D02*
Y49047D01*
X29429D02*
X36122D01*
X29429Y45504D02*
X36122D01*
X29429Y963221D02*
Y966764D01*
X36122Y963221D02*
Y966764D01*
X29429D02*
X36122D01*
X29429Y963221D02*
X36122D01*
X29429Y176606D02*
Y180150D01*
X36122Y176606D02*
Y180150D01*
X29429D02*
X36122D01*
X29429Y176606D02*
X36122D01*
X29429Y242158D02*
Y245701D01*
X36122Y242158D02*
Y245701D01*
X29429D02*
X36122D01*
X29429Y242158D02*
X36122D01*
X29429Y307709D02*
Y311252D01*
X36122Y307709D02*
Y311252D01*
X29429D02*
X36122D01*
X29429Y307709D02*
X36122D01*
X29429Y701016D02*
Y704559D01*
X36122Y701016D02*
Y704559D01*
X29429D02*
X36122D01*
X29429Y701016D02*
X36122D01*
X29429Y373260D02*
Y376803D01*
X36122Y373260D02*
Y376803D01*
X29429D02*
X36122D01*
X29429Y373260D02*
X36122D01*
X29429Y438811D02*
Y442354D01*
X36122Y438811D02*
Y442354D01*
X29429D02*
X36122D01*
X29429Y438811D02*
X36122D01*
X226083Y242158D02*
Y245701D01*
X232776Y242158D02*
Y245701D01*
X226083D02*
X232776D01*
X226083Y242158D02*
X232776D01*
X160531D02*
Y245701D01*
X167224Y242158D02*
Y245701D01*
X160531D02*
X167224D01*
X160531Y242158D02*
X167224D01*
X422736Y307709D02*
Y311252D01*
X429429Y307709D02*
Y311252D01*
X422736D02*
X429429D01*
X422736Y307709D02*
X429429D01*
X226083D02*
Y311252D01*
X232776Y307709D02*
Y311252D01*
X226083D02*
X232776D01*
X226083Y307709D02*
X232776D01*
X357185Y176606D02*
Y180150D01*
X363878Y176606D02*
Y180150D01*
X357185D02*
X363878D01*
X357185Y176606D02*
X363878D01*
X94980Y242158D02*
Y245701D01*
X101673Y242158D02*
Y245701D01*
X94980D02*
X101673D01*
X94980Y242158D02*
X101673D01*
X160531Y307709D02*
Y311252D01*
X167224Y307709D02*
Y311252D01*
X160531D02*
X167224D01*
X160531Y307709D02*
X167224D01*
X226083Y176606D02*
Y180150D01*
X232776Y176606D02*
Y180150D01*
X226083D02*
X232776D01*
X226083Y176606D02*
X232776D01*
X94980Y111055D02*
Y114598D01*
X101673Y111055D02*
Y114598D01*
X94980D02*
X101673D01*
X94980Y111055D02*
X101673D01*
X488287Y242158D02*
Y245701D01*
X494980Y242158D02*
Y245701D01*
X488287D02*
X494980D01*
X488287Y242158D02*
X494980D01*
X226083Y111055D02*
Y114598D01*
X232776Y111055D02*
Y114598D01*
X226083D02*
X232776D01*
X226083Y111055D02*
X232776D01*
X553839Y373260D02*
Y376803D01*
X560532Y373260D02*
Y376803D01*
X553839D02*
X560532D01*
X553839Y373260D02*
X560532D01*
X488287D02*
Y376803D01*
X494980Y373260D02*
Y376803D01*
X488287D02*
X494980D01*
X488287Y373260D02*
X494980D01*
X488287Y307709D02*
Y311252D01*
X494980Y307709D02*
Y311252D01*
X488287D02*
X494980D01*
X488287Y307709D02*
X494980D01*
X422736Y373260D02*
Y376803D01*
X429429Y373260D02*
Y376803D01*
X422736D02*
X429429D01*
X422736Y373260D02*
X429429D01*
X422736Y242158D02*
Y245701D01*
X429429Y242158D02*
Y245701D01*
X422736D02*
X429429D01*
X422736Y242158D02*
X429429D01*
X750492Y111055D02*
Y114598D01*
X757185Y111055D02*
Y114598D01*
X750492D02*
X757185D01*
X750492Y111055D02*
X757185D01*
X816043Y176606D02*
Y180150D01*
X822736Y176606D02*
Y180150D01*
X816043D02*
X822736D01*
X816043Y176606D02*
X822736D01*
X553839Y307709D02*
Y311252D01*
X560532Y307709D02*
Y311252D01*
X553839D02*
X560532D01*
X553839Y307709D02*
X560532D01*
X816043Y111055D02*
Y114598D01*
X822736Y111055D02*
Y114598D01*
X816043D02*
X822736D01*
X816043Y111055D02*
X822736D01*
X881594D02*
Y114598D01*
X888287Y111055D02*
Y114598D01*
X881594D02*
X888287D01*
X881594Y111055D02*
X888287D01*
X947146D02*
Y114598D01*
X953839Y111055D02*
Y114598D01*
X947146D02*
X953839D01*
X947146Y111055D02*
X953839D01*
X947146Y176606D02*
Y180150D01*
X953839Y176606D02*
Y180150D01*
X947146D02*
X953839D01*
X947146Y176606D02*
X953839D01*
X947146Y242158D02*
Y245701D01*
X953839Y242158D02*
Y245701D01*
X947146D02*
X953839D01*
X947146Y242158D02*
X953839D01*
X619390Y111055D02*
Y114598D01*
X626083Y111055D02*
Y114598D01*
X619390D02*
X626083D01*
X619390Y111055D02*
X626083D01*
X881594Y307709D02*
Y311252D01*
X888287Y307709D02*
Y311252D01*
X881594D02*
X888287D01*
X881594Y307709D02*
X888287D01*
X684941Y897669D02*
Y901213D01*
X691634Y897669D02*
Y901213D01*
X684941D02*
X691634D01*
X684941Y897669D02*
X691634D01*
X619390Y176606D02*
Y180150D01*
X626083Y176606D02*
Y180150D01*
X619390D02*
X626083D01*
X619390Y176606D02*
X626083D01*
X619390Y242158D02*
Y245701D01*
X626083Y242158D02*
Y245701D01*
X619390D02*
X626083D01*
X619390Y242158D02*
X626083D01*
X750492Y176606D02*
Y180150D01*
X757185Y176606D02*
Y180150D01*
X750492D02*
X757185D01*
X750492Y176606D02*
X757185D01*
X750492Y242158D02*
Y245701D01*
X757185Y242158D02*
Y245701D01*
X750492D02*
X757185D01*
X750492Y242158D02*
X757185D01*
X750492Y897669D02*
Y901213D01*
X757185Y897669D02*
Y901213D01*
X750492D02*
X757185D01*
X750492Y897669D02*
X757185D01*
X422736Y569913D02*
Y573457D01*
X429429Y569913D02*
Y573457D01*
X422736D02*
X429429D01*
X422736Y569913D02*
X429429D01*
X357185D02*
Y573457D01*
X363878Y569913D02*
Y573457D01*
X357185D02*
X363878D01*
X357185Y569913D02*
X363878D01*
X291634D02*
Y573457D01*
X298327Y569913D02*
Y573457D01*
X291634D02*
X298327D01*
X291634Y569913D02*
X298327D01*
X226083D02*
Y573457D01*
X232776Y569913D02*
Y573457D01*
X226083D02*
X232776D01*
X226083Y569913D02*
X232776D01*
X94980Y635465D02*
Y639008D01*
X101673Y635465D02*
Y639008D01*
X94980D02*
X101673D01*
X94980Y635465D02*
X101673D01*
X750492Y701016D02*
Y704559D01*
X757185Y701016D02*
Y704559D01*
X750492D02*
X757185D01*
X750492Y701016D02*
X757185D01*
X750492Y766567D02*
Y770110D01*
X757185Y766567D02*
Y770110D01*
X750492D02*
X757185D01*
X750492Y766567D02*
X757185D01*
X816043Y832118D02*
Y835661D01*
X822736Y832118D02*
Y835661D01*
X816043D02*
X822736D01*
X816043Y832118D02*
X822736D01*
X422736Y635465D02*
Y639008D01*
X429429Y635465D02*
Y639008D01*
X422736D02*
X429429D01*
X422736Y635465D02*
X429429D01*
X160531D02*
Y639008D01*
X167224Y635465D02*
Y639008D01*
X160531D02*
X167224D01*
X160531Y635465D02*
X167224D01*
X684941Y701016D02*
Y704559D01*
X691634Y701016D02*
Y704559D01*
X684941D02*
X691634D01*
X684941Y701016D02*
X691634D01*
X684941Y766567D02*
Y770110D01*
X691634Y766567D02*
Y770110D01*
X684941D02*
X691634D01*
X684941Y766567D02*
X691634D01*
X684941Y832118D02*
Y835661D01*
X691634Y832118D02*
Y835661D01*
X684941D02*
X691634D01*
X684941Y832118D02*
X691634D01*
X619390Y701016D02*
Y704559D01*
X626083Y701016D02*
Y704559D01*
X619390D02*
X626083D01*
X619390Y701016D02*
X626083D01*
X619390Y766567D02*
Y770110D01*
X626083Y766567D02*
Y770110D01*
X619390D02*
X626083D01*
X619390Y766567D02*
X626083D01*
X619390Y832118D02*
Y835661D01*
X626083Y832118D02*
Y835661D01*
X619390D02*
X626083D01*
X619390Y832118D02*
X626083D01*
X1012697Y635465D02*
Y639008D01*
X1019390Y635465D02*
Y639008D01*
X1012697D02*
X1019390D01*
X1012697Y635465D02*
X1019390D01*
X488287Y897669D02*
Y901213D01*
X494980Y897669D02*
Y901213D01*
X488287D02*
X494980D01*
X488287Y897669D02*
X494980D01*
X1012697Y701016D02*
Y704559D01*
X1019390Y701016D02*
Y704559D01*
X1012697D02*
X1019390D01*
X1012697Y701016D02*
X1019390D01*
X1012697Y766567D02*
Y770110D01*
X1019390Y766567D02*
Y770110D01*
X1012697D02*
X1019390D01*
X1012697Y766567D02*
X1019390D01*
X1012697Y832118D02*
Y835661D01*
X1019390Y832118D02*
Y835661D01*
X1012697D02*
X1019390D01*
X1012697Y832118D02*
X1019390D01*
X1012697Y897669D02*
Y901213D01*
X1019390Y897669D02*
Y901213D01*
X1012697D02*
X1019390D01*
X1012697Y897669D02*
X1019390D01*
X1012697Y963221D02*
Y966764D01*
X1019390Y963221D02*
Y966764D01*
X1012697D02*
X1019390D01*
X1012697Y963221D02*
X1019390D01*
X1012697Y1028772D02*
Y1032315D01*
X1019390Y1028772D02*
Y1032315D01*
X1012697D02*
X1019390D01*
X1012697Y1028772D02*
X1019390D01*
X881594Y766567D02*
Y770110D01*
X888287Y766567D02*
Y770110D01*
X881594D02*
X888287D01*
X881594Y766567D02*
X888287D01*
X881594Y832118D02*
Y835661D01*
X888287Y832118D02*
Y835661D01*
X881594D02*
X888287D01*
X881594Y832118D02*
X888287D01*
X816043Y569913D02*
Y573457D01*
X822736Y569913D02*
Y573457D01*
X816043D02*
X822736D01*
X816043Y569913D02*
X822736D01*
X816043Y635465D02*
Y639008D01*
X822736Y635465D02*
Y639008D01*
X816043D02*
X822736D01*
X816043Y635465D02*
X822736D01*
X816043Y701016D02*
Y704559D01*
X822736Y701016D02*
Y704559D01*
X816043D02*
X822736D01*
X816043Y701016D02*
X822736D01*
X816043Y766567D02*
Y770110D01*
X822736Y766567D02*
Y770110D01*
X816043D02*
X822736D01*
X816043Y766567D02*
X822736D01*
X881594Y569913D02*
Y573457D01*
X888287Y569913D02*
Y573457D01*
X881594D02*
X888287D01*
X881594Y569913D02*
X888287D01*
X881594Y701016D02*
Y704559D01*
X888287Y701016D02*
Y704559D01*
X881594D02*
X888287D01*
X881594Y701016D02*
X888287D01*
X619390Y1028772D02*
Y1032315D01*
X626083Y1028772D02*
Y1032315D01*
X619390D02*
X626083D01*
X619390Y1028772D02*
X626083D01*
X684941D02*
Y1032315D01*
X691634Y1028772D02*
Y1032315D01*
X684941D02*
X691634D01*
X684941Y1028772D02*
X691634D01*
X553839D02*
Y1032315D01*
X560532Y1028772D02*
Y1032315D01*
X553839D02*
X560532D01*
X553839Y1028772D02*
X560532D01*
X488287D02*
Y1032315D01*
X494980Y1028772D02*
Y1032315D01*
X488287D02*
X494980D01*
X488287Y1028772D02*
X494980D01*
X422736D02*
Y1032315D01*
X429429Y1028772D02*
Y1032315D01*
X422736D02*
X429429D01*
X422736Y1028772D02*
X429429D01*
X357185Y963221D02*
Y966764D01*
X363878Y963221D02*
Y966764D01*
X357185D02*
X363878D01*
X357185Y963221D02*
X363878D01*
X94980Y897669D02*
Y901213D01*
X101673Y897669D02*
Y901213D01*
X94980D02*
X101673D01*
X94980Y897669D02*
X101673D01*
X291634Y963221D02*
Y966764D01*
X298327Y963221D02*
Y966764D01*
X291634D02*
X298327D01*
X291634Y963221D02*
X298327D01*
X29429Y504362D02*
Y507905D01*
X36122Y504362D02*
Y507905D01*
X29429D02*
X36122D01*
X29429Y504362D02*
X36122D01*
X29429Y635465D02*
Y639008D01*
X36122Y635465D02*
Y639008D01*
X29429D02*
X36122D01*
X29429Y635465D02*
X36122D01*
X29429Y569913D02*
Y573457D01*
X36122Y569913D02*
Y573457D01*
X29429D02*
X36122D01*
X29429Y569913D02*
X36122D01*
X881594Y373260D02*
Y376803D01*
X888287Y373260D02*
Y376803D01*
X881594D02*
X888287D01*
X881594Y373260D02*
X888287D01*
X684941D02*
Y376803D01*
X691634Y373260D02*
Y376803D01*
X684941D02*
X691634D01*
X684941Y373260D02*
X691634D01*
X750492D02*
Y376803D01*
X757185Y373260D02*
Y376803D01*
X750492D02*
X757185D01*
X750492Y373260D02*
X757185D01*
X619390D02*
Y376803D01*
X626083Y373260D02*
Y376803D01*
X619390D02*
X626083D01*
X619390Y373260D02*
X626083D01*
X160531Y504362D02*
Y507905D01*
X167224Y504362D02*
Y507905D01*
X160531D02*
X167224D01*
X160531Y504362D02*
X167224D01*
X422736Y766567D02*
Y770110D01*
X429429Y766567D02*
Y770110D01*
X422736D02*
X429429D01*
X422736Y766567D02*
X429429D01*
X357185D02*
Y770110D01*
X363878Y766567D02*
Y770110D01*
X357185D02*
X363878D01*
X357185Y766567D02*
X363878D01*
X488287Y832118D02*
Y835661D01*
X494980Y832118D02*
Y835661D01*
X488287D02*
X494980D01*
X488287Y832118D02*
X494980D01*
X422736D02*
Y835661D01*
X429429Y832118D02*
Y835661D01*
X422736D02*
X429429D01*
X422736Y832118D02*
X429429D01*
X357185D02*
Y835661D01*
X363878Y832118D02*
Y835661D01*
X357185D02*
X363878D01*
X357185Y832118D02*
X363878D01*
X291634Y701016D02*
Y704559D01*
X298327Y701016D02*
Y704559D01*
X291634D02*
X298327D01*
X291634Y701016D02*
X298327D01*
X291634Y832118D02*
Y835661D01*
X298327Y832118D02*
Y835661D01*
X291634D02*
X298327D01*
X291634Y832118D02*
X298327D01*
X226083D02*
Y835661D01*
X232776Y832118D02*
Y835661D01*
X226083D02*
X232776D01*
X226083Y832118D02*
X232776D01*
X160531Y766567D02*
Y770110D01*
X167224Y766567D02*
Y770110D01*
X160531D02*
X167224D01*
X160531Y766567D02*
X167224D01*
X160531Y832118D02*
Y835661D01*
X167224Y832118D02*
Y835661D01*
X160531D02*
X167224D01*
X160531Y832118D02*
X167224D01*
X816043Y963221D02*
Y966764D01*
X822736Y963221D02*
Y966764D01*
X816043D02*
X822736D01*
X816043Y963221D02*
X822736D01*
X750492D02*
Y966764D01*
X757185Y963221D02*
Y966764D01*
X750492D02*
X757185D01*
X750492Y963221D02*
X757185D01*
X684941D02*
Y966764D01*
X691634Y963221D02*
Y966764D01*
X684941D02*
X691634D01*
X684941Y963221D02*
X691634D01*
X619390D02*
Y966764D01*
X626083Y963221D02*
Y966764D01*
X619390D02*
X626083D01*
X619390Y963221D02*
X626083D01*
X553839D02*
Y966764D01*
X560532Y963221D02*
Y966764D01*
X553839D02*
X560532D01*
X553839Y963221D02*
X560532D01*
X488287D02*
Y966764D01*
X494980Y963221D02*
Y966764D01*
X488287D02*
X494980D01*
X488287Y963221D02*
X494980D01*
X816043Y504362D02*
Y507905D01*
X822736Y504362D02*
Y507905D01*
X816043D02*
X822736D01*
X816043Y504362D02*
X822736D01*
X816043Y438811D02*
Y442354D01*
X822736Y438811D02*
Y442354D01*
X816043D02*
X822736D01*
X816043Y438811D02*
X822736D01*
X947146Y307709D02*
Y311252D01*
X953839Y307709D02*
Y311252D01*
X947146D02*
X953839D01*
X947146Y307709D02*
X953839D01*
X881594Y438811D02*
Y442354D01*
X888287Y438811D02*
Y442354D01*
X881594D02*
X888287D01*
X881594Y438811D02*
X888287D01*
X947146D02*
Y442354D01*
X953839Y438811D02*
Y442354D01*
X947146D02*
X953839D01*
X947146Y438811D02*
X953839D01*
X619390Y504362D02*
Y507905D01*
X626083Y504362D02*
Y507905D01*
X619390D02*
X626083D01*
X619390Y504362D02*
X626083D01*
X684941D02*
Y507905D01*
X691634Y504362D02*
Y507905D01*
X684941D02*
X691634D01*
X684941Y504362D02*
X691634D01*
X750492D02*
Y507905D01*
X757185Y504362D02*
Y507905D01*
X750492D02*
X757185D01*
X750492Y504362D02*
X757185D01*
X947146Y373260D02*
Y376803D01*
X953839Y373260D02*
Y376803D01*
X947146D02*
X953839D01*
X947146Y373260D02*
X953839D01*
X816043D02*
Y376803D01*
X822736Y373260D02*
Y376803D01*
X816043D02*
X822736D01*
X816043Y373260D02*
X822736D01*
X881594Y176606D02*
Y180150D01*
X888287Y176606D02*
Y180150D01*
X881594D02*
X888287D01*
X881594Y176606D02*
X888287D01*
X553839D02*
Y180150D01*
X560532Y176606D02*
Y180150D01*
X553839D02*
X560532D01*
X553839Y176606D02*
X560532D01*
X684941Y438811D02*
Y442354D01*
X691634Y438811D02*
Y442354D01*
X684941D02*
X691634D01*
X684941Y438811D02*
X691634D01*
X816043Y897669D02*
Y901213D01*
X822736Y897669D02*
Y901213D01*
X816043D02*
X822736D01*
X816043Y897669D02*
X822736D01*
X881594Y242158D02*
Y245701D01*
X888287Y242158D02*
Y245701D01*
X881594D02*
X888287D01*
X881594Y242158D02*
X888287D01*
X816043D02*
Y245701D01*
X822736Y242158D02*
Y245701D01*
X816043D02*
X822736D01*
X816043Y242158D02*
X822736D01*
X29429Y111055D02*
Y114598D01*
X36122Y111055D02*
Y114598D01*
X29429D02*
X36122D01*
X29429Y111055D02*
X36122D01*
X29429Y766567D02*
Y770110D01*
X36122Y766567D02*
Y770110D01*
X29429D02*
X36122D01*
X29429Y766567D02*
X36122D01*
X29429Y832118D02*
Y835661D01*
X36122Y832118D02*
Y835661D01*
X29429D02*
X36122D01*
X29429Y832118D02*
X36122D01*
X29429Y897669D02*
Y901213D01*
X36122Y897669D02*
Y901213D01*
X29429D02*
X36122D01*
X29429Y897669D02*
X36122D01*
X94980Y569913D02*
Y573457D01*
X101673Y569913D02*
Y573457D01*
X94980D02*
X101673D01*
X94980Y569913D02*
X101673D01*
X160531D02*
Y573457D01*
X167224Y569913D02*
Y573457D01*
X160531D02*
X167224D01*
X160531Y569913D02*
X167224D01*
X94980Y504362D02*
Y507905D01*
X101673Y504362D02*
Y507905D01*
X94980D02*
X101673D01*
X94980Y504362D02*
X101673D01*
X94980Y438811D02*
Y442354D01*
X101673Y438811D02*
Y442354D01*
X94980D02*
X101673D01*
X94980Y438811D02*
X101673D01*
X488287Y45504D02*
Y49047D01*
X494980Y45504D02*
Y49047D01*
X488287D02*
X494980D01*
X488287Y45504D02*
X494980D01*
X94980D02*
Y49047D01*
X101673Y45504D02*
Y49047D01*
X94980D02*
X101673D01*
X94980Y45504D02*
X101673D01*
X881594Y897669D02*
Y901213D01*
X888287Y897669D02*
Y901213D01*
X881594D02*
X888287D01*
X881594Y897669D02*
X888287D01*
X160531Y45504D02*
Y49047D01*
X167224Y45504D02*
Y49047D01*
X160531D02*
X167224D01*
X160531Y45504D02*
X167224D01*
X226083D02*
Y49047D01*
X232776Y45504D02*
Y49047D01*
X226083D02*
X232776D01*
X226083Y45504D02*
X232776D01*
X291634D02*
Y49047D01*
X298327Y45504D02*
Y49047D01*
X291634D02*
X298327D01*
X291634Y45504D02*
X298327D01*
X357185D02*
Y49047D01*
X363878Y45504D02*
Y49047D01*
X357185D02*
X363878D01*
X357185Y45504D02*
X363878D01*
X422736D02*
Y49047D01*
X429429Y45504D02*
Y49047D01*
X422736D02*
X429429D01*
X422736Y45504D02*
X429429D01*
X160531Y111055D02*
Y114598D01*
X167224Y111055D02*
Y114598D01*
X160531D02*
X167224D01*
X160531Y111055D02*
X167224D01*
X488287Y176606D02*
Y180150D01*
X494980Y176606D02*
Y180150D01*
X488287D02*
X494980D01*
X488287Y176606D02*
X494980D01*
X422736D02*
Y180150D01*
X429429Y176606D02*
Y180150D01*
X422736D02*
X429429D01*
X422736Y176606D02*
X429429D01*
X291634Y111055D02*
Y114598D01*
X298327Y111055D02*
Y114598D01*
X291634D02*
X298327D01*
X291634Y111055D02*
X298327D01*
X488287D02*
Y114598D01*
X494980Y111055D02*
Y114598D01*
X488287D02*
X494980D01*
X488287Y111055D02*
X494980D01*
X422736D02*
Y114598D01*
X429429Y111055D02*
Y114598D01*
X422736D02*
X429429D01*
X422736Y111055D02*
X429429D01*
X357185D02*
Y114598D01*
X363878Y111055D02*
Y114598D01*
X357185D02*
X363878D01*
X357185Y111055D02*
X363878D01*
X619390Y897669D02*
Y901213D01*
X626083Y897669D02*
Y901213D01*
X619390D02*
X626083D01*
X619390Y897669D02*
X626083D01*
X553839Y111055D02*
Y114598D01*
X560532Y111055D02*
Y114598D01*
X553839D02*
X560532D01*
X553839Y111055D02*
X560532D01*
X553839Y438811D02*
Y442354D01*
X560532Y438811D02*
Y442354D01*
X553839D02*
X560532D01*
X553839Y438811D02*
X560532D01*
X619390D02*
Y442354D01*
X626083Y438811D02*
Y442354D01*
X619390D02*
X626083D01*
X619390Y438811D02*
X626083D01*
X291634Y373260D02*
Y376803D01*
X298327Y373260D02*
Y376803D01*
X291634D02*
X298327D01*
X291634Y373260D02*
X298327D01*
X291634Y438811D02*
Y442354D01*
X298327Y438811D02*
Y442354D01*
X291634D02*
X298327D01*
X291634Y438811D02*
X298327D01*
X226083Y373260D02*
Y376803D01*
X232776Y373260D02*
Y376803D01*
X226083D02*
X232776D01*
X226083Y373260D02*
X232776D01*
X226083Y438811D02*
Y442354D01*
X232776Y438811D02*
Y442354D01*
X226083D02*
X232776D01*
X226083Y438811D02*
X232776D01*
X160531D02*
Y442354D01*
X167224Y438811D02*
Y442354D01*
X160531D02*
X167224D01*
X160531Y438811D02*
X167224D01*
X684941Y111055D02*
Y114598D01*
X691634Y111055D02*
Y114598D01*
X684941D02*
X691634D01*
X684941Y111055D02*
X691634D01*
X684941Y176606D02*
Y180150D01*
X691634Y176606D02*
Y180150D01*
X684941D02*
X691634D01*
X684941Y176606D02*
X691634D01*
X160531D02*
Y180150D01*
X167224Y176606D02*
Y180150D01*
X160531D02*
X167224D01*
X160531Y176606D02*
X167224D01*
X684941Y242158D02*
Y245701D01*
X691634Y242158D02*
Y245701D01*
X684941D02*
X691634D01*
X684941Y242158D02*
X691634D01*
X684941Y307709D02*
Y311252D01*
X691634Y307709D02*
Y311252D01*
X684941D02*
X691634D01*
X684941Y307709D02*
X691634D01*
X619390D02*
Y311252D01*
X626083Y307709D02*
Y311252D01*
X619390D02*
X626083D01*
X619390Y307709D02*
X626083D01*
X553839Y242158D02*
Y245701D01*
X560532Y242158D02*
Y245701D01*
X553839D02*
X560532D01*
X553839Y242158D02*
X560532D01*
X750492Y307709D02*
Y311252D01*
X757185Y307709D02*
Y311252D01*
X750492D02*
X757185D01*
X750492Y307709D02*
X757185D01*
X357185Y242158D02*
Y245701D01*
X363878Y242158D02*
Y245701D01*
X357185D02*
X363878D01*
X357185Y242158D02*
X363878D01*
X94980Y176606D02*
Y180150D01*
X101673Y176606D02*
Y180150D01*
X94980D02*
X101673D01*
X94980Y176606D02*
X101673D01*
X357185Y307709D02*
Y311252D01*
X363878Y307709D02*
Y311252D01*
X357185D02*
X363878D01*
X357185Y307709D02*
X363878D01*
X291634Y242158D02*
Y245701D01*
X298327Y242158D02*
Y245701D01*
X291634D02*
X298327D01*
X291634Y242158D02*
X298327D01*
X291634Y176606D02*
Y180150D01*
X298327Y176606D02*
Y180150D01*
X291634D02*
X298327D01*
X291634Y176606D02*
X298327D01*
X291634Y307709D02*
Y311252D01*
X298327Y307709D02*
Y311252D01*
X291634D02*
X298327D01*
X291634Y307709D02*
X298327D01*
X94980D02*
Y311252D01*
X101673Y307709D02*
Y311252D01*
X94980D02*
X101673D01*
X94980Y307709D02*
X101673D01*
X816043D02*
Y311252D01*
X822736Y307709D02*
Y311252D01*
X816043D02*
X822736D01*
X816043Y307709D02*
X822736D01*
X678445Y1006201D02*
Y1025886D01*
X698130D01*
X678445Y1006201D02*
X698130D01*
Y1025886D01*
X547343Y1006201D02*
Y1025886D01*
X567028D01*
X547343Y1006201D02*
X567028D01*
Y1025886D01*
X612894Y1006201D02*
Y1025886D01*
X632579D01*
X612894Y1006201D02*
X632579D01*
Y1025886D01*
X678445Y940650D02*
Y960335D01*
X698130D01*
X678445Y940650D02*
X698130D01*
Y960335D01*
X612894Y940650D02*
Y960335D01*
X632579D01*
X612894Y940650D02*
X632579D01*
Y960335D01*
X547343Y940650D02*
Y960335D01*
X567028D01*
X547343Y940650D02*
X567028D01*
Y960335D01*
X1006201Y940650D02*
Y960335D01*
X1025886D01*
X1006201Y940650D02*
X1025886D01*
Y960335D01*
X940650Y940650D02*
Y960335D01*
X960335D01*
X940650Y940650D02*
X960335D01*
Y960335D01*
X1006201Y1006201D02*
Y1025886D01*
X1025886D01*
X1006201Y1006201D02*
X1025886D01*
Y1025886D01*
X940650Y1006201D02*
Y1025886D01*
X960335D01*
X940650Y1006201D02*
X960335D01*
Y1025886D01*
X875098Y940650D02*
Y960335D01*
X894783D01*
X875098Y940650D02*
X894783D01*
Y960335D01*
X809547Y940650D02*
Y960335D01*
X829232D01*
X809547Y940650D02*
X829232D01*
Y960335D01*
X743996Y940650D02*
Y960335D01*
X763681D01*
X743996Y940650D02*
X763681D01*
Y960335D01*
X743996Y1006201D02*
Y1025886D01*
X763681D01*
X743996Y1006201D02*
X763681D01*
Y1025886D01*
X875098Y1006201D02*
Y1025886D01*
X894783D01*
X875098Y1006201D02*
X894783D01*
Y1025886D01*
X809547Y1006201D02*
Y1025886D01*
X829232D01*
X809547Y1006201D02*
X829232D01*
Y1025886D01*
X22933Y1006201D02*
Y1025886D01*
X42618D01*
X22933Y1006201D02*
X42618D01*
Y1025886D01*
X22933Y940650D02*
Y960335D01*
X42618D01*
X22933Y940650D02*
X42618D01*
Y960335D01*
X154035Y1006201D02*
Y1025886D01*
X173720D01*
X154035Y1006201D02*
X173720D01*
Y1025886D01*
X219586Y1006201D02*
Y1025886D01*
X239272D01*
X219586Y1006201D02*
X239272D01*
Y1025886D01*
X285138Y1006201D02*
Y1025886D01*
X304823D01*
X285138Y1006201D02*
X304823D01*
Y1025886D01*
X416240Y1006201D02*
Y1025886D01*
X435925D01*
X416240Y1006201D02*
X435925D01*
Y1025886D01*
X481791Y1006201D02*
Y1025886D01*
X501476D01*
X481791Y1006201D02*
X501476D01*
Y1025886D01*
X350689Y1006201D02*
Y1025886D01*
X370374D01*
X350689Y1006201D02*
X370374D01*
Y1025886D01*
X481791Y940650D02*
Y960335D01*
X501476D01*
X481791Y940650D02*
X501476D01*
Y960335D01*
X416240Y940650D02*
Y960335D01*
X435925D01*
X416240Y940650D02*
X435925D01*
Y960335D01*
X350689Y940650D02*
Y960335D01*
X370374D01*
X350689Y940650D02*
X370374D01*
Y960335D01*
X285138Y940650D02*
Y960335D01*
X304823D01*
X285138Y940650D02*
X304823D01*
Y960335D01*
X219586Y940650D02*
Y960335D01*
X239272D01*
X219586Y940650D02*
X239272D01*
Y960335D01*
X154035Y940650D02*
Y960335D01*
X173720D01*
X154035Y940650D02*
X173720D01*
Y960335D01*
X88484Y1006201D02*
Y1025886D01*
X108169D01*
X88484Y1006201D02*
X108169D01*
Y1025886D01*
X88484Y940650D02*
Y960335D01*
X108169D01*
X88484Y940650D02*
X108169D01*
Y960335D01*
X416240Y875099D02*
Y894783D01*
X435925D01*
X416240Y875099D02*
X435925D01*
Y894783D01*
X350689Y875099D02*
Y894783D01*
X370374D01*
X350689Y875099D02*
X370374D01*
Y894783D01*
X940650Y875099D02*
Y894783D01*
X960335D01*
X940650Y875099D02*
X960335D01*
Y894783D01*
X875098Y875099D02*
Y894783D01*
X894783D01*
X875098Y875099D02*
X894783D01*
Y894783D01*
X285138Y875099D02*
Y894783D01*
X304823D01*
X285138Y875099D02*
X304823D01*
Y894783D01*
X219586Y875099D02*
Y894783D01*
X239272D01*
X219586Y875099D02*
X239272D01*
Y894783D01*
X88484Y875099D02*
Y894783D01*
X108169D01*
X88484Y875099D02*
X108169D01*
Y894783D01*
X154035Y875099D02*
Y894783D01*
X173720D01*
X154035Y875099D02*
X173720D01*
Y894783D01*
X678445Y875099D02*
Y894783D01*
X698130D01*
X678445Y875099D02*
X698130D01*
Y894783D01*
X612894Y875099D02*
Y894783D01*
X632579D01*
X612894Y875099D02*
X632579D01*
Y894783D01*
X809547Y875099D02*
Y894783D01*
X829232D01*
X809547Y875099D02*
X829232D01*
Y894783D01*
X743996Y875099D02*
Y894783D01*
X763681D01*
X743996Y875099D02*
X763681D01*
Y894783D01*
X481791Y875099D02*
Y894783D01*
X501476D01*
X481791Y875099D02*
X501476D01*
Y894783D01*
X547343Y875099D02*
Y894783D01*
X567028D01*
X547343Y875099D02*
X567028D01*
Y894783D01*
X22933Y875099D02*
Y894783D01*
X42618D01*
X22933Y875099D02*
X42618D01*
Y894783D01*
X1006201Y875099D02*
Y894783D01*
X1025886D01*
X1006201Y875099D02*
X1025886D01*
Y894783D01*
X22933Y154035D02*
Y173721D01*
X42618D01*
X22933Y154035D02*
X42618D01*
Y173721D01*
X154035Y154035D02*
Y173721D01*
X173720D01*
X154035Y154035D02*
X173720D01*
Y173721D01*
X285138Y154035D02*
Y173721D01*
X304823D01*
X285138Y154035D02*
X304823D01*
Y173721D01*
X350689Y154035D02*
Y173721D01*
X370374D01*
X350689Y154035D02*
X370374D01*
Y173721D01*
X219586Y154035D02*
Y173721D01*
X239272D01*
X219586Y154035D02*
X239272D01*
Y173721D01*
X88484Y154035D02*
Y173721D01*
X108169D01*
X88484Y154035D02*
X108169D01*
Y173721D01*
X547343Y350689D02*
Y370374D01*
X567028D01*
X547343Y350689D02*
X567028D01*
Y370374D01*
X612894Y350689D02*
Y370374D01*
X632579D01*
X612894Y350689D02*
X632579D01*
Y370374D01*
X481791Y350689D02*
Y370374D01*
X501476D01*
X481791Y350689D02*
X501476D01*
Y370374D01*
X809547Y88484D02*
Y108169D01*
X829232D01*
X809547Y88484D02*
X829232D01*
Y108169D01*
X678445Y88484D02*
Y108169D01*
X698130D01*
X678445Y88484D02*
X698130D01*
Y108169D01*
X743996Y88484D02*
Y108169D01*
X763681D01*
X743996Y88484D02*
X763681D01*
Y108169D01*
X612894Y88484D02*
Y108169D01*
X632579D01*
X612894Y88484D02*
X632579D01*
Y108169D01*
X678445Y350689D02*
Y370374D01*
X698130D01*
X678445Y350689D02*
X698130D01*
Y370374D01*
X743996Y350689D02*
Y370374D01*
X763681D01*
X743996Y350689D02*
X763681D01*
Y370374D01*
X809547Y350689D02*
Y370374D01*
X829232D01*
X809547Y350689D02*
X829232D01*
Y370374D01*
X743996Y416240D02*
Y435925D01*
X763681D01*
X743996Y416240D02*
X763681D01*
Y435925D01*
X547343Y416240D02*
Y435925D01*
X567028D01*
X547343Y416240D02*
X567028D01*
Y435925D01*
X481791Y416240D02*
Y435925D01*
X501476D01*
X481791Y416240D02*
X501476D01*
Y435925D01*
X612894Y416240D02*
Y435925D01*
X632579D01*
X612894Y416240D02*
X632579D01*
Y435925D01*
X678445Y416240D02*
Y435925D01*
X698130D01*
X678445Y416240D02*
X698130D01*
Y435925D01*
X809547Y416240D02*
Y435925D01*
X829232D01*
X809547Y416240D02*
X829232D01*
Y435925D01*
X547343Y88484D02*
Y108169D01*
X567028D01*
X547343Y88484D02*
X567028D01*
Y108169D01*
X547343Y481791D02*
Y501476D01*
X567028D01*
X547343Y481791D02*
X567028D01*
Y501476D01*
X481791Y481791D02*
Y501476D01*
X501476D01*
X481791Y481791D02*
X501476D01*
Y501476D01*
X481791Y612894D02*
Y632579D01*
X501476D01*
X481791Y612894D02*
X501476D01*
Y632579D01*
X547343Y612894D02*
Y632579D01*
X567028D01*
X547343Y612894D02*
X567028D01*
Y632579D01*
X612894Y612894D02*
Y632579D01*
X632579D01*
X612894Y612894D02*
X632579D01*
Y632579D01*
X743996Y481791D02*
Y501476D01*
X763681D01*
X743996Y481791D02*
X763681D01*
Y501476D01*
X678445Y481791D02*
Y501476D01*
X698130D01*
X678445Y481791D02*
X698130D01*
Y501476D01*
X612894Y481791D02*
Y501476D01*
X632579D01*
X612894Y481791D02*
X632579D01*
Y501476D01*
X743996Y612894D02*
Y632579D01*
X763681D01*
X743996Y612894D02*
X763681D01*
Y632579D01*
X678445Y612894D02*
Y632579D01*
X698130D01*
X678445Y612894D02*
X698130D01*
Y632579D01*
X809547Y612894D02*
Y632579D01*
X829232D01*
X809547Y612894D02*
X829232D01*
Y632579D01*
X743996Y547342D02*
Y567028D01*
X763681D01*
X743996Y547342D02*
X763681D01*
Y567028D01*
X809547Y547342D02*
Y567028D01*
X829232D01*
X809547Y547342D02*
X829232D01*
Y567028D01*
X547343Y547342D02*
Y567028D01*
X567028D01*
X547343Y547342D02*
X567028D01*
Y567028D01*
X678445Y547342D02*
Y567028D01*
X698130D01*
X678445Y547342D02*
X698130D01*
Y567028D01*
X612894Y547342D02*
Y567028D01*
X632579D01*
X612894Y547342D02*
X632579D01*
Y567028D01*
X481791Y547342D02*
Y567028D01*
X501476D01*
X481791Y547342D02*
X501476D01*
Y567028D01*
X743996Y285138D02*
Y304823D01*
X763681D01*
X743996Y285138D02*
X763681D01*
Y304823D01*
X809547Y285138D02*
Y304823D01*
X829232D01*
X809547Y285138D02*
X829232D01*
Y304823D01*
X678445Y285138D02*
Y304823D01*
X698130D01*
X678445Y285138D02*
X698130D01*
Y304823D01*
X612894Y285138D02*
Y304823D01*
X632579D01*
X612894Y285138D02*
X632579D01*
Y304823D01*
X1006201Y285138D02*
Y304823D01*
X1025886D01*
X1006201Y285138D02*
X1025886D01*
Y304823D01*
X547343Y285138D02*
Y304823D01*
X567028D01*
X547343Y285138D02*
X567028D01*
Y304823D01*
X940650Y285138D02*
Y304823D01*
X960335D01*
X940650Y285138D02*
X960335D01*
Y304823D01*
X875098Y285138D02*
Y304823D01*
X894783D01*
X875098Y285138D02*
X894783D01*
Y304823D01*
X481791Y285138D02*
Y304823D01*
X501476D01*
X481791Y285138D02*
X501476D01*
Y304823D01*
X416240Y285138D02*
Y304823D01*
X435925D01*
X416240Y285138D02*
X435925D01*
Y304823D01*
X350689Y285138D02*
Y304823D01*
X370374D01*
X350689Y285138D02*
X370374D01*
Y304823D01*
X22933Y285138D02*
Y304823D01*
X42618D01*
X22933Y285138D02*
X42618D01*
Y304823D01*
X88484Y285138D02*
Y304823D01*
X108169D01*
X88484Y285138D02*
X108169D01*
Y304823D01*
X219586Y285138D02*
Y304823D01*
X239272D01*
X219586Y285138D02*
X239272D01*
Y304823D01*
X154035Y285138D02*
Y304823D01*
X173720D01*
X154035Y285138D02*
X173720D01*
Y304823D01*
X285138Y285138D02*
Y304823D01*
X304823D01*
X285138Y285138D02*
X304823D01*
Y304823D01*
X154035Y809547D02*
Y829232D01*
X173720D01*
X154035Y809547D02*
X173720D01*
Y829232D01*
X154035Y678445D02*
Y698130D01*
X173720D01*
X154035Y678445D02*
X173720D01*
Y698130D01*
X154035Y743996D02*
Y763681D01*
X173720D01*
X154035Y743996D02*
X173720D01*
Y763681D01*
X285138Y678445D02*
Y698130D01*
X304823D01*
X285138Y678445D02*
X304823D01*
Y698130D01*
X285138Y743996D02*
Y763681D01*
X304823D01*
X285138Y743996D02*
X304823D01*
Y763681D01*
X285138Y809547D02*
Y829232D01*
X304823D01*
X285138Y809547D02*
X304823D01*
Y829232D01*
X219586Y809547D02*
Y829232D01*
X239272D01*
X219586Y809547D02*
X239272D01*
Y829232D01*
X219586Y743996D02*
Y763681D01*
X239272D01*
X219586Y743996D02*
X239272D01*
Y763681D01*
X350689Y809547D02*
Y829232D01*
X370374D01*
X350689Y809547D02*
X370374D01*
Y829232D01*
X350689Y678445D02*
Y698130D01*
X370374D01*
X350689Y678445D02*
X370374D01*
Y698130D01*
X350689Y743996D02*
Y763681D01*
X370374D01*
X350689Y743996D02*
X370374D01*
Y763681D01*
X416240Y809547D02*
Y829232D01*
X435925D01*
X416240Y809547D02*
X435925D01*
Y829232D01*
X416240Y678445D02*
Y698130D01*
X435925D01*
X416240Y678445D02*
X435925D01*
Y698130D01*
X416240Y743996D02*
Y763681D01*
X435925D01*
X416240Y743996D02*
X435925D01*
Y763681D01*
X612894Y809547D02*
Y829232D01*
X632579D01*
X612894Y809547D02*
X632579D01*
Y829232D01*
X547343Y809547D02*
Y829232D01*
X567028D01*
X547343Y809547D02*
X567028D01*
Y829232D01*
X481791Y809547D02*
Y829232D01*
X501476D01*
X481791Y809547D02*
X501476D01*
Y829232D01*
X612894Y154035D02*
Y173721D01*
X632579D01*
X612894Y154035D02*
X632579D01*
Y173721D01*
X678445Y154035D02*
Y173721D01*
X698130D01*
X678445Y154035D02*
X698130D01*
Y173721D01*
X547343Y154035D02*
Y173721D01*
X567028D01*
X547343Y154035D02*
X567028D01*
Y173721D01*
X481791Y154035D02*
Y173721D01*
X501476D01*
X481791Y154035D02*
X501476D01*
Y173721D01*
X416240Y154035D02*
Y173721D01*
X435925D01*
X416240Y154035D02*
X435925D01*
Y173721D01*
X809547Y154035D02*
Y173721D01*
X829232D01*
X809547Y154035D02*
X829232D01*
Y173721D01*
X875098Y154035D02*
Y173721D01*
X894783D01*
X875098Y154035D02*
X894783D01*
Y173721D01*
X940650Y154035D02*
Y173721D01*
X960335D01*
X940650Y154035D02*
X960335D01*
Y173721D01*
X1006201Y154035D02*
Y173721D01*
X1025886D01*
X1006201Y154035D02*
X1025886D01*
Y173721D01*
X743996Y154035D02*
Y173721D01*
X763681D01*
X743996Y154035D02*
X763681D01*
Y173721D01*
X1006201Y809547D02*
Y829232D01*
X1025886D01*
X1006201Y809547D02*
X1025886D01*
Y829232D01*
X1006201Y678445D02*
Y698130D01*
X1025886D01*
X1006201Y678445D02*
X1025886D01*
Y698130D01*
X1006201Y743996D02*
Y763681D01*
X1025886D01*
X1006201Y743996D02*
X1025886D01*
Y763681D01*
X940650Y678445D02*
Y698130D01*
X960335D01*
X940650Y678445D02*
X960335D01*
Y698130D01*
X875098Y678445D02*
Y698130D01*
X894783D01*
X875098Y678445D02*
X894783D01*
Y698130D01*
X809547Y743996D02*
Y763681D01*
X829232D01*
X809547Y743996D02*
X829232D01*
Y763681D01*
X940650Y809547D02*
Y829232D01*
X960335D01*
X940650Y809547D02*
X960335D01*
Y829232D01*
X940650Y743996D02*
Y763681D01*
X960335D01*
X940650Y743996D02*
X960335D01*
Y763681D01*
X875098Y809547D02*
Y829232D01*
X894783D01*
X875098Y809547D02*
X894783D01*
Y829232D01*
X875098Y743996D02*
Y763681D01*
X894783D01*
X875098Y743996D02*
X894783D01*
Y763681D01*
X809547Y809547D02*
Y829232D01*
X829232D01*
X809547Y809547D02*
X829232D01*
Y829232D01*
X1006201Y612894D02*
Y632579D01*
X1025886D01*
X1006201Y612894D02*
X1025886D01*
Y632579D01*
X940650Y547342D02*
Y567028D01*
X960335D01*
X940650Y547342D02*
X960335D01*
Y567028D01*
X875098Y547342D02*
Y567028D01*
X894783D01*
X875098Y547342D02*
X894783D01*
Y567028D01*
X1006201Y547342D02*
Y567028D01*
X1025886D01*
X1006201Y547342D02*
X1025886D01*
Y567028D01*
X940650Y612894D02*
Y632579D01*
X960335D01*
X940650Y612894D02*
X960335D01*
Y632579D01*
X875098Y612894D02*
Y632579D01*
X894783D01*
X875098Y612894D02*
X894783D01*
Y632579D01*
X940650Y416240D02*
Y435925D01*
X960335D01*
X940650Y416240D02*
X960335D01*
Y435925D01*
X940650Y481791D02*
Y501476D01*
X960335D01*
X940650Y481791D02*
X960335D01*
Y501476D01*
X875098Y416240D02*
Y435925D01*
X894783D01*
X875098Y416240D02*
X894783D01*
Y435925D01*
X875098Y481791D02*
Y501476D01*
X894783D01*
X875098Y481791D02*
X894783D01*
Y501476D01*
X1006201Y481791D02*
Y501476D01*
X1025886D01*
X1006201Y481791D02*
X1025886D01*
Y501476D01*
X875098Y350689D02*
Y370374D01*
X894783D01*
X875098Y350689D02*
X894783D01*
Y370374D01*
X809547Y481791D02*
Y501476D01*
X829232D01*
X809547Y481791D02*
X829232D01*
Y501476D01*
X1006201Y350689D02*
Y370374D01*
X1025886D01*
X1006201Y350689D02*
X1025886D01*
Y370374D01*
X1006201Y416240D02*
Y435925D01*
X1025886D01*
X1006201Y416240D02*
X1025886D01*
Y435925D01*
X940650Y350689D02*
Y370374D01*
X960335D01*
X940650Y350689D02*
X960335D01*
Y370374D01*
X285138Y219587D02*
Y239272D01*
X304823D01*
X285138Y219587D02*
X304823D01*
Y239272D01*
X350689Y219587D02*
Y239272D01*
X370374D01*
X350689Y219587D02*
X370374D01*
Y239272D01*
X416240Y219587D02*
Y239272D01*
X435925D01*
X416240Y219587D02*
X435925D01*
Y239272D01*
X547343Y219587D02*
Y239272D01*
X567028D01*
X547343Y219587D02*
X567028D01*
Y239272D01*
X612894Y219587D02*
Y239272D01*
X632579D01*
X612894Y219587D02*
X632579D01*
Y239272D01*
X809547Y219587D02*
Y239272D01*
X829232D01*
X809547Y219587D02*
X829232D01*
Y239272D01*
X678445Y219587D02*
Y239272D01*
X698130D01*
X678445Y219587D02*
X698130D01*
Y239272D01*
X743996Y219587D02*
Y239272D01*
X763681D01*
X743996Y219587D02*
X763681D01*
Y239272D01*
X219586Y219587D02*
Y239272D01*
X239272D01*
X219586Y219587D02*
X239272D01*
Y239272D01*
X481791Y219587D02*
Y239272D01*
X501476D01*
X481791Y219587D02*
X501476D01*
Y239272D01*
X154035Y219587D02*
Y239272D01*
X173720D01*
X154035Y219587D02*
X173720D01*
Y239272D01*
X88484Y219587D02*
Y239272D01*
X108169D01*
X88484Y219587D02*
X108169D01*
Y239272D01*
X22933Y219587D02*
Y239272D01*
X42618D01*
X22933Y219587D02*
X42618D01*
Y239272D01*
X940650Y219587D02*
Y239272D01*
X960335D01*
X940650Y219587D02*
X960335D01*
Y239272D01*
X1006201Y219587D02*
Y239272D01*
X1025886D01*
X1006201Y219587D02*
X1025886D01*
Y239272D01*
X875098Y219587D02*
Y239272D01*
X894783D01*
X875098Y219587D02*
X894783D01*
Y239272D01*
X88484Y22933D02*
Y42618D01*
X108169D01*
X88484Y22933D02*
X108169D01*
Y42618D01*
X22933Y22933D02*
Y42618D01*
X42618D01*
X22933Y22933D02*
X42618D01*
Y42618D01*
X22933Y88484D02*
Y108169D01*
X42618D01*
X22933Y88484D02*
X42618D01*
Y108169D01*
X154035Y88484D02*
Y108169D01*
X173720D01*
X154035Y88484D02*
X173720D01*
Y108169D01*
X154035Y22933D02*
Y42618D01*
X173720D01*
X154035Y22933D02*
X173720D01*
Y42618D01*
X219586Y88484D02*
Y108169D01*
X239272D01*
X219586Y88484D02*
X239272D01*
Y108169D01*
X285138Y22933D02*
Y42618D01*
X304823D01*
X285138Y22933D02*
X304823D01*
Y42618D01*
X219586Y22933D02*
Y42618D01*
X239272D01*
X219586Y22933D02*
X239272D01*
Y42618D01*
X285138Y88484D02*
Y108169D01*
X304823D01*
X285138Y88484D02*
X304823D01*
Y108169D01*
X88484Y88484D02*
Y108169D01*
X108169D01*
X88484Y88484D02*
X108169D01*
Y108169D01*
X22933Y481791D02*
Y501476D01*
X42618D01*
X22933Y481791D02*
X42618D01*
Y501476D01*
X22933Y547342D02*
Y567028D01*
X42618D01*
X22933Y547342D02*
X42618D01*
Y567028D01*
X22933Y678445D02*
Y698130D01*
X42618D01*
X22933Y678445D02*
X42618D01*
Y698130D01*
X22933Y612894D02*
Y632579D01*
X42618D01*
X22933Y612894D02*
X42618D01*
Y632579D01*
X22933Y809547D02*
Y829232D01*
X42618D01*
X22933Y809547D02*
X42618D01*
Y829232D01*
X88484Y809547D02*
Y829232D01*
X108169D01*
X88484Y809547D02*
X108169D01*
Y829232D01*
X88484Y481791D02*
Y501476D01*
X108169D01*
X88484Y481791D02*
X108169D01*
Y501476D01*
X88484Y547342D02*
Y567028D01*
X108169D01*
X88484Y547342D02*
X108169D01*
Y567028D01*
X88484Y612894D02*
Y632579D01*
X108169D01*
X88484Y612894D02*
X108169D01*
Y632579D01*
X88484Y678445D02*
Y698130D01*
X108169D01*
X88484Y678445D02*
X108169D01*
Y698130D01*
X22933Y743996D02*
Y763681D01*
X42618D01*
X22933Y743996D02*
X42618D01*
Y763681D01*
X88484Y743996D02*
Y763681D01*
X108169D01*
X88484Y743996D02*
X108169D01*
Y763681D01*
X88484Y350689D02*
Y370374D01*
X108169D01*
X88484Y350689D02*
X108169D01*
Y370374D01*
X88484Y416240D02*
Y435925D01*
X108169D01*
X88484Y416240D02*
X108169D01*
Y435925D01*
X22933Y350689D02*
Y370374D01*
X42618D01*
X22933Y350689D02*
X42618D01*
Y370374D01*
X22933Y416240D02*
Y435925D01*
X42618D01*
X22933Y416240D02*
X42618D01*
Y435925D01*
X743996Y743996D02*
Y763681D01*
X763681D01*
X743996Y743996D02*
X763681D01*
Y763681D01*
X743996Y809547D02*
Y829232D01*
X763681D01*
X743996Y809547D02*
X763681D01*
Y829232D01*
X809547Y678445D02*
Y698130D01*
X829232D01*
X809547Y678445D02*
X829232D01*
Y698130D01*
X743996Y678445D02*
Y698130D01*
X763681D01*
X743996Y678445D02*
X763681D01*
Y698130D01*
X678445Y678445D02*
Y698130D01*
X698130D01*
X678445Y678445D02*
X698130D01*
Y698130D01*
X612894Y678445D02*
Y698130D01*
X632579D01*
X612894Y678445D02*
X632579D01*
Y698130D01*
X547343Y678445D02*
Y698130D01*
X567028D01*
X547343Y678445D02*
X567028D01*
Y698130D01*
X481791Y678445D02*
Y698130D01*
X501476D01*
X481791Y678445D02*
X501476D01*
Y698130D01*
X481791Y743996D02*
Y763681D01*
X501476D01*
X481791Y743996D02*
X501476D01*
Y763681D01*
X612894Y743996D02*
Y763681D01*
X632579D01*
X612894Y743996D02*
X632579D01*
Y763681D01*
X547343Y743996D02*
Y763681D01*
X567028D01*
X547343Y743996D02*
X567028D01*
Y763681D01*
X678445Y743996D02*
Y763681D01*
X698130D01*
X678445Y743996D02*
X698130D01*
Y763681D01*
X678445Y809547D02*
Y829232D01*
X698130D01*
X678445Y809547D02*
X698130D01*
Y829232D01*
X416240Y481791D02*
Y501476D01*
X435925D01*
X416240Y481791D02*
X435925D01*
Y501476D01*
X416240Y547342D02*
Y567028D01*
X435925D01*
X416240Y547342D02*
X435925D01*
Y567028D01*
X350689Y350689D02*
Y370374D01*
X370374D01*
X350689Y350689D02*
X370374D01*
Y370374D01*
X416240Y350689D02*
Y370374D01*
X435925D01*
X416240Y350689D02*
X435925D01*
Y370374D01*
X219586Y350689D02*
Y370374D01*
X239272D01*
X219586Y350689D02*
X239272D01*
Y370374D01*
X154035Y350689D02*
Y370374D01*
X173720D01*
X154035Y350689D02*
X173720D01*
Y370374D01*
X154035Y416240D02*
Y435925D01*
X173720D01*
X154035Y416240D02*
X173720D01*
Y435925D01*
X285138Y350689D02*
Y370374D01*
X304823D01*
X285138Y350689D02*
X304823D01*
Y370374D01*
X285138Y416240D02*
Y435925D01*
X304823D01*
X285138Y416240D02*
X304823D01*
Y435925D01*
X219586Y416240D02*
Y435925D01*
X239272D01*
X219586Y416240D02*
X239272D01*
Y435925D01*
X219586Y547342D02*
Y567028D01*
X239272D01*
X219586Y547342D02*
X239272D01*
Y567028D01*
X350689Y481791D02*
Y501476D01*
X370374D01*
X350689Y481791D02*
X370374D01*
Y501476D01*
X350689Y547342D02*
Y567028D01*
X370374D01*
X350689Y547342D02*
X370374D01*
Y567028D01*
X285138Y612894D02*
Y632579D01*
X304823D01*
X285138Y612894D02*
X304823D01*
Y632579D01*
X285138Y547342D02*
Y567028D01*
X304823D01*
X285138Y547342D02*
X304823D01*
Y567028D01*
X154035Y612894D02*
Y632579D01*
X173720D01*
X154035Y612894D02*
X173720D01*
Y632579D01*
X154035Y547342D02*
Y567028D01*
X173720D01*
X154035Y547342D02*
X173720D01*
Y567028D01*
X416240Y612894D02*
Y632579D01*
X435925D01*
X416240Y612894D02*
X435925D01*
Y632579D01*
X350689Y612894D02*
Y632579D01*
X370374D01*
X350689Y612894D02*
X370374D01*
Y632579D01*
X154035Y481791D02*
Y501476D01*
X173720D01*
X154035Y481791D02*
X173720D01*
Y501476D01*
X219586Y481791D02*
Y501476D01*
X239272D01*
X219586Y481791D02*
X239272D01*
Y501476D01*
X285138Y481791D02*
Y501476D01*
X304823D01*
X285138Y481791D02*
X304823D01*
Y501476D01*
X416240Y416240D02*
Y435925D01*
X435925D01*
X416240Y416240D02*
X435925D01*
Y435925D01*
X350689Y416240D02*
Y435925D01*
X370374D01*
X350689Y416240D02*
X370374D01*
Y435925D01*
X219586Y612894D02*
Y632579D01*
X239272D01*
X219586Y612894D02*
X239272D01*
Y632579D01*
X219586Y678445D02*
Y698130D01*
X239272D01*
X219586Y678445D02*
X239272D01*
Y698130D01*
X809547Y22933D02*
Y42618D01*
X829232D01*
X809547Y22933D02*
X829232D01*
Y42618D01*
X743996Y22933D02*
Y42618D01*
X763681D01*
X743996Y22933D02*
X763681D01*
Y42618D01*
X678445Y22933D02*
Y42618D01*
X698130D01*
X678445Y22933D02*
X698130D01*
Y42618D01*
X1006201Y22933D02*
Y42618D01*
X1025886D01*
X1006201Y22933D02*
X1025886D01*
Y42618D01*
X940650Y22933D02*
Y42618D01*
X960335D01*
X940650Y22933D02*
X960335D01*
Y42618D01*
X875098Y22933D02*
Y42618D01*
X894783D01*
X875098Y22933D02*
X894783D01*
Y42618D01*
X612894Y22933D02*
Y42618D01*
X632579D01*
X612894Y22933D02*
X632579D01*
Y42618D01*
X481791Y88484D02*
Y108169D01*
X501476D01*
X481791Y88484D02*
X501476D01*
Y108169D01*
X416240Y88484D02*
Y108169D01*
X435925D01*
X416240Y88484D02*
X435925D01*
Y108169D01*
X350689Y88484D02*
Y108169D01*
X370374D01*
X350689Y88484D02*
X370374D01*
Y108169D01*
X1006201Y88484D02*
Y108169D01*
X1025886D01*
X1006201Y88484D02*
X1025886D01*
Y108169D01*
X940650Y88484D02*
Y108169D01*
X960335D01*
X940650Y88484D02*
X960335D01*
Y108169D01*
X875098Y88484D02*
Y108169D01*
X894783D01*
X875098Y88484D02*
X894783D01*
Y108169D01*
X547343Y22933D02*
Y42618D01*
X567028D01*
X547343Y22933D02*
X567028D01*
Y42618D01*
X481791Y22933D02*
Y42618D01*
X501476D01*
X481791Y22933D02*
X501476D01*
Y42618D01*
X416240Y22933D02*
Y42618D01*
X435925D01*
X416240Y22933D02*
X435925D01*
Y42618D01*
X350689Y22933D02*
Y42618D01*
X370374D01*
X350689Y22933D02*
X370374D01*
Y42618D01*
M02*
