G04*
G04 #@! TF.GenerationSoftware,Altium Limited,Altium Designer,24.3.1 (35)*
G04*
G04 Layer_Color=16711935*
%FSLAX25Y25*%
%MOIN*%
G70*
G04*
G04 #@! TF.SameCoordinates,990AA879-4203-459C-8826-AB23A681A769*
G04*
G04*
G04 #@! TF.FilePolarity,Negative*
G04*
G01*
G75*
%ADD15R,0.06496X0.04134*%
%ADD16C,0.04492*%
%ADD17C,0.01575*%
%ADD18C,0.02559*%
%ADD19C,0.20276*%
%ADD20C,0.08071*%
%ADD21C,0.02953*%
%ADD22C,0.05591*%
%ADD34R,0.01860X0.02029*%
%ADD35R,0.11024X0.08661*%
%ADD36R,0.02894X0.03394*%
%ADD41R,0.01181X0.04528*%
%ADD42R,0.02362X0.04528*%
%ADD43R,0.08583X0.07874*%
%ADD46C,0.03689*%
%ADD47R,0.03740X0.04331*%
G04:AMPARAMS|DCode=48|XSize=129.92mil|YSize=62.99mil|CornerRadius=4.95mil|HoleSize=0mil|Usage=FLASHONLY|Rotation=180.000|XOffset=0mil|YOffset=0mil|HoleType=Round|Shape=RoundedRectangle|*
%AMROUNDEDRECTD48*
21,1,0.12992,0.05309,0,0,180.0*
21,1,0.12002,0.06299,0,0,180.0*
1,1,0.00990,-0.06001,0.02655*
1,1,0.00990,0.06001,0.02655*
1,1,0.00990,0.06001,-0.02655*
1,1,0.00990,-0.06001,-0.02655*
%
%ADD48ROUNDEDRECTD48*%
G04:AMPARAMS|DCode=49|XSize=41.34mil|YSize=62.99mil|CornerRadius=4.9mil|HoleSize=0mil|Usage=FLASHONLY|Rotation=180.000|XOffset=0mil|YOffset=0mil|HoleType=Round|Shape=RoundedRectangle|*
%AMROUNDEDRECTD49*
21,1,0.04134,0.05319,0,0,180.0*
21,1,0.03154,0.06299,0,0,180.0*
1,1,0.00980,-0.01577,0.02659*
1,1,0.00980,0.01577,0.02659*
1,1,0.00980,0.01577,-0.02659*
1,1,0.00980,-0.01577,-0.02659*
%
%ADD49ROUNDEDRECTD49*%
%ADD50R,0.04134X0.04134*%
%ADD51R,0.04134X0.06496*%
D15*
X358500Y5500D02*
D03*
Y10500D02*
D03*
Y15500D02*
D03*
Y20500D02*
D03*
Y25500D02*
D03*
Y30500D02*
D03*
Y35500D02*
D03*
Y40500D02*
D03*
Y45500D02*
D03*
Y50500D02*
D03*
Y55500D02*
D03*
Y60500D02*
D03*
Y65500D02*
D03*
Y70500D02*
D03*
X427398D02*
D03*
Y65500D02*
D03*
Y60500D02*
D03*
Y55500D02*
D03*
Y50500D02*
D03*
Y45500D02*
D03*
Y40500D02*
D03*
Y35500D02*
D03*
Y30500D02*
D03*
Y25500D02*
D03*
Y20500D02*
D03*
Y15500D02*
D03*
Y10500D02*
D03*
Y5500D02*
D03*
D16*
X455000Y14000D02*
D03*
Y6000D02*
D03*
X435000Y10000D02*
D03*
D17*
X387043Y33138D02*
D03*
X381532D02*
D03*
X392555D02*
D03*
X381532Y38650D02*
D03*
X387043D02*
D03*
X392555D02*
D03*
X384287Y30382D02*
D03*
X389799D02*
D03*
X384287Y35894D02*
D03*
X389799D02*
D03*
X384287Y41405D02*
D03*
X389799D02*
D03*
D18*
X513031Y25756D02*
D03*
X535787D02*
D03*
D19*
X983268Y983268D02*
D03*
X65551D02*
D03*
X983268Y65551D02*
D03*
X65551D02*
D03*
D20*
X534410Y64813D02*
D03*
X514409D02*
D03*
D21*
X423945Y5750D02*
D03*
X464500Y11000D02*
D03*
X439500Y35500D02*
D03*
X349000Y5500D02*
D03*
X365000Y15500D02*
D03*
D22*
X65500Y81500D02*
D03*
X1019500Y985000D02*
D03*
X1017500Y923000D02*
D03*
Y855000D02*
D03*
X1016500Y789000D02*
D03*
Y726500D02*
D03*
Y659500D02*
D03*
Y593500D02*
D03*
X1018500Y68000D02*
D03*
X1016500Y133000D02*
D03*
Y197000D02*
D03*
Y265500D02*
D03*
X1015500Y333000D02*
D03*
X1016000Y400000D02*
D03*
Y463500D02*
D03*
Y530000D02*
D03*
X983000Y1025500D02*
D03*
X917500Y959500D02*
D03*
X983500Y894000D02*
D03*
X983000Y829000D02*
D03*
Y763500D02*
D03*
X983500Y697500D02*
D03*
X983000Y632000D02*
D03*
Y566500D02*
D03*
Y501500D02*
D03*
Y436000D02*
D03*
X915000Y41500D02*
D03*
X982500Y108000D02*
D03*
X983000Y173500D02*
D03*
Y238000D02*
D03*
Y304000D02*
D03*
X983500Y369500D02*
D03*
X51500Y1022500D02*
D03*
X342000Y53500D02*
D03*
X383500Y67000D02*
D03*
Y61500D02*
D03*
X440000Y67000D02*
D03*
Y61500D02*
D03*
X541500Y53500D02*
D03*
X504500Y53000D02*
D03*
X65500Y999216D02*
D03*
X51000Y957216D02*
D03*
X65500Y933665D02*
D03*
X51000Y891665D02*
D03*
X65500Y868114D02*
D03*
X51000Y826114D02*
D03*
X65500Y802563D02*
D03*
X51000Y760563D02*
D03*
X65500Y737012D02*
D03*
X51000Y695012D02*
D03*
X65500Y671460D02*
D03*
X51000Y629460D02*
D03*
X65500Y605909D02*
D03*
X51000Y563909D02*
D03*
X65500Y540358D02*
D03*
X51000Y498358D02*
D03*
X65500Y474807D02*
D03*
X51000Y432807D02*
D03*
X65500Y409256D02*
D03*
X51000Y367256D02*
D03*
X65500Y343705D02*
D03*
X51000Y301705D02*
D03*
X65500Y278153D02*
D03*
X51000Y236153D02*
D03*
X65500Y212602D02*
D03*
X51000Y170602D02*
D03*
X65500Y147051D02*
D03*
X51000Y105051D02*
D03*
Y39500D02*
D03*
D34*
X340104Y9010D02*
D03*
Y11990D02*
D03*
X346708Y9010D02*
D03*
Y11990D02*
D03*
D35*
X328949Y10500D02*
D03*
X310051D02*
D03*
D36*
X531577Y39879D02*
D03*
X536423D02*
D03*
X515423Y40000D02*
D03*
X510577D02*
D03*
D41*
X517520Y29988D02*
D03*
X519488D02*
D03*
X521457D02*
D03*
X523425D02*
D03*
X525394D02*
D03*
X527362D02*
D03*
X529331D02*
D03*
X531299D02*
D03*
D42*
X514961D02*
D03*
X533858D02*
D03*
X511811D02*
D03*
X537008D02*
D03*
D43*
X504291Y27724D02*
D03*
X544528D02*
D03*
X504291Y12252D02*
D03*
X544528D02*
D03*
D46*
X450000Y7500D02*
D03*
Y12500D02*
D03*
X445000Y7500D02*
D03*
Y12500D02*
D03*
X440000Y7500D02*
D03*
Y12500D02*
D03*
D47*
X334059Y22320D02*
D03*
X328941D02*
D03*
D48*
X333000Y29219D02*
D03*
D49*
X342055Y53431D02*
D03*
X333000D02*
D03*
X323945D02*
D03*
D50*
X387043Y35894D02*
D03*
X381532D02*
D03*
X392555D02*
D03*
X381532Y41405D02*
D03*
X387043D02*
D03*
X392555D02*
D03*
X381532Y30382D02*
D03*
X387043D02*
D03*
X392555D02*
D03*
D51*
X365449Y75421D02*
D03*
X370449D02*
D03*
X375449D02*
D03*
X380449D02*
D03*
X385449D02*
D03*
X390449D02*
D03*
X395449D02*
D03*
X400449D02*
D03*
X405449D02*
D03*
X410449D02*
D03*
X415449D02*
D03*
X420449D02*
D03*
M02*
