G04*
G04 #@! TF.GenerationSoftware,Altium Limited,Altium Designer,24.3.1 (35)*
G04*
G04 Layer_Color=32896*
%FSLAX25Y25*%
%MOIN*%
G70*
G04*
G04 #@! TF.SameCoordinates,990AA879-4203-459C-8826-AB23A681A769*
G04*
G04*
G04 #@! TF.FilePolarity,Positive*
G04*
G01*
G75*
%ADD10C,0.00984*%
%ADD11C,0.00787*%
%ADD52C,0.00500*%
G36*
X993749Y17665D02*
X993786Y17660D01*
X993818Y17651D01*
X993846Y17641D01*
X993869Y17637D01*
X993883Y17628D01*
X993887D01*
X993956Y17591D01*
X993989Y17572D01*
X994017Y17549D01*
X994035Y17531D01*
X994053Y17517D01*
X994063Y17507D01*
X994067Y17503D01*
X994118Y17443D01*
X994155Y17383D01*
X994169Y17360D01*
X994178Y17341D01*
X994188Y17327D01*
Y17323D01*
X994211Y17244D01*
X994220Y17207D01*
X994224Y17175D01*
Y17142D01*
X994229Y17119D01*
Y17106D01*
Y17101D01*
X994224Y17018D01*
X994215Y16981D01*
X994206Y16949D01*
X994201Y16921D01*
X994192Y16898D01*
X994188Y16884D01*
Y16879D01*
X994151Y16810D01*
X994132Y16778D01*
X994114Y16750D01*
X994095Y16727D01*
X994081Y16708D01*
X994072Y16699D01*
X994067Y16694D01*
X994007Y16644D01*
X993947Y16607D01*
X993924Y16593D01*
X993906Y16583D01*
X993892Y16574D01*
X993887D01*
X993809Y16551D01*
X993767Y16542D01*
X993735Y16537D01*
X993702D01*
X993679Y16533D01*
X993661D01*
X993573Y16537D01*
X993536Y16546D01*
X993504Y16556D01*
X993476Y16560D01*
X993458Y16570D01*
X993444Y16574D01*
X993439D01*
X993365Y16611D01*
X993333Y16630D01*
X993305Y16648D01*
X993287Y16667D01*
X993268Y16680D01*
X993259Y16690D01*
X993254Y16694D01*
X993203Y16759D01*
X993167Y16819D01*
X993153Y16842D01*
X993143Y16861D01*
X993134Y16874D01*
Y16879D01*
X993106Y16958D01*
X993097Y16995D01*
X993093Y17032D01*
X993088Y17059D01*
Y17083D01*
Y17096D01*
Y17101D01*
X993097Y17189D01*
X993102Y17226D01*
X993111Y17258D01*
X993120Y17286D01*
X993125Y17304D01*
X993134Y17318D01*
Y17323D01*
X993171Y17392D01*
X993190Y17424D01*
X993208Y17452D01*
X993227Y17470D01*
X993240Y17489D01*
X993250Y17498D01*
X993254Y17503D01*
X993314Y17558D01*
X993374Y17595D01*
X993402Y17609D01*
X993421Y17618D01*
X993434Y17628D01*
X993439D01*
X993518Y17655D01*
X993555Y17665D01*
X993587Y17669D01*
X993619Y17674D01*
X993661D01*
X993749Y17665D01*
D02*
G37*
G36*
X1037500Y11746D02*
X1036775D01*
Y14518D01*
X1036701Y14606D01*
X1036627Y14689D01*
X1036567Y14759D01*
X1036511Y14819D01*
X1036465Y14870D01*
X1036433Y14906D01*
X1036414Y14925D01*
X1036405Y14934D01*
X1036345Y14994D01*
X1036290Y15045D01*
X1036239Y15091D01*
X1036193Y15128D01*
X1036156Y15156D01*
X1036128Y15179D01*
X1036109Y15193D01*
X1036105Y15198D01*
X1036054Y15230D01*
X1036003Y15262D01*
X1035962Y15285D01*
X1035920Y15304D01*
X1035888Y15318D01*
X1035865Y15327D01*
X1035846Y15336D01*
X1035841D01*
X1035744Y15359D01*
X1035698Y15368D01*
X1035657Y15373D01*
X1035620Y15378D01*
X1035569D01*
X1035509Y15373D01*
X1035449Y15368D01*
X1035347Y15341D01*
X1035255Y15304D01*
X1035185Y15258D01*
X1035125Y15211D01*
X1035084Y15174D01*
X1035061Y15147D01*
X1035051Y15142D01*
Y15137D01*
X1035019Y15091D01*
X1034991Y15036D01*
X1034945Y14925D01*
X1034913Y14805D01*
X1034890Y14685D01*
X1034881Y14629D01*
X1034876Y14578D01*
X1034871Y14532D01*
Y14491D01*
X1034867Y14458D01*
Y14435D01*
Y14417D01*
Y14412D01*
Y11746D01*
X1034141D01*
Y14472D01*
X1034146Y14611D01*
X1034155Y14740D01*
X1034174Y14865D01*
X1034197Y14976D01*
X1034220Y15077D01*
X1034247Y15170D01*
X1034280Y15258D01*
X1034312Y15331D01*
X1034344Y15401D01*
X1034377Y15456D01*
X1034405Y15507D01*
X1034428Y15549D01*
X1034451Y15576D01*
X1034469Y15599D01*
X1034478Y15613D01*
X1034483Y15618D01*
X1034552Y15687D01*
X1034622Y15743D01*
X1034700Y15798D01*
X1034779Y15840D01*
X1034857Y15877D01*
X1034941Y15909D01*
X1035019Y15932D01*
X1035093Y15955D01*
X1035167Y15969D01*
X1035232Y15983D01*
X1035292Y15988D01*
X1035347Y15997D01*
X1035389D01*
X1035421Y16001D01*
X1035518D01*
X1035583Y15997D01*
X1035643Y15988D01*
X1035694Y15983D01*
X1035740Y15974D01*
X1035777Y15964D01*
X1035795Y15960D01*
X1035804D01*
X1035869Y15946D01*
X1035929Y15923D01*
X1035985Y15904D01*
X1036036Y15886D01*
X1036082Y15863D01*
X1036114Y15849D01*
X1036133Y15840D01*
X1036142Y15835D01*
X1036202Y15798D01*
X1036262Y15761D01*
X1036317Y15724D01*
X1036368Y15687D01*
X1036410Y15660D01*
X1036442Y15632D01*
X1036460Y15613D01*
X1036470Y15609D01*
X1036530Y15553D01*
X1036590Y15498D01*
X1036645Y15438D01*
X1036696Y15387D01*
X1036738Y15341D01*
X1036775Y15299D01*
X1036793Y15276D01*
X1036802Y15271D01*
X1036775Y15923D01*
Y17628D01*
X1037500D01*
Y11746D01*
D02*
G37*
G36*
X970750Y15992D02*
X970796Y15988D01*
X970833Y15978D01*
X970870Y15969D01*
X970893Y15960D01*
X970912Y15955D01*
X970917Y15951D01*
X970963Y15932D01*
X971004Y15909D01*
X971046Y15881D01*
X971083Y15858D01*
X971111Y15835D01*
X971134Y15817D01*
X971148Y15803D01*
X971152Y15798D01*
X971194Y15756D01*
X971231Y15715D01*
X971263Y15669D01*
X971295Y15627D01*
X971323Y15590D01*
X971342Y15558D01*
X971356Y15539D01*
X971360Y15530D01*
X971397Y15465D01*
X971434Y15396D01*
X971471Y15331D01*
X971503Y15267D01*
X971531Y15211D01*
X971550Y15170D01*
X971559Y15151D01*
X971563Y15137D01*
X971568Y15133D01*
Y15128D01*
X971605Y15923D01*
X972206D01*
Y11746D01*
X971480D01*
Y14431D01*
X971434Y14537D01*
X971392Y14629D01*
X971356Y14708D01*
X971323Y14777D01*
X971300Y14832D01*
X971282Y14874D01*
X971268Y14897D01*
X971263Y14906D01*
X971226Y14976D01*
X971194Y15031D01*
X971166Y15082D01*
X971143Y15124D01*
X971120Y15160D01*
X971106Y15184D01*
X971097Y15198D01*
X971092Y15202D01*
X971064Y15239D01*
X971037Y15271D01*
X971014Y15294D01*
X970995Y15318D01*
X970977Y15331D01*
X970963Y15341D01*
X970958Y15350D01*
X970953D01*
X970907Y15378D01*
X970861Y15392D01*
X970843Y15396D01*
X970819D01*
X970773Y15392D01*
X970736Y15382D01*
X970713Y15368D01*
X970704Y15364D01*
X970686Y15350D01*
X970672Y15336D01*
X970649Y15299D01*
X970635Y15271D01*
X970630Y15262D01*
Y15258D01*
X970621Y15225D01*
X970607Y15188D01*
X970593Y15119D01*
X970588Y15087D01*
Y15059D01*
X970584Y15040D01*
Y15036D01*
X970579Y14980D01*
X970575Y14916D01*
Y14856D01*
X970570Y14796D01*
Y14745D01*
Y14703D01*
Y14675D01*
Y14671D01*
Y14666D01*
Y11746D01*
X969845D01*
Y14431D01*
X969798Y14528D01*
X969757Y14615D01*
X969725Y14694D01*
X969692Y14759D01*
X969664Y14809D01*
X969646Y14851D01*
X969637Y14874D01*
X969632Y14883D01*
X969600Y14948D01*
X969567Y15008D01*
X969540Y15059D01*
X969512Y15100D01*
X969494Y15133D01*
X969480Y15160D01*
X969471Y15174D01*
X969466Y15179D01*
X969438Y15221D01*
X969410Y15253D01*
X969387Y15281D01*
X969364Y15304D01*
X969346Y15322D01*
X969332Y15336D01*
X969327Y15345D01*
X969323D01*
X969295Y15364D01*
X969272Y15373D01*
X969221Y15392D01*
X969203D01*
X969189Y15396D01*
X969175D01*
X969129Y15392D01*
X969096Y15382D01*
X969073Y15368D01*
X969064Y15364D01*
X969032Y15336D01*
X969009Y15304D01*
X968995Y15276D01*
X968990Y15267D01*
Y15262D01*
X968981Y15235D01*
X968967Y15202D01*
X968953Y15137D01*
X968948Y15105D01*
Y15087D01*
X968944Y15068D01*
Y15064D01*
X968939Y15013D01*
X968935Y14962D01*
Y14906D01*
X968930Y14856D01*
Y14814D01*
Y14777D01*
Y14754D01*
Y14745D01*
Y11746D01*
X968205D01*
Y14786D01*
Y14897D01*
X968214Y14999D01*
X968223Y15096D01*
X968237Y15188D01*
X968255Y15271D01*
X968279Y15350D01*
X968302Y15424D01*
X968329Y15489D01*
X968357Y15549D01*
X968389Y15609D01*
X968422Y15660D01*
X968454Y15706D01*
X968528Y15784D01*
X968602Y15849D01*
X968676Y15900D01*
X968750Y15937D01*
X968814Y15964D01*
X968874Y15983D01*
X968925Y15992D01*
X968967Y16001D01*
X968999D01*
X969064Y15997D01*
X969119Y15992D01*
X969175Y15983D01*
X969221Y15969D01*
X969258Y15955D01*
X969286Y15946D01*
X969304Y15941D01*
X969309Y15937D01*
X969360Y15914D01*
X969401Y15886D01*
X969443Y15854D01*
X969480Y15826D01*
X969512Y15803D01*
X969535Y15780D01*
X969549Y15766D01*
X969554Y15761D01*
X969595Y15720D01*
X969632Y15669D01*
X969669Y15622D01*
X969697Y15581D01*
X969725Y15539D01*
X969743Y15507D01*
X969757Y15489D01*
X969762Y15479D01*
X969831Y15345D01*
X969863Y15281D01*
X969891Y15221D01*
X969919Y15170D01*
X969937Y15128D01*
X969951Y15100D01*
X969956Y15096D01*
Y15174D01*
X969965Y15253D01*
X969969Y15327D01*
X969983Y15396D01*
X969997Y15456D01*
X970011Y15516D01*
X970025Y15567D01*
X970043Y15609D01*
X970062Y15650D01*
X970076Y15687D01*
X970090Y15715D01*
X970103Y15738D01*
X970113Y15756D01*
X970122Y15770D01*
X970131Y15775D01*
Y15780D01*
X970164Y15817D01*
X970205Y15854D01*
X970284Y15909D01*
X970371Y15946D01*
X970455Y15974D01*
X970529Y15992D01*
X970561Y15997D01*
X970588D01*
X970612Y16001D01*
X970699D01*
X970750Y15992D01*
D02*
G37*
G36*
X1012497Y15992D02*
X1012538Y15983D01*
X1012575Y15974D01*
X1012607Y15964D01*
X1012630Y15955D01*
X1012644Y15951D01*
X1012649Y15946D01*
X1012728Y15904D01*
X1012764Y15881D01*
X1012792Y15858D01*
X1012820Y15840D01*
X1012838Y15821D01*
X1012848Y15812D01*
X1012852Y15807D01*
X1012912Y15738D01*
X1012954Y15673D01*
X1012968Y15646D01*
X1012982Y15622D01*
X1012986Y15609D01*
X1012991Y15604D01*
X1013019Y15516D01*
X1013028Y15475D01*
X1013033Y15438D01*
Y15405D01*
X1013037Y15382D01*
Y15364D01*
Y15359D01*
X1013028Y15262D01*
X1013023Y15221D01*
X1013014Y15184D01*
X1013005Y15151D01*
X1013000Y15128D01*
X1012991Y15114D01*
Y15110D01*
X1012949Y15031D01*
X1012926Y14994D01*
X1012903Y14966D01*
X1012885Y14939D01*
X1012866Y14920D01*
X1012857Y14911D01*
X1012852Y14906D01*
X1012783Y14846D01*
X1012718Y14805D01*
X1012691Y14791D01*
X1012667Y14777D01*
X1012654Y14773D01*
X1012649Y14768D01*
X1012561Y14740D01*
X1012520Y14731D01*
X1012483Y14726D01*
X1012446D01*
X1012423Y14722D01*
X1012399D01*
X1012307Y14731D01*
X1012266Y14736D01*
X1012229Y14745D01*
X1012196Y14754D01*
X1012173Y14759D01*
X1012159Y14768D01*
X1012155D01*
X1012076Y14809D01*
X1012039Y14832D01*
X1012012Y14856D01*
X1011984Y14874D01*
X1011965Y14893D01*
X1011956Y14902D01*
X1011951Y14906D01*
X1011891Y14976D01*
X1011850Y15040D01*
X1011831Y15068D01*
X1011822Y15091D01*
X1011813Y15105D01*
Y15110D01*
X1011794Y15156D01*
X1011780Y15198D01*
X1011771Y15239D01*
X1011762Y15276D01*
Y15313D01*
X1011757Y15336D01*
Y15355D01*
Y15359D01*
Y15405D01*
X1011767Y15452D01*
X1011776Y15493D01*
X1011785Y15530D01*
X1011794Y15563D01*
X1011804Y15586D01*
X1011808Y15599D01*
X1011813Y15604D01*
X1011854Y15683D01*
X1011878Y15720D01*
X1011901Y15747D01*
X1011919Y15775D01*
X1011938Y15793D01*
X1011947Y15803D01*
X1011951Y15807D01*
X1012021Y15867D01*
X1012085Y15909D01*
X1012113Y15927D01*
X1012136Y15937D01*
X1012150Y15946D01*
X1012155D01*
X1012196Y15964D01*
X1012243Y15978D01*
X1012284Y15988D01*
X1012321Y15997D01*
X1012353D01*
X1012376Y16001D01*
X1012450D01*
X1012497Y15992D01*
D02*
G37*
G36*
X892183Y11746D02*
X891457D01*
Y13982D01*
X889512Y11746D01*
X888519D01*
X890584Y13996D01*
X888625Y15923D01*
X889581D01*
X891457Y14015D01*
Y17628D01*
X892183D01*
Y11746D01*
D02*
G37*
G36*
X998780Y11746D02*
X997948D01*
X996308Y15923D01*
X997103D01*
X998119Y13174D01*
X998345Y12481D01*
X998567Y13155D01*
X999593Y15923D01*
X1000415D01*
X998780Y11746D01*
D02*
G37*
G36*
X929660Y11746D02*
X928810D01*
X928232Y13470D01*
X928094Y13918D01*
X927974Y13493D01*
X927373Y11746D01*
X926495D01*
X925885Y15923D01*
X926602D01*
X926925Y13058D01*
X926990Y12476D01*
X927179Y13026D01*
X927826Y14883D01*
X928348D01*
X928953Y13003D01*
X929133Y12453D01*
X929207Y13081D01*
X929558Y15923D01*
X930265D01*
X929660Y11746D01*
D02*
G37*
G36*
X909092Y15978D02*
X909249Y15960D01*
X909397Y15932D01*
X909461Y15918D01*
X909521Y15904D01*
X909577Y15890D01*
X909628Y15877D01*
X909669Y15863D01*
X909706Y15849D01*
X909739Y15840D01*
X909757Y15830D01*
X909771Y15826D01*
X909776D01*
X909914Y15761D01*
X910039Y15692D01*
X910154Y15618D01*
X910251Y15544D01*
X910293Y15512D01*
X910330Y15479D01*
X910362Y15452D01*
X910390Y15428D01*
X910413Y15410D01*
X910427Y15396D01*
X910436Y15387D01*
X910441Y15382D01*
X910538Y15271D01*
X910626Y15151D01*
X910699Y15036D01*
X910760Y14930D01*
X910787Y14879D01*
X910806Y14832D01*
X910824Y14791D01*
X910843Y14759D01*
X910857Y14731D01*
X910861Y14708D01*
X910870Y14694D01*
Y14689D01*
X910921Y14537D01*
X910958Y14380D01*
X910986Y14227D01*
X910995Y14158D01*
X911004Y14089D01*
X911009Y14024D01*
X911014Y13969D01*
X911018Y13918D01*
Y13871D01*
X911023Y13839D01*
Y13812D01*
Y13793D01*
Y13788D01*
X911018Y13599D01*
X911000Y13423D01*
X910972Y13262D01*
X910940Y13109D01*
X910898Y12971D01*
X910857Y12841D01*
X910806Y12726D01*
X910755Y12619D01*
X910709Y12527D01*
X910658Y12444D01*
X910616Y12379D01*
X910575Y12324D01*
X910542Y12278D01*
X910515Y12245D01*
X910496Y12227D01*
X910492Y12222D01*
X910385Y12130D01*
X910270Y12047D01*
X910150Y11973D01*
X910025Y11913D01*
X909900Y11862D01*
X909776Y11816D01*
X909651Y11783D01*
X909526Y11756D01*
X909415Y11733D01*
X909309Y11714D01*
X909212Y11705D01*
X909129Y11695D01*
X909059Y11691D01*
X909032Y11686D01*
X908967D01*
X908847Y11691D01*
X908736Y11695D01*
X908634Y11705D01*
X908542Y11714D01*
X908463Y11723D01*
X908431D01*
X908403Y11728D01*
X908380Y11733D01*
X908366Y11737D01*
X908352D01*
X908242Y11760D01*
X908135Y11783D01*
X908038Y11811D01*
X907951Y11839D01*
X907877Y11862D01*
X907844Y11871D01*
X907821Y11880D01*
X907798Y11890D01*
X907784Y11894D01*
X907775Y11899D01*
X907770D01*
Y12573D01*
X907867Y12527D01*
X907964Y12485D01*
X908052Y12449D01*
X908135Y12421D01*
X908205Y12398D01*
X908232Y12388D01*
X908260Y12384D01*
X908279Y12379D01*
X908292Y12375D01*
X908302Y12370D01*
X908306D01*
X908413Y12347D01*
X908514Y12333D01*
X908611Y12319D01*
X908694Y12315D01*
X908773Y12310D01*
X908801Y12305D01*
X908879D01*
X908999Y12310D01*
X909110Y12324D01*
X909216Y12342D01*
X909313Y12365D01*
X909406Y12393D01*
X909489Y12426D01*
X909563Y12458D01*
X909632Y12495D01*
X909697Y12527D01*
X909748Y12560D01*
X909794Y12592D01*
X909831Y12619D01*
X909863Y12647D01*
X909882Y12666D01*
X909896Y12675D01*
X909900Y12680D01*
X909965Y12754D01*
X910020Y12837D01*
X910071Y12924D01*
X910113Y13017D01*
X910145Y13109D01*
X910177Y13206D01*
X910201Y13299D01*
X910219Y13391D01*
X910233Y13474D01*
X910247Y13557D01*
X910256Y13627D01*
X910261Y13691D01*
Y13742D01*
X910265Y13784D01*
Y13807D01*
Y13816D01*
X910261Y13946D01*
X910247Y14070D01*
X910233Y14181D01*
X910210Y14274D01*
X910201Y14315D01*
X910191Y14352D01*
X910182Y14384D01*
X910177Y14412D01*
X910168Y14435D01*
X910164Y14449D01*
X910159Y14458D01*
Y14463D01*
X910117Y14569D01*
X910067Y14662D01*
X910020Y14745D01*
X909974Y14819D01*
X909933Y14874D01*
X909900Y14916D01*
X909877Y14943D01*
X909868Y14953D01*
X909794Y15026D01*
X909720Y15087D01*
X909646Y15142D01*
X909581Y15184D01*
X909521Y15216D01*
X909475Y15244D01*
X909457Y15253D01*
X909443Y15258D01*
X909438Y15262D01*
X909434D01*
X909341Y15299D01*
X909244Y15322D01*
X909156Y15341D01*
X909073Y15355D01*
X909004Y15364D01*
X908976D01*
X908949Y15368D01*
X908902D01*
X908791Y15364D01*
X908685Y15359D01*
X908588Y15345D01*
X908500Y15336D01*
X908426Y15322D01*
X908399Y15318D01*
X908371Y15308D01*
X908352Y15304D01*
X908339D01*
X908329Y15299D01*
X908325D01*
X908218Y15271D01*
X908117Y15239D01*
X908025Y15207D01*
X907941Y15174D01*
X907872Y15142D01*
X907844Y15128D01*
X907817Y15119D01*
X907798Y15110D01*
X907784Y15100D01*
X907775Y15096D01*
X907770D01*
Y15789D01*
X907867Y15826D01*
X907964Y15854D01*
X908057Y15881D01*
X908140Y15900D01*
X908209Y15918D01*
X908242Y15923D01*
X908265Y15927D01*
X908288Y15932D01*
X908302Y15937D01*
X908316D01*
X908422Y15950D01*
X908528Y15964D01*
X908630Y15974D01*
X908722Y15978D01*
X908805Y15983D01*
X908921D01*
X909092Y15978D01*
D02*
G37*
G36*
X895038D02*
X895195Y15960D01*
X895343Y15932D01*
X895407Y15918D01*
X895467Y15904D01*
X895523Y15890D01*
X895574Y15877D01*
X895615Y15863D01*
X895652Y15849D01*
X895685Y15840D01*
X895703Y15830D01*
X895717Y15826D01*
X895721D01*
X895860Y15761D01*
X895985Y15692D01*
X896100Y15618D01*
X896197Y15544D01*
X896239Y15512D01*
X896276Y15479D01*
X896308Y15452D01*
X896336Y15428D01*
X896359Y15410D01*
X896373Y15396D01*
X896382Y15387D01*
X896387Y15382D01*
X896484Y15271D01*
X896572Y15151D01*
X896645Y15036D01*
X896706Y14930D01*
X896733Y14879D01*
X896752Y14832D01*
X896770Y14791D01*
X896789Y14759D01*
X896803Y14731D01*
X896807Y14708D01*
X896816Y14694D01*
Y14689D01*
X896867Y14537D01*
X896904Y14380D01*
X896932Y14227D01*
X896941Y14158D01*
X896950Y14089D01*
X896955Y14024D01*
X896960Y13969D01*
X896964Y13918D01*
Y13871D01*
X896969Y13839D01*
Y13812D01*
Y13793D01*
Y13788D01*
X896964Y13599D01*
X896946Y13423D01*
X896918Y13262D01*
X896886Y13109D01*
X896844Y12971D01*
X896803Y12841D01*
X896752Y12726D01*
X896701Y12619D01*
X896655Y12527D01*
X896604Y12444D01*
X896562Y12379D01*
X896521Y12324D01*
X896488Y12278D01*
X896461Y12245D01*
X896442Y12227D01*
X896437Y12222D01*
X896331Y12130D01*
X896216Y12047D01*
X896096Y11973D01*
X895971Y11913D01*
X895846Y11862D01*
X895721Y11816D01*
X895597Y11783D01*
X895472Y11756D01*
X895361Y11733D01*
X895255Y11714D01*
X895158Y11705D01*
X895075Y11695D01*
X895005Y11691D01*
X894978Y11686D01*
X894913D01*
X894793Y11691D01*
X894682Y11695D01*
X894580Y11705D01*
X894488Y11714D01*
X894409Y11723D01*
X894377D01*
X894349Y11728D01*
X894326Y11733D01*
X894312Y11737D01*
X894298D01*
X894188Y11760D01*
X894081Y11783D01*
X893984Y11811D01*
X893896Y11839D01*
X893823Y11862D01*
X893790Y11871D01*
X893767Y11880D01*
X893744Y11890D01*
X893730Y11894D01*
X893721Y11899D01*
X893716D01*
Y12573D01*
X893813Y12527D01*
X893910Y12485D01*
X893998Y12449D01*
X894081Y12421D01*
X894151Y12398D01*
X894178Y12388D01*
X894206Y12384D01*
X894225Y12379D01*
X894238Y12375D01*
X894248Y12370D01*
X894252D01*
X894359Y12347D01*
X894460Y12333D01*
X894557Y12319D01*
X894640Y12315D01*
X894719Y12310D01*
X894747Y12305D01*
X894825D01*
X894945Y12310D01*
X895056Y12324D01*
X895162Y12342D01*
X895259Y12365D01*
X895352Y12393D01*
X895435Y12426D01*
X895509Y12458D01*
X895578Y12495D01*
X895643Y12527D01*
X895694Y12560D01*
X895740Y12592D01*
X895777Y12619D01*
X895809Y12647D01*
X895828Y12666D01*
X895842Y12675D01*
X895846Y12680D01*
X895911Y12754D01*
X895966Y12837D01*
X896017Y12924D01*
X896059Y13017D01*
X896091Y13109D01*
X896123Y13206D01*
X896146Y13299D01*
X896165Y13391D01*
X896179Y13474D01*
X896193Y13557D01*
X896202Y13627D01*
X896206Y13691D01*
Y13742D01*
X896211Y13784D01*
Y13807D01*
Y13816D01*
X896206Y13946D01*
X896193Y14070D01*
X896179Y14181D01*
X896156Y14274D01*
X896146Y14315D01*
X896137Y14352D01*
X896128Y14384D01*
X896123Y14412D01*
X896114Y14435D01*
X896109Y14449D01*
X896105Y14458D01*
Y14463D01*
X896063Y14569D01*
X896012Y14662D01*
X895966Y14745D01*
X895920Y14819D01*
X895879Y14874D01*
X895846Y14916D01*
X895823Y14943D01*
X895814Y14953D01*
X895740Y15026D01*
X895666Y15087D01*
X895592Y15142D01*
X895527Y15184D01*
X895467Y15216D01*
X895421Y15244D01*
X895403Y15253D01*
X895389Y15258D01*
X895384Y15262D01*
X895380D01*
X895287Y15299D01*
X895190Y15322D01*
X895102Y15341D01*
X895019Y15355D01*
X894950Y15364D01*
X894922D01*
X894895Y15368D01*
X894848D01*
X894737Y15364D01*
X894631Y15359D01*
X894534Y15345D01*
X894446Y15336D01*
X894372Y15322D01*
X894345Y15318D01*
X894317Y15308D01*
X894298Y15304D01*
X894285D01*
X894275Y15299D01*
X894271D01*
X894164Y15271D01*
X894063Y15239D01*
X893970Y15207D01*
X893887Y15174D01*
X893818Y15142D01*
X893790Y15128D01*
X893763Y15119D01*
X893744Y15110D01*
X893730Y15100D01*
X893721Y15096D01*
X893716D01*
Y15789D01*
X893813Y15826D01*
X893910Y15854D01*
X894003Y15881D01*
X894086Y15900D01*
X894155Y15918D01*
X894188Y15923D01*
X894211Y15927D01*
X894234Y15932D01*
X894248Y15937D01*
X894261D01*
X894368Y15950D01*
X894474Y15964D01*
X894576Y15974D01*
X894668Y15978D01*
X894751Y15983D01*
X894867D01*
X895038Y15978D01*
D02*
G37*
G36*
X1032048Y17069D02*
Y15923D01*
X1033217D01*
Y15313D01*
X1032048D01*
Y13132D01*
X1032044Y12998D01*
X1032030Y12874D01*
X1032011Y12758D01*
X1031988Y12652D01*
X1031961Y12550D01*
X1031928Y12462D01*
X1031891Y12379D01*
X1031854Y12310D01*
X1031822Y12245D01*
X1031785Y12190D01*
X1031753Y12144D01*
X1031725Y12107D01*
X1031702Y12074D01*
X1031683Y12056D01*
X1031670Y12042D01*
X1031665Y12037D01*
X1031586Y11977D01*
X1031503Y11922D01*
X1031411Y11876D01*
X1031318Y11834D01*
X1031221Y11802D01*
X1031124Y11774D01*
X1031027Y11751D01*
X1030930Y11733D01*
X1030843Y11714D01*
X1030759Y11705D01*
X1030686Y11695D01*
X1030621Y11691D01*
X1030565D01*
X1030524Y11686D01*
X1030390D01*
X1030293Y11691D01*
X1030205Y11695D01*
X1030122Y11700D01*
X1030057Y11705D01*
X1030029Y11709D01*
X1029988D01*
X1029969Y11714D01*
X1029960D01*
X1029863Y11728D01*
X1029771Y11742D01*
X1029683Y11756D01*
X1029604Y11769D01*
X1029540Y11783D01*
X1029489Y11793D01*
X1029470Y11797D01*
X1029457D01*
X1029452Y11802D01*
X1029447D01*
Y12426D01*
X1029544Y12402D01*
X1029632Y12379D01*
X1029720Y12361D01*
X1029794Y12347D01*
X1029858Y12338D01*
X1029905Y12329D01*
X1029923D01*
X1029937Y12324D01*
X1029946D01*
X1030034Y12315D01*
X1030113Y12310D01*
X1030186Y12301D01*
X1030251D01*
X1030307Y12296D01*
X1030381D01*
X1030464Y12301D01*
X1030547Y12305D01*
X1030621Y12315D01*
X1030686Y12333D01*
X1030750Y12347D01*
X1030810Y12365D01*
X1030861Y12388D01*
X1030907Y12407D01*
X1030949Y12430D01*
X1030986Y12449D01*
X1031018Y12467D01*
X1031041Y12486D01*
X1031064Y12499D01*
X1031078Y12509D01*
X1031083Y12513D01*
X1031087Y12518D01*
X1031129Y12564D01*
X1031166Y12610D01*
X1031198Y12661D01*
X1031221Y12717D01*
X1031268Y12827D01*
X1031295Y12938D01*
X1031309Y13035D01*
X1031314Y13077D01*
X1031318Y13114D01*
X1031323Y13146D01*
Y13169D01*
Y13183D01*
Y13188D01*
Y15313D01*
X1029447D01*
Y15923D01*
X1031323D01*
Y17258D01*
X1032048Y17069D01*
D02*
G37*
G36*
X1027364D02*
Y15923D01*
X1028533D01*
Y15313D01*
X1027364D01*
Y13132D01*
X1027359Y12998D01*
X1027345Y12874D01*
X1027327Y12758D01*
X1027304Y12652D01*
X1027276Y12550D01*
X1027244Y12462D01*
X1027207Y12379D01*
X1027170Y12310D01*
X1027137Y12245D01*
X1027100Y12190D01*
X1027068Y12144D01*
X1027040Y12107D01*
X1027017Y12074D01*
X1026999Y12056D01*
X1026985Y12042D01*
X1026980Y12037D01*
X1026902Y11977D01*
X1026819Y11922D01*
X1026726Y11876D01*
X1026634Y11834D01*
X1026537Y11802D01*
X1026440Y11774D01*
X1026343Y11751D01*
X1026246Y11733D01*
X1026158Y11714D01*
X1026075Y11705D01*
X1026001Y11695D01*
X1025936Y11691D01*
X1025881D01*
X1025839Y11686D01*
X1025705D01*
X1025608Y11691D01*
X1025520Y11695D01*
X1025437Y11700D01*
X1025373Y11705D01*
X1025345Y11709D01*
X1025303D01*
X1025285Y11714D01*
X1025276D01*
X1025179Y11728D01*
X1025086Y11742D01*
X1024998Y11756D01*
X1024920Y11769D01*
X1024855Y11783D01*
X1024804Y11793D01*
X1024786Y11797D01*
X1024772D01*
X1024767Y11802D01*
X1024763D01*
Y12426D01*
X1024860Y12402D01*
X1024947Y12379D01*
X1025035Y12361D01*
X1025109Y12347D01*
X1025174Y12338D01*
X1025220Y12329D01*
X1025239D01*
X1025252Y12324D01*
X1025262D01*
X1025349Y12315D01*
X1025428Y12310D01*
X1025502Y12301D01*
X1025566D01*
X1025622Y12296D01*
X1025696D01*
X1025779Y12301D01*
X1025862Y12305D01*
X1025936Y12315D01*
X1026001Y12333D01*
X1026066Y12347D01*
X1026126Y12365D01*
X1026176Y12388D01*
X1026223Y12407D01*
X1026264Y12430D01*
X1026301Y12449D01*
X1026334Y12467D01*
X1026357Y12486D01*
X1026380Y12499D01*
X1026394Y12509D01*
X1026398Y12513D01*
X1026403Y12518D01*
X1026444Y12564D01*
X1026481Y12610D01*
X1026514Y12661D01*
X1026537Y12717D01*
X1026583Y12827D01*
X1026611Y12938D01*
X1026624Y13035D01*
X1026629Y13077D01*
X1026634Y13114D01*
X1026638Y13146D01*
Y13169D01*
Y13183D01*
Y13188D01*
Y15313D01*
X1024763D01*
Y15923D01*
X1026638D01*
Y17258D01*
X1027364Y17069D01*
D02*
G37*
G36*
X943040Y17069D02*
Y15923D01*
X944208D01*
Y15313D01*
X943040D01*
Y13132D01*
X943035Y12998D01*
X943021Y12874D01*
X943003Y12758D01*
X942979Y12652D01*
X942952Y12550D01*
X942919Y12462D01*
X942882Y12379D01*
X942845Y12310D01*
X942813Y12245D01*
X942776Y12190D01*
X942744Y12144D01*
X942716Y12107D01*
X942693Y12074D01*
X942675Y12056D01*
X942661Y12042D01*
X942656Y12037D01*
X942577Y11977D01*
X942494Y11922D01*
X942402Y11876D01*
X942309Y11834D01*
X942212Y11802D01*
X942115Y11774D01*
X942019Y11751D01*
X941921Y11733D01*
X941834Y11714D01*
X941751Y11705D01*
X941677Y11695D01*
X941612Y11691D01*
X941556D01*
X941515Y11686D01*
X941381D01*
X941284Y11691D01*
X941196Y11695D01*
X941113Y11700D01*
X941048Y11705D01*
X941020Y11709D01*
X940979D01*
X940961Y11714D01*
X940951D01*
X940854Y11728D01*
X940762Y11742D01*
X940674Y11756D01*
X940596Y11769D01*
X940531Y11783D01*
X940480Y11793D01*
X940462Y11797D01*
X940448D01*
X940443Y11802D01*
X940438D01*
Y12426D01*
X940535Y12402D01*
X940623Y12379D01*
X940711Y12361D01*
X940785Y12347D01*
X940850Y12338D01*
X940896Y12329D01*
X940914D01*
X940928Y12324D01*
X940937D01*
X941025Y12315D01*
X941104Y12310D01*
X941178Y12301D01*
X941242D01*
X941298Y12296D01*
X941372D01*
X941455Y12301D01*
X941538Y12305D01*
X941612Y12315D01*
X941677Y12333D01*
X941741Y12347D01*
X941801Y12365D01*
X941852Y12388D01*
X941898Y12407D01*
X941940Y12430D01*
X941977Y12449D01*
X942009Y12467D01*
X942032Y12485D01*
X942055Y12499D01*
X942069Y12509D01*
X942074Y12513D01*
X942078Y12518D01*
X942120Y12564D01*
X942157Y12610D01*
X942189Y12661D01*
X942212Y12717D01*
X942259Y12827D01*
X942286Y12938D01*
X942300Y13035D01*
X942305Y13077D01*
X942309Y13114D01*
X942314Y13146D01*
Y13169D01*
Y13183D01*
Y13188D01*
Y15313D01*
X940438D01*
Y15923D01*
X942314D01*
Y17258D01*
X943040Y17069D01*
D02*
G37*
G36*
X985968Y13192D02*
X985964Y13054D01*
X985955Y12924D01*
X985936Y12804D01*
X985918Y12689D01*
X985895Y12587D01*
X985867Y12495D01*
X985835Y12407D01*
X985802Y12333D01*
X985775Y12264D01*
X985742Y12208D01*
X985714Y12157D01*
X985691Y12116D01*
X985673Y12088D01*
X985654Y12065D01*
X985645Y12051D01*
X985641Y12047D01*
X985576Y11982D01*
X985507Y11922D01*
X985428Y11871D01*
X985349Y11829D01*
X985271Y11793D01*
X985188Y11765D01*
X985109Y11737D01*
X985031Y11719D01*
X984957Y11705D01*
X984892Y11691D01*
X984827Y11686D01*
X984777Y11677D01*
X984730D01*
X984698Y11672D01*
X984601D01*
X984536Y11677D01*
X984476Y11686D01*
X984421Y11691D01*
X984379Y11700D01*
X984342Y11705D01*
X984324Y11709D01*
X984315D01*
X984190Y11742D01*
X984134Y11765D01*
X984084Y11783D01*
X984037Y11802D01*
X984005Y11816D01*
X983986Y11825D01*
X983977Y11829D01*
X983917Y11867D01*
X983857Y11903D01*
X983797Y11940D01*
X983746Y11977D01*
X983705Y12010D01*
X983672Y12037D01*
X983654Y12056D01*
X983645Y12060D01*
X983580Y12116D01*
X983515Y12176D01*
X983455Y12236D01*
X983404Y12291D01*
X983358Y12342D01*
X983321Y12379D01*
X983298Y12407D01*
X983289Y12416D01*
X983261Y11746D01*
X982610D01*
Y15923D01*
X983335D01*
Y13151D01*
X983409Y13058D01*
X983478Y12980D01*
X983538Y12906D01*
X983594Y12846D01*
X983640Y12795D01*
X983672Y12763D01*
X983691Y12740D01*
X983700Y12730D01*
X983755Y12670D01*
X983811Y12619D01*
X983862Y12573D01*
X983908Y12536D01*
X983945Y12509D01*
X983973Y12486D01*
X983991Y12472D01*
X983996Y12467D01*
X984047Y12435D01*
X984097Y12402D01*
X984144Y12379D01*
X984181Y12361D01*
X984217Y12347D01*
X984241Y12338D01*
X984259Y12329D01*
X984264D01*
X984356Y12305D01*
X984402Y12301D01*
X984439Y12296D01*
X984472Y12291D01*
X984523D01*
X984587Y12296D01*
X984647Y12301D01*
X984707Y12315D01*
X984758Y12333D01*
X984855Y12379D01*
X984938Y12439D01*
X985008Y12513D01*
X985068Y12596D01*
X985114Y12680D01*
X985151Y12772D01*
X985183Y12860D01*
X985206Y12948D01*
X985220Y13026D01*
X985234Y13100D01*
X985239Y13160D01*
X985243Y13206D01*
Y13225D01*
Y13239D01*
Y13243D01*
Y13248D01*
Y15923D01*
X985968D01*
Y13192D01*
D02*
G37*
G36*
X979731Y15992D02*
X979884Y15974D01*
X980023Y15946D01*
X980083Y15932D01*
X980138Y15914D01*
X980194Y15895D01*
X980235Y15881D01*
X980277Y15867D01*
X980309Y15854D01*
X980337Y15844D01*
X980355Y15835D01*
X980369Y15826D01*
X980374D01*
X980498Y15756D01*
X980614Y15678D01*
X980716Y15599D01*
X980803Y15521D01*
X980873Y15456D01*
X980900Y15424D01*
X980923Y15401D01*
X980947Y15378D01*
X980960Y15364D01*
X980965Y15355D01*
X980970Y15350D01*
X981057Y15235D01*
X981131Y15119D01*
X981196Y15003D01*
X981247Y14897D01*
X981270Y14846D01*
X981289Y14800D01*
X981302Y14763D01*
X981316Y14726D01*
X981325Y14698D01*
X981335Y14680D01*
X981339Y14666D01*
Y14662D01*
X981381Y14514D01*
X981413Y14366D01*
X981432Y14223D01*
X981450Y14098D01*
X981455Y14038D01*
X981459Y13987D01*
Y13941D01*
X981464Y13899D01*
Y13867D01*
Y13844D01*
Y13830D01*
Y13825D01*
X981459Y13641D01*
X981446Y13470D01*
X981436Y13391D01*
X981427Y13313D01*
X981418Y13243D01*
X981404Y13179D01*
X981395Y13123D01*
X981386Y13068D01*
X981376Y13026D01*
X981367Y12984D01*
X981358Y12957D01*
X981353Y12934D01*
X981349Y12920D01*
Y12915D01*
X981298Y12772D01*
X981242Y12638D01*
X981182Y12522D01*
X981150Y12472D01*
X981122Y12426D01*
X981094Y12384D01*
X981067Y12347D01*
X981044Y12315D01*
X981025Y12287D01*
X981007Y12264D01*
X980993Y12250D01*
X980988Y12241D01*
X980984Y12236D01*
X980886Y12139D01*
X980780Y12056D01*
X980674Y11982D01*
X980572Y11922D01*
X980480Y11876D01*
X980443Y11857D01*
X980411Y11843D01*
X980383Y11829D01*
X980365Y11825D01*
X980351Y11816D01*
X980346D01*
X980194Y11769D01*
X980036Y11733D01*
X979884Y11709D01*
X979736Y11691D01*
X979671Y11686D01*
X979611Y11682D01*
X979556Y11677D01*
X979510D01*
X979473Y11672D01*
X979422D01*
X979274Y11677D01*
X979136Y11682D01*
X979002Y11691D01*
X978942Y11695D01*
X978886Y11700D01*
X978835Y11705D01*
X978789Y11709D01*
X978747D01*
X978715Y11714D01*
X978687Y11719D01*
X978669Y11723D01*
X978650D01*
X978512Y11742D01*
X978387Y11765D01*
X978272Y11788D01*
X978175Y11811D01*
X978133Y11820D01*
X978091Y11829D01*
X978059Y11839D01*
X978031Y11848D01*
X978008Y11853D01*
X977994Y11857D01*
X977985Y11862D01*
X977981D01*
Y12458D01*
X978082Y12430D01*
X978133Y12416D01*
X978175Y12407D01*
X978216Y12398D01*
X978244Y12388D01*
X978262Y12384D01*
X978272D01*
X978387Y12365D01*
X978442Y12356D01*
X978493Y12347D01*
X978535Y12338D01*
X978572Y12333D01*
X978590Y12329D01*
X978600D01*
X978729Y12315D01*
X978789Y12305D01*
X978840Y12301D01*
X978886Y12296D01*
X978923D01*
X978946Y12291D01*
X978955D01*
X979089Y12282D01*
X979149D01*
X979205Y12278D01*
X979320D01*
X979445Y12282D01*
X979556Y12291D01*
X979667Y12310D01*
X979764Y12333D01*
X979856Y12356D01*
X979944Y12384D01*
X980018Y12416D01*
X980087Y12449D01*
X980147Y12481D01*
X980203Y12513D01*
X980249Y12541D01*
X980286Y12564D01*
X980314Y12587D01*
X980332Y12606D01*
X980346Y12615D01*
X980351Y12619D01*
X980415Y12689D01*
X980466Y12758D01*
X980517Y12837D01*
X980554Y12920D01*
X980591Y12998D01*
X980619Y13081D01*
X980642Y13160D01*
X980660Y13239D01*
X980679Y13313D01*
X980688Y13382D01*
X980697Y13446D01*
X980702Y13497D01*
Y13544D01*
X980706Y13576D01*
Y13594D01*
Y13604D01*
X977773D01*
X977768Y13668D01*
X977763Y13733D01*
X977759Y13756D01*
Y13774D01*
Y13788D01*
Y13793D01*
Y13835D01*
X977754Y13881D01*
Y13922D01*
Y13964D01*
Y14001D01*
Y14029D01*
Y14052D01*
Y14056D01*
X977759Y14218D01*
X977773Y14370D01*
X977791Y14504D01*
X977805Y14569D01*
X977814Y14625D01*
X977824Y14675D01*
X977837Y14722D01*
X977847Y14763D01*
X977856Y14796D01*
X977865Y14823D01*
X977870Y14842D01*
X977874Y14856D01*
Y14860D01*
X977925Y14990D01*
X977981Y15110D01*
X978036Y15211D01*
X978096Y15299D01*
X978119Y15341D01*
X978147Y15373D01*
X978170Y15401D01*
X978188Y15424D01*
X978202Y15447D01*
X978216Y15461D01*
X978221Y15465D01*
X978225Y15470D01*
X978318Y15558D01*
X978410Y15641D01*
X978507Y15706D01*
X978595Y15761D01*
X978673Y15807D01*
X978710Y15821D01*
X978738Y15835D01*
X978761Y15849D01*
X978780Y15858D01*
X978789Y15863D01*
X978794D01*
X978923Y15909D01*
X979057Y15941D01*
X979186Y15969D01*
X979307Y15983D01*
X979362Y15992D01*
X979413D01*
X979459Y15997D01*
X979496Y16001D01*
X979570D01*
X979731Y15992D01*
D02*
G37*
G36*
X965678D02*
X965830Y15974D01*
X965969Y15946D01*
X966029Y15932D01*
X966084Y15914D01*
X966140Y15895D01*
X966181Y15881D01*
X966223Y15867D01*
X966255Y15854D01*
X966283Y15844D01*
X966301Y15835D01*
X966315Y15826D01*
X966320D01*
X966444Y15756D01*
X966560Y15678D01*
X966661Y15599D01*
X966749Y15521D01*
X966819Y15456D01*
X966846Y15424D01*
X966869Y15401D01*
X966893Y15378D01*
X966906Y15364D01*
X966911Y15355D01*
X966916Y15350D01*
X967003Y15235D01*
X967077Y15119D01*
X967142Y15003D01*
X967193Y14897D01*
X967216Y14846D01*
X967234Y14800D01*
X967248Y14763D01*
X967262Y14726D01*
X967271Y14698D01*
X967281Y14680D01*
X967285Y14666D01*
Y14662D01*
X967327Y14514D01*
X967359Y14366D01*
X967378Y14223D01*
X967396Y14098D01*
X967401Y14038D01*
X967405Y13987D01*
Y13941D01*
X967410Y13899D01*
Y13867D01*
Y13844D01*
Y13830D01*
Y13825D01*
X967405Y13641D01*
X967391Y13470D01*
X967382Y13391D01*
X967373Y13313D01*
X967364Y13243D01*
X967350Y13179D01*
X967341Y13123D01*
X967331Y13068D01*
X967322Y13026D01*
X967313Y12984D01*
X967304Y12957D01*
X967299Y12934D01*
X967295Y12920D01*
Y12915D01*
X967244Y12772D01*
X967188Y12638D01*
X967128Y12522D01*
X967096Y12472D01*
X967068Y12426D01*
X967040Y12384D01*
X967013Y12347D01*
X966990Y12315D01*
X966971Y12287D01*
X966953Y12264D01*
X966939Y12250D01*
X966934Y12241D01*
X966930Y12236D01*
X966833Y12139D01*
X966726Y12056D01*
X966620Y11982D01*
X966518Y11922D01*
X966426Y11876D01*
X966389Y11857D01*
X966357Y11843D01*
X966329Y11829D01*
X966310Y11825D01*
X966297Y11816D01*
X966292D01*
X966140Y11769D01*
X965982Y11733D01*
X965830Y11709D01*
X965682Y11691D01*
X965617Y11686D01*
X965557Y11682D01*
X965502Y11677D01*
X965456D01*
X965419Y11672D01*
X965368D01*
X965220Y11677D01*
X965082Y11682D01*
X964948Y11691D01*
X964888Y11695D01*
X964832Y11700D01*
X964781Y11705D01*
X964735Y11709D01*
X964693D01*
X964661Y11714D01*
X964633Y11719D01*
X964615Y11723D01*
X964596D01*
X964458Y11742D01*
X964333Y11765D01*
X964218Y11788D01*
X964120Y11811D01*
X964079Y11820D01*
X964037Y11829D01*
X964005Y11839D01*
X963977Y11848D01*
X963954Y11853D01*
X963940Y11857D01*
X963931Y11862D01*
X963927D01*
Y12458D01*
X964028Y12430D01*
X964079Y12416D01*
X964120Y12407D01*
X964162Y12398D01*
X964190Y12388D01*
X964208Y12384D01*
X964218D01*
X964333Y12365D01*
X964388Y12356D01*
X964439Y12347D01*
X964481Y12338D01*
X964518Y12333D01*
X964536Y12329D01*
X964546D01*
X964675Y12315D01*
X964735Y12305D01*
X964786Y12301D01*
X964832Y12296D01*
X964869D01*
X964892Y12291D01*
X964901D01*
X965035Y12282D01*
X965095D01*
X965151Y12278D01*
X965266D01*
X965391Y12282D01*
X965502Y12291D01*
X965613Y12310D01*
X965710Y12333D01*
X965802Y12356D01*
X965890Y12384D01*
X965964Y12416D01*
X966033Y12449D01*
X966093Y12481D01*
X966149Y12513D01*
X966195Y12541D01*
X966232Y12564D01*
X966260Y12587D01*
X966278Y12606D01*
X966292Y12615D01*
X966297Y12619D01*
X966361Y12689D01*
X966412Y12758D01*
X966463Y12837D01*
X966500Y12920D01*
X966537Y12998D01*
X966564Y13081D01*
X966588Y13160D01*
X966606Y13239D01*
X966625Y13313D01*
X966634Y13382D01*
X966643Y13446D01*
X966648Y13497D01*
Y13544D01*
X966652Y13576D01*
Y13594D01*
Y13604D01*
X963719D01*
X963714Y13668D01*
X963709Y13733D01*
X963705Y13756D01*
Y13774D01*
Y13788D01*
Y13793D01*
Y13835D01*
X963700Y13881D01*
Y13922D01*
Y13964D01*
Y14001D01*
Y14029D01*
Y14052D01*
Y14056D01*
X963705Y14218D01*
X963719Y14370D01*
X963737Y14504D01*
X963751Y14569D01*
X963760Y14625D01*
X963769Y14675D01*
X963783Y14722D01*
X963793Y14763D01*
X963802Y14796D01*
X963811Y14823D01*
X963816Y14842D01*
X963820Y14856D01*
Y14860D01*
X963871Y14990D01*
X963927Y15110D01*
X963982Y15211D01*
X964042Y15299D01*
X964065Y15341D01*
X964093Y15373D01*
X964116Y15401D01*
X964134Y15424D01*
X964148Y15447D01*
X964162Y15461D01*
X964167Y15465D01*
X964171Y15470D01*
X964264Y15558D01*
X964356Y15641D01*
X964453Y15706D01*
X964541Y15761D01*
X964620Y15807D01*
X964657Y15821D01*
X964684Y15835D01*
X964707Y15849D01*
X964726Y15858D01*
X964735Y15863D01*
X964740D01*
X964869Y15909D01*
X965003Y15941D01*
X965132Y15969D01*
X965252Y15983D01*
X965308Y15992D01*
X965359D01*
X965405Y15997D01*
X965442Y16001D01*
X965516D01*
X965678Y15992D01*
D02*
G37*
G36*
X995148Y15322D02*
X993915D01*
Y12352D01*
X995287D01*
Y11746D01*
X991938D01*
Y12352D01*
X993180D01*
Y15923D01*
X995148D01*
Y15322D01*
D02*
G37*
G36*
X918207Y15992D02*
X918341Y15969D01*
X918461Y15937D01*
X918572Y15900D01*
X918623Y15881D01*
X918664Y15863D01*
X918701Y15844D01*
X918738Y15830D01*
X918761Y15817D01*
X918780Y15807D01*
X918794Y15803D01*
X918798Y15798D01*
X918868Y15756D01*
X918932Y15715D01*
X919066Y15613D01*
X919186Y15507D01*
X919297Y15401D01*
X919348Y15350D01*
X919394Y15304D01*
X919431Y15262D01*
X919464Y15225D01*
X919491Y15193D01*
X919510Y15170D01*
X919524Y15156D01*
X919528Y15151D01*
X919551Y15923D01*
X920212D01*
Y11746D01*
X919477D01*
Y14426D01*
X919404Y14518D01*
X919334Y14602D01*
X919274Y14675D01*
X919219Y14740D01*
X919173Y14791D01*
X919136Y14828D01*
X919117Y14851D01*
X919108Y14860D01*
X919043Y14925D01*
X918983Y14980D01*
X918923Y15031D01*
X918877Y15077D01*
X918835Y15110D01*
X918803Y15137D01*
X918785Y15151D01*
X918775Y15156D01*
X918715Y15198D01*
X918660Y15230D01*
X918609Y15258D01*
X918563Y15281D01*
X918526Y15299D01*
X918493Y15313D01*
X918475Y15322D01*
X918470D01*
X918415Y15341D01*
X918364Y15355D01*
X918313Y15364D01*
X918267Y15373D01*
X918230D01*
X918202Y15378D01*
X918179D01*
X918119Y15373D01*
X918064Y15368D01*
X917962Y15341D01*
X917874Y15299D01*
X917800Y15253D01*
X917745Y15207D01*
X917708Y15165D01*
X917685Y15137D01*
X917676Y15133D01*
Y15128D01*
X917643Y15077D01*
X917620Y15022D01*
X917574Y14897D01*
X917546Y14768D01*
X917528Y14634D01*
X917519Y14574D01*
X917514Y14518D01*
Y14463D01*
X917509Y14417D01*
Y14380D01*
Y14352D01*
Y14333D01*
Y14329D01*
X916775D01*
Y14481D01*
X916779Y14620D01*
X916793Y14749D01*
X916812Y14874D01*
X916840Y14985D01*
X916863Y15087D01*
X916895Y15179D01*
X916923Y15262D01*
X916955Y15336D01*
X916983Y15401D01*
X917010Y15452D01*
X917038Y15498D01*
X917057Y15530D01*
X917075Y15558D01*
X917084Y15572D01*
X917089Y15576D01*
X917154Y15650D01*
X917227Y15715D01*
X917301Y15775D01*
X917385Y15821D01*
X917463Y15863D01*
X917546Y15900D01*
X917630Y15927D01*
X917703Y15950D01*
X917782Y15964D01*
X917851Y15978D01*
X917911Y15988D01*
X917967Y15997D01*
X918008D01*
X918045Y16001D01*
X918142D01*
X918207Y15992D01*
D02*
G37*
G36*
X906139Y17032D02*
X904906D01*
Y12352D01*
X906278D01*
Y11746D01*
X902929D01*
Y12352D01*
X904171D01*
Y17628D01*
X906139D01*
Y17032D01*
D02*
G37*
G36*
X1017080Y15997D02*
X1017163Y15992D01*
X1017241Y15983D01*
X1017315Y15974D01*
X1017380Y15964D01*
X1017445Y15951D01*
X1017500Y15941D01*
X1017556Y15932D01*
X1017597Y15918D01*
X1017639Y15909D01*
X1017671Y15900D01*
X1017699Y15890D01*
X1017717Y15886D01*
X1017726Y15881D01*
X1017731D01*
X1017851Y15835D01*
X1017953Y15784D01*
X1018045Y15733D01*
X1018119Y15687D01*
X1018179Y15646D01*
X1018221Y15613D01*
X1018248Y15590D01*
X1018258Y15581D01*
X1018327Y15516D01*
X1018382Y15447D01*
X1018429Y15382D01*
X1018470Y15322D01*
X1018498Y15271D01*
X1018516Y15235D01*
X1018530Y15207D01*
X1018535Y15202D01*
Y15198D01*
X1018563Y15124D01*
X1018581Y15050D01*
X1018595Y14985D01*
X1018604Y14930D01*
X1018609Y14879D01*
X1018613Y14846D01*
Y14823D01*
Y14814D01*
X1018609Y14717D01*
X1018600Y14629D01*
X1018581Y14551D01*
X1018563Y14481D01*
X1018549Y14426D01*
X1018530Y14384D01*
X1018521Y14357D01*
X1018516Y14352D01*
Y14347D01*
X1018475Y14278D01*
X1018429Y14213D01*
X1018387Y14153D01*
X1018341Y14103D01*
X1018304Y14061D01*
X1018272Y14033D01*
X1018253Y14010D01*
X1018244Y14006D01*
X1018174Y13955D01*
X1018105Y13908D01*
X1018036Y13862D01*
X1017971Y13825D01*
X1017911Y13798D01*
X1017870Y13774D01*
X1017851Y13765D01*
X1017837Y13761D01*
X1017833Y13756D01*
X1017828D01*
X1017643Y13682D01*
X1017556Y13650D01*
X1017477Y13622D01*
X1017408Y13599D01*
X1017380Y13590D01*
X1017352Y13580D01*
X1017334Y13576D01*
X1017320Y13571D01*
X1017311Y13567D01*
X1017306D01*
X1017172Y13525D01*
X1017052Y13488D01*
X1016950Y13456D01*
X1016867Y13428D01*
X1016798Y13400D01*
X1016770Y13391D01*
X1016752Y13382D01*
X1016733Y13377D01*
X1016719Y13373D01*
X1016715Y13368D01*
X1016710D01*
X1016636Y13336D01*
X1016567Y13303D01*
X1016511Y13276D01*
X1016470Y13248D01*
X1016433Y13229D01*
X1016410Y13211D01*
X1016396Y13202D01*
X1016391Y13197D01*
X1016354Y13169D01*
X1016322Y13137D01*
X1016299Y13109D01*
X1016276Y13081D01*
X1016262Y13058D01*
X1016253Y13040D01*
X1016243Y13031D01*
Y13026D01*
X1016220Y12957D01*
X1016206Y12892D01*
X1016202Y12869D01*
Y12846D01*
Y12832D01*
Y12827D01*
X1016206Y12781D01*
X1016211Y12735D01*
X1016243Y12652D01*
X1016280Y12583D01*
X1016327Y12527D01*
X1016377Y12481D01*
X1016414Y12449D01*
X1016447Y12426D01*
X1016451Y12421D01*
X1016456D01*
X1016507Y12398D01*
X1016562Y12375D01*
X1016682Y12342D01*
X1016807Y12315D01*
X1016932Y12301D01*
X1016992Y12296D01*
X1017047Y12291D01*
X1017093Y12287D01*
X1017140D01*
X1017172Y12282D01*
X1017223D01*
X1017357Y12287D01*
X1017486Y12291D01*
X1017611Y12301D01*
X1017717Y12310D01*
X1017768Y12315D01*
X1017810Y12319D01*
X1017846D01*
X1017883Y12324D01*
X1017907Y12329D01*
X1017925Y12333D01*
X1017943D01*
X1018077Y12356D01*
X1018207Y12384D01*
X1018332Y12407D01*
X1018443Y12435D01*
X1018489Y12449D01*
X1018535Y12458D01*
X1018572Y12467D01*
X1018604Y12476D01*
X1018632Y12486D01*
X1018650Y12490D01*
X1018664Y12495D01*
X1018669D01*
Y11829D01*
X1018544Y11802D01*
X1018419Y11774D01*
X1018299Y11756D01*
X1018198Y11737D01*
X1018147Y11733D01*
X1018105Y11728D01*
X1018068Y11719D01*
X1018036D01*
X1018013Y11714D01*
X1017990Y11709D01*
X1017976D01*
X1017842Y11695D01*
X1017703Y11686D01*
X1017574Y11682D01*
X1017454Y11677D01*
X1017398D01*
X1017348Y11672D01*
X1017195D01*
X1017052Y11677D01*
X1016983Y11682D01*
X1016922Y11691D01*
X1016872Y11695D01*
X1016830Y11700D01*
X1016807Y11705D01*
X1016798D01*
X1016719Y11719D01*
X1016650Y11733D01*
X1016581Y11746D01*
X1016521Y11760D01*
X1016470Y11774D01*
X1016433Y11783D01*
X1016410Y11788D01*
X1016401Y11793D01*
X1016331Y11816D01*
X1016262Y11843D01*
X1016202Y11871D01*
X1016146Y11894D01*
X1016100Y11917D01*
X1016063Y11936D01*
X1016045Y11945D01*
X1016035Y11950D01*
X1015975Y11987D01*
X1015915Y12028D01*
X1015864Y12065D01*
X1015823Y12102D01*
X1015786Y12134D01*
X1015758Y12157D01*
X1015740Y12176D01*
X1015735Y12181D01*
X1015689Y12231D01*
X1015647Y12287D01*
X1015615Y12338D01*
X1015583Y12384D01*
X1015564Y12426D01*
X1015546Y12462D01*
X1015536Y12481D01*
X1015532Y12490D01*
X1015504Y12560D01*
X1015486Y12629D01*
X1015472Y12694D01*
X1015463Y12754D01*
X1015458Y12809D01*
X1015453Y12851D01*
Y12878D01*
Y12883D01*
Y12888D01*
X1015458Y12971D01*
X1015463Y13049D01*
X1015477Y13118D01*
X1015486Y13179D01*
X1015500Y13229D01*
X1015513Y13266D01*
X1015518Y13289D01*
X1015523Y13299D01*
X1015550Y13368D01*
X1015587Y13428D01*
X1015624Y13484D01*
X1015666Y13534D01*
X1015698Y13571D01*
X1015726Y13604D01*
X1015744Y13622D01*
X1015754Y13627D01*
X1015818Y13682D01*
X1015883Y13733D01*
X1015952Y13774D01*
X1016017Y13816D01*
X1016077Y13848D01*
X1016123Y13872D01*
X1016142Y13881D01*
X1016156Y13890D01*
X1016160Y13895D01*
X1016165D01*
X1016262Y13941D01*
X1016368Y13982D01*
X1016470Y14019D01*
X1016571Y14052D01*
X1016655Y14080D01*
X1016696Y14093D01*
X1016724Y14103D01*
X1016752Y14112D01*
X1016770Y14116D01*
X1016784Y14121D01*
X1016788D01*
X1016909Y14158D01*
X1017015Y14195D01*
X1017112Y14223D01*
X1017190Y14250D01*
X1017255Y14274D01*
X1017301Y14292D01*
X1017315Y14297D01*
X1017329Y14301D01*
X1017334Y14306D01*
X1017338D01*
X1017412Y14338D01*
X1017482Y14370D01*
X1017537Y14398D01*
X1017583Y14426D01*
X1017620Y14444D01*
X1017648Y14463D01*
X1017666Y14472D01*
X1017671Y14477D01*
X1017712Y14509D01*
X1017745Y14541D01*
X1017773Y14569D01*
X1017796Y14597D01*
X1017814Y14620D01*
X1017823Y14638D01*
X1017833Y14648D01*
Y14652D01*
X1017856Y14726D01*
X1017870Y14791D01*
Y14819D01*
X1017874Y14842D01*
Y14856D01*
Y14860D01*
X1017865Y14939D01*
X1017860Y14976D01*
X1017851Y15008D01*
X1017842Y15031D01*
X1017837Y15050D01*
X1017828Y15064D01*
Y15068D01*
X1017805Y15105D01*
X1017782Y15137D01*
X1017726Y15188D01*
X1017699Y15211D01*
X1017680Y15225D01*
X1017666Y15235D01*
X1017662Y15239D01*
X1017616Y15267D01*
X1017565Y15290D01*
X1017514Y15308D01*
X1017468Y15327D01*
X1017426Y15336D01*
X1017394Y15345D01*
X1017371Y15355D01*
X1017361D01*
X1017288Y15368D01*
X1017214Y15378D01*
X1017135Y15387D01*
X1017066Y15392D01*
X1017001Y15396D01*
X1016821D01*
X1016728Y15392D01*
X1016641Y15382D01*
X1016558Y15378D01*
X1016484Y15368D01*
X1016456Y15364D01*
X1016428Y15359D01*
X1016405D01*
X1016391Y15355D01*
X1016377D01*
X1016262Y15336D01*
X1016146Y15318D01*
X1016035Y15299D01*
X1015934Y15281D01*
X1015892Y15271D01*
X1015851Y15262D01*
X1015814Y15253D01*
X1015786Y15248D01*
X1015758Y15244D01*
X1015740Y15239D01*
X1015731Y15235D01*
X1015726D01*
Y15881D01*
X1015846Y15904D01*
X1015962Y15923D01*
X1016068Y15941D01*
X1016165Y15951D01*
X1016206Y15955D01*
X1016243Y15960D01*
X1016276Y15964D01*
X1016303Y15969D01*
X1016327D01*
X1016340Y15974D01*
X1016354D01*
X1016461Y15983D01*
X1016562Y15992D01*
X1016655Y15997D01*
X1016738D01*
X1016807Y16001D01*
X1016899D01*
X1017080Y15997D01*
D02*
G37*
G36*
X1012497Y12943D02*
X1012538Y12934D01*
X1012575Y12924D01*
X1012607Y12915D01*
X1012630Y12906D01*
X1012644Y12901D01*
X1012649Y12897D01*
X1012728Y12855D01*
X1012764Y12832D01*
X1012792Y12809D01*
X1012820Y12790D01*
X1012838Y12772D01*
X1012848Y12763D01*
X1012852Y12758D01*
X1012912Y12689D01*
X1012954Y12624D01*
X1012968Y12596D01*
X1012982Y12573D01*
X1012986Y12560D01*
X1012991Y12555D01*
X1013019Y12467D01*
X1013028Y12426D01*
X1013033Y12388D01*
Y12356D01*
X1013037Y12333D01*
Y12315D01*
Y12310D01*
X1013028Y12213D01*
X1013023Y12171D01*
X1013014Y12134D01*
X1013005Y12102D01*
X1013000Y12079D01*
X1012991Y12065D01*
Y12060D01*
X1012949Y11982D01*
X1012926Y11945D01*
X1012903Y11917D01*
X1012885Y11890D01*
X1012866Y11871D01*
X1012857Y11862D01*
X1012852Y11857D01*
X1012783Y11797D01*
X1012718Y11756D01*
X1012691Y11742D01*
X1012667Y11733D01*
X1012654Y11723D01*
X1012649D01*
X1012603Y11705D01*
X1012561Y11695D01*
X1012520Y11686D01*
X1012483Y11677D01*
X1012446D01*
X1012423Y11672D01*
X1012399D01*
X1012353Y11677D01*
X1012307Y11682D01*
X1012266Y11691D01*
X1012229Y11700D01*
X1012196Y11709D01*
X1012173Y11714D01*
X1012159Y11723D01*
X1012155D01*
X1012076Y11765D01*
X1012039Y11788D01*
X1012012Y11806D01*
X1011984Y11825D01*
X1011965Y11843D01*
X1011956Y11853D01*
X1011951Y11857D01*
X1011891Y11926D01*
X1011850Y11991D01*
X1011831Y12019D01*
X1011822Y12042D01*
X1011813Y12056D01*
Y12060D01*
X1011794Y12107D01*
X1011780Y12148D01*
X1011771Y12190D01*
X1011762Y12227D01*
Y12264D01*
X1011757Y12287D01*
Y12305D01*
Y12310D01*
Y12356D01*
X1011767Y12402D01*
X1011776Y12444D01*
X1011785Y12481D01*
X1011794Y12513D01*
X1011804Y12536D01*
X1011808Y12550D01*
X1011813Y12555D01*
X1011854Y12633D01*
X1011878Y12670D01*
X1011901Y12698D01*
X1011919Y12726D01*
X1011938Y12744D01*
X1011947Y12754D01*
X1011951Y12758D01*
X1012021Y12818D01*
X1012085Y12860D01*
X1012113Y12878D01*
X1012136Y12888D01*
X1012150Y12897D01*
X1012155D01*
X1012196Y12915D01*
X1012243Y12929D01*
X1012284Y12938D01*
X1012321Y12948D01*
X1012353D01*
X1012376Y12952D01*
X1012450D01*
X1012497Y12943D01*
D02*
G37*
G36*
X975065Y13049D02*
X975111Y13040D01*
X975148Y13031D01*
X975185Y13022D01*
X975208Y13012D01*
X975227Y13008D01*
X975232Y13003D01*
X975319Y12957D01*
X975356Y12929D01*
X975389Y12906D01*
X975412Y12883D01*
X975430Y12869D01*
X975444Y12855D01*
X975449Y12851D01*
X975509Y12777D01*
X975555Y12707D01*
X975574Y12675D01*
X975587Y12652D01*
X975592Y12633D01*
X975597Y12629D01*
X975615Y12583D01*
X975624Y12532D01*
X975634Y12486D01*
X975643Y12444D01*
Y12412D01*
X975647Y12379D01*
Y12361D01*
Y12356D01*
X975643Y12305D01*
X975638Y12255D01*
X975629Y12208D01*
X975620Y12171D01*
X975611Y12134D01*
X975606Y12111D01*
X975597Y12093D01*
Y12088D01*
X975550Y12000D01*
X975527Y11964D01*
X975500Y11931D01*
X975481Y11908D01*
X975463Y11890D01*
X975453Y11876D01*
X975449Y11871D01*
X975375Y11811D01*
X975306Y11765D01*
X975278Y11751D01*
X975250Y11737D01*
X975236Y11733D01*
X975232Y11728D01*
X975185Y11709D01*
X975135Y11695D01*
X975088Y11686D01*
X975047Y11682D01*
X975014Y11677D01*
X974982Y11672D01*
X974959D01*
X974908Y11677D01*
X974857Y11682D01*
X974811Y11691D01*
X974770Y11700D01*
X974737Y11709D01*
X974714Y11719D01*
X974696Y11728D01*
X974691D01*
X974645Y11751D01*
X974603Y11774D01*
X974562Y11797D01*
X974529Y11820D01*
X974506Y11839D01*
X974488Y11857D01*
X974474Y11867D01*
X974469Y11871D01*
X974409Y11945D01*
X974358Y12014D01*
X974345Y12042D01*
X974331Y12070D01*
X974326Y12084D01*
X974321Y12088D01*
X974303Y12139D01*
X974289Y12185D01*
X974280Y12231D01*
X974271Y12273D01*
Y12305D01*
X974266Y12333D01*
Y12352D01*
Y12356D01*
Y12412D01*
X974275Y12462D01*
X974284Y12509D01*
X974294Y12550D01*
X974303Y12583D01*
X974312Y12606D01*
X974317Y12624D01*
X974321Y12629D01*
X974345Y12675D01*
X974368Y12717D01*
X974391Y12758D01*
X974414Y12790D01*
X974437Y12814D01*
X974456Y12832D01*
X974465Y12846D01*
X974469Y12851D01*
X974543Y12915D01*
X974613Y12961D01*
X974645Y12980D01*
X974668Y12994D01*
X974687Y12998D01*
X974691Y13003D01*
X974737Y13022D01*
X974784Y13035D01*
X974830Y13045D01*
X974871Y13054D01*
X974908D01*
X974936Y13058D01*
X975014D01*
X975065Y13049D01*
D02*
G37*
G36*
X951628Y15997D02*
X951785Y15978D01*
X951859Y15964D01*
X951928Y15951D01*
X951993Y15937D01*
X952053Y15923D01*
X952108Y15904D01*
X952155Y15890D01*
X952196Y15877D01*
X952233Y15867D01*
X952261Y15854D01*
X952279Y15849D01*
X952293Y15840D01*
X952298D01*
X952432Y15775D01*
X952552Y15701D01*
X952658Y15627D01*
X952751Y15553D01*
X952788Y15521D01*
X952825Y15489D01*
X952857Y15461D01*
X952880Y15433D01*
X952899Y15415D01*
X952912Y15401D01*
X952922Y15392D01*
X952926Y15387D01*
X953019Y15276D01*
X953097Y15160D01*
X953166Y15045D01*
X953222Y14934D01*
X953245Y14888D01*
X953268Y14842D01*
X953282Y14800D01*
X953296Y14768D01*
X953310Y14736D01*
X953319Y14717D01*
X953324Y14703D01*
Y14698D01*
X953370Y14546D01*
X953402Y14389D01*
X953425Y14241D01*
X953434Y14172D01*
X953439Y14103D01*
X953448Y14042D01*
Y13987D01*
X953453Y13936D01*
X953458Y13895D01*
Y13858D01*
Y13835D01*
Y13816D01*
Y13812D01*
X953453Y13622D01*
X953439Y13446D01*
X953425Y13368D01*
X953416Y13289D01*
X953407Y13220D01*
X953393Y13155D01*
X953379Y13095D01*
X953370Y13045D01*
X953356Y12998D01*
X953347Y12957D01*
X953342Y12929D01*
X953333Y12906D01*
X953328Y12892D01*
Y12888D01*
X953273Y12744D01*
X953213Y12615D01*
X953153Y12499D01*
X953120Y12449D01*
X953093Y12402D01*
X953065Y12361D01*
X953037Y12324D01*
X953014Y12291D01*
X952996Y12268D01*
X952977Y12245D01*
X952963Y12231D01*
X952959Y12222D01*
X952954Y12218D01*
X952857Y12125D01*
X952755Y12042D01*
X952654Y11973D01*
X952557Y11913D01*
X952474Y11871D01*
X952437Y11853D01*
X952409Y11839D01*
X952381Y11825D01*
X952363Y11816D01*
X952353Y11811D01*
X952349D01*
X952210Y11765D01*
X952072Y11733D01*
X951938Y11705D01*
X951813Y11691D01*
X951753Y11686D01*
X951702Y11682D01*
X951656Y11677D01*
X951614D01*
X951587Y11672D01*
X951540D01*
X951369Y11677D01*
X951212Y11695D01*
X951138Y11709D01*
X951069Y11723D01*
X951004Y11737D01*
X950949Y11751D01*
X950893Y11765D01*
X950847Y11779D01*
X950806Y11793D01*
X950769Y11806D01*
X950741Y11816D01*
X950723Y11825D01*
X950709Y11829D01*
X950704D01*
X950570Y11894D01*
X950450Y11968D01*
X950344Y12042D01*
X950251Y12116D01*
X950210Y12148D01*
X950177Y12181D01*
X950145Y12208D01*
X950122Y12231D01*
X950103Y12250D01*
X950090Y12264D01*
X950080Y12273D01*
X950076Y12278D01*
X949983Y12393D01*
X949905Y12509D01*
X949835Y12624D01*
X949780Y12735D01*
X949757Y12786D01*
X949734Y12832D01*
X949720Y12874D01*
X949706Y12906D01*
X949692Y12934D01*
X949683Y12957D01*
X949678Y12971D01*
Y12975D01*
X949632Y13132D01*
X949600Y13285D01*
X949572Y13437D01*
X949563Y13507D01*
X949558Y13576D01*
X949549Y13636D01*
Y13691D01*
X949544Y13742D01*
X949540Y13784D01*
Y13821D01*
Y13844D01*
Y13862D01*
Y13867D01*
X949544Y14056D01*
X949558Y14227D01*
X949572Y14310D01*
X949581Y14384D01*
X949595Y14454D01*
X949605Y14518D01*
X949618Y14578D01*
X949632Y14629D01*
X949642Y14675D01*
X949651Y14712D01*
X949660Y14740D01*
X949669Y14763D01*
X949674Y14777D01*
Y14782D01*
X949729Y14925D01*
X949789Y15054D01*
X949849Y15170D01*
X949882Y15221D01*
X949909Y15267D01*
X949942Y15308D01*
X949965Y15345D01*
X949993Y15378D01*
X950011Y15405D01*
X950029Y15424D01*
X950043Y15438D01*
X950048Y15447D01*
X950053Y15452D01*
X950150Y15544D01*
X950251Y15627D01*
X950348Y15696D01*
X950445Y15756D01*
X950529Y15798D01*
X950561Y15817D01*
X950593Y15830D01*
X950621Y15844D01*
X950639Y15854D01*
X950649Y15858D01*
X950653D01*
X950792Y15904D01*
X950930Y15941D01*
X951064Y15964D01*
X951189Y15983D01*
X951245Y15988D01*
X951295Y15992D01*
X951342Y15997D01*
X951383Y16001D01*
X951457D01*
X951628Y15997D01*
D02*
G37*
G36*
X946809D02*
X946893Y15992D01*
X946971Y15983D01*
X947045Y15974D01*
X947110Y15964D01*
X947174Y15950D01*
X947230Y15941D01*
X947285Y15932D01*
X947327Y15918D01*
X947368Y15909D01*
X947401Y15900D01*
X947429Y15890D01*
X947447Y15886D01*
X947456Y15881D01*
X947461D01*
X947581Y15835D01*
X947683Y15784D01*
X947775Y15733D01*
X947849Y15687D01*
X947909Y15646D01*
X947950Y15613D01*
X947978Y15590D01*
X947987Y15581D01*
X948057Y15516D01*
X948112Y15447D01*
X948158Y15382D01*
X948200Y15322D01*
X948228Y15271D01*
X948246Y15234D01*
X948260Y15207D01*
X948265Y15202D01*
Y15198D01*
X948292Y15124D01*
X948311Y15050D01*
X948325Y14985D01*
X948334Y14930D01*
X948339Y14879D01*
X948343Y14846D01*
Y14823D01*
Y14814D01*
X948339Y14717D01*
X948329Y14629D01*
X948311Y14551D01*
X948292Y14481D01*
X948279Y14426D01*
X948260Y14384D01*
X948251Y14357D01*
X948246Y14352D01*
Y14347D01*
X948205Y14278D01*
X948158Y14213D01*
X948117Y14153D01*
X948071Y14103D01*
X948034Y14061D01*
X948001Y14033D01*
X947983Y14010D01*
X947974Y14006D01*
X947904Y13955D01*
X947835Y13908D01*
X947766Y13862D01*
X947701Y13825D01*
X947641Y13798D01*
X947599Y13774D01*
X947581Y13765D01*
X947567Y13761D01*
X947563Y13756D01*
X947558D01*
X947373Y13682D01*
X947285Y13650D01*
X947207Y13622D01*
X947137Y13599D01*
X947110Y13590D01*
X947082Y13580D01*
X947064Y13576D01*
X947050Y13571D01*
X947040Y13567D01*
X947036D01*
X946902Y13525D01*
X946782Y13488D01*
X946680Y13456D01*
X946597Y13428D01*
X946528Y13400D01*
X946500Y13391D01*
X946481Y13382D01*
X946463Y13377D01*
X946449Y13373D01*
X946444Y13368D01*
X946440D01*
X946366Y13336D01*
X946297Y13303D01*
X946241Y13276D01*
X946200Y13248D01*
X946163Y13229D01*
X946140Y13211D01*
X946126Y13202D01*
X946121Y13197D01*
X946084Y13169D01*
X946052Y13137D01*
X946029Y13109D01*
X946006Y13081D01*
X945992Y13058D01*
X945982Y13040D01*
X945973Y13031D01*
Y13026D01*
X945950Y12957D01*
X945936Y12892D01*
X945932Y12869D01*
Y12846D01*
Y12832D01*
Y12827D01*
X945936Y12781D01*
X945941Y12735D01*
X945973Y12652D01*
X946010Y12583D01*
X946056Y12527D01*
X946107Y12481D01*
X946144Y12449D01*
X946177Y12426D01*
X946181Y12421D01*
X946186D01*
X946237Y12398D01*
X946292Y12375D01*
X946412Y12342D01*
X946537Y12315D01*
X946662Y12301D01*
X946722Y12296D01*
X946777Y12291D01*
X946823Y12287D01*
X946869D01*
X946902Y12282D01*
X946953D01*
X947087Y12287D01*
X947216Y12291D01*
X947341Y12301D01*
X947447Y12310D01*
X947498Y12315D01*
X947539Y12319D01*
X947576D01*
X947613Y12324D01*
X947636Y12329D01*
X947655Y12333D01*
X947673D01*
X947807Y12356D01*
X947937Y12384D01*
X948061Y12407D01*
X948172Y12435D01*
X948219Y12449D01*
X948265Y12458D01*
X948302Y12467D01*
X948334Y12476D01*
X948362Y12485D01*
X948380Y12490D01*
X948394Y12495D01*
X948399D01*
Y11829D01*
X948274Y11802D01*
X948149Y11774D01*
X948029Y11756D01*
X947927Y11737D01*
X947877Y11733D01*
X947835Y11728D01*
X947798Y11719D01*
X947766D01*
X947743Y11714D01*
X947719Y11709D01*
X947706D01*
X947572Y11695D01*
X947433Y11686D01*
X947304Y11682D01*
X947184Y11677D01*
X947128D01*
X947077Y11672D01*
X946925D01*
X946782Y11677D01*
X946712Y11682D01*
X946652Y11691D01*
X946601Y11695D01*
X946560Y11700D01*
X946537Y11705D01*
X946528D01*
X946449Y11719D01*
X946380Y11733D01*
X946310Y11746D01*
X946250Y11760D01*
X946200Y11774D01*
X946163Y11783D01*
X946140Y11788D01*
X946130Y11793D01*
X946061Y11816D01*
X945992Y11843D01*
X945932Y11871D01*
X945876Y11894D01*
X945830Y11917D01*
X945793Y11936D01*
X945774Y11945D01*
X945765Y11950D01*
X945705Y11987D01*
X945645Y12028D01*
X945594Y12065D01*
X945553Y12102D01*
X945516Y12134D01*
X945488Y12157D01*
X945470Y12176D01*
X945465Y12181D01*
X945419Y12231D01*
X945377Y12287D01*
X945345Y12338D01*
X945312Y12384D01*
X945294Y12426D01*
X945276Y12462D01*
X945266Y12481D01*
X945262Y12490D01*
X945234Y12560D01*
X945216Y12629D01*
X945202Y12693D01*
X945192Y12754D01*
X945188Y12809D01*
X945183Y12851D01*
Y12878D01*
Y12883D01*
Y12888D01*
X945188Y12971D01*
X945192Y13049D01*
X945206Y13118D01*
X945216Y13179D01*
X945229Y13229D01*
X945243Y13266D01*
X945248Y13289D01*
X945253Y13299D01*
X945280Y13368D01*
X945317Y13428D01*
X945354Y13484D01*
X945396Y13534D01*
X945428Y13571D01*
X945456Y13604D01*
X945474Y13622D01*
X945483Y13627D01*
X945548Y13682D01*
X945613Y13733D01*
X945682Y13774D01*
X945747Y13816D01*
X945807Y13848D01*
X945853Y13871D01*
X945872Y13881D01*
X945885Y13890D01*
X945890Y13895D01*
X945895D01*
X945992Y13941D01*
X946098Y13982D01*
X946200Y14019D01*
X946301Y14052D01*
X946384Y14079D01*
X946426Y14093D01*
X946454Y14103D01*
X946481Y14112D01*
X946500Y14116D01*
X946514Y14121D01*
X946518D01*
X946638Y14158D01*
X946745Y14195D01*
X946842Y14223D01*
X946920Y14250D01*
X946985Y14274D01*
X947031Y14292D01*
X947045Y14297D01*
X947059Y14301D01*
X947064Y14306D01*
X947068D01*
X947142Y14338D01*
X947211Y14370D01*
X947267Y14398D01*
X947313Y14426D01*
X947350Y14444D01*
X947378Y14463D01*
X947396Y14472D01*
X947401Y14477D01*
X947442Y14509D01*
X947475Y14541D01*
X947502Y14569D01*
X947526Y14597D01*
X947544Y14620D01*
X947553Y14638D01*
X947563Y14648D01*
Y14652D01*
X947586Y14726D01*
X947599Y14791D01*
Y14819D01*
X947604Y14842D01*
Y14856D01*
Y14860D01*
X947595Y14939D01*
X947590Y14976D01*
X947581Y15008D01*
X947572Y15031D01*
X947567Y15050D01*
X947558Y15064D01*
Y15068D01*
X947535Y15105D01*
X947512Y15137D01*
X947456Y15188D01*
X947429Y15211D01*
X947410Y15225D01*
X947396Y15234D01*
X947392Y15239D01*
X947345Y15267D01*
X947295Y15290D01*
X947244Y15308D01*
X947198Y15327D01*
X947156Y15336D01*
X947124Y15345D01*
X947101Y15355D01*
X947091D01*
X947017Y15368D01*
X946943Y15378D01*
X946865Y15387D01*
X946795Y15392D01*
X946731Y15396D01*
X946551D01*
X946458Y15392D01*
X946371Y15382D01*
X946287Y15378D01*
X946213Y15368D01*
X946186Y15364D01*
X946158Y15359D01*
X946135D01*
X946121Y15355D01*
X946107D01*
X945992Y15336D01*
X945876Y15318D01*
X945765Y15299D01*
X945664Y15281D01*
X945622Y15271D01*
X945580Y15262D01*
X945543Y15253D01*
X945516Y15248D01*
X945488Y15244D01*
X945470Y15239D01*
X945460Y15234D01*
X945456D01*
Y15881D01*
X945576Y15904D01*
X945691Y15923D01*
X945798Y15941D01*
X945895Y15950D01*
X945936Y15955D01*
X945973Y15960D01*
X946006Y15964D01*
X946033Y15969D01*
X946056D01*
X946070Y15974D01*
X946084D01*
X946190Y15983D01*
X946292Y15992D01*
X946384Y15997D01*
X946467D01*
X946537Y16001D01*
X946629D01*
X946809Y15997D01*
D02*
G37*
G36*
X937440D02*
X937523Y15992D01*
X937602Y15983D01*
X937676Y15974D01*
X937740Y15964D01*
X937805Y15950D01*
X937860Y15941D01*
X937916Y15932D01*
X937957Y15918D01*
X937999Y15909D01*
X938031Y15900D01*
X938059Y15890D01*
X938078Y15886D01*
X938087Y15881D01*
X938091D01*
X938212Y15835D01*
X938313Y15784D01*
X938406Y15733D01*
X938480Y15687D01*
X938540Y15646D01*
X938581Y15613D01*
X938609Y15590D01*
X938618Y15581D01*
X938687Y15516D01*
X938743Y15447D01*
X938789Y15382D01*
X938831Y15322D01*
X938858Y15271D01*
X938877Y15234D01*
X938891Y15207D01*
X938895Y15202D01*
Y15198D01*
X938923Y15124D01*
X938941Y15050D01*
X938955Y14985D01*
X938965Y14930D01*
X938969Y14879D01*
X938974Y14846D01*
Y14823D01*
Y14814D01*
X938969Y14717D01*
X938960Y14629D01*
X938941Y14551D01*
X938923Y14481D01*
X938909Y14426D01*
X938891Y14384D01*
X938881Y14357D01*
X938877Y14352D01*
Y14347D01*
X938835Y14278D01*
X938789Y14213D01*
X938748Y14153D01*
X938701Y14103D01*
X938664Y14061D01*
X938632Y14033D01*
X938614Y14010D01*
X938604Y14006D01*
X938535Y13955D01*
X938466Y13908D01*
X938396Y13862D01*
X938332Y13825D01*
X938272Y13798D01*
X938230Y13774D01*
X938212Y13765D01*
X938198Y13761D01*
X938193Y13756D01*
X938188D01*
X938004Y13682D01*
X937916Y13650D01*
X937837Y13622D01*
X937768Y13599D01*
X937740Y13590D01*
X937713Y13580D01*
X937694Y13576D01*
X937680Y13571D01*
X937671Y13567D01*
X937666D01*
X937532Y13525D01*
X937412Y13488D01*
X937311Y13456D01*
X937228Y13428D01*
X937158Y13400D01*
X937131Y13391D01*
X937112Y13382D01*
X937094Y13377D01*
X937080Y13373D01*
X937075Y13368D01*
X937070D01*
X936996Y13336D01*
X936927Y13303D01*
X936872Y13276D01*
X936830Y13248D01*
X936793Y13229D01*
X936770Y13211D01*
X936756Y13202D01*
X936752Y13197D01*
X936715Y13169D01*
X936682Y13137D01*
X936659Y13109D01*
X936636Y13081D01*
X936622Y13058D01*
X936613Y13040D01*
X936604Y13031D01*
Y13026D01*
X936581Y12957D01*
X936567Y12892D01*
X936562Y12869D01*
Y12846D01*
Y12832D01*
Y12827D01*
X936567Y12781D01*
X936572Y12735D01*
X936604Y12652D01*
X936641Y12583D01*
X936687Y12527D01*
X936738Y12481D01*
X936775Y12449D01*
X936807Y12426D01*
X936812Y12421D01*
X936816D01*
X936867Y12398D01*
X936923Y12375D01*
X937043Y12342D01*
X937167Y12315D01*
X937292Y12301D01*
X937352Y12296D01*
X937408Y12291D01*
X937454Y12287D01*
X937500D01*
X937532Y12282D01*
X937583D01*
X937717Y12287D01*
X937847Y12291D01*
X937971Y12301D01*
X938078Y12310D01*
X938128Y12315D01*
X938170Y12319D01*
X938207D01*
X938244Y12324D01*
X938267Y12329D01*
X938286Y12333D01*
X938304D01*
X938438Y12356D01*
X938567Y12384D01*
X938692Y12407D01*
X938803Y12435D01*
X938849Y12449D01*
X938895Y12458D01*
X938932Y12467D01*
X938965Y12476D01*
X938992Y12485D01*
X939011Y12490D01*
X939025Y12495D01*
X939029D01*
Y11829D01*
X938905Y11802D01*
X938780Y11774D01*
X938660Y11756D01*
X938558Y11737D01*
X938507Y11733D01*
X938466Y11728D01*
X938429Y11719D01*
X938396D01*
X938373Y11714D01*
X938350Y11709D01*
X938336D01*
X938202Y11695D01*
X938064Y11686D01*
X937934Y11682D01*
X937814Y11677D01*
X937759D01*
X937708Y11672D01*
X937556D01*
X937412Y11677D01*
X937343Y11682D01*
X937283Y11691D01*
X937232Y11695D01*
X937191Y11700D01*
X937167Y11705D01*
X937158D01*
X937080Y11719D01*
X937010Y11733D01*
X936941Y11746D01*
X936881Y11760D01*
X936830Y11774D01*
X936793Y11783D01*
X936770Y11788D01*
X936761Y11793D01*
X936692Y11816D01*
X936622Y11843D01*
X936562Y11871D01*
X936507Y11894D01*
X936461Y11917D01*
X936424Y11936D01*
X936405Y11945D01*
X936396Y11950D01*
X936336Y11987D01*
X936276Y12028D01*
X936225Y12065D01*
X936183Y12102D01*
X936146Y12134D01*
X936119Y12157D01*
X936100Y12176D01*
X936096Y12181D01*
X936049Y12231D01*
X936008Y12287D01*
X935975Y12338D01*
X935943Y12384D01*
X935925Y12426D01*
X935906Y12462D01*
X935897Y12481D01*
X935892Y12490D01*
X935865Y12560D01*
X935846Y12629D01*
X935832Y12693D01*
X935823Y12754D01*
X935818Y12809D01*
X935814Y12851D01*
Y12878D01*
Y12883D01*
Y12888D01*
X935818Y12971D01*
X935823Y13049D01*
X935837Y13118D01*
X935846Y13179D01*
X935860Y13229D01*
X935874Y13266D01*
X935878Y13289D01*
X935883Y13299D01*
X935911Y13368D01*
X935948Y13428D01*
X935985Y13484D01*
X936026Y13534D01*
X936059Y13571D01*
X936086Y13604D01*
X936105Y13622D01*
X936114Y13627D01*
X936179Y13682D01*
X936244Y13733D01*
X936313Y13774D01*
X936377Y13816D01*
X936438Y13848D01*
X936484Y13871D01*
X936502Y13881D01*
X936516Y13890D01*
X936521Y13895D01*
X936525D01*
X936622Y13941D01*
X936729Y13982D01*
X936830Y14019D01*
X936932Y14052D01*
X937015Y14079D01*
X937057Y14093D01*
X937084Y14103D01*
X937112Y14112D01*
X937131Y14116D01*
X937144Y14121D01*
X937149D01*
X937269Y14158D01*
X937375Y14195D01*
X937472Y14223D01*
X937551Y14250D01*
X937616Y14274D01*
X937662Y14292D01*
X937676Y14297D01*
X937689Y14301D01*
X937694Y14306D01*
X937699D01*
X937773Y14338D01*
X937842Y14370D01*
X937897Y14398D01*
X937944Y14426D01*
X937981Y14444D01*
X938008Y14463D01*
X938027Y14472D01*
X938031Y14477D01*
X938073Y14509D01*
X938105Y14541D01*
X938133Y14569D01*
X938156Y14597D01*
X938175Y14620D01*
X938184Y14638D01*
X938193Y14648D01*
Y14652D01*
X938216Y14726D01*
X938230Y14791D01*
Y14819D01*
X938235Y14842D01*
Y14856D01*
Y14860D01*
X938225Y14939D01*
X938221Y14976D01*
X938212Y15008D01*
X938202Y15031D01*
X938198Y15050D01*
X938188Y15064D01*
Y15068D01*
X938165Y15105D01*
X938142Y15137D01*
X938087Y15188D01*
X938059Y15211D01*
X938041Y15225D01*
X938027Y15234D01*
X938022Y15239D01*
X937976Y15267D01*
X937925Y15290D01*
X937874Y15308D01*
X937828Y15327D01*
X937786Y15336D01*
X937754Y15345D01*
X937731Y15355D01*
X937722D01*
X937648Y15368D01*
X937574Y15378D01*
X937496Y15387D01*
X937426Y15392D01*
X937362Y15396D01*
X937181D01*
X937089Y15392D01*
X937001Y15382D01*
X936918Y15378D01*
X936844Y15368D01*
X936816Y15364D01*
X936789Y15359D01*
X936765D01*
X936752Y15355D01*
X936738D01*
X936622Y15336D01*
X936507Y15318D01*
X936396Y15299D01*
X936294Y15281D01*
X936253Y15271D01*
X936211Y15262D01*
X936174Y15253D01*
X936146Y15248D01*
X936119Y15244D01*
X936100Y15239D01*
X936091Y15234D01*
X936086D01*
Y15881D01*
X936207Y15904D01*
X936322Y15923D01*
X936428Y15941D01*
X936525Y15950D01*
X936567Y15955D01*
X936604Y15960D01*
X936636Y15964D01*
X936664Y15969D01*
X936687D01*
X936701Y15974D01*
X936715D01*
X936821Y15983D01*
X936923Y15992D01*
X937015Y15997D01*
X937098D01*
X937167Y16001D01*
X937260D01*
X937440Y15997D01*
D02*
G37*
G36*
X923520D02*
X923677Y15978D01*
X923751Y15964D01*
X923820Y15950D01*
X923885Y15937D01*
X923945Y15923D01*
X924000Y15904D01*
X924047Y15890D01*
X924088Y15877D01*
X924125Y15867D01*
X924153Y15854D01*
X924171Y15849D01*
X924185Y15840D01*
X924190D01*
X924324Y15775D01*
X924444Y15701D01*
X924550Y15627D01*
X924643Y15553D01*
X924680Y15521D01*
X924717Y15488D01*
X924749Y15461D01*
X924772Y15433D01*
X924790Y15415D01*
X924804Y15401D01*
X924814Y15392D01*
X924818Y15387D01*
X924911Y15276D01*
X924989Y15160D01*
X925058Y15045D01*
X925114Y14934D01*
X925137Y14888D01*
X925160Y14842D01*
X925174Y14800D01*
X925188Y14768D01*
X925202Y14736D01*
X925211Y14717D01*
X925216Y14703D01*
Y14698D01*
X925262Y14546D01*
X925294Y14389D01*
X925317Y14241D01*
X925326Y14172D01*
X925331Y14103D01*
X925340Y14042D01*
Y13987D01*
X925345Y13936D01*
X925350Y13895D01*
Y13858D01*
Y13835D01*
Y13816D01*
Y13812D01*
X925345Y13622D01*
X925331Y13446D01*
X925317Y13368D01*
X925308Y13289D01*
X925299Y13220D01*
X925285Y13155D01*
X925271Y13095D01*
X925262Y13045D01*
X925248Y12998D01*
X925239Y12957D01*
X925234Y12929D01*
X925225Y12906D01*
X925220Y12892D01*
Y12888D01*
X925165Y12744D01*
X925105Y12615D01*
X925045Y12499D01*
X925012Y12449D01*
X924984Y12402D01*
X924957Y12361D01*
X924929Y12324D01*
X924906Y12291D01*
X924887Y12268D01*
X924869Y12245D01*
X924855Y12231D01*
X924850Y12222D01*
X924846Y12218D01*
X924749Y12125D01*
X924647Y12042D01*
X924546Y11973D01*
X924449Y11913D01*
X924365Y11871D01*
X924329Y11853D01*
X924301Y11839D01*
X924273Y11825D01*
X924255Y11816D01*
X924245Y11811D01*
X924241D01*
X924102Y11765D01*
X923964Y11733D01*
X923829Y11705D01*
X923705Y11691D01*
X923645Y11686D01*
X923594Y11682D01*
X923548Y11677D01*
X923506D01*
X923478Y11672D01*
X923432D01*
X923261Y11677D01*
X923104Y11695D01*
X923030Y11709D01*
X922961Y11723D01*
X922896Y11737D01*
X922841Y11751D01*
X922785Y11765D01*
X922739Y11779D01*
X922698Y11793D01*
X922661Y11806D01*
X922633Y11816D01*
X922614Y11825D01*
X922601Y11829D01*
X922596D01*
X922462Y11894D01*
X922342Y11968D01*
X922236Y12042D01*
X922143Y12116D01*
X922102Y12148D01*
X922069Y12181D01*
X922037Y12208D01*
X922014Y12231D01*
X921995Y12250D01*
X921982Y12264D01*
X921972Y12273D01*
X921968Y12278D01*
X921875Y12393D01*
X921797Y12509D01*
X921727Y12624D01*
X921672Y12735D01*
X921649Y12786D01*
X921626Y12832D01*
X921612Y12874D01*
X921598Y12906D01*
X921584Y12934D01*
X921575Y12957D01*
X921570Y12971D01*
Y12975D01*
X921524Y13132D01*
X921492Y13285D01*
X921464Y13437D01*
X921455Y13507D01*
X921450Y13576D01*
X921441Y13636D01*
Y13691D01*
X921436Y13742D01*
X921432Y13784D01*
Y13821D01*
Y13844D01*
Y13862D01*
Y13867D01*
X921436Y14056D01*
X921450Y14227D01*
X921464Y14310D01*
X921473Y14384D01*
X921487Y14454D01*
X921496Y14518D01*
X921510Y14578D01*
X921524Y14629D01*
X921533Y14675D01*
X921543Y14712D01*
X921552Y14740D01*
X921561Y14763D01*
X921566Y14777D01*
Y14782D01*
X921621Y14925D01*
X921681Y15054D01*
X921741Y15170D01*
X921774Y15221D01*
X921801Y15267D01*
X921834Y15308D01*
X921857Y15345D01*
X921885Y15378D01*
X921903Y15405D01*
X921922Y15424D01*
X921935Y15438D01*
X921940Y15447D01*
X921945Y15452D01*
X922042Y15544D01*
X922143Y15627D01*
X922240Y15696D01*
X922337Y15756D01*
X922420Y15798D01*
X922453Y15817D01*
X922485Y15830D01*
X922513Y15844D01*
X922531Y15854D01*
X922540Y15858D01*
X922545D01*
X922684Y15904D01*
X922822Y15941D01*
X922956Y15964D01*
X923081Y15983D01*
X923137Y15988D01*
X923187Y15992D01*
X923234Y15997D01*
X923275Y16001D01*
X923349D01*
X923520Y15997D01*
D02*
G37*
G36*
X913093Y15867D02*
X913231Y15904D01*
X913296Y15918D01*
X913356Y15927D01*
X913407Y15937D01*
X913444Y15941D01*
X913467Y15946D01*
X913476D01*
X913619Y15964D01*
X913684Y15969D01*
X913744D01*
X913795Y15974D01*
X913869D01*
X914035Y15969D01*
X914197Y15950D01*
X914335Y15927D01*
X914405Y15914D01*
X914460Y15900D01*
X914516Y15886D01*
X914566Y15872D01*
X914608Y15858D01*
X914645Y15849D01*
X914673Y15840D01*
X914691Y15830D01*
X914705Y15826D01*
X914710D01*
X914844Y15766D01*
X914968Y15696D01*
X915079Y15622D01*
X915172Y15553D01*
X915213Y15521D01*
X915246Y15488D01*
X915278Y15461D01*
X915306Y15438D01*
X915324Y15419D01*
X915338Y15405D01*
X915347Y15396D01*
X915352Y15392D01*
X915444Y15281D01*
X915527Y15160D01*
X915601Y15045D01*
X915661Y14934D01*
X915685Y14883D01*
X915708Y14837D01*
X915726Y14796D01*
X915740Y14759D01*
X915754Y14731D01*
X915758Y14708D01*
X915768Y14694D01*
Y14689D01*
X915814Y14532D01*
X915851Y14370D01*
X915874Y14209D01*
X915883Y14135D01*
X915892Y14066D01*
X915897Y13996D01*
X915902Y13936D01*
X915906Y13881D01*
Y13835D01*
X915911Y13798D01*
Y13770D01*
Y13751D01*
Y13747D01*
X915906Y13576D01*
X915897Y13419D01*
X915883Y13271D01*
X915874Y13206D01*
X915865Y13146D01*
X915860Y13091D01*
X915851Y13045D01*
X915841Y12998D01*
X915837Y12966D01*
X915832Y12934D01*
X915828Y12915D01*
X915823Y12901D01*
Y12897D01*
X915786Y12758D01*
X915740Y12633D01*
X915698Y12522D01*
X915652Y12426D01*
X915634Y12384D01*
X915611Y12347D01*
X915597Y12315D01*
X915578Y12291D01*
X915569Y12268D01*
X915560Y12254D01*
X915551Y12245D01*
Y12241D01*
X915477Y12144D01*
X915403Y12060D01*
X915324Y11987D01*
X915250Y11926D01*
X915190Y11880D01*
X915139Y11848D01*
X915121Y11834D01*
X915107Y11829D01*
X915098Y11820D01*
X915093D01*
X914987Y11769D01*
X914881Y11737D01*
X914774Y11709D01*
X914677Y11691D01*
X914590Y11682D01*
X914557Y11677D01*
X914525D01*
X914497Y11672D01*
X914465D01*
X914386Y11677D01*
X914312Y11682D01*
X914174Y11705D01*
X914044Y11737D01*
X913984Y11756D01*
X913929Y11779D01*
X913878Y11797D01*
X913836Y11816D01*
X913795Y11834D01*
X913762Y11848D01*
X913739Y11862D01*
X913716Y11871D01*
X913707Y11880D01*
X913702D01*
X913638Y11922D01*
X913573Y11968D01*
X913448Y12074D01*
X913338Y12181D01*
X913241Y12287D01*
X913194Y12338D01*
X913157Y12384D01*
X913125Y12426D01*
X913093Y12462D01*
X913074Y12495D01*
X913056Y12518D01*
X913046Y12532D01*
X913042Y12536D01*
X913014Y11746D01*
X912363D01*
Y17628D01*
X913093D01*
Y15867D01*
D02*
G37*
G36*
X900097Y15997D02*
X900254Y15978D01*
X900328Y15964D01*
X900397Y15950D01*
X900462Y15937D01*
X900522Y15923D01*
X900577Y15904D01*
X900623Y15890D01*
X900665Y15877D01*
X900702Y15867D01*
X900729Y15854D01*
X900748Y15849D01*
X900762Y15840D01*
X900766D01*
X900900Y15775D01*
X901021Y15701D01*
X901127Y15627D01*
X901219Y15553D01*
X901256Y15521D01*
X901293Y15488D01*
X901326Y15461D01*
X901349Y15433D01*
X901367Y15415D01*
X901381Y15401D01*
X901390Y15392D01*
X901395Y15387D01*
X901487Y15276D01*
X901566Y15160D01*
X901635Y15045D01*
X901690Y14934D01*
X901714Y14888D01*
X901737Y14842D01*
X901750Y14800D01*
X901764Y14768D01*
X901778Y14736D01*
X901787Y14717D01*
X901792Y14703D01*
Y14698D01*
X901838Y14546D01*
X901871Y14389D01*
X901894Y14241D01*
X901903Y14172D01*
X901908Y14103D01*
X901917Y14042D01*
Y13987D01*
X901921Y13936D01*
X901926Y13895D01*
Y13858D01*
Y13835D01*
Y13816D01*
Y13812D01*
X901921Y13622D01*
X901908Y13446D01*
X901894Y13368D01*
X901884Y13289D01*
X901875Y13220D01*
X901861Y13155D01*
X901848Y13095D01*
X901838Y13045D01*
X901824Y12998D01*
X901815Y12957D01*
X901811Y12929D01*
X901801Y12906D01*
X901797Y12892D01*
Y12888D01*
X901741Y12744D01*
X901681Y12615D01*
X901621Y12499D01*
X901589Y12449D01*
X901561Y12402D01*
X901533Y12361D01*
X901506Y12324D01*
X901483Y12291D01*
X901464Y12268D01*
X901446Y12245D01*
X901432Y12231D01*
X901427Y12222D01*
X901423Y12218D01*
X901326Y12125D01*
X901224Y12042D01*
X901122Y11973D01*
X901025Y11913D01*
X900942Y11871D01*
X900905Y11853D01*
X900877Y11839D01*
X900850Y11825D01*
X900831Y11816D01*
X900822Y11811D01*
X900817D01*
X900679Y11765D01*
X900540Y11733D01*
X900406Y11705D01*
X900281Y11691D01*
X900221Y11686D01*
X900171Y11682D01*
X900124Y11677D01*
X900083D01*
X900055Y11672D01*
X900009D01*
X899838Y11677D01*
X899681Y11695D01*
X899607Y11709D01*
X899538Y11723D01*
X899473Y11737D01*
X899417Y11751D01*
X899362Y11765D01*
X899316Y11779D01*
X899274Y11793D01*
X899237Y11806D01*
X899209Y11816D01*
X899191Y11825D01*
X899177Y11829D01*
X899173D01*
X899039Y11894D01*
X898919Y11968D01*
X898812Y12042D01*
X898720Y12116D01*
X898678Y12148D01*
X898646Y12181D01*
X898614Y12208D01*
X898590Y12231D01*
X898572Y12250D01*
X898558Y12264D01*
X898549Y12273D01*
X898544Y12278D01*
X898452Y12393D01*
X898373Y12509D01*
X898304Y12624D01*
X898249Y12735D01*
X898225Y12786D01*
X898202Y12832D01*
X898188Y12874D01*
X898175Y12906D01*
X898161Y12934D01*
X898152Y12957D01*
X898147Y12971D01*
Y12975D01*
X898101Y13132D01*
X898068Y13285D01*
X898041Y13437D01*
X898031Y13507D01*
X898027Y13576D01*
X898018Y13636D01*
Y13691D01*
X898013Y13742D01*
X898008Y13784D01*
Y13821D01*
Y13844D01*
Y13862D01*
Y13867D01*
X898013Y14056D01*
X898027Y14227D01*
X898041Y14310D01*
X898050Y14384D01*
X898064Y14454D01*
X898073Y14518D01*
X898087Y14578D01*
X898101Y14629D01*
X898110Y14675D01*
X898119Y14712D01*
X898129Y14740D01*
X898138Y14763D01*
X898142Y14777D01*
Y14782D01*
X898198Y14925D01*
X898258Y15054D01*
X898318Y15170D01*
X898350Y15221D01*
X898378Y15267D01*
X898410Y15308D01*
X898433Y15345D01*
X898461Y15378D01*
X898480Y15405D01*
X898498Y15424D01*
X898512Y15438D01*
X898516Y15447D01*
X898521Y15452D01*
X898618Y15544D01*
X898720Y15627D01*
X898817Y15696D01*
X898914Y15756D01*
X898997Y15798D01*
X899029Y15817D01*
X899062Y15830D01*
X899089Y15844D01*
X899108Y15854D01*
X899117Y15858D01*
X899122D01*
X899260Y15904D01*
X899399Y15941D01*
X899533Y15964D01*
X899658Y15983D01*
X899713Y15988D01*
X899764Y15992D01*
X899810Y15997D01*
X899852Y16001D01*
X899926D01*
X900097Y15997D01*
D02*
G37*
G36*
X1009577Y10850D02*
X1008888Y10850D01*
X1006033Y17628D01*
X1006722D01*
X1009577Y10850D01*
D02*
G37*
G36*
X1004892Y10850D02*
X1004204D01*
X1001348Y17628D01*
X1002037D01*
X1004892Y10850D01*
D02*
G37*
G36*
X962730D02*
X962041D01*
X959186Y17628D01*
X959875D01*
X962730Y10850D01*
D02*
G37*
G36*
X934622Y10850D02*
X933934D01*
X931078Y17628D01*
X931767D01*
X934622Y10850D01*
D02*
G37*
G36*
X1021478Y15992D02*
X1021616Y15974D01*
X1021750Y15946D01*
X1021806Y15932D01*
X1021861Y15914D01*
X1021912Y15895D01*
X1021958Y15881D01*
X1021995Y15867D01*
X1022032Y15854D01*
X1022055Y15844D01*
X1022074Y15835D01*
X1022088Y15826D01*
X1022092D01*
X1022157Y15789D01*
X1022222Y15747D01*
X1022346Y15660D01*
X1022457Y15558D01*
X1022554Y15456D01*
X1022600Y15410D01*
X1022637Y15364D01*
X1022674Y15327D01*
X1022702Y15290D01*
X1022725Y15262D01*
X1022744Y15239D01*
X1022753Y15225D01*
X1022758Y15221D01*
X1022804Y15923D01*
X1023446D01*
Y10042D01*
X1022721D01*
Y11788D01*
X1022647Y11774D01*
X1022573Y11756D01*
X1022503Y11746D01*
X1022443Y11737D01*
X1022397Y11728D01*
X1022356Y11723D01*
X1022332Y11719D01*
X1022323D01*
X1022249Y11709D01*
X1022176Y11705D01*
X1022111Y11700D01*
X1022051D01*
X1022000Y11695D01*
X1021926D01*
X1021764Y11700D01*
X1021612Y11719D01*
X1021478Y11737D01*
X1021413Y11751D01*
X1021353Y11765D01*
X1021302Y11774D01*
X1021256Y11788D01*
X1021214Y11797D01*
X1021177Y11811D01*
X1021150Y11816D01*
X1021131Y11825D01*
X1021117Y11829D01*
X1021113D01*
X1020979Y11885D01*
X1020854Y11954D01*
X1020743Y12019D01*
X1020651Y12088D01*
X1020609Y12121D01*
X1020572Y12148D01*
X1020540Y12171D01*
X1020512Y12195D01*
X1020494Y12213D01*
X1020480Y12227D01*
X1020471Y12236D01*
X1020466Y12241D01*
X1020369Y12352D01*
X1020281Y12467D01*
X1020207Y12583D01*
X1020143Y12694D01*
X1020120Y12740D01*
X1020096Y12786D01*
X1020078Y12827D01*
X1020059Y12864D01*
X1020050Y12892D01*
X1020041Y12915D01*
X1020032Y12929D01*
Y12934D01*
X1019981Y13095D01*
X1019939Y13262D01*
X1019912Y13423D01*
X1019902Y13502D01*
X1019893Y13576D01*
X1019889Y13645D01*
X1019884Y13710D01*
X1019879Y13765D01*
X1019875Y13816D01*
Y13853D01*
Y13885D01*
Y13904D01*
Y13908D01*
X1019879Y14084D01*
X1019889Y14246D01*
X1019898Y14320D01*
X1019902Y14389D01*
X1019912Y14454D01*
X1019921Y14518D01*
X1019930Y14574D01*
X1019939Y14620D01*
X1019944Y14666D01*
X1019953Y14698D01*
X1019958Y14731D01*
X1019963Y14749D01*
X1019967Y14763D01*
Y14768D01*
X1020004Y14906D01*
X1020050Y15036D01*
X1020096Y15147D01*
X1020138Y15244D01*
X1020161Y15285D01*
X1020180Y15322D01*
X1020198Y15355D01*
X1020212Y15382D01*
X1020226Y15401D01*
X1020235Y15415D01*
X1020244Y15424D01*
Y15428D01*
X1020314Y15526D01*
X1020392Y15609D01*
X1020466Y15683D01*
X1020540Y15743D01*
X1020600Y15789D01*
X1020651Y15821D01*
X1020669Y15835D01*
X1020683Y15844D01*
X1020692Y15849D01*
X1020697D01*
X1020799Y15900D01*
X1020910Y15937D01*
X1021011Y15964D01*
X1021113Y15983D01*
X1021196Y15992D01*
X1021233Y15997D01*
X1021265Y16001D01*
X1021325D01*
X1021478Y15992D01*
D02*
G37*
G36*
X955892Y15992D02*
X956031Y15974D01*
X956165Y15946D01*
X956220Y15932D01*
X956276Y15914D01*
X956327Y15895D01*
X956373Y15881D01*
X956410Y15867D01*
X956447Y15854D01*
X956470Y15844D01*
X956488Y15835D01*
X956502Y15826D01*
X956507D01*
X956571Y15789D01*
X956636Y15747D01*
X956761Y15660D01*
X956872Y15558D01*
X956969Y15456D01*
X957015Y15410D01*
X957052Y15364D01*
X957089Y15327D01*
X957117Y15290D01*
X957140Y15262D01*
X957158Y15239D01*
X957167Y15225D01*
X957172Y15221D01*
X957218Y15923D01*
X957860D01*
Y10042D01*
X957135D01*
Y11788D01*
X957061Y11774D01*
X956987Y11756D01*
X956918Y11746D01*
X956858Y11737D01*
X956812Y11728D01*
X956770Y11723D01*
X956747Y11719D01*
X956738D01*
X956664Y11709D01*
X956590Y11705D01*
X956525Y11700D01*
X956465D01*
X956414Y11695D01*
X956341D01*
X956179Y11700D01*
X956026Y11719D01*
X955892Y11737D01*
X955828Y11751D01*
X955768Y11765D01*
X955717Y11774D01*
X955671Y11788D01*
X955629Y11797D01*
X955592Y11811D01*
X955564Y11816D01*
X955546Y11825D01*
X955532Y11829D01*
X955527D01*
X955393Y11885D01*
X955269Y11954D01*
X955158Y12019D01*
X955065Y12088D01*
X955024Y12121D01*
X954987Y12148D01*
X954955Y12171D01*
X954927Y12195D01*
X954908Y12213D01*
X954894Y12227D01*
X954885Y12236D01*
X954881Y12241D01*
X954784Y12352D01*
X954696Y12467D01*
X954622Y12583D01*
X954557Y12693D01*
X954534Y12740D01*
X954511Y12786D01*
X954492Y12827D01*
X954474Y12864D01*
X954465Y12892D01*
X954455Y12915D01*
X954446Y12929D01*
Y12934D01*
X954395Y13095D01*
X954354Y13262D01*
X954326Y13423D01*
X954317Y13502D01*
X954308Y13576D01*
X954303Y13645D01*
X954298Y13710D01*
X954294Y13765D01*
X954289Y13816D01*
Y13853D01*
Y13885D01*
Y13904D01*
Y13908D01*
X954294Y14084D01*
X954303Y14246D01*
X954312Y14320D01*
X954317Y14389D01*
X954326Y14454D01*
X954335Y14518D01*
X954345Y14574D01*
X954354Y14620D01*
X954358Y14666D01*
X954368Y14698D01*
X954372Y14731D01*
X954377Y14749D01*
X954382Y14763D01*
Y14768D01*
X954418Y14906D01*
X954465Y15036D01*
X954511Y15147D01*
X954552Y15244D01*
X954576Y15285D01*
X954594Y15322D01*
X954613Y15355D01*
X954626Y15382D01*
X954640Y15401D01*
X954650Y15415D01*
X954659Y15424D01*
Y15428D01*
X954728Y15526D01*
X954807Y15609D01*
X954881Y15683D01*
X954955Y15743D01*
X955015Y15789D01*
X955065Y15821D01*
X955084Y15835D01*
X955098Y15844D01*
X955107Y15849D01*
X955112D01*
X955213Y15900D01*
X955324Y15937D01*
X955426Y15964D01*
X955527Y15983D01*
X955610Y15992D01*
X955647Y15997D01*
X955680Y16001D01*
X955740D01*
X955892Y15992D01*
D02*
G37*
G36*
X989166Y15997D02*
X989290Y15983D01*
X989406Y15969D01*
X989503Y15951D01*
X989549Y15937D01*
X989586Y15927D01*
X989618Y15918D01*
X989646Y15914D01*
X989669Y15904D01*
X989688Y15900D01*
X989697Y15895D01*
X989701D01*
X989808Y15854D01*
X989909Y15803D01*
X989997Y15752D01*
X990071Y15706D01*
X990136Y15664D01*
X990182Y15627D01*
X990196Y15613D01*
X990210Y15604D01*
X990214Y15599D01*
X990219Y15595D01*
X990293Y15521D01*
X990362Y15442D01*
X990418Y15364D01*
X990464Y15294D01*
X990501Y15230D01*
X990528Y15179D01*
X990538Y15160D01*
X990547Y15147D01*
X990552Y15137D01*
Y15133D01*
X990588Y15031D01*
X990616Y14930D01*
X990639Y14828D01*
X990653Y14736D01*
X990662Y14657D01*
Y14625D01*
X990667Y14597D01*
Y14574D01*
Y14555D01*
Y14546D01*
Y14541D01*
Y14486D01*
X990662Y14431D01*
Y14384D01*
X990658Y14343D01*
X990653Y14306D01*
Y14283D01*
X990649Y14264D01*
Y14260D01*
X990630Y14172D01*
X990616Y14130D01*
X990607Y14098D01*
X990598Y14070D01*
X990588Y14047D01*
X990584Y14033D01*
Y14029D01*
X990547Y13955D01*
X990528Y13918D01*
X990515Y13890D01*
X990501Y13867D01*
X990487Y13848D01*
X990482Y13835D01*
X990478Y13830D01*
X990427Y13765D01*
X990381Y13705D01*
X990362Y13682D01*
X990348Y13664D01*
X990339Y13650D01*
X990334Y13645D01*
X990399Y13571D01*
X990454Y13497D01*
X990510Y13423D01*
X990552Y13359D01*
X990588Y13303D01*
X990616Y13257D01*
X990635Y13229D01*
X990639Y13225D01*
Y13220D01*
X990681Y13137D01*
X990713Y13049D01*
X990732Y12966D01*
X990750Y12892D01*
X990759Y12823D01*
X990764Y12772D01*
Y12754D01*
Y12740D01*
Y12730D01*
Y12726D01*
X990759Y12652D01*
X990750Y12592D01*
Y12564D01*
X990746Y12546D01*
X990741Y12532D01*
Y12527D01*
X990718Y12458D01*
X990695Y12398D01*
X990685Y12375D01*
X990676Y12356D01*
X990667Y12347D01*
Y12342D01*
X990625Y12278D01*
X990584Y12227D01*
X990565Y12204D01*
X990552Y12190D01*
X990542Y12181D01*
X990538Y12176D01*
X990473Y12125D01*
X990413Y12088D01*
X990385Y12070D01*
X990367Y12060D01*
X990353Y12056D01*
X990348Y12051D01*
X990450Y11973D01*
X990542Y11894D01*
X990616Y11820D01*
X990676Y11751D01*
X990727Y11695D01*
X990759Y11649D01*
X990783Y11622D01*
X990787Y11617D01*
Y11612D01*
X990833Y11525D01*
X990866Y11437D01*
X990893Y11344D01*
X990907Y11266D01*
X990917Y11192D01*
X990921Y11164D01*
Y11136D01*
X990926Y11113D01*
Y11100D01*
Y11090D01*
Y11086D01*
X990921Y10998D01*
X990912Y10915D01*
X990893Y10841D01*
X990875Y10781D01*
X990856Y10725D01*
X990838Y10684D01*
X990829Y10661D01*
X990824Y10651D01*
X990778Y10582D01*
X990727Y10513D01*
X990672Y10457D01*
X990616Y10407D01*
X990570Y10365D01*
X990528Y10337D01*
X990501Y10314D01*
X990496Y10310D01*
X990491D01*
X990399Y10259D01*
X990302Y10212D01*
X990205Y10176D01*
X990113Y10143D01*
X990030Y10115D01*
X989993Y10106D01*
X989965Y10097D01*
X989937Y10092D01*
X989919Y10088D01*
X989909Y10083D01*
X989905D01*
X989766Y10055D01*
X989618Y10037D01*
X989475Y10018D01*
X989341Y10009D01*
X989276D01*
X989221Y10005D01*
X989170D01*
X989124Y10000D01*
X989041D01*
X988847Y10005D01*
X988759Y10009D01*
X988671Y10018D01*
X988593Y10028D01*
X988514Y10037D01*
X988445Y10046D01*
X988380Y10060D01*
X988325Y10069D01*
X988274Y10079D01*
X988228Y10088D01*
X988191Y10097D01*
X988158Y10106D01*
X988140Y10111D01*
X988126Y10115D01*
X988121D01*
X987983Y10162D01*
X987858Y10208D01*
X987747Y10259D01*
X987655Y10310D01*
X987618Y10328D01*
X987581Y10351D01*
X987553Y10370D01*
X987530Y10384D01*
X987512Y10397D01*
X987493Y10407D01*
X987488Y10416D01*
X987484D01*
X987396Y10490D01*
X987318Y10564D01*
X987253Y10638D01*
X987202Y10707D01*
X987160Y10767D01*
X987133Y10813D01*
X987123Y10832D01*
X987114Y10845D01*
X987110Y10850D01*
Y10855D01*
X987068Y10947D01*
X987036Y11044D01*
X987017Y11132D01*
X986999Y11215D01*
X986989Y11284D01*
Y11312D01*
X986985Y11340D01*
Y11358D01*
Y11372D01*
Y11381D01*
Y11386D01*
X986989Y11478D01*
X987003Y11562D01*
X987017Y11640D01*
X987036Y11705D01*
X987059Y11760D01*
X987073Y11802D01*
X987087Y11825D01*
X987091Y11834D01*
X987133Y11903D01*
X987184Y11968D01*
X987234Y12024D01*
X987281Y12070D01*
X987322Y12111D01*
X987359Y12139D01*
X987382Y12157D01*
X987391Y12162D01*
X987465Y12208D01*
X987544Y12250D01*
X987618Y12287D01*
X987687Y12315D01*
X987752Y12338D01*
X987798Y12352D01*
X987817Y12356D01*
X987830Y12361D01*
X987840Y12365D01*
X987844D01*
X987946Y12388D01*
X988048Y12407D01*
X988144Y12421D01*
X988232Y12435D01*
X988306Y12439D01*
X988339D01*
X988366Y12444D01*
X988422D01*
X989521Y12486D01*
X989609Y12495D01*
X989688Y12509D01*
X989757Y12527D01*
X989817Y12546D01*
X989863Y12564D01*
X989896Y12583D01*
X989914Y12592D01*
X989923Y12596D01*
X989974Y12638D01*
X990006Y12684D01*
X990034Y12726D01*
X990053Y12767D01*
X990062Y12804D01*
X990067Y12832D01*
X990071Y12855D01*
Y12860D01*
X990067Y12906D01*
X990062Y12952D01*
X990053Y12989D01*
X990043Y13026D01*
X990034Y13054D01*
X990030Y13072D01*
X990020Y13086D01*
Y13091D01*
X989974Y13169D01*
X989956Y13206D01*
X989933Y13243D01*
X989914Y13271D01*
X989900Y13294D01*
X989891Y13308D01*
X989886Y13313D01*
X989831Y13285D01*
X989775Y13257D01*
X989715Y13234D01*
X989655Y13211D01*
X989604Y13197D01*
X989563Y13183D01*
X989535Y13179D01*
X989530Y13174D01*
X989526D01*
X989438Y13155D01*
X989350Y13142D01*
X989267Y13132D01*
X989193Y13128D01*
X989129Y13123D01*
X989078Y13118D01*
X989032D01*
X988898Y13123D01*
X988778Y13132D01*
X988662Y13151D01*
X988565Y13169D01*
X988523Y13179D01*
X988486Y13188D01*
X988449Y13197D01*
X988422Y13206D01*
X988399Y13211D01*
X988385Y13216D01*
X988375Y13220D01*
X988371D01*
X988260Y13262D01*
X988158Y13313D01*
X988071Y13359D01*
X987997Y13409D01*
X987932Y13451D01*
X987886Y13484D01*
X987872Y13497D01*
X987858Y13507D01*
X987854Y13516D01*
X987849D01*
X987770Y13590D01*
X987706Y13668D01*
X987646Y13747D01*
X987599Y13821D01*
X987562Y13881D01*
X987535Y13932D01*
X987525Y13950D01*
X987516Y13964D01*
X987512Y13973D01*
Y13978D01*
X987470Y14084D01*
X987442Y14186D01*
X987419Y14287D01*
X987405Y14380D01*
X987396Y14458D01*
Y14491D01*
X987391Y14518D01*
Y14541D01*
Y14560D01*
Y14569D01*
Y14574D01*
X987396Y14657D01*
X987401Y14736D01*
X987410Y14805D01*
X987424Y14865D01*
X987438Y14916D01*
X987447Y14957D01*
X987451Y14980D01*
X987456Y14990D01*
X987484Y15059D01*
X987512Y15124D01*
X987544Y15184D01*
X987572Y15235D01*
X987599Y15276D01*
X987623Y15304D01*
X987636Y15327D01*
X987641Y15331D01*
X986966D01*
Y15923D01*
X988486D01*
X988570Y15946D01*
X988611Y15955D01*
X988653Y15964D01*
X988685Y15969D01*
X988713Y15974D01*
X988731Y15978D01*
X988736D01*
X988842Y15992D01*
X988893Y15997D01*
X988939D01*
X988976Y16001D01*
X989032D01*
X989166Y15997D01*
D02*
G37*
G36*
X59783Y15563D02*
X59972Y15539D01*
X60060Y15526D01*
X60143Y15507D01*
X60217Y15489D01*
X60291Y15470D01*
X60356Y15452D01*
X60416Y15433D01*
X60466Y15415D01*
X60508Y15401D01*
X60540Y15387D01*
X60568Y15378D01*
X60582Y15373D01*
X60587Y15368D01*
X60748Y15285D01*
X60896Y15198D01*
X60961Y15147D01*
X61025Y15100D01*
X61085Y15054D01*
X61136Y15008D01*
X61187Y14966D01*
X61229Y14930D01*
X61266Y14893D01*
X61298Y14860D01*
X61321Y14837D01*
X61340Y14819D01*
X61349Y14805D01*
X61353Y14800D01*
X61464Y14657D01*
X61561Y14504D01*
X61645Y14357D01*
X61714Y14213D01*
X61742Y14149D01*
X61769Y14093D01*
X61788Y14038D01*
X61806Y13992D01*
X61820Y13955D01*
X61829Y13927D01*
X61839Y13908D01*
Y13904D01*
X61894Y13701D01*
X61936Y13497D01*
X61963Y13299D01*
X61977Y13206D01*
X61982Y13114D01*
X61991Y13031D01*
X61996Y12957D01*
X62000Y12888D01*
Y12832D01*
X62005Y12786D01*
Y12749D01*
Y12730D01*
Y12721D01*
X61996Y12476D01*
X61977Y12250D01*
X61949Y12033D01*
X61908Y11839D01*
X61862Y11654D01*
X61811Y11488D01*
X61755Y11335D01*
X61695Y11201D01*
X61640Y11081D01*
X61584Y10979D01*
X61534Y10887D01*
X61487Y10818D01*
X61446Y10762D01*
X61418Y10721D01*
X61395Y10698D01*
X61390Y10688D01*
X61270Y10568D01*
X61136Y10462D01*
X60998Y10370D01*
X60855Y10291D01*
X60707Y10222D01*
X60559Y10166D01*
X60416Y10125D01*
X60272Y10088D01*
X60138Y10060D01*
X60018Y10037D01*
X59907Y10023D01*
X59810Y10009D01*
X59769D01*
X59732Y10005D01*
X59699D01*
X59672Y10000D01*
X59621D01*
X59487Y10005D01*
X59358Y10014D01*
X59228Y10023D01*
X59104Y10042D01*
X58983Y10065D01*
X58872Y10088D01*
X58766Y10111D01*
X58665Y10139D01*
X58577Y10162D01*
X58494Y10185D01*
X58424Y10208D01*
X58364Y10231D01*
X58314Y10249D01*
X58276Y10259D01*
X58258Y10268D01*
X58249Y10273D01*
Y10970D01*
X58360Y10919D01*
X58471Y10873D01*
X58572Y10832D01*
X58669Y10799D01*
X58748Y10772D01*
X58785Y10762D01*
X58812Y10753D01*
X58836Y10748D01*
X58854Y10744D01*
X58863Y10739D01*
X58868D01*
X58988Y10712D01*
X59108Y10693D01*
X59219Y10679D01*
X59321Y10670D01*
X59367Y10665D01*
X59445D01*
X59478Y10661D01*
X59538D01*
X59690Y10665D01*
X59829Y10684D01*
X59963Y10712D01*
X60083Y10744D01*
X60194Y10785D01*
X60300Y10832D01*
X60392Y10878D01*
X60476Y10929D01*
X60550Y10979D01*
X60614Y11026D01*
X60670Y11072D01*
X60716Y11113D01*
X60748Y11146D01*
X60776Y11174D01*
X60790Y11192D01*
X60794Y11197D01*
X60868Y11303D01*
X60933Y11418D01*
X60993Y11543D01*
X61039Y11672D01*
X61081Y11802D01*
X61118Y11936D01*
X61146Y12070D01*
X61164Y12195D01*
X61182Y12315D01*
X61196Y12426D01*
X61206Y12527D01*
X61215Y12615D01*
Y12689D01*
X61220Y12721D01*
Y12744D01*
Y12763D01*
Y12777D01*
Y12786D01*
Y12790D01*
X61215Y12975D01*
X61201Y13142D01*
X61192Y13220D01*
X61182Y13294D01*
X61173Y13363D01*
X61159Y13428D01*
X61150Y13484D01*
X61141Y13534D01*
X61132Y13580D01*
X61122Y13618D01*
X61113Y13645D01*
X61109Y13668D01*
X61104Y13682D01*
Y13687D01*
X61058Y13830D01*
X61002Y13955D01*
X60947Y14070D01*
X60896Y14167D01*
X60868Y14209D01*
X60845Y14246D01*
X60827Y14278D01*
X60808Y14301D01*
X60790Y14324D01*
X60781Y14338D01*
X60776Y14347D01*
X60771Y14352D01*
X60688Y14449D01*
X60596Y14532D01*
X60508Y14602D01*
X60425Y14662D01*
X60356Y14708D01*
X60323Y14726D01*
X60295Y14740D01*
X60272Y14754D01*
X60259Y14763D01*
X60249Y14768D01*
X60245D01*
X60124Y14819D01*
X60004Y14856D01*
X59889Y14879D01*
X59783Y14897D01*
X59732Y14902D01*
X59690Y14906D01*
X59649Y14911D01*
X59616Y14916D01*
X59552D01*
X59413Y14911D01*
X59288Y14902D01*
X59168Y14888D01*
X59066Y14874D01*
X59020Y14865D01*
X58983Y14856D01*
X58946Y14846D01*
X58919Y14842D01*
X58896Y14837D01*
X58877Y14832D01*
X58868Y14828D01*
X58863D01*
X58743Y14796D01*
X58632Y14754D01*
X58531Y14712D01*
X58438Y14675D01*
X58360Y14638D01*
X58327Y14625D01*
X58300Y14611D01*
X58276Y14597D01*
X58263Y14592D01*
X58253Y14583D01*
X58249D01*
Y15313D01*
X58360Y15359D01*
X58475Y15396D01*
X58581Y15433D01*
X58674Y15461D01*
X58757Y15479D01*
X58794Y15489D01*
X58822Y15493D01*
X58845Y15502D01*
X58863D01*
X58872Y15507D01*
X58877D01*
X59002Y15530D01*
X59122Y15544D01*
X59242Y15558D01*
X59348Y15563D01*
X59399Y15567D01*
X59441D01*
X59482Y15572D01*
X59681D01*
X59783Y15563D01*
D02*
G37*
G36*
X45729D02*
X45918Y15539D01*
X46006Y15526D01*
X46089Y15507D01*
X46163Y15489D01*
X46237Y15470D01*
X46301Y15452D01*
X46362Y15433D01*
X46412Y15415D01*
X46454Y15401D01*
X46486Y15387D01*
X46514Y15378D01*
X46528Y15373D01*
X46532Y15368D01*
X46694Y15285D01*
X46842Y15198D01*
X46907Y15147D01*
X46971Y15100D01*
X47031Y15054D01*
X47082Y15008D01*
X47133Y14966D01*
X47175Y14930D01*
X47212Y14893D01*
X47244Y14860D01*
X47267Y14837D01*
X47286Y14819D01*
X47295Y14805D01*
X47299Y14800D01*
X47410Y14657D01*
X47507Y14504D01*
X47591Y14357D01*
X47660Y14213D01*
X47688Y14149D01*
X47715Y14093D01*
X47734Y14038D01*
X47752Y13992D01*
X47766Y13955D01*
X47775Y13927D01*
X47785Y13908D01*
Y13904D01*
X47840Y13701D01*
X47881Y13497D01*
X47909Y13299D01*
X47923Y13206D01*
X47928Y13114D01*
X47937Y13031D01*
X47942Y12957D01*
X47946Y12888D01*
Y12832D01*
X47951Y12786D01*
Y12749D01*
Y12730D01*
Y12721D01*
X47942Y12476D01*
X47923Y12250D01*
X47895Y12033D01*
X47854Y11839D01*
X47808Y11654D01*
X47757Y11488D01*
X47701Y11335D01*
X47641Y11201D01*
X47586Y11081D01*
X47530Y10979D01*
X47480Y10887D01*
X47433Y10818D01*
X47392Y10762D01*
X47364Y10721D01*
X47341Y10698D01*
X47336Y10688D01*
X47216Y10568D01*
X47082Y10462D01*
X46944Y10370D01*
X46800Y10291D01*
X46653Y10222D01*
X46505Y10166D01*
X46362Y10125D01*
X46218Y10088D01*
X46084Y10060D01*
X45964Y10037D01*
X45853Y10023D01*
X45756Y10009D01*
X45715D01*
X45678Y10005D01*
X45645D01*
X45618Y10000D01*
X45567D01*
X45433Y10005D01*
X45304Y10014D01*
X45174Y10023D01*
X45050Y10042D01*
X44929Y10065D01*
X44818Y10088D01*
X44712Y10111D01*
X44611Y10139D01*
X44523Y10162D01*
X44440Y10185D01*
X44370Y10208D01*
X44310Y10231D01*
X44259Y10249D01*
X44223Y10259D01*
X44204Y10268D01*
X44195Y10273D01*
Y10970D01*
X44306Y10919D01*
X44416Y10873D01*
X44518Y10832D01*
X44615Y10799D01*
X44694Y10772D01*
X44731Y10762D01*
X44758Y10753D01*
X44782Y10748D01*
X44800Y10744D01*
X44809Y10739D01*
X44814D01*
X44934Y10712D01*
X45054Y10693D01*
X45165Y10679D01*
X45267Y10670D01*
X45313Y10665D01*
X45391D01*
X45424Y10661D01*
X45484D01*
X45636Y10665D01*
X45775Y10684D01*
X45909Y10712D01*
X46029Y10744D01*
X46140Y10785D01*
X46246Y10832D01*
X46338Y10878D01*
X46422Y10929D01*
X46496Y10979D01*
X46560Y11026D01*
X46616Y11072D01*
X46662Y11113D01*
X46694Y11146D01*
X46722Y11174D01*
X46736Y11192D01*
X46740Y11197D01*
X46814Y11303D01*
X46879Y11418D01*
X46939Y11543D01*
X46985Y11672D01*
X47027Y11802D01*
X47064Y11936D01*
X47091Y12070D01*
X47110Y12195D01*
X47128Y12315D01*
X47142Y12426D01*
X47152Y12527D01*
X47161Y12615D01*
Y12689D01*
X47165Y12721D01*
Y12744D01*
Y12763D01*
Y12777D01*
Y12786D01*
Y12790D01*
X47161Y12975D01*
X47147Y13142D01*
X47138Y13220D01*
X47128Y13294D01*
X47119Y13363D01*
X47105Y13428D01*
X47096Y13484D01*
X47087Y13534D01*
X47078Y13580D01*
X47068Y13618D01*
X47059Y13645D01*
X47054Y13668D01*
X47050Y13682D01*
Y13687D01*
X47004Y13830D01*
X46948Y13955D01*
X46893Y14070D01*
X46842Y14167D01*
X46814Y14209D01*
X46791Y14246D01*
X46773Y14278D01*
X46754Y14301D01*
X46736Y14324D01*
X46727Y14338D01*
X46722Y14347D01*
X46717Y14352D01*
X46634Y14449D01*
X46542Y14532D01*
X46454Y14602D01*
X46371Y14662D01*
X46301Y14708D01*
X46269Y14726D01*
X46241Y14740D01*
X46218Y14754D01*
X46205Y14763D01*
X46195Y14768D01*
X46191D01*
X46071Y14819D01*
X45950Y14856D01*
X45835Y14879D01*
X45729Y14897D01*
X45678Y14902D01*
X45636Y14906D01*
X45595Y14911D01*
X45562Y14916D01*
X45498D01*
X45359Y14911D01*
X45234Y14902D01*
X45114Y14888D01*
X45013Y14874D01*
X44966Y14865D01*
X44929Y14856D01*
X44892Y14846D01*
X44865Y14842D01*
X44842Y14837D01*
X44823Y14832D01*
X44814Y14828D01*
X44809D01*
X44689Y14796D01*
X44578Y14754D01*
X44477Y14712D01*
X44384Y14675D01*
X44306Y14638D01*
X44273Y14625D01*
X44246Y14611D01*
X44223Y14597D01*
X44209Y14592D01*
X44199Y14583D01*
X44195D01*
Y15313D01*
X44306Y15359D01*
X44421Y15396D01*
X44527Y15433D01*
X44620Y15461D01*
X44703Y15479D01*
X44740Y15489D01*
X44768Y15493D01*
X44791Y15502D01*
X44809D01*
X44818Y15507D01*
X44823D01*
X44948Y15530D01*
X45068Y15544D01*
X45188Y15558D01*
X45294Y15563D01*
X45345Y15567D01*
X45387D01*
X45428Y15572D01*
X45627D01*
X45729Y15563D01*
D02*
G37*
G36*
X31675Y15563D02*
X31864Y15539D01*
X31952Y15526D01*
X32035Y15507D01*
X32109Y15489D01*
X32183Y15470D01*
X32247Y15452D01*
X32307Y15433D01*
X32358Y15415D01*
X32400Y15401D01*
X32432Y15387D01*
X32460Y15378D01*
X32474Y15373D01*
X32478Y15368D01*
X32640Y15285D01*
X32788Y15198D01*
X32853Y15147D01*
X32917Y15100D01*
X32977Y15054D01*
X33028Y15008D01*
X33079Y14966D01*
X33121Y14930D01*
X33158Y14893D01*
X33190Y14860D01*
X33213Y14837D01*
X33231Y14819D01*
X33241Y14805D01*
X33245Y14800D01*
X33356Y14657D01*
X33453Y14504D01*
X33536Y14357D01*
X33606Y14213D01*
X33633Y14149D01*
X33661Y14093D01*
X33680Y14038D01*
X33698Y13992D01*
X33712Y13955D01*
X33721Y13927D01*
X33731Y13908D01*
Y13904D01*
X33786Y13701D01*
X33827Y13497D01*
X33855Y13299D01*
X33869Y13206D01*
X33874Y13114D01*
X33883Y13031D01*
X33887Y12957D01*
X33892Y12888D01*
Y12832D01*
X33897Y12786D01*
Y12749D01*
Y12730D01*
Y12721D01*
X33887Y12476D01*
X33869Y12250D01*
X33841Y12033D01*
X33800Y11839D01*
X33754Y11654D01*
X33703Y11488D01*
X33647Y11335D01*
X33587Y11201D01*
X33532Y11081D01*
X33476Y10979D01*
X33426Y10887D01*
X33379Y10818D01*
X33338Y10762D01*
X33310Y10721D01*
X33287Y10698D01*
X33282Y10688D01*
X33162Y10568D01*
X33028Y10462D01*
X32890Y10370D01*
X32746Y10291D01*
X32599Y10222D01*
X32451Y10166D01*
X32307Y10125D01*
X32164Y10088D01*
X32030Y10060D01*
X31910Y10037D01*
X31799Y10023D01*
X31702Y10009D01*
X31661D01*
X31624Y10005D01*
X31591D01*
X31564Y10000D01*
X31513D01*
X31379Y10005D01*
X31249Y10014D01*
X31120Y10023D01*
X30995Y10042D01*
X30875Y10065D01*
X30764Y10088D01*
X30658Y10111D01*
X30556Y10139D01*
X30469Y10162D01*
X30386Y10185D01*
X30316Y10208D01*
X30256Y10231D01*
X30205Y10249D01*
X30168Y10259D01*
X30150Y10268D01*
X30141Y10273D01*
Y10970D01*
X30252Y10919D01*
X30362Y10873D01*
X30464Y10832D01*
X30561Y10799D01*
X30640Y10772D01*
X30677Y10762D01*
X30704Y10753D01*
X30727Y10748D01*
X30746Y10744D01*
X30755Y10739D01*
X30760D01*
X30880Y10712D01*
X31000Y10693D01*
X31111Y10679D01*
X31213Y10670D01*
X31259Y10665D01*
X31337D01*
X31370Y10661D01*
X31430D01*
X31582Y10665D01*
X31721Y10684D01*
X31855Y10712D01*
X31975Y10744D01*
X32086Y10785D01*
X32192Y10832D01*
X32284Y10878D01*
X32368Y10929D01*
X32441Y10979D01*
X32506Y11026D01*
X32562Y11072D01*
X32608Y11113D01*
X32640Y11146D01*
X32668Y11174D01*
X32682Y11192D01*
X32686Y11197D01*
X32760Y11303D01*
X32825Y11418D01*
X32885Y11543D01*
X32931Y11672D01*
X32973Y11802D01*
X33010Y11936D01*
X33037Y12070D01*
X33056Y12195D01*
X33074Y12315D01*
X33088Y12426D01*
X33097Y12527D01*
X33107Y12615D01*
Y12689D01*
X33111Y12721D01*
Y12744D01*
Y12763D01*
Y12777D01*
Y12786D01*
Y12790D01*
X33107Y12975D01*
X33093Y13142D01*
X33084Y13220D01*
X33074Y13294D01*
X33065Y13363D01*
X33051Y13428D01*
X33042Y13484D01*
X33033Y13534D01*
X33024Y13580D01*
X33014Y13617D01*
X33005Y13645D01*
X33000Y13668D01*
X32996Y13682D01*
Y13687D01*
X32950Y13830D01*
X32894Y13955D01*
X32839Y14070D01*
X32788Y14167D01*
X32760Y14209D01*
X32737Y14246D01*
X32719Y14278D01*
X32700Y14301D01*
X32682Y14324D01*
X32673Y14338D01*
X32668Y14347D01*
X32663Y14352D01*
X32580Y14449D01*
X32488Y14532D01*
X32400Y14602D01*
X32317Y14662D01*
X32247Y14708D01*
X32215Y14726D01*
X32187Y14740D01*
X32164Y14754D01*
X32150Y14763D01*
X32141Y14768D01*
X32137D01*
X32016Y14819D01*
X31896Y14856D01*
X31781Y14879D01*
X31675Y14897D01*
X31624Y14902D01*
X31582Y14906D01*
X31541Y14911D01*
X31508Y14916D01*
X31444D01*
X31305Y14911D01*
X31180Y14902D01*
X31060Y14888D01*
X30959Y14874D01*
X30912Y14865D01*
X30875Y14856D01*
X30838Y14846D01*
X30811Y14842D01*
X30788Y14837D01*
X30769Y14832D01*
X30760Y14828D01*
X30755D01*
X30635Y14796D01*
X30524Y14754D01*
X30422Y14712D01*
X30330Y14675D01*
X30252Y14638D01*
X30219Y14625D01*
X30191Y14611D01*
X30168Y14597D01*
X30155Y14592D01*
X30145Y14583D01*
X30141D01*
Y15313D01*
X30252Y15359D01*
X30367Y15396D01*
X30473Y15433D01*
X30566Y15461D01*
X30649Y15479D01*
X30686Y15489D01*
X30714Y15493D01*
X30737Y15502D01*
X30755D01*
X30764Y15507D01*
X30769D01*
X30894Y15530D01*
X31014Y15544D01*
X31134Y15558D01*
X31240Y15563D01*
X31291Y15567D01*
X31333D01*
X31374Y15572D01*
X31573D01*
X31675Y15563D01*
D02*
G37*
G36*
X17620D02*
X17810Y15539D01*
X17898Y15526D01*
X17981Y15507D01*
X18055Y15489D01*
X18129Y15470D01*
X18193Y15452D01*
X18253Y15433D01*
X18304Y15415D01*
X18346Y15401D01*
X18378Y15387D01*
X18406Y15378D01*
X18420Y15373D01*
X18424Y15368D01*
X18586Y15285D01*
X18734Y15198D01*
X18799Y15147D01*
X18863Y15100D01*
X18923Y15054D01*
X18974Y15008D01*
X19025Y14966D01*
X19067Y14930D01*
X19104Y14893D01*
X19136Y14860D01*
X19159Y14837D01*
X19177Y14819D01*
X19187Y14805D01*
X19191Y14800D01*
X19302Y14657D01*
X19399Y14504D01*
X19482Y14357D01*
X19552Y14213D01*
X19579Y14149D01*
X19607Y14093D01*
X19626Y14038D01*
X19644Y13992D01*
X19658Y13955D01*
X19667Y13927D01*
X19676Y13908D01*
Y13904D01*
X19732Y13701D01*
X19773Y13497D01*
X19801Y13299D01*
X19815Y13206D01*
X19820Y13114D01*
X19829Y13031D01*
X19834Y12957D01*
X19838Y12888D01*
Y12832D01*
X19843Y12786D01*
Y12749D01*
Y12730D01*
Y12721D01*
X19834Y12476D01*
X19815Y12250D01*
X19787Y12033D01*
X19746Y11839D01*
X19700Y11654D01*
X19649Y11488D01*
X19593Y11335D01*
X19533Y11201D01*
X19478Y11081D01*
X19422Y10979D01*
X19372Y10887D01*
X19325Y10818D01*
X19284Y10762D01*
X19256Y10721D01*
X19233Y10698D01*
X19228Y10688D01*
X19108Y10568D01*
X18974Y10462D01*
X18836Y10370D01*
X18692Y10291D01*
X18544Y10222D01*
X18397Y10166D01*
X18253Y10125D01*
X18110Y10088D01*
X17976Y10060D01*
X17856Y10037D01*
X17745Y10023D01*
X17648Y10009D01*
X17607D01*
X17570Y10005D01*
X17537D01*
X17510Y10000D01*
X17459D01*
X17325Y10005D01*
X17196Y10014D01*
X17066Y10023D01*
X16941Y10042D01*
X16821Y10065D01*
X16710Y10088D01*
X16604Y10111D01*
X16502Y10139D01*
X16415Y10162D01*
X16331Y10185D01*
X16262Y10208D01*
X16202Y10231D01*
X16151Y10249D01*
X16114Y10259D01*
X16096Y10268D01*
X16087Y10273D01*
Y10970D01*
X16198Y10919D01*
X16308Y10873D01*
X16410Y10832D01*
X16507Y10799D01*
X16586Y10772D01*
X16623Y10762D01*
X16650Y10753D01*
X16673Y10748D01*
X16692Y10744D01*
X16701Y10739D01*
X16706D01*
X16826Y10712D01*
X16946Y10693D01*
X17057Y10679D01*
X17158Y10670D01*
X17205Y10665D01*
X17283D01*
X17316Y10661D01*
X17376D01*
X17528Y10665D01*
X17667Y10684D01*
X17801Y10712D01*
X17921Y10744D01*
X18032Y10785D01*
X18138Y10832D01*
X18230Y10878D01*
X18314Y10929D01*
X18387Y10979D01*
X18452Y11026D01*
X18508Y11072D01*
X18554Y11113D01*
X18586Y11146D01*
X18614Y11174D01*
X18628Y11192D01*
X18632Y11197D01*
X18706Y11303D01*
X18771Y11418D01*
X18831Y11543D01*
X18877Y11672D01*
X18919Y11802D01*
X18956Y11936D01*
X18983Y12070D01*
X19002Y12195D01*
X19020Y12315D01*
X19034Y12426D01*
X19044Y12527D01*
X19053Y12615D01*
Y12689D01*
X19057Y12721D01*
Y12744D01*
Y12763D01*
Y12777D01*
Y12786D01*
Y12790D01*
X19053Y12975D01*
X19039Y13142D01*
X19030Y13220D01*
X19020Y13294D01*
X19011Y13363D01*
X18997Y13428D01*
X18988Y13484D01*
X18979Y13534D01*
X18970Y13580D01*
X18960Y13617D01*
X18951Y13645D01*
X18947Y13668D01*
X18942Y13682D01*
Y13687D01*
X18896Y13830D01*
X18840Y13955D01*
X18785Y14070D01*
X18734Y14167D01*
X18706Y14209D01*
X18683Y14246D01*
X18665Y14278D01*
X18646Y14301D01*
X18628Y14324D01*
X18618Y14338D01*
X18614Y14347D01*
X18609Y14352D01*
X18526Y14449D01*
X18434Y14532D01*
X18346Y14602D01*
X18263Y14662D01*
X18193Y14708D01*
X18161Y14726D01*
X18133Y14740D01*
X18110Y14754D01*
X18096Y14763D01*
X18087Y14768D01*
X18082D01*
X17962Y14819D01*
X17842Y14856D01*
X17727Y14879D01*
X17620Y14897D01*
X17570Y14902D01*
X17528Y14906D01*
X17487Y14911D01*
X17454Y14916D01*
X17390D01*
X17251Y14911D01*
X17126Y14902D01*
X17006Y14888D01*
X16904Y14874D01*
X16858Y14865D01*
X16821Y14856D01*
X16784Y14846D01*
X16757Y14842D01*
X16734Y14837D01*
X16715Y14832D01*
X16706Y14828D01*
X16701D01*
X16581Y14796D01*
X16470Y14754D01*
X16368Y14712D01*
X16276Y14675D01*
X16198Y14638D01*
X16165Y14625D01*
X16138Y14611D01*
X16114Y14597D01*
X16101Y14592D01*
X16091Y14583D01*
X16087D01*
Y15313D01*
X16198Y15359D01*
X16313Y15396D01*
X16419Y15433D01*
X16512Y15461D01*
X16595Y15479D01*
X16632Y15489D01*
X16660Y15493D01*
X16683Y15502D01*
X16701D01*
X16710Y15507D01*
X16715D01*
X16840Y15530D01*
X16960Y15544D01*
X17080Y15558D01*
X17186Y15563D01*
X17237Y15567D01*
X17279D01*
X17320Y15572D01*
X17519D01*
X17620Y15563D01*
D02*
G37*
G36*
X66103Y10065D02*
X62975D01*
Y10698D01*
X65350D01*
Y15502D01*
X66103D01*
Y10065D01*
D02*
G37*
G36*
X52049D02*
X48921D01*
Y10698D01*
X51296D01*
Y15502D01*
X52049D01*
Y10065D01*
D02*
G37*
G36*
X37995Y10065D02*
X34867D01*
Y10698D01*
X37242D01*
Y15502D01*
X37995D01*
Y10065D01*
D02*
G37*
G36*
X23941D02*
X20813D01*
Y10698D01*
X23188D01*
Y15502D01*
X23941D01*
Y10065D01*
D02*
G37*
G36*
X70931Y14860D02*
X68861D01*
Y11723D01*
X68866Y11626D01*
X68870Y11539D01*
X68884Y11455D01*
X68898Y11377D01*
X68916Y11308D01*
X68940Y11243D01*
X68963Y11183D01*
X68986Y11127D01*
X69009Y11081D01*
X69032Y11039D01*
X69050Y11003D01*
X69073Y10975D01*
X69087Y10952D01*
X69101Y10938D01*
X69106Y10929D01*
X69110Y10924D01*
X69157Y10878D01*
X69212Y10836D01*
X69267Y10799D01*
X69323Y10767D01*
X69378Y10739D01*
X69438Y10716D01*
X69549Y10684D01*
X69605Y10674D01*
X69651Y10665D01*
X69697Y10661D01*
X69734Y10656D01*
X69766Y10651D01*
X69808D01*
X69924Y10656D01*
X70034Y10670D01*
X70141Y10684D01*
X70238Y10707D01*
X70316Y10725D01*
X70349Y10735D01*
X70376Y10739D01*
X70399Y10748D01*
X70418Y10753D01*
X70427Y10758D01*
X70432D01*
X70547Y10799D01*
X70653Y10850D01*
X70750Y10896D01*
X70834Y10947D01*
X70903Y10989D01*
X70931Y11007D01*
X70954Y11021D01*
X70972Y11035D01*
X70986Y11044D01*
X70995Y11053D01*
X71000D01*
Y10310D01*
X70921Y10259D01*
X70847Y10222D01*
X70815Y10208D01*
X70788Y10194D01*
X70769Y10189D01*
X70764Y10185D01*
X70658Y10148D01*
X70612Y10129D01*
X70566Y10115D01*
X70529Y10106D01*
X70501Y10097D01*
X70478Y10088D01*
X70473D01*
X70358Y10065D01*
X70302Y10051D01*
X70252Y10046D01*
X70210Y10037D01*
X70178Y10032D01*
X70159Y10028D01*
X70150D01*
X70025Y10014D01*
X69970Y10009D01*
X69919D01*
X69877Y10005D01*
X69817D01*
X69660Y10009D01*
X69517Y10028D01*
X69388Y10046D01*
X69332Y10060D01*
X69277Y10074D01*
X69231Y10083D01*
X69189Y10097D01*
X69152Y10106D01*
X69120Y10120D01*
X69097Y10125D01*
X69078Y10134D01*
X69069Y10139D01*
X69064D01*
X68949Y10194D01*
X68843Y10254D01*
X68755Y10319D01*
X68676Y10374D01*
X68616Y10430D01*
X68570Y10471D01*
X68542Y10499D01*
X68533Y10504D01*
Y10508D01*
X68459Y10601D01*
X68394Y10693D01*
X68339Y10785D01*
X68293Y10873D01*
X68260Y10947D01*
X68247Y10979D01*
X68233Y11007D01*
X68223Y11026D01*
X68219Y11044D01*
X68214Y11053D01*
Y11058D01*
X68177Y11178D01*
X68154Y11294D01*
X68136Y11405D01*
X68122Y11511D01*
X68117Y11552D01*
X68112Y11594D01*
Y11631D01*
X68108Y11663D01*
Y11691D01*
Y11709D01*
Y11719D01*
Y11723D01*
Y15502D01*
X70931D01*
Y14860D01*
D02*
G37*
G36*
X56877D02*
X54807D01*
Y11723D01*
X54812Y11626D01*
X54816Y11539D01*
X54830Y11455D01*
X54844Y11377D01*
X54862Y11308D01*
X54885Y11243D01*
X54909Y11183D01*
X54932Y11127D01*
X54955Y11081D01*
X54978Y11039D01*
X54996Y11003D01*
X55019Y10975D01*
X55033Y10952D01*
X55047Y10938D01*
X55052Y10929D01*
X55056Y10924D01*
X55103Y10878D01*
X55158Y10836D01*
X55213Y10799D01*
X55269Y10767D01*
X55324Y10739D01*
X55384Y10716D01*
X55495Y10684D01*
X55551Y10674D01*
X55597Y10665D01*
X55643Y10661D01*
X55680Y10656D01*
X55712Y10651D01*
X55754D01*
X55870Y10656D01*
X55980Y10670D01*
X56087Y10684D01*
X56184Y10707D01*
X56262Y10725D01*
X56295Y10735D01*
X56322Y10739D01*
X56345Y10748D01*
X56364Y10753D01*
X56373Y10758D01*
X56378D01*
X56493Y10799D01*
X56599Y10850D01*
X56696Y10896D01*
X56780Y10947D01*
X56849Y10989D01*
X56877Y11007D01*
X56900Y11021D01*
X56918Y11035D01*
X56932Y11044D01*
X56941Y11053D01*
X56946D01*
Y10310D01*
X56867Y10259D01*
X56793Y10222D01*
X56761Y10208D01*
X56733Y10194D01*
X56715Y10189D01*
X56710Y10185D01*
X56604Y10148D01*
X56558Y10129D01*
X56512Y10115D01*
X56475Y10106D01*
X56447Y10097D01*
X56424Y10088D01*
X56419D01*
X56304Y10065D01*
X56248Y10051D01*
X56198Y10046D01*
X56156Y10037D01*
X56124Y10032D01*
X56105Y10028D01*
X56096D01*
X55971Y10014D01*
X55916Y10009D01*
X55865D01*
X55823Y10005D01*
X55763D01*
X55606Y10009D01*
X55463Y10028D01*
X55334Y10046D01*
X55278Y10060D01*
X55223Y10074D01*
X55177Y10083D01*
X55135Y10097D01*
X55098Y10106D01*
X55066Y10120D01*
X55042Y10125D01*
X55024Y10134D01*
X55015Y10139D01*
X55010D01*
X54895Y10194D01*
X54788Y10254D01*
X54701Y10319D01*
X54622Y10374D01*
X54562Y10430D01*
X54516Y10471D01*
X54488Y10499D01*
X54479Y10504D01*
Y10508D01*
X54405Y10601D01*
X54340Y10693D01*
X54285Y10785D01*
X54239Y10873D01*
X54206Y10947D01*
X54192Y10979D01*
X54179Y11007D01*
X54169Y11026D01*
X54165Y11044D01*
X54160Y11053D01*
Y11058D01*
X54123Y11178D01*
X54100Y11294D01*
X54082Y11405D01*
X54068Y11511D01*
X54063Y11552D01*
X54058Y11594D01*
Y11631D01*
X54054Y11663D01*
Y11691D01*
Y11709D01*
Y11719D01*
Y11723D01*
Y15502D01*
X56877D01*
Y14860D01*
D02*
G37*
G36*
X42823D02*
X40753Y14860D01*
Y11723D01*
X40758Y11626D01*
X40762Y11539D01*
X40776Y11455D01*
X40790Y11377D01*
X40808Y11308D01*
X40831Y11243D01*
X40854Y11183D01*
X40878Y11127D01*
X40901Y11081D01*
X40924Y11039D01*
X40942Y11003D01*
X40965Y10975D01*
X40979Y10952D01*
X40993Y10938D01*
X40998Y10929D01*
X41002Y10924D01*
X41048Y10878D01*
X41104Y10836D01*
X41159Y10799D01*
X41215Y10767D01*
X41270Y10739D01*
X41330Y10716D01*
X41441Y10684D01*
X41497Y10674D01*
X41543Y10665D01*
X41589Y10661D01*
X41626Y10656D01*
X41658Y10651D01*
X41700D01*
X41816Y10656D01*
X41926Y10670D01*
X42033Y10684D01*
X42130Y10707D01*
X42208Y10725D01*
X42241Y10735D01*
X42268Y10739D01*
X42291Y10748D01*
X42310Y10753D01*
X42319Y10758D01*
X42324D01*
X42439Y10799D01*
X42545Y10850D01*
X42642Y10896D01*
X42726Y10947D01*
X42795Y10989D01*
X42823Y11007D01*
X42846Y11021D01*
X42864Y11035D01*
X42878Y11044D01*
X42887Y11053D01*
X42892D01*
Y10310D01*
X42813Y10259D01*
X42739Y10222D01*
X42707Y10208D01*
X42679Y10194D01*
X42661Y10189D01*
X42656Y10185D01*
X42550Y10148D01*
X42504Y10129D01*
X42458Y10115D01*
X42421Y10106D01*
X42393Y10097D01*
X42370Y10088D01*
X42365D01*
X42250Y10065D01*
X42194Y10051D01*
X42143Y10046D01*
X42102Y10037D01*
X42070Y10032D01*
X42051Y10028D01*
X42042D01*
X41917Y10014D01*
X41862Y10009D01*
X41811D01*
X41769Y10005D01*
X41709D01*
X41552Y10009D01*
X41409Y10028D01*
X41280Y10046D01*
X41224Y10060D01*
X41169Y10074D01*
X41122Y10083D01*
X41081Y10097D01*
X41044Y10106D01*
X41012Y10120D01*
X40988Y10125D01*
X40970Y10134D01*
X40961Y10139D01*
X40956D01*
X40841Y10194D01*
X40734Y10254D01*
X40647Y10319D01*
X40568Y10374D01*
X40508Y10430D01*
X40462Y10471D01*
X40434Y10499D01*
X40425Y10504D01*
Y10508D01*
X40351Y10601D01*
X40286Y10693D01*
X40231Y10785D01*
X40185Y10873D01*
X40152Y10947D01*
X40138Y10979D01*
X40124Y11007D01*
X40115Y11026D01*
X40111Y11044D01*
X40106Y11053D01*
Y11058D01*
X40069Y11178D01*
X40046Y11294D01*
X40027Y11405D01*
X40014Y11511D01*
X40009Y11552D01*
X40004Y11594D01*
Y11631D01*
X40000Y11663D01*
Y11691D01*
Y11709D01*
Y11719D01*
Y11723D01*
Y15502D01*
X42823Y15502D01*
Y14860D01*
D02*
G37*
G36*
X28769Y14860D02*
X26699D01*
Y11723D01*
X26703Y11626D01*
X26708Y11539D01*
X26722Y11455D01*
X26736Y11377D01*
X26754Y11308D01*
X26777Y11243D01*
X26801Y11183D01*
X26824Y11127D01*
X26847Y11081D01*
X26870Y11039D01*
X26888Y11003D01*
X26911Y10975D01*
X26925Y10952D01*
X26939Y10938D01*
X26944Y10929D01*
X26948Y10924D01*
X26994Y10878D01*
X27050Y10836D01*
X27105Y10799D01*
X27161Y10767D01*
X27216Y10739D01*
X27276Y10716D01*
X27387Y10684D01*
X27443Y10674D01*
X27489Y10665D01*
X27535Y10661D01*
X27572Y10656D01*
X27604Y10651D01*
X27646D01*
X27761Y10656D01*
X27872Y10670D01*
X27979Y10684D01*
X28076Y10707D01*
X28154Y10725D01*
X28187Y10735D01*
X28214Y10739D01*
X28237Y10748D01*
X28256Y10753D01*
X28265Y10758D01*
X28270D01*
X28385Y10799D01*
X28491Y10850D01*
X28588Y10896D01*
X28672Y10947D01*
X28741Y10989D01*
X28769Y11007D01*
X28792Y11021D01*
X28810Y11035D01*
X28824Y11044D01*
X28833Y11053D01*
X28838D01*
Y10310D01*
X28759Y10259D01*
X28685Y10222D01*
X28653Y10208D01*
X28625Y10194D01*
X28607Y10189D01*
X28602Y10185D01*
X28496Y10148D01*
X28450Y10129D01*
X28404Y10115D01*
X28367Y10106D01*
X28339Y10097D01*
X28316Y10088D01*
X28311D01*
X28196Y10065D01*
X28140Y10051D01*
X28089Y10046D01*
X28048Y10037D01*
X28016Y10032D01*
X27997Y10028D01*
X27988D01*
X27863Y10014D01*
X27808Y10009D01*
X27757D01*
X27715Y10005D01*
X27655D01*
X27498Y10009D01*
X27355Y10028D01*
X27226Y10046D01*
X27170Y10060D01*
X27115Y10074D01*
X27068Y10083D01*
X27027Y10097D01*
X26990Y10106D01*
X26957Y10120D01*
X26934Y10125D01*
X26916Y10134D01*
X26907Y10139D01*
X26902D01*
X26787Y10194D01*
X26680Y10254D01*
X26593Y10319D01*
X26514Y10374D01*
X26454Y10430D01*
X26408Y10471D01*
X26380Y10499D01*
X26371Y10504D01*
Y10508D01*
X26297Y10601D01*
X26232Y10693D01*
X26177Y10785D01*
X26131Y10873D01*
X26098Y10947D01*
X26084Y10979D01*
X26070Y11007D01*
X26061Y11026D01*
X26057Y11044D01*
X26052Y11053D01*
Y11058D01*
X26015Y11178D01*
X25992Y11294D01*
X25973Y11405D01*
X25960Y11511D01*
X25955Y11552D01*
X25950Y11594D01*
Y11631D01*
X25946Y11663D01*
Y11691D01*
Y11709D01*
Y11719D01*
Y11723D01*
Y15502D01*
X28769D01*
Y14860D01*
D02*
G37*
G36*
X453500Y17500D02*
X436370D01*
Y27090D01*
X453500D01*
Y17500D01*
D02*
G37*
G36*
X300000Y3500D02*
X269989D01*
Y18692D01*
X300000D01*
Y3500D01*
D02*
G37*
G36*
X543136Y94343D02*
Y81500D01*
X525683D01*
Y94343D01*
X543136D01*
D02*
G37*
%LPC*%
G36*
X1036802Y15271D02*
X1036802Y15267D01*
Y15271D01*
X1036802Y15271D01*
D02*
G37*
G36*
X979644Y15424D02*
X979602D01*
X979500Y15419D01*
X979408Y15410D01*
X979325Y15392D01*
X979256Y15378D01*
X979196Y15359D01*
X979154Y15341D01*
X979126Y15331D01*
X979117Y15327D01*
X979043Y15290D01*
X978974Y15248D01*
X978914Y15207D01*
X978868Y15165D01*
X978826Y15124D01*
X978794Y15096D01*
X978775Y15077D01*
X978771Y15068D01*
X978720Y15003D01*
X978678Y14934D01*
X978646Y14870D01*
X978618Y14809D01*
X978595Y14754D01*
X978581Y14708D01*
X978572Y14680D01*
X978567Y14675D01*
Y14671D01*
X978544Y14583D01*
X978530Y14495D01*
X978516Y14408D01*
X978512Y14329D01*
X978507Y14264D01*
Y14209D01*
Y14190D01*
Y14176D01*
Y14167D01*
Y14163D01*
X980706D01*
X980697Y14264D01*
X980683Y14361D01*
X980665Y14444D01*
X980646Y14523D01*
X980628Y14583D01*
X980614Y14629D01*
X980609Y14648D01*
X980605Y14662D01*
X980600Y14666D01*
Y14671D01*
X980563Y14754D01*
X980526Y14832D01*
X980489Y14902D01*
X980452Y14962D01*
X980420Y15008D01*
X980397Y15045D01*
X980378Y15064D01*
X980374Y15073D01*
X980318Y15133D01*
X980258Y15184D01*
X980203Y15230D01*
X980152Y15267D01*
X980106Y15294D01*
X980069Y15313D01*
X980046Y15327D01*
X980036Y15331D01*
X979963Y15364D01*
X979884Y15387D01*
X979810Y15401D01*
X979745Y15415D01*
X979685Y15419D01*
X979644Y15424D01*
D02*
G37*
G36*
X965590D02*
X965548D01*
X965446Y15419D01*
X965354Y15410D01*
X965271Y15392D01*
X965202Y15378D01*
X965142Y15359D01*
X965100Y15341D01*
X965072Y15331D01*
X965063Y15327D01*
X964989Y15290D01*
X964920Y15248D01*
X964860Y15207D01*
X964814Y15165D01*
X964772Y15124D01*
X964740Y15096D01*
X964721Y15077D01*
X964717Y15068D01*
X964666Y15003D01*
X964624Y14934D01*
X964592Y14870D01*
X964564Y14809D01*
X964541Y14754D01*
X964527Y14708D01*
X964518Y14680D01*
X964513Y14675D01*
Y14671D01*
X964490Y14583D01*
X964476Y14495D01*
X964462Y14408D01*
X964458Y14329D01*
X964453Y14264D01*
Y14209D01*
Y14190D01*
Y14176D01*
Y14167D01*
Y14163D01*
X966652D01*
X966643Y14264D01*
X966629Y14361D01*
X966611Y14444D01*
X966592Y14523D01*
X966574Y14583D01*
X966560Y14629D01*
X966555Y14648D01*
X966551Y14662D01*
X966546Y14666D01*
Y14671D01*
X966509Y14754D01*
X966472Y14832D01*
X966435Y14902D01*
X966398Y14962D01*
X966366Y15008D01*
X966343Y15045D01*
X966324Y15064D01*
X966320Y15073D01*
X966264Y15133D01*
X966204Y15184D01*
X966149Y15230D01*
X966098Y15267D01*
X966052Y15294D01*
X966015Y15313D01*
X965992Y15327D01*
X965982Y15331D01*
X965909Y15364D01*
X965830Y15387D01*
X965756Y15401D01*
X965691Y15415D01*
X965631Y15419D01*
X965590Y15424D01*
D02*
G37*
G36*
X951554Y15387D02*
X951499D01*
X951397Y15382D01*
X951305Y15373D01*
X951217Y15355D01*
X951143Y15336D01*
X951083Y15318D01*
X951037Y15299D01*
X951018Y15294D01*
X951004Y15290D01*
X951000Y15285D01*
X950995D01*
X950912Y15244D01*
X950838Y15198D01*
X950773Y15151D01*
X950718Y15105D01*
X950672Y15059D01*
X950639Y15026D01*
X950621Y15003D01*
X950612Y14994D01*
X950556Y14916D01*
X950505Y14837D01*
X950464Y14754D01*
X950427Y14680D01*
X950404Y14611D01*
X950381Y14560D01*
X950376Y14537D01*
X950371Y14523D01*
X950367Y14514D01*
Y14509D01*
X950339Y14398D01*
X950316Y14283D01*
X950302Y14172D01*
X950288Y14066D01*
Y14015D01*
X950284Y13973D01*
Y13932D01*
X950279Y13899D01*
Y13871D01*
Y13853D01*
Y13839D01*
Y13835D01*
X950284Y13719D01*
X950288Y13608D01*
X950302Y13507D01*
X950311Y13419D01*
X950325Y13345D01*
X950330Y13313D01*
X950339Y13289D01*
X950344Y13266D01*
Y13252D01*
X950348Y13243D01*
Y13239D01*
X950376Y13137D01*
X950413Y13045D01*
X950445Y12961D01*
X950482Y12892D01*
X950515Y12832D01*
X950542Y12786D01*
X950561Y12758D01*
X950566Y12754D01*
Y12749D01*
X950626Y12675D01*
X950686Y12606D01*
X950750Y12546D01*
X950810Y12499D01*
X950861Y12458D01*
X950907Y12430D01*
X950935Y12412D01*
X950940Y12407D01*
X950944D01*
X951032Y12365D01*
X951129Y12333D01*
X951221Y12315D01*
X951309Y12296D01*
X951383Y12287D01*
X951416D01*
X951443Y12282D01*
X951499D01*
X951605Y12287D01*
X951697Y12296D01*
X951785Y12315D01*
X951864Y12333D01*
X951924Y12347D01*
X951970Y12365D01*
X951988Y12370D01*
X952002Y12375D01*
X952007Y12379D01*
X952011D01*
X952090Y12421D01*
X952164Y12467D01*
X952229Y12513D01*
X952284Y12560D01*
X952330Y12606D01*
X952367Y12638D01*
X952386Y12661D01*
X952395Y12670D01*
X952450Y12749D01*
X952497Y12827D01*
X952538Y12911D01*
X952575Y12984D01*
X952598Y13054D01*
X952621Y13109D01*
X952626Y13128D01*
X952631Y13142D01*
X952635Y13151D01*
Y13155D01*
X952663Y13266D01*
X952681Y13386D01*
X952700Y13497D01*
X952709Y13604D01*
Y13654D01*
X952714Y13696D01*
Y13738D01*
X952718Y13770D01*
Y13798D01*
Y13816D01*
Y13830D01*
Y13835D01*
X952714Y13950D01*
X952709Y14056D01*
X952700Y14158D01*
X952686Y14246D01*
X952672Y14320D01*
X952668Y14347D01*
X952663Y14375D01*
X952658Y14394D01*
Y14408D01*
X952654Y14417D01*
Y14421D01*
X952626Y14523D01*
X952589Y14615D01*
X952557Y14703D01*
X952520Y14773D01*
X952487Y14832D01*
X952460Y14879D01*
X952441Y14906D01*
X952437Y14911D01*
Y14916D01*
X952376Y14990D01*
X952316Y15059D01*
X952252Y15119D01*
X952192Y15165D01*
X952136Y15207D01*
X952095Y15235D01*
X952067Y15253D01*
X952062Y15258D01*
X952058D01*
X951965Y15299D01*
X951873Y15331D01*
X951781Y15355D01*
X951693Y15373D01*
X951614Y15382D01*
X951582D01*
X951554Y15387D01*
D02*
G37*
G36*
X923446D02*
X923391D01*
X923289Y15382D01*
X923197Y15373D01*
X923109Y15355D01*
X923035Y15336D01*
X922975Y15318D01*
X922929Y15299D01*
X922910Y15294D01*
X922896Y15290D01*
X922892Y15285D01*
X922887D01*
X922804Y15244D01*
X922730Y15198D01*
X922665Y15151D01*
X922610Y15105D01*
X922564Y15059D01*
X922531Y15026D01*
X922513Y15003D01*
X922504Y14994D01*
X922448Y14916D01*
X922397Y14837D01*
X922356Y14754D01*
X922319Y14680D01*
X922296Y14611D01*
X922273Y14560D01*
X922268Y14537D01*
X922263Y14523D01*
X922259Y14514D01*
Y14509D01*
X922231Y14398D01*
X922208Y14283D01*
X922194Y14172D01*
X922180Y14066D01*
Y14015D01*
X922176Y13973D01*
Y13932D01*
X922171Y13899D01*
Y13871D01*
Y13853D01*
Y13839D01*
Y13835D01*
X922176Y13719D01*
X922180Y13608D01*
X922194Y13507D01*
X922203Y13419D01*
X922217Y13345D01*
X922222Y13313D01*
X922231Y13289D01*
X922236Y13266D01*
Y13252D01*
X922240Y13243D01*
Y13239D01*
X922268Y13137D01*
X922305Y13045D01*
X922337Y12961D01*
X922374Y12892D01*
X922407Y12832D01*
X922434Y12786D01*
X922453Y12758D01*
X922457Y12754D01*
Y12749D01*
X922517Y12675D01*
X922577Y12606D01*
X922642Y12546D01*
X922702Y12499D01*
X922753Y12458D01*
X922799Y12430D01*
X922827Y12412D01*
X922832Y12407D01*
X922836D01*
X922924Y12365D01*
X923021Y12333D01*
X923113Y12315D01*
X923201Y12296D01*
X923275Y12287D01*
X923308D01*
X923335Y12282D01*
X923391D01*
X923497Y12287D01*
X923589Y12296D01*
X923677Y12315D01*
X923756Y12333D01*
X923816Y12347D01*
X923862Y12365D01*
X923880Y12370D01*
X923894Y12375D01*
X923899Y12379D01*
X923903D01*
X923982Y12421D01*
X924056Y12467D01*
X924121Y12513D01*
X924176Y12560D01*
X924222Y12606D01*
X924259Y12638D01*
X924278Y12661D01*
X924287Y12670D01*
X924342Y12749D01*
X924389Y12827D01*
X924430Y12911D01*
X924467Y12984D01*
X924490Y13054D01*
X924513Y13109D01*
X924518Y13128D01*
X924522Y13142D01*
X924527Y13151D01*
Y13155D01*
X924555Y13266D01*
X924573Y13386D01*
X924592Y13497D01*
X924601Y13604D01*
Y13654D01*
X924606Y13696D01*
Y13738D01*
X924610Y13770D01*
Y13798D01*
Y13816D01*
Y13830D01*
Y13835D01*
X924606Y13950D01*
X924601Y14056D01*
X924592Y14158D01*
X924578Y14246D01*
X924564Y14320D01*
X924559Y14347D01*
X924555Y14375D01*
X924550Y14394D01*
Y14408D01*
X924546Y14417D01*
Y14421D01*
X924518Y14523D01*
X924481Y14615D01*
X924449Y14703D01*
X924412Y14772D01*
X924379Y14832D01*
X924352Y14879D01*
X924333Y14906D01*
X924329Y14911D01*
Y14916D01*
X924268Y14990D01*
X924208Y15059D01*
X924144Y15119D01*
X924084Y15165D01*
X924028Y15207D01*
X923987Y15234D01*
X923959Y15253D01*
X923954Y15258D01*
X923950D01*
X923857Y15299D01*
X923765Y15331D01*
X923672Y15355D01*
X923585Y15373D01*
X923506Y15382D01*
X923474D01*
X923446Y15387D01*
D02*
G37*
G36*
X913947Y15373D02*
X913841D01*
X913762Y15364D01*
X913689Y15359D01*
X913624Y15350D01*
X913568Y15341D01*
X913527Y15336D01*
X913499Y15327D01*
X913490D01*
X913411Y15308D01*
X913338Y15290D01*
X913268Y15271D01*
X913208Y15248D01*
X913162Y15230D01*
X913125Y15216D01*
X913102Y15207D01*
X913093Y15202D01*
Y13262D01*
X913157Y13174D01*
X913217Y13091D01*
X913277Y13017D01*
X913338Y12947D01*
X913393Y12883D01*
X913448Y12823D01*
X913499Y12767D01*
X913545Y12721D01*
X913587Y12675D01*
X913624Y12638D01*
X913656Y12606D01*
X913684Y12583D01*
X913707Y12564D01*
X913726Y12550D01*
X913735Y12541D01*
X913739Y12536D01*
X913795Y12495D01*
X913850Y12458D01*
X913906Y12421D01*
X913957Y12393D01*
X914058Y12352D01*
X914146Y12324D01*
X914220Y12305D01*
X914248Y12301D01*
X914275Y12296D01*
X914294Y12291D01*
X914322D01*
X914396Y12296D01*
X914465Y12305D01*
X914530Y12324D01*
X914590Y12352D01*
X914650Y12379D01*
X914700Y12407D01*
X914747Y12444D01*
X914788Y12476D01*
X914825Y12509D01*
X914857Y12546D01*
X914885Y12573D01*
X914908Y12606D01*
X914927Y12629D01*
X914941Y12647D01*
X914945Y12656D01*
X914950Y12661D01*
X914987Y12735D01*
X915024Y12818D01*
X915051Y12906D01*
X915079Y12994D01*
X915116Y13183D01*
X915144Y13363D01*
X915153Y13451D01*
X915158Y13530D01*
X915167Y13604D01*
Y13664D01*
X915172Y13714D01*
Y13756D01*
Y13779D01*
Y13788D01*
X915167Y13936D01*
X915158Y14075D01*
X915139Y14204D01*
X915121Y14320D01*
X915098Y14431D01*
X915070Y14528D01*
X915038Y14615D01*
X915005Y14694D01*
X914978Y14763D01*
X914945Y14823D01*
X914917Y14874D01*
X914894Y14916D01*
X914876Y14948D01*
X914857Y14971D01*
X914848Y14985D01*
X914844Y14990D01*
X914779Y15059D01*
X914710Y15114D01*
X914636Y15170D01*
X914557Y15211D01*
X914483Y15248D01*
X914405Y15281D01*
X914331Y15304D01*
X914257Y15327D01*
X914188Y15341D01*
X914123Y15355D01*
X914067Y15359D01*
X914017Y15368D01*
X913975D01*
X913947Y15373D01*
D02*
G37*
G36*
X900023Y15387D02*
X899967D01*
X899866Y15382D01*
X899773Y15373D01*
X899685Y15355D01*
X899611Y15336D01*
X899551Y15318D01*
X899505Y15299D01*
X899487Y15294D01*
X899473Y15290D01*
X899468Y15285D01*
X899464D01*
X899380Y15244D01*
X899307Y15198D01*
X899242Y15151D01*
X899186Y15105D01*
X899140Y15059D01*
X899108Y15026D01*
X899089Y15003D01*
X899080Y14994D01*
X899025Y14916D01*
X898974Y14837D01*
X898932Y14754D01*
X898895Y14680D01*
X898872Y14611D01*
X898849Y14560D01*
X898845Y14537D01*
X898840Y14523D01*
X898835Y14514D01*
Y14509D01*
X898808Y14398D01*
X898785Y14283D01*
X898771Y14172D01*
X898757Y14066D01*
Y14015D01*
X898752Y13973D01*
Y13932D01*
X898748Y13899D01*
Y13871D01*
Y13853D01*
Y13839D01*
Y13835D01*
X898752Y13719D01*
X898757Y13608D01*
X898771Y13507D01*
X898780Y13419D01*
X898794Y13345D01*
X898798Y13313D01*
X898808Y13289D01*
X898812Y13266D01*
Y13252D01*
X898817Y13243D01*
Y13239D01*
X898845Y13137D01*
X898882Y13045D01*
X898914Y12961D01*
X898951Y12892D01*
X898983Y12832D01*
X899011Y12786D01*
X899029Y12758D01*
X899034Y12754D01*
Y12749D01*
X899094Y12675D01*
X899154Y12606D01*
X899219Y12546D01*
X899279Y12499D01*
X899330Y12458D01*
X899376Y12430D01*
X899404Y12412D01*
X899408Y12407D01*
X899413D01*
X899501Y12365D01*
X899598Y12333D01*
X899690Y12315D01*
X899778Y12296D01*
X899852Y12287D01*
X899884D01*
X899912Y12282D01*
X899967D01*
X900074Y12287D01*
X900166Y12296D01*
X900254Y12315D01*
X900332Y12333D01*
X900392Y12347D01*
X900438Y12365D01*
X900457Y12370D01*
X900471Y12375D01*
X900475Y12379D01*
X900480D01*
X900559Y12421D01*
X900632Y12467D01*
X900697Y12513D01*
X900753Y12560D01*
X900799Y12606D01*
X900836Y12638D01*
X900854Y12661D01*
X900863Y12670D01*
X900919Y12749D01*
X900965Y12827D01*
X901007Y12911D01*
X901044Y12984D01*
X901067Y13054D01*
X901090Y13109D01*
X901095Y13128D01*
X901099Y13142D01*
X901104Y13151D01*
Y13155D01*
X901132Y13266D01*
X901150Y13386D01*
X901168Y13497D01*
X901178Y13604D01*
Y13654D01*
X901182Y13696D01*
Y13738D01*
X901187Y13770D01*
Y13798D01*
Y13816D01*
Y13830D01*
Y13835D01*
X901182Y13950D01*
X901178Y14056D01*
X901168Y14158D01*
X901155Y14246D01*
X901141Y14320D01*
X901136Y14347D01*
X901132Y14375D01*
X901127Y14394D01*
Y14408D01*
X901122Y14417D01*
Y14421D01*
X901095Y14523D01*
X901058Y14615D01*
X901025Y14703D01*
X900988Y14772D01*
X900956Y14832D01*
X900928Y14879D01*
X900910Y14906D01*
X900905Y14911D01*
Y14916D01*
X900845Y14990D01*
X900785Y15059D01*
X900720Y15119D01*
X900660Y15165D01*
X900605Y15207D01*
X900563Y15234D01*
X900535Y15253D01*
X900531Y15258D01*
X900526D01*
X900434Y15299D01*
X900341Y15331D01*
X900249Y15355D01*
X900161Y15373D01*
X900083Y15382D01*
X900050D01*
X900023Y15387D01*
D02*
G37*
G36*
X1021519Y15368D02*
X1021469D01*
X1021390Y15364D01*
X1021316Y15350D01*
X1021251Y15331D01*
X1021191Y15313D01*
X1021150Y15294D01*
X1021113Y15276D01*
X1021094Y15262D01*
X1021085Y15258D01*
X1021025Y15211D01*
X1020974Y15160D01*
X1020928Y15110D01*
X1020887Y15064D01*
X1020859Y15017D01*
X1020836Y14980D01*
X1020822Y14957D01*
X1020817Y14953D01*
Y14948D01*
X1020780Y14874D01*
X1020748Y14791D01*
X1020720Y14712D01*
X1020702Y14638D01*
X1020683Y14574D01*
X1020674Y14523D01*
X1020669Y14504D01*
X1020665Y14491D01*
Y14481D01*
Y14477D01*
X1020646Y14375D01*
X1020637Y14269D01*
X1020628Y14167D01*
X1020619Y14075D01*
Y13996D01*
X1020614Y13959D01*
Y13932D01*
Y13908D01*
Y13890D01*
Y13881D01*
Y13876D01*
X1020619Y13733D01*
X1020628Y13594D01*
X1020646Y13470D01*
X1020665Y13354D01*
X1020692Y13243D01*
X1020720Y13146D01*
X1020753Y13058D01*
X1020780Y12980D01*
X1020813Y12906D01*
X1020845Y12846D01*
X1020873Y12795D01*
X1020900Y12754D01*
X1020919Y12721D01*
X1020937Y12698D01*
X1020947Y12684D01*
X1020951Y12680D01*
X1021016Y12610D01*
X1021085Y12550D01*
X1021159Y12495D01*
X1021233Y12449D01*
X1021311Y12412D01*
X1021390Y12379D01*
X1021464Y12352D01*
X1021533Y12333D01*
X1021603Y12315D01*
X1021667Y12305D01*
X1021723Y12296D01*
X1021774Y12287D01*
X1021815D01*
X1021843Y12282D01*
X1021871D01*
X1022028Y12291D01*
X1022101Y12296D01*
X1022166Y12305D01*
X1022222Y12315D01*
X1022268Y12319D01*
X1022296Y12329D01*
X1022305D01*
X1022383Y12347D01*
X1022462Y12370D01*
X1022531Y12388D01*
X1022596Y12412D01*
X1022647Y12430D01*
X1022688Y12444D01*
X1022711Y12453D01*
X1022716Y12458D01*
X1022721D01*
Y14486D01*
X1022651Y14574D01*
X1022587Y14657D01*
X1022527Y14726D01*
X1022471Y14786D01*
X1022430Y14837D01*
X1022393Y14874D01*
X1022374Y14893D01*
X1022365Y14902D01*
X1022300Y14962D01*
X1022240Y15017D01*
X1022189Y15064D01*
X1022139Y15100D01*
X1022097Y15133D01*
X1022069Y15156D01*
X1022046Y15170D01*
X1022042Y15174D01*
X1021986Y15211D01*
X1021931Y15244D01*
X1021884Y15267D01*
X1021838Y15290D01*
X1021801Y15304D01*
X1021774Y15313D01*
X1021755Y15322D01*
X1021750D01*
X1021644Y15350D01*
X1021598Y15359D01*
X1021556Y15364D01*
X1021519Y15368D01*
D02*
G37*
G36*
X955934Y15368D02*
X955883D01*
X955805Y15364D01*
X955731Y15350D01*
X955666Y15331D01*
X955606Y15313D01*
X955564Y15294D01*
X955527Y15276D01*
X955509Y15262D01*
X955500Y15258D01*
X955440Y15211D01*
X955389Y15160D01*
X955342Y15110D01*
X955301Y15064D01*
X955273Y15017D01*
X955250Y14980D01*
X955236Y14957D01*
X955232Y14953D01*
Y14948D01*
X955195Y14874D01*
X955162Y14791D01*
X955135Y14712D01*
X955116Y14638D01*
X955098Y14574D01*
X955088Y14523D01*
X955084Y14504D01*
X955079Y14491D01*
Y14481D01*
Y14477D01*
X955061Y14375D01*
X955052Y14269D01*
X955042Y14167D01*
X955033Y14075D01*
Y13996D01*
X955028Y13959D01*
Y13932D01*
Y13908D01*
Y13890D01*
Y13881D01*
Y13876D01*
X955033Y13733D01*
X955042Y13594D01*
X955061Y13470D01*
X955079Y13354D01*
X955107Y13243D01*
X955135Y13146D01*
X955167Y13058D01*
X955195Y12980D01*
X955227Y12906D01*
X955259Y12846D01*
X955287Y12795D01*
X955315Y12754D01*
X955333Y12721D01*
X955352Y12698D01*
X955361Y12684D01*
X955366Y12680D01*
X955430Y12610D01*
X955500Y12550D01*
X955573Y12495D01*
X955647Y12449D01*
X955726Y12412D01*
X955805Y12379D01*
X955879Y12352D01*
X955948Y12333D01*
X956017Y12315D01*
X956082Y12305D01*
X956137Y12296D01*
X956188Y12287D01*
X956230D01*
X956257Y12282D01*
X956285D01*
X956442Y12291D01*
X956516Y12296D01*
X956581Y12305D01*
X956636Y12315D01*
X956682Y12319D01*
X956710Y12329D01*
X956719D01*
X956798Y12347D01*
X956876Y12370D01*
X956946Y12388D01*
X957010Y12412D01*
X957061Y12430D01*
X957103Y12444D01*
X957126Y12453D01*
X957131Y12458D01*
X957135D01*
Y14486D01*
X957066Y14574D01*
X957001Y14657D01*
X956941Y14726D01*
X956886Y14786D01*
X956844Y14837D01*
X956807Y14874D01*
X956789Y14893D01*
X956779Y14902D01*
X956715Y14962D01*
X956655Y15017D01*
X956604Y15064D01*
X956553Y15100D01*
X956511Y15133D01*
X956484Y15156D01*
X956461Y15170D01*
X956456Y15174D01*
X956400Y15211D01*
X956345Y15244D01*
X956299Y15267D01*
X956253Y15290D01*
X956216Y15304D01*
X956188Y15313D01*
X956170Y15322D01*
X956165D01*
X956059Y15350D01*
X956012Y15359D01*
X955971Y15364D01*
X955934Y15368D01*
D02*
G37*
G36*
X989069Y15456D02*
X989032D01*
X988958Y15452D01*
X988893Y15447D01*
X988828Y15438D01*
X988778Y15424D01*
X988731Y15410D01*
X988699Y15401D01*
X988680Y15396D01*
X988671Y15392D01*
X988611Y15364D01*
X988556Y15336D01*
X988509Y15304D01*
X988463Y15276D01*
X988431Y15248D01*
X988408Y15225D01*
X988389Y15211D01*
X988385Y15207D01*
X988339Y15160D01*
X988302Y15114D01*
X988269Y15068D01*
X988242Y15022D01*
X988223Y14985D01*
X988209Y14953D01*
X988200Y14934D01*
X988195Y14925D01*
X988172Y14860D01*
X988154Y14800D01*
X988144Y14736D01*
X988135Y14680D01*
X988131Y14634D01*
X988126Y14592D01*
Y14569D01*
Y14564D01*
Y14560D01*
X988131Y14495D01*
X988135Y14431D01*
X988144Y14375D01*
X988158Y14324D01*
X988172Y14278D01*
X988181Y14246D01*
X988186Y14227D01*
X988191Y14218D01*
X988214Y14158D01*
X988242Y14107D01*
X988274Y14056D01*
X988302Y14015D01*
X988325Y13978D01*
X988348Y13955D01*
X988362Y13936D01*
X988366Y13932D01*
X988408Y13885D01*
X988459Y13848D01*
X988505Y13816D01*
X988546Y13784D01*
X988588Y13765D01*
X988620Y13747D01*
X988639Y13738D01*
X988648Y13733D01*
X988713Y13710D01*
X988778Y13691D01*
X988842Y13682D01*
X988902Y13673D01*
X988953Y13668D01*
X988995Y13664D01*
X989032D01*
X989106Y13668D01*
X989170Y13673D01*
X989235Y13682D01*
X989290Y13696D01*
X989332Y13705D01*
X989369Y13714D01*
X989387Y13719D01*
X989397Y13724D01*
X989457Y13751D01*
X989507Y13779D01*
X989558Y13812D01*
X989600Y13839D01*
X989637Y13862D01*
X989660Y13885D01*
X989678Y13899D01*
X989683Y13904D01*
X989725Y13950D01*
X989762Y14001D01*
X989794Y14047D01*
X989822Y14093D01*
X989840Y14130D01*
X989854Y14163D01*
X989863Y14181D01*
X989868Y14190D01*
X989891Y14255D01*
X989905Y14320D01*
X989919Y14380D01*
X989923Y14440D01*
X989928Y14486D01*
X989933Y14528D01*
Y14551D01*
Y14560D01*
X989928Y14625D01*
X989923Y14685D01*
X989914Y14740D01*
X989900Y14791D01*
X989891Y14832D01*
X989882Y14865D01*
X989877Y14883D01*
X989872Y14893D01*
X989849Y14953D01*
X989822Y15008D01*
X989794Y15054D01*
X989766Y15100D01*
X989738Y15133D01*
X989720Y15156D01*
X989706Y15174D01*
X989701Y15179D01*
X989655Y15225D01*
X989609Y15262D01*
X989563Y15299D01*
X989517Y15327D01*
X989480Y15350D01*
X989447Y15364D01*
X989429Y15373D01*
X989420Y15378D01*
X989355Y15405D01*
X989286Y15424D01*
X989221Y15438D01*
X989161Y15447D01*
X989110Y15452D01*
X989069Y15456D01*
D02*
G37*
G36*
X989697Y11857D02*
X988606Y11820D01*
X988528Y11816D01*
X988459Y11811D01*
X988389Y11802D01*
X988329Y11793D01*
X988269Y11779D01*
X988218Y11769D01*
X988172Y11756D01*
X988131Y11746D01*
X988094Y11733D01*
X988061Y11719D01*
X988034Y11709D01*
X988011Y11700D01*
X987997Y11691D01*
X987983Y11686D01*
X987974Y11682D01*
X987937Y11659D01*
X987904Y11631D01*
X987849Y11571D01*
X987812Y11511D01*
X987789Y11451D01*
X987770Y11395D01*
X987766Y11349D01*
X987761Y11331D01*
Y11317D01*
Y11312D01*
Y11308D01*
X987766Y11257D01*
X987770Y11206D01*
X987780Y11160D01*
X987793Y11123D01*
X987807Y11086D01*
X987817Y11063D01*
X987821Y11044D01*
X987826Y11039D01*
X987854Y10993D01*
X987886Y10947D01*
X987918Y10910D01*
X987955Y10878D01*
X987983Y10845D01*
X988011Y10827D01*
X988029Y10813D01*
X988034Y10808D01*
X988089Y10772D01*
X988154Y10739D01*
X988218Y10712D01*
X988278Y10688D01*
X988329Y10670D01*
X988375Y10656D01*
X988403Y10647D01*
X988408Y10642D01*
X988412D01*
X988505Y10619D01*
X988602Y10605D01*
X988694Y10591D01*
X988787Y10587D01*
X988870Y10582D01*
X988902Y10577D01*
X989092D01*
X989184Y10582D01*
X989272Y10591D01*
X989355Y10601D01*
X989433Y10610D01*
X989503Y10624D01*
X989567Y10633D01*
X989628Y10647D01*
X989678Y10661D01*
X989720Y10674D01*
X989762Y10684D01*
X989794Y10693D01*
X989817Y10702D01*
X989835Y10712D01*
X989845Y10716D01*
X989849D01*
X989905Y10744D01*
X989951Y10772D01*
X989993Y10804D01*
X990025Y10841D01*
X990057Y10873D01*
X990080Y10910D01*
X990117Y10979D01*
X990136Y11044D01*
X990150Y11100D01*
X990154Y11118D01*
Y11132D01*
Y11141D01*
Y11146D01*
X990150Y11215D01*
X990145Y11275D01*
X990140Y11298D01*
Y11317D01*
X990136Y11326D01*
Y11331D01*
X990117Y11395D01*
X990094Y11451D01*
X990080Y11474D01*
X990076Y11492D01*
X990067Y11502D01*
Y11506D01*
X990025Y11571D01*
X989979Y11626D01*
X989960Y11649D01*
X989942Y11668D01*
X989933Y11677D01*
X989928Y11682D01*
X989854Y11746D01*
X989775Y11802D01*
X989748Y11825D01*
X989720Y11843D01*
X989701Y11853D01*
X989697Y11857D01*
D02*
G37*
G36*
X442311Y25090D02*
X438370D01*
D01*
X439631D01*
X439594Y25086D01*
X439553D01*
X439502Y25081D01*
X439396Y25072D01*
X439280Y25063D01*
X439155Y25044D01*
X439031Y25021D01*
X439026D01*
X439017Y25016D01*
X438998D01*
X438975Y25007D01*
X438943Y25002D01*
X438910Y24993D01*
X438869Y24984D01*
X438827Y24970D01*
X438730Y24942D01*
X438619Y24910D01*
X438509Y24868D01*
X438393Y24818D01*
Y24083D01*
X438398D01*
X438407Y24092D01*
X438425Y24097D01*
X438444Y24111D01*
X438472Y24125D01*
X438509Y24138D01*
X438546Y24157D01*
X438587Y24175D01*
X438680Y24217D01*
X438786Y24259D01*
X438901Y24296D01*
X439021Y24332D01*
X439026D01*
X439035Y24337D01*
X439054Y24342D01*
X439077Y24346D01*
X439105Y24356D01*
X439142Y24360D01*
X439183Y24370D01*
X439229Y24379D01*
X439331Y24397D01*
X439451Y24411D01*
X439580Y24420D01*
X439719Y24425D01*
X439793D01*
X439830Y24420D01*
X439876Y24416D01*
X439922Y24411D01*
X439978Y24406D01*
X440098Y24388D01*
X440227Y24360D01*
X440361Y24319D01*
X440490Y24268D01*
X440495D01*
X440504Y24259D01*
X440523Y24254D01*
X440546Y24240D01*
X440574Y24226D01*
X440611Y24203D01*
X440689Y24157D01*
X440777Y24097D01*
X440874Y24018D01*
X440966Y23935D01*
X441059Y23834D01*
X441063Y23829D01*
X441068Y23820D01*
X441082Y23806D01*
X441096Y23783D01*
X441114Y23755D01*
X441137Y23723D01*
X441165Y23686D01*
X441188Y23644D01*
X441216Y23598D01*
X441248Y23542D01*
X441308Y23427D01*
X441364Y23298D01*
X441414Y23154D01*
Y23150D01*
X441419Y23136D01*
X441424Y23118D01*
X441433Y23085D01*
X441442Y23048D01*
X441452Y23007D01*
X441465Y22956D01*
X441475Y22900D01*
X441484Y22836D01*
X441498Y22771D01*
X441507Y22697D01*
X441516Y22618D01*
X441530Y22457D01*
X441535Y22281D01*
Y22277D01*
Y22258D01*
Y22230D01*
Y22198D01*
X441530Y22152D01*
Y22101D01*
X441525Y22046D01*
X441521Y21981D01*
X441516Y21916D01*
X441512Y21842D01*
X441493Y21695D01*
X441470Y21537D01*
X441438Y21385D01*
Y21380D01*
X441433Y21366D01*
X441428Y21348D01*
X441419Y21320D01*
X441405Y21283D01*
X441396Y21246D01*
X441378Y21200D01*
X441359Y21154D01*
X441318Y21048D01*
X441262Y20937D01*
X441197Y20821D01*
X441123Y20715D01*
X441119Y20710D01*
X441114Y20701D01*
X441100Y20687D01*
X441086Y20669D01*
X441040Y20623D01*
X440976Y20563D01*
X440897Y20493D01*
X440805Y20424D01*
X440698Y20355D01*
X440583Y20295D01*
X440578D01*
X440569Y20290D01*
X440551Y20281D01*
X440523Y20271D01*
X440490Y20262D01*
X440454Y20248D01*
X440407Y20235D01*
X440357Y20225D01*
X440301Y20211D01*
X440241Y20198D01*
X440176Y20184D01*
X440107Y20175D01*
X439955Y20156D01*
X439788Y20151D01*
X439682D01*
X439617Y20156D01*
X439604D01*
X439585Y20161D01*
X439562D01*
X439502Y20170D01*
X439437Y20179D01*
X439433D01*
X439423Y20184D01*
X439405D01*
X439382Y20188D01*
X439322Y20198D01*
X439262Y20211D01*
X439257D01*
X439248Y20216D01*
X439229Y20221D01*
X439211Y20225D01*
X439160Y20244D01*
X439105Y20262D01*
Y21999D01*
X440218D01*
Y22609D01*
X438370D01*
D01*
D01*
Y19500D01*
Y19828D01*
X438379Y19823D01*
X438398Y19814D01*
X438435Y19800D01*
X438481Y19782D01*
X438536Y19759D01*
X438596Y19736D01*
X438666Y19708D01*
X438735Y19685D01*
X438744Y19680D01*
X438767Y19676D01*
X438804Y19662D01*
X438855Y19648D01*
X438910Y19634D01*
X438980Y19615D01*
X439049Y19602D01*
X439123Y19583D01*
X439132D01*
X439155Y19579D01*
X439197Y19569D01*
X439243Y19560D01*
X439303Y19551D01*
X439372Y19542D01*
X439442Y19532D01*
X439516Y19523D01*
X439525D01*
X439548Y19519D01*
X439585Y19514D01*
X439636D01*
X439691Y19509D01*
X439756Y19505D01*
X439895Y19500D01*
X439950D01*
X439987Y19505D01*
X440038D01*
X440093Y19509D01*
X440158Y19514D01*
X440227Y19523D01*
X440301Y19532D01*
X440384Y19542D01*
X440551Y19574D01*
X440726Y19615D01*
X440897Y19671D01*
X440902D01*
X440916Y19680D01*
X440939Y19689D01*
X440971Y19703D01*
X441013Y19722D01*
X441054Y19745D01*
X441105Y19773D01*
X441160Y19800D01*
X441281Y19874D01*
X441405Y19962D01*
X441535Y20068D01*
X441659Y20188D01*
X441664Y20193D01*
X441673Y20202D01*
X441687Y20225D01*
X441710Y20248D01*
X441738Y20285D01*
X441766Y20327D01*
X441803Y20373D01*
X441840Y20424D01*
X441877Y20484D01*
X441914Y20549D01*
X441955Y20618D01*
X441997Y20697D01*
X442038Y20775D01*
X442075Y20863D01*
X442144Y21043D01*
Y21048D01*
X442154Y21066D01*
X442158Y21094D01*
X442172Y21136D01*
X442181Y21182D01*
X442195Y21242D01*
X442214Y21306D01*
X442228Y21385D01*
X442241Y21468D01*
X442260Y21561D01*
X442274Y21657D01*
X442283Y21759D01*
X442297Y21870D01*
X442302Y21986D01*
X442311Y22106D01*
Y22295D01*
X442306Y22341D01*
Y22401D01*
X442302Y22471D01*
X442297Y22549D01*
X442288Y22632D01*
X442278Y22725D01*
X442265Y22817D01*
X442232Y23020D01*
X442186Y23228D01*
X442126Y23432D01*
X442121Y23436D01*
X442117Y23455D01*
X442107Y23482D01*
X442089Y23519D01*
X442071Y23566D01*
X442048Y23621D01*
X442020Y23681D01*
X441987Y23746D01*
X441914Y23884D01*
X441826Y24037D01*
X441719Y24189D01*
X441599Y24332D01*
X441595Y24337D01*
X441585Y24351D01*
X441562Y24370D01*
X441539Y24393D01*
X441507Y24425D01*
X441465Y24462D01*
X441419Y24499D01*
X441368Y24540D01*
X441313Y24587D01*
X441248Y24633D01*
X441184Y24679D01*
X441110Y24725D01*
X440952Y24818D01*
X440782Y24896D01*
X440777Y24901D01*
X440759Y24905D01*
X440735Y24915D01*
X440698Y24928D01*
X440652Y24942D01*
X440601Y24956D01*
X440541Y24975D01*
X440472Y24993D01*
X440398Y25012D01*
X440315Y25030D01*
X440227Y25044D01*
X440135Y25058D01*
X439941Y25081D01*
X439728Y25090D01*
X442311D01*
D01*
D02*
G37*
G36*
X451500Y25012D02*
X447573D01*
X450045D01*
X450012Y25007D01*
X449938D01*
X449892Y25002D01*
X449841Y24998D01*
X449786Y24993D01*
X449666Y24979D01*
X449532Y24956D01*
X449384Y24928D01*
X449236Y24896D01*
X449079Y24850D01*
X448922Y24799D01*
X448765Y24735D01*
X448608Y24660D01*
X448465Y24573D01*
X448326Y24471D01*
X448201Y24356D01*
X448192Y24346D01*
X448174Y24323D01*
X448141Y24286D01*
X448104Y24231D01*
X448054Y24162D01*
X448003Y24078D01*
X447947Y23977D01*
X447887Y23861D01*
X447827Y23727D01*
X447772Y23580D01*
X447721Y23413D01*
X447670Y23233D01*
X447633Y23039D01*
X447601Y22826D01*
X447578Y22595D01*
X447573Y22351D01*
Y22249D01*
X447578Y22207D01*
Y22161D01*
X447582Y22110D01*
X447587Y21995D01*
X447601Y21870D01*
X447615Y21736D01*
X447638Y21602D01*
Y21598D01*
X447642Y21588D01*
Y21565D01*
X447647Y21542D01*
X447656Y21510D01*
X447665Y21473D01*
X447675Y21431D01*
X447684Y21385D01*
X447712Y21283D01*
X447744Y21172D01*
X447786Y21052D01*
X447832Y20937D01*
Y20932D01*
X447836Y20923D01*
X447846Y20904D01*
X447855Y20886D01*
X447869Y20858D01*
X447883Y20826D01*
X447924Y20752D01*
X447970Y20664D01*
X448030Y20567D01*
X448100Y20470D01*
X448174Y20373D01*
X448178Y20369D01*
X448183Y20364D01*
X448197Y20350D01*
X448211Y20332D01*
X448257Y20285D01*
X448317Y20225D01*
X448395Y20161D01*
X448483Y20087D01*
X448585Y20013D01*
X448696Y19943D01*
X448700D01*
X448709Y19934D01*
X448728Y19925D01*
X448751Y19916D01*
X448779Y19902D01*
X448816Y19884D01*
X448853Y19865D01*
X448899Y19842D01*
X448950Y19823D01*
X449005Y19800D01*
X449125Y19754D01*
X449264Y19713D01*
X449412Y19671D01*
X449416D01*
X449430Y19666D01*
X449453Y19662D01*
X449481Y19657D01*
X449523Y19648D01*
X449569Y19639D01*
X449620Y19629D01*
X449680Y19625D01*
X449744Y19615D01*
X449814Y19606D01*
X449892Y19597D01*
X449971Y19588D01*
X450146Y19579D01*
X450336Y19574D01*
X447573D01*
X451500D01*
Y25012D01*
D02*
G37*
G36*
X446612D02*
X443087D01*
X445032D01*
X445000Y25007D01*
X444958D01*
X444912Y25002D01*
X444856Y24998D01*
X444796Y24993D01*
X444732Y24984D01*
X444662Y24970D01*
X444510Y24942D01*
X444348Y24901D01*
X444177Y24845D01*
X444011Y24776D01*
X443928Y24735D01*
X443849Y24688D01*
X443771Y24637D01*
X443697Y24582D01*
X443628Y24517D01*
X443563Y24453D01*
X443503Y24379D01*
X443447Y24300D01*
X443397Y24217D01*
X443360Y24125D01*
X443327Y24023D01*
X443299Y23921D01*
X443286Y23806D01*
X443281Y23686D01*
Y23681D01*
Y23667D01*
Y23644D01*
X443286Y23612D01*
Y23575D01*
X443290Y23529D01*
X443299Y23478D01*
X443309Y23422D01*
X443332Y23307D01*
X443369Y23178D01*
X443420Y23048D01*
X443452Y22984D01*
X443489Y22923D01*
Y22919D01*
X443498Y22910D01*
X443512Y22896D01*
X443531Y22873D01*
X443554Y22845D01*
X443581Y22817D01*
X443614Y22785D01*
X443651Y22748D01*
X443697Y22711D01*
X443748Y22669D01*
X443803Y22632D01*
X443863Y22595D01*
X443932Y22558D01*
X444002Y22522D01*
X444085Y22489D01*
X444168Y22457D01*
X444159D01*
X444131Y22448D01*
X444090Y22438D01*
X444034Y22424D01*
X443969Y22406D01*
X443900Y22378D01*
X443826Y22351D01*
X443752Y22314D01*
X443743Y22309D01*
X443720Y22295D01*
X443683Y22277D01*
X443637Y22244D01*
X443581Y22207D01*
X443526Y22166D01*
X443466Y22110D01*
X443410Y22055D01*
X443406Y22046D01*
X443387Y22027D01*
X443360Y21995D01*
X443327Y21949D01*
X443286Y21893D01*
X443249Y21833D01*
X443212Y21759D01*
X443175Y21681D01*
X443170Y21671D01*
X443161Y21644D01*
X443147Y21598D01*
X443129Y21542D01*
X443115Y21468D01*
X443101Y21385D01*
X443092Y21293D01*
X443087Y21195D01*
Y21131D01*
X443092Y21099D01*
X443096Y21057D01*
X443101Y21011D01*
X443106Y20965D01*
X443124Y20854D01*
X443152Y20738D01*
X443189Y20618D01*
X443239Y20503D01*
Y20498D01*
X443244Y20489D01*
X443253Y20475D01*
X443267Y20452D01*
X443281Y20429D01*
X443299Y20396D01*
X443346Y20327D01*
X443406Y20248D01*
X443480Y20161D01*
X443568Y20077D01*
X443665Y19994D01*
X443669D01*
X443678Y19985D01*
X443692Y19976D01*
X443715Y19962D01*
X443738Y19943D01*
X443771Y19925D01*
X443808Y19902D01*
X443854Y19879D01*
X443951Y19828D01*
X444062Y19773D01*
X444191Y19726D01*
X444334Y19680D01*
X444339D01*
X444353Y19676D01*
X444371Y19671D01*
X444404Y19662D01*
X444441Y19657D01*
X444482Y19648D01*
X444533Y19639D01*
X444589Y19629D01*
X444653Y19615D01*
X444718Y19606D01*
X444792Y19597D01*
X444870Y19592D01*
X445032Y19579D01*
X445208Y19574D01*
X446612D01*
Y25012D01*
D02*
G37*
%LPD*%
G36*
X450761Y20216D02*
X450165D01*
X450133Y20221D01*
X450091Y20225D01*
X450040Y20230D01*
X449985Y20239D01*
X449920Y20248D01*
X449851Y20262D01*
X449777Y20281D01*
X449620Y20327D01*
X449537Y20355D01*
X449453Y20392D01*
X449366Y20429D01*
X449278Y20475D01*
X449195Y20530D01*
X449107Y20586D01*
X449019Y20650D01*
X448936Y20724D01*
X448857Y20803D01*
X448779Y20895D01*
X448709Y20988D01*
X448640Y21094D01*
X448575Y21209D01*
X448520Y21334D01*
X448469Y21468D01*
X448428Y21611D01*
X448395Y21768D01*
X448368Y21935D01*
X448354Y22110D01*
X448349Y22300D01*
Y22304D01*
Y22327D01*
Y22355D01*
Y22397D01*
X448354Y22448D01*
Y22503D01*
X448358Y22568D01*
X448363Y22637D01*
X448368Y22711D01*
X448377Y22789D01*
X448395Y22956D01*
X448423Y23118D01*
X448460Y23275D01*
Y23279D01*
X448465Y23293D01*
X448469Y23312D01*
X448479Y23339D01*
X448492Y23376D01*
X448506Y23413D01*
X448539Y23505D01*
X448585Y23607D01*
X448645Y23718D01*
X448709Y23824D01*
X448788Y23921D01*
X448793Y23926D01*
X448797Y23931D01*
X448811Y23944D01*
X448830Y23963D01*
X448876Y24004D01*
X448941Y24060D01*
X449019Y24115D01*
X449116Y24175D01*
X449222Y24231D01*
X449342Y24277D01*
X449347D01*
X449356Y24282D01*
X449375Y24286D01*
X449403Y24296D01*
X449435Y24305D01*
X449472Y24314D01*
X449513Y24323D01*
X449564Y24332D01*
X449620Y24342D01*
X449680Y24351D01*
X449744Y24360D01*
X449814Y24370D01*
X449966Y24383D01*
X450128Y24388D01*
X450761D01*
Y20216D01*
D02*
G37*
G36*
X445873Y22683D02*
X445097D01*
X445050Y22688D01*
X444986D01*
X444916Y22697D01*
X444843Y22706D01*
X444764Y22715D01*
X444686Y22734D01*
X444681D01*
X444676Y22739D01*
X444649Y22743D01*
X444612Y22757D01*
X444561Y22776D01*
X444505Y22799D01*
X444445Y22826D01*
X444385Y22863D01*
X444330Y22900D01*
X444325Y22905D01*
X444307Y22923D01*
X444279Y22946D01*
X444247Y22979D01*
X444210Y23020D01*
X444173Y23067D01*
X444136Y23122D01*
X444103Y23182D01*
X444099Y23191D01*
X444090Y23214D01*
X444076Y23247D01*
X444062Y23298D01*
X444048Y23358D01*
X444034Y23422D01*
X444025Y23501D01*
X444020Y23584D01*
Y23593D01*
Y23612D01*
X444025Y23644D01*
Y23686D01*
X444034Y23732D01*
X444043Y23787D01*
X444053Y23843D01*
X444071Y23898D01*
Y23903D01*
X444080Y23921D01*
X444094Y23949D01*
X444113Y23986D01*
X444136Y24028D01*
X444168Y24069D01*
X444205Y24111D01*
X444247Y24152D01*
X444251Y24157D01*
X444270Y24171D01*
X444297Y24189D01*
X444334Y24212D01*
X444385Y24240D01*
X444441Y24268D01*
X444510Y24296D01*
X444584Y24323D01*
X444593Y24328D01*
X444621Y24332D01*
X444667Y24342D01*
X444727Y24356D01*
X444806Y24370D01*
X444893Y24379D01*
X445000Y24383D01*
X445115Y24388D01*
X445873D01*
Y22683D01*
D02*
G37*
G36*
Y20198D02*
X445032D01*
X444986Y20202D01*
X444935Y20207D01*
X444875Y20211D01*
X444806Y20216D01*
X444732Y20225D01*
X444579Y20253D01*
X444422Y20299D01*
X444344Y20322D01*
X444270Y20355D01*
X444200Y20392D01*
X444140Y20433D01*
X444136Y20438D01*
X444127Y20443D01*
X444113Y20456D01*
X444090Y20479D01*
X444066Y20503D01*
X444039Y20535D01*
X444011Y20572D01*
X443983Y20613D01*
X443956Y20664D01*
X443923Y20720D01*
X443900Y20780D01*
X443877Y20844D01*
X443854Y20918D01*
X443840Y20997D01*
X443831Y21080D01*
X443826Y21172D01*
Y21177D01*
Y21182D01*
Y21209D01*
X443831Y21246D01*
X443835Y21297D01*
X443849Y21357D01*
X443863Y21417D01*
X443886Y21482D01*
X443914Y21547D01*
X443919Y21556D01*
X443932Y21574D01*
X443951Y21607D01*
X443979Y21644D01*
X444016Y21690D01*
X444062Y21736D01*
X444113Y21782D01*
X444173Y21828D01*
X444182Y21833D01*
X444200Y21847D01*
X444237Y21870D01*
X444284Y21893D01*
X444344Y21921D01*
X444413Y21953D01*
X444491Y21981D01*
X444579Y22004D01*
X444584D01*
X444589Y22009D01*
X444602D01*
X444621Y22013D01*
X444672Y22023D01*
X444736Y22036D01*
X444815Y22050D01*
X444903Y22060D01*
X445004Y22064D01*
X445115Y22069D01*
X445873D01*
Y20198D01*
D02*
G37*
%LPC*%
G36*
X298000Y16535D02*
X294929D01*
X294846Y16526D01*
X294744D01*
X294642Y16517D01*
X294522Y16508D01*
X294263Y16480D01*
X293995Y16443D01*
X293717Y16397D01*
X293449Y16322D01*
X293440D01*
X293421Y16313D01*
X293384Y16304D01*
X293338Y16285D01*
X293273Y16258D01*
X293209Y16239D01*
X293051Y16165D01*
X292876Y16082D01*
X292690Y15980D01*
X292506Y15869D01*
X292330Y15731D01*
X292320D01*
X292311Y15712D01*
X292256Y15666D01*
X292182Y15583D01*
X292089Y15481D01*
X291978Y15351D01*
X291877Y15194D01*
X291775Y15028D01*
X291691Y14833D01*
Y14824D01*
X291682Y14806D01*
X291673Y14778D01*
X291654Y14741D01*
X291645Y14694D01*
X291627Y14630D01*
X291581Y14491D01*
X291544Y14315D01*
X291516Y14121D01*
X291488Y13899D01*
X291479Y13668D01*
Y13658D01*
Y13649D01*
Y13622D01*
Y13585D01*
X291488Y13483D01*
X291497Y13353D01*
X291516Y13205D01*
X291544Y13048D01*
X291581Y12881D01*
X291636Y12706D01*
Y12697D01*
X291645Y12687D01*
X291664Y12632D01*
X291701Y12539D01*
X291747Y12428D01*
X291812Y12308D01*
X291886Y12160D01*
X291978Y12021D01*
X292080Y11873D01*
X292089Y11855D01*
X292136Y11808D01*
X292200Y11744D01*
X292284Y11651D01*
X292394Y11559D01*
X292515Y11448D01*
X292663Y11337D01*
X292820Y11235D01*
X292829D01*
X292839Y11226D01*
X292866Y11207D01*
X292894Y11189D01*
X292986Y11142D01*
X293107Y11087D01*
X293255Y11022D01*
X293421Y10948D01*
X293616Y10883D01*
X293819Y10828D01*
X293810D01*
X293800Y10819D01*
X293745Y10800D01*
X293662Y10754D01*
X293551Y10699D01*
X293430Y10625D01*
X293301Y10532D01*
X293172Y10412D01*
X293042Y10273D01*
X293023Y10255D01*
X292986Y10199D01*
X292922Y10116D01*
X292839Y9995D01*
X292737Y9848D01*
X292626Y9672D01*
X292506Y9459D01*
X292385Y9228D01*
X290655Y5648D01*
X292339D01*
X293958Y9126D01*
Y9135D01*
X293967Y9144D01*
X293986Y9191D01*
X294022Y9265D01*
X294078Y9357D01*
X294133Y9459D01*
X294198Y9570D01*
X294263Y9681D01*
X294337Y9783D01*
X294346Y9792D01*
X294374Y9829D01*
X294411Y9875D01*
X294457Y9940D01*
X294522Y10005D01*
X294596Y10069D01*
X294670Y10143D01*
X294753Y10199D01*
X294762Y10208D01*
X294790Y10227D01*
X294836Y10255D01*
X294892Y10282D01*
X294966Y10319D01*
X295049Y10356D01*
X295234Y10421D01*
X295244D01*
X295281Y10430D01*
X295336Y10449D01*
X295401Y10458D01*
X295493Y10476D01*
X295595Y10486D01*
X295706Y10495D01*
X296520D01*
Y5648D01*
X294624D01*
X298000D01*
Y16535D01*
D02*
G37*
G36*
X289111Y16692D02*
X281729D01*
X284754D01*
X284662Y16683D01*
X284560D01*
X284338Y16665D01*
X284319D01*
X284282Y16656D01*
X284218D01*
X284134Y16646D01*
X284033Y16637D01*
X283931Y16619D01*
X283690Y16591D01*
X283672D01*
X283635Y16581D01*
X283570Y16572D01*
X283487Y16563D01*
X283385Y16544D01*
X283274Y16526D01*
X283033Y16480D01*
X283015D01*
X282978Y16470D01*
X282913Y16461D01*
X282839Y16443D01*
X282747Y16424D01*
X282645Y16406D01*
X282432Y16360D01*
Y15028D01*
X282441D01*
X282460Y15037D01*
X282497Y15046D01*
X282543Y15055D01*
X282599Y15074D01*
X282673Y15092D01*
X282747Y15111D01*
X282839Y15129D01*
X283033Y15176D01*
X283246Y15222D01*
X283477Y15268D01*
X283718Y15305D01*
X283727D01*
X283746Y15314D01*
X283783D01*
X283829Y15324D01*
X283885Y15333D01*
X283949Y15342D01*
X284116Y15360D01*
X284301Y15379D01*
X284513Y15388D01*
X284735Y15407D01*
X285078D01*
X285170Y15397D01*
X285272D01*
X285392Y15388D01*
X285531Y15370D01*
X285670Y15351D01*
X285975Y15305D01*
X286290Y15231D01*
X286438Y15176D01*
X286585Y15120D01*
X286715Y15055D01*
X286835Y14981D01*
X286844Y14972D01*
X286863Y14963D01*
X286891Y14935D01*
X286928Y14907D01*
X287020Y14806D01*
X287131Y14676D01*
X287242Y14519D01*
X287335Y14315D01*
X287372Y14204D01*
X287400Y14093D01*
X287418Y13964D01*
X287427Y13834D01*
Y13825D01*
Y13816D01*
Y13760D01*
X287418Y13677D01*
X287400Y13575D01*
X287372Y13455D01*
X287326Y13335D01*
X287270Y13205D01*
X287187Y13076D01*
X287177Y13067D01*
X287140Y13020D01*
X287085Y12965D01*
X287011Y12891D01*
X286918Y12798D01*
X286807Y12706D01*
X286678Y12604D01*
X286539Y12512D01*
X286530D01*
X286521Y12502D01*
X286465Y12465D01*
X286382Y12419D01*
X286280Y12364D01*
X286141Y12290D01*
X285984Y12216D01*
X285818Y12132D01*
X285633Y12058D01*
X285624D01*
X285605Y12049D01*
X285577Y12040D01*
X285540Y12021D01*
X285438Y11984D01*
X285309Y11929D01*
X285152Y11864D01*
X284976Y11790D01*
X284782Y11716D01*
X284588Y11633D01*
X284578D01*
X284560Y11624D01*
X284532Y11614D01*
X284495Y11596D01*
X284449Y11577D01*
X284393Y11549D01*
X284255Y11494D01*
X284097Y11420D01*
X283922Y11346D01*
X283736Y11253D01*
X283542Y11161D01*
X283533D01*
X283514Y11152D01*
X283496Y11133D01*
X283459Y11115D01*
X283357Y11059D01*
X283237Y10985D01*
X283089Y10902D01*
X282941Y10791D01*
X282784Y10680D01*
X282627Y10550D01*
X282617D01*
X282608Y10532D01*
X282562Y10486D01*
X282488Y10412D01*
X282395Y10319D01*
X282294Y10190D01*
X282183Y10051D01*
X282081Y9894D01*
X281979Y9718D01*
Y9709D01*
X281970Y9700D01*
X281951Y9672D01*
X281942Y9635D01*
X281924Y9589D01*
X281896Y9533D01*
X281850Y9403D01*
X281813Y9237D01*
X281766Y9043D01*
X281738Y8830D01*
X281729Y8599D01*
Y5500D01*
Y8525D01*
X281738Y8469D01*
Y8405D01*
X281748Y8321D01*
X281757Y8238D01*
X281766Y8136D01*
X281813Y7924D01*
X281868Y7701D01*
X281942Y7461D01*
X282053Y7239D01*
Y7230D01*
X282071Y7211D01*
X282090Y7183D01*
X282108Y7147D01*
X282183Y7035D01*
X282284Y6897D01*
X282404Y6749D01*
X282553Y6582D01*
X282728Y6425D01*
X282932Y6268D01*
X282941D01*
X282960Y6249D01*
X282987Y6231D01*
X283033Y6203D01*
X283089Y6175D01*
X283154Y6138D01*
X283228Y6092D01*
X283311Y6046D01*
X283403Y5999D01*
X283514Y5953D01*
X283746Y5861D01*
X284005Y5768D01*
X284292Y5685D01*
X284301D01*
X284329Y5676D01*
X284375Y5666D01*
X284430Y5657D01*
X284504Y5639D01*
X284597Y5630D01*
X284699Y5611D01*
X284809Y5593D01*
X284930Y5574D01*
X285068Y5556D01*
X285216Y5546D01*
X285365Y5528D01*
X285698Y5509D01*
X286049Y5500D01*
X286206D01*
X286317Y5509D01*
X286456D01*
X286595Y5519D01*
X286752Y5528D01*
X286918Y5537D01*
X286937D01*
X286993Y5546D01*
X287076Y5556D01*
X287177Y5565D01*
X287307Y5574D01*
X287446Y5593D01*
X287742Y5620D01*
X287760D01*
X287807Y5630D01*
X287880Y5639D01*
X287982Y5648D01*
X288093Y5657D01*
X288213Y5676D01*
X288482Y5722D01*
X288500D01*
X288537Y5731D01*
X288611Y5750D01*
X288695Y5768D01*
X288787Y5787D01*
X288898Y5815D01*
X289111Y5870D01*
Y5648D01*
Y7701D01*
Y7304D01*
X289102D01*
X289083Y7294D01*
X289046Y7285D01*
X289000Y7267D01*
X288944Y7248D01*
X288870Y7220D01*
X288796Y7193D01*
X288704Y7165D01*
X288500Y7109D01*
X288260Y7045D01*
X288001Y6989D01*
X287714Y6934D01*
X287705D01*
X287677Y6925D01*
X287640D01*
X287575Y6915D01*
X287501Y6906D01*
X287418Y6897D01*
X287316Y6878D01*
X287205Y6869D01*
X287076Y6860D01*
X286937Y6841D01*
X286798Y6832D01*
X286641Y6823D01*
X286308Y6814D01*
X285947Y6804D01*
X285762D01*
X285688Y6814D01*
X285522Y6823D01*
X285328Y6832D01*
X285124Y6850D01*
X284921Y6878D01*
X284726Y6915D01*
X284717D01*
X284708Y6925D01*
X284680D01*
X284643Y6934D01*
X284550Y6961D01*
X284430Y6999D01*
X284301Y7045D01*
X284162Y7100D01*
X284033Y7174D01*
X283903Y7248D01*
X283885Y7258D01*
X283847Y7285D01*
X283792Y7332D01*
X283718Y7396D01*
X283644Y7480D01*
X283570Y7572D01*
X283496Y7674D01*
X283431Y7785D01*
X283422Y7803D01*
X283403Y7840D01*
X283385Y7905D01*
X283357Y7998D01*
X283330Y8099D01*
X283302Y8229D01*
X283293Y8367D01*
X283283Y8516D01*
Y8525D01*
Y8534D01*
Y8590D01*
X283293Y8673D01*
X283311Y8775D01*
X283348Y8885D01*
X283385Y9015D01*
X283450Y9144D01*
X283533Y9265D01*
X283542Y9283D01*
X283579Y9320D01*
X283635Y9376D01*
X283709Y9450D01*
X283801Y9542D01*
X283912Y9635D01*
X284042Y9727D01*
X284180Y9820D01*
X284199Y9829D01*
X284255Y9866D01*
X284338Y9912D01*
X284439Y9968D01*
X284578Y10042D01*
X284735Y10116D01*
X284911Y10199D01*
X285096Y10273D01*
X285105D01*
X285115Y10282D01*
X285142Y10291D01*
X285179Y10310D01*
X285281Y10347D01*
X285420Y10402D01*
X285577Y10467D01*
X285753Y10532D01*
X285938Y10606D01*
X286141Y10689D01*
X286151D01*
X286169Y10699D01*
X286197Y10708D01*
X286234Y10726D01*
X286336Y10773D01*
X286465Y10828D01*
X286632Y10902D01*
X286807Y10985D01*
X286993Y11068D01*
X287187Y11161D01*
X287196D01*
X287205Y11170D01*
X287233Y11189D01*
X287270Y11207D01*
X287372Y11263D01*
X287492Y11337D01*
X287631Y11420D01*
X287788Y11522D01*
X287936Y11642D01*
X288093Y11762D01*
X288112Y11781D01*
X288158Y11827D01*
X288232Y11901D01*
X288324Y11993D01*
X288426Y12114D01*
X288537Y12252D01*
X288639Y12410D01*
X288741Y12576D01*
Y12585D01*
X288750Y12595D01*
X288759Y12622D01*
X288778Y12660D01*
X288796Y12706D01*
X288815Y12761D01*
X288861Y12891D01*
X288907Y13057D01*
X288944Y13242D01*
X288972Y13455D01*
X288981Y13686D01*
Y13695D01*
Y13714D01*
Y13742D01*
Y13779D01*
X288972Y13834D01*
Y13890D01*
X288953Y14038D01*
X288926Y14204D01*
X288879Y14389D01*
X288824Y14583D01*
X288750Y14787D01*
Y14796D01*
X288741Y14815D01*
X288722Y14842D01*
X288704Y14879D01*
X288648Y14981D01*
X288574Y15111D01*
X288473Y15259D01*
X288352Y15425D01*
X288204Y15592D01*
X288029Y15749D01*
X288019Y15758D01*
X288010Y15767D01*
X287982Y15786D01*
X287936Y15823D01*
X287890Y15860D01*
X287834Y15897D01*
X287760Y15943D01*
X287686Y15999D01*
X287501Y16101D01*
X287288Y16221D01*
X287048Y16332D01*
X286771Y16433D01*
X286761D01*
X286734Y16443D01*
X286687Y16461D01*
X286632Y16470D01*
X286558Y16498D01*
X286465Y16517D01*
X286364Y16535D01*
X286252Y16563D01*
X286123Y16591D01*
X285975Y16609D01*
X285827Y16637D01*
X285670Y16656D01*
X285494Y16665D01*
X285318Y16683D01*
X284930Y16692D01*
X289111D01*
D01*
D02*
G37*
G36*
X279944Y16535D02*
X271989D01*
Y5648D01*
Y15268D01*
X275217D01*
Y5648D01*
X276716D01*
Y15268D01*
X279944D01*
Y16535D01*
D02*
G37*
%LPD*%
G36*
X296520Y11688D02*
X295234D01*
X295142Y11698D01*
X295012Y11707D01*
X294864Y11716D01*
X294707Y11744D01*
X294541Y11772D01*
X294383Y11808D01*
X294374D01*
X294365Y11818D01*
X294309Y11827D01*
X294235Y11855D01*
X294133Y11901D01*
X294022Y11947D01*
X293902Y12012D01*
X293782Y12077D01*
X293662Y12160D01*
X293653Y12169D01*
X293616Y12206D01*
X293560Y12252D01*
X293495Y12326D01*
X293421Y12410D01*
X293338Y12512D01*
X293264Y12622D01*
X293199Y12743D01*
X293190Y12761D01*
X293172Y12808D01*
X293144Y12881D01*
X293116Y12974D01*
X293088Y13094D01*
X293060Y13224D01*
X293042Y13381D01*
X293033Y13538D01*
Y13547D01*
Y13575D01*
Y13622D01*
X293042Y13686D01*
X293051Y13751D01*
X293060Y13844D01*
X293097Y14029D01*
X293172Y14241D01*
X293209Y14352D01*
X293264Y14463D01*
X293329Y14565D01*
X293403Y14667D01*
X293486Y14769D01*
X293588Y14852D01*
X293597Y14861D01*
X293616Y14870D01*
X293643Y14889D01*
X293689Y14917D01*
X293745Y14954D01*
X293810Y14990D01*
X293893Y15028D01*
X293986Y15074D01*
X294087Y15111D01*
X294198Y15148D01*
X294328Y15185D01*
X294466Y15222D01*
X294615Y15249D01*
X294772Y15268D01*
X294938Y15286D01*
X296520D01*
Y11688D01*
D02*
G37*
%LPC*%
G36*
X534158Y90515D02*
Y87933D01*
X531671D01*
Y90515D01*
X534158D01*
X530169D01*
Y87933D01*
X527683D01*
Y86593D01*
X530169D01*
Y84003D01*
X527683D01*
X531671D01*
Y86593D01*
X534158D01*
Y90515D01*
D02*
G37*
G36*
X541136Y92343D02*
Y85084D01*
X541129D01*
X541121Y85076D01*
X541099D01*
X541069Y85069D01*
X540988Y85047D01*
X540884Y85032D01*
X540759Y85002D01*
X540611Y84980D01*
X540448Y84950D01*
X540270Y84928D01*
X540248D01*
X540218Y84921D01*
X540181D01*
X540137Y84913D01*
X540085D01*
X540026Y84906D01*
X539959D01*
X539804Y84891D01*
X539634Y84884D01*
X539449Y84876D01*
X539160D01*
X539094Y84884D01*
X539005Y84891D01*
X538916Y84899D01*
X538805Y84906D01*
X538694Y84921D01*
X538443Y84965D01*
X538191Y85039D01*
X538065Y85076D01*
X537947Y85128D01*
X537836Y85187D01*
X537732Y85254D01*
X537725Y85261D01*
X537710Y85269D01*
X537680Y85291D01*
X537651Y85328D01*
X537614Y85365D01*
X537569Y85409D01*
X537517Y85468D01*
X537466Y85535D01*
X537421Y85602D01*
X537369Y85683D01*
X537325Y85772D01*
X537288Y85868D01*
X537258Y85972D01*
X537229Y86075D01*
X537214Y86194D01*
X537207Y86319D01*
Y86327D01*
Y86349D01*
Y86386D01*
X537214Y86438D01*
X537221Y86490D01*
X537229Y86564D01*
X537266Y86712D01*
X537325Y86882D01*
X537362Y86971D01*
X537414Y87059D01*
X537466Y87141D01*
X537532Y87222D01*
X537606Y87296D01*
X537695Y87363D01*
X537703Y87370D01*
X537717Y87378D01*
X537747Y87392D01*
X537791Y87415D01*
X537843Y87444D01*
X537910Y87474D01*
X537984Y87503D01*
X538072Y87540D01*
X538176Y87570D01*
X538294Y87600D01*
X538420Y87629D01*
X538568Y87659D01*
X538724Y87681D01*
X538894Y87696D01*
X539072Y87711D01*
X540973D01*
Y92343D01*
X541136D01*
X535949D01*
Y90811D01*
X539456D01*
Y89035D01*
X538664D01*
X538590Y89028D01*
X538509D01*
X538428Y89020D01*
X538228Y89006D01*
X538013Y88983D01*
X537791Y88954D01*
X537562Y88909D01*
X537554D01*
X537532Y88902D01*
X537503Y88895D01*
X537458Y88887D01*
X537406Y88872D01*
X537347Y88858D01*
X537273Y88835D01*
X537199Y88813D01*
X537036Y88754D01*
X536852Y88687D01*
X536666Y88599D01*
X536489Y88495D01*
X536482D01*
X536467Y88480D01*
X536444Y88465D01*
X536415Y88443D01*
X536326Y88377D01*
X536223Y88280D01*
X536104Y88169D01*
X535978Y88029D01*
X535860Y87873D01*
X535749Y87688D01*
Y87681D01*
X535734Y87666D01*
X535719Y87637D01*
X535704Y87600D01*
X535682Y87548D01*
X535660Y87489D01*
X535638Y87422D01*
X535608Y87341D01*
X535579Y87252D01*
X535557Y87156D01*
X535534Y87052D01*
X535512Y86941D01*
X535490Y86823D01*
X535482Y86689D01*
X535468Y86416D01*
Y86438D01*
Y86349D01*
X535475Y86297D01*
Y86238D01*
X535482Y86164D01*
X535490Y86083D01*
X535505Y85994D01*
X535542Y85801D01*
X535594Y85594D01*
X535668Y85380D01*
X535764Y85172D01*
Y85165D01*
X535778Y85150D01*
X535793Y85121D01*
X535815Y85084D01*
X535845Y85039D01*
X535882Y84980D01*
X535978Y84854D01*
X536089Y84714D01*
X536230Y84558D01*
X536393Y84403D01*
X536578Y84255D01*
X536585Y84247D01*
X536600Y84240D01*
X536629Y84218D01*
X536666Y84196D01*
X536718Y84166D01*
X536777Y84129D01*
X536844Y84092D01*
X536926Y84048D01*
X537014Y84003D01*
X537103Y83959D01*
X537318Y83863D01*
X537547Y83774D01*
X537806Y83692D01*
X537814D01*
X537836Y83685D01*
X537873Y83678D01*
X537932Y83663D01*
X537991Y83648D01*
X538072Y83633D01*
X538161Y83611D01*
X538257Y83596D01*
X538369Y83581D01*
X538487Y83559D01*
X538613Y83544D01*
X538746Y83530D01*
X539035Y83507D01*
X539338Y83500D01*
X535468D01*
D01*
X541136D01*
Y92343D01*
D02*
G37*
%LPD*%
G36*
Y83500D02*
X539471D01*
X539538Y83507D01*
X539612D01*
X539782Y83515D01*
X539819D01*
X539871Y83522D01*
X539930D01*
X539996Y83530D01*
X540078Y83537D01*
X540255Y83552D01*
X540263D01*
X540293Y83559D01*
X540344D01*
X540403Y83567D01*
X540470Y83574D01*
X540552Y83581D01*
X540722Y83604D01*
X540729D01*
X540759Y83611D01*
X540803Y83618D01*
X540855Y83626D01*
X540921Y83633D01*
X540988Y83641D01*
X541136Y83663D01*
Y83500D01*
D02*
G37*
D10*
X320500Y53431D02*
G03*
X320500Y53431I-492J0D01*
G01*
X537505Y34653D02*
G03*
X537505Y34653I-492J0D01*
G01*
D11*
X352004Y5500D02*
G03*
X352004Y5500I-394J0D01*
G01*
X504409Y78349D02*
G03*
X505000Y78008I394J0D01*
G01*
Y74846D02*
G03*
X504409Y74505I-197J-341D01*
G01*
X506378Y78122D02*
G03*
X505787Y78462I-394J0D01*
G01*
X545787Y74391D02*
G03*
X546378Y74732I197J341D01*
G01*
X505787Y74391D02*
G03*
X506378Y74732I197J341D01*
G01*
X503031Y60214D02*
G03*
X502441Y59873I-197J-341D01*
G01*
X542480Y64813D02*
G03*
X542480Y64813I-8071J0D01*
G01*
X543819Y59760D02*
G03*
X544410Y60101I197J341D01*
G01*
X522480Y64813D02*
G03*
X522480Y64813I-8071J0D01*
G01*
X502441Y56484D02*
G03*
X503031Y56143I394J0D01*
G01*
X546378Y78122D02*
G03*
X545787Y78462I-394J0D01*
G01*
X543032Y60214D02*
G03*
X542441Y59873I-197J-341D01*
G01*
X544410Y56257D02*
G03*
X543819Y56598I-394J0D01*
G01*
X337447Y7995D02*
Y13005D01*
X349365Y7995D02*
Y13005D01*
X307098Y17980D02*
X331902D01*
X307098Y3020D02*
Y4693D01*
X342762Y7995D02*
Y13005D01*
X344050Y7995D02*
Y13005D01*
X531047Y36533D02*
X536953D01*
X540315Y56939D02*
Y72687D01*
X331902Y16307D02*
Y17980D01*
X544410Y54826D02*
Y81348D01*
X528504Y56939D02*
Y72687D01*
X331902Y3020D02*
Y4693D01*
X531047Y43225D02*
X536953D01*
X307098Y16307D02*
Y17980D01*
Y3020D02*
X331902D01*
X319811Y33254D02*
X346189D01*
X510047Y36654D02*
X515953D01*
X319811Y49396D02*
X335260D01*
X335940D02*
X346189D01*
X510047Y43347D02*
X515953D01*
X542402Y17665D02*
Y22311D01*
X506417Y17665D02*
Y22311D01*
X346189Y33254D02*
Y49396D01*
X319811Y33254D02*
Y49396D01*
X542402Y1181D02*
Y6839D01*
X506417Y1181D02*
Y6839D01*
X506339Y55612D02*
Y72687D01*
X526339D02*
X542480D01*
X506339Y56939D02*
X522480D01*
X507674Y52608D02*
X538438D01*
X504409Y74655D02*
X544410D01*
X542480Y49852D02*
Y50462D01*
Y56538D02*
Y72687D01*
X522480Y49852D02*
Y72687D01*
X526339Y56939D02*
X542480D01*
X526339Y49852D02*
Y72687D01*
X503031Y56143D02*
X504409Y56939D01*
X503031Y60215D02*
X504409Y59419D01*
X506378Y74732D02*
Y78122D01*
X505000Y74846D02*
X505787Y74391D01*
X505000Y78008D02*
X505787Y78462D01*
X543032Y60215D02*
X543819Y59760D01*
X502441Y56484D02*
Y59873D01*
X543170Y56223D02*
X543819Y56598D01*
X544410Y75187D02*
X545787Y74391D01*
X508504Y56939D02*
Y72687D01*
X520315Y56939D02*
Y72687D01*
X544410Y49852D02*
Y52174D01*
X507017Y54970D02*
X538670D01*
X542441Y56550D02*
Y59873D01*
X505019Y49852D02*
X544410D01*
Y52174D01*
Y54826D02*
Y75187D01*
X506339Y72687D02*
X522480D01*
X544410Y77667D02*
Y81348D01*
Y77667D02*
X545787Y78462D01*
X546378Y74732D02*
Y78122D01*
X504409Y56188D02*
Y81348D01*
X544410D01*
D52*
X357516Y1037D02*
Y2468D01*
Y73532D02*
Y76406D01*
X428382Y1037D02*
Y2468D01*
X357516Y76406D02*
X362417D01*
X423480D02*
X428382D01*
Y73532D02*
Y76406D01*
M02*
