G04*
G04 #@! TF.GenerationSoftware,Altium Limited,Altium Designer,24.3.1 (35)*
G04*
G04 Layer_Color=65535*
%FSLAX25Y25*%
%MOIN*%
G70*
G04*
G04 #@! TF.SameCoordinates,990AA879-4203-459C-8826-AB23A681A769*
G04*
G04*
G04 #@! TF.FilePolarity,Positive*
G04*
G01*
G75*
%ADD10C,0.00984*%
%ADD11C,0.00787*%
G36*
X577815Y518000D02*
X472000D01*
Y533192D01*
X577815D01*
Y518000D01*
D02*
G37*
G36*
X596684Y254500D02*
X452500D01*
Y270423D01*
X596684D01*
Y254500D01*
D02*
G37*
G36*
X13875Y1033675D02*
X15090D01*
Y1033000D01*
X11671D01*
Y1033675D01*
X13071D01*
Y1037648D01*
X11763Y1036936D01*
X11500Y1037551D01*
X13232Y1038465D01*
X13875D01*
Y1033675D01*
D02*
G37*
%LPC*%
G36*
X545095Y531174D02*
X544698D01*
X544494Y531155D01*
X544115Y531109D01*
X543939Y531081D01*
X543773Y531044D01*
X543625Y531007D01*
X543477Y530970D01*
X543347Y530934D01*
X543227Y530897D01*
X543125Y530860D01*
X543042Y530832D01*
X542977Y530804D01*
X542922Y530786D01*
X542894Y530776D01*
X542885Y530767D01*
X542561Y530601D01*
X542265Y530425D01*
X542135Y530323D01*
X542006Y530231D01*
X541886Y530138D01*
X541784Y530046D01*
X541682Y529962D01*
X541599Y529888D01*
X541525Y529814D01*
X541460Y529749D01*
X541414Y529703D01*
X541377Y529666D01*
X541359Y529638D01*
X541349Y529629D01*
X541127Y529343D01*
X540933Y529037D01*
X540766Y528741D01*
X540628Y528454D01*
X540572Y528325D01*
X540517Y528214D01*
X540480Y528103D01*
X540443Y528011D01*
X540415Y527937D01*
X540396Y527881D01*
X540378Y527844D01*
Y527835D01*
X540267Y527428D01*
X540184Y527021D01*
X540128Y526623D01*
X540100Y526438D01*
X540091Y526253D01*
X540073Y526087D01*
X540063Y525939D01*
X540054Y525800D01*
Y525689D01*
X540045Y525596D01*
Y525467D01*
X540063Y524976D01*
X540100Y524523D01*
X540156Y524088D01*
X540239Y523700D01*
X540332Y523330D01*
X540434Y522997D01*
X540545Y522692D01*
X540665Y522424D01*
X540776Y522183D01*
X540887Y521980D01*
X540988Y521795D01*
X541081Y521656D01*
X541164Y521545D01*
X541220Y521461D01*
X541266Y521415D01*
X541275Y521397D01*
X541516Y521156D01*
X541784Y520943D01*
X542062Y520758D01*
X542348Y520601D01*
X542644Y520463D01*
X542940Y520352D01*
X543227Y520268D01*
X543514Y520194D01*
X543782Y520139D01*
X544023Y520092D01*
X544244Y520065D01*
X544439Y520037D01*
X544522D01*
X544596Y520028D01*
X544661D01*
X544716Y520018D01*
X544818D01*
X545086Y520028D01*
X545345Y520046D01*
X545604Y520065D01*
X545854Y520102D01*
X546095Y520148D01*
X546316Y520194D01*
X546529Y520240D01*
X546733Y520296D01*
X546909Y520342D01*
X547075Y520389D01*
X547214Y520435D01*
X547334Y520481D01*
X547436Y520518D01*
X547510Y520537D01*
X547547Y520555D01*
X547565Y520564D01*
Y521961D01*
X547343Y521859D01*
X547121Y521767D01*
X546918Y521684D01*
X546724Y521619D01*
X546566Y521563D01*
X546492Y521545D01*
X546437Y521526D01*
X546390Y521517D01*
X546353Y521508D01*
X546335Y521498D01*
X546326D01*
X546085Y521443D01*
X545845Y521406D01*
X545623Y521378D01*
X545419Y521360D01*
X545327Y521350D01*
X545169D01*
X545105Y521341D01*
X544984D01*
X544679Y521350D01*
X544402Y521387D01*
X544134Y521443D01*
X543893Y521508D01*
X543671Y521591D01*
X543458Y521684D01*
X543273Y521776D01*
X543107Y521878D01*
X542959Y521980D01*
X542829Y522072D01*
X542718Y522164D01*
X542626Y522248D01*
X542561Y522312D01*
X542506Y522368D01*
X542478Y522405D01*
X542469Y522414D01*
X542320Y522627D01*
X542191Y522858D01*
X542071Y523108D01*
X541978Y523367D01*
X541895Y523626D01*
X541821Y523894D01*
X541765Y524162D01*
X541728Y524412D01*
X541691Y524653D01*
X541664Y524875D01*
X541645Y525078D01*
X541627Y525254D01*
Y525402D01*
X541617Y525467D01*
Y525513D01*
Y525550D01*
Y525578D01*
Y525596D01*
Y525605D01*
X541627Y525976D01*
X541654Y526308D01*
X541673Y526466D01*
X541691Y526614D01*
X541710Y526753D01*
X541738Y526882D01*
X541756Y526993D01*
X541775Y527095D01*
X541793Y527187D01*
X541812Y527261D01*
X541830Y527317D01*
X541840Y527363D01*
X541849Y527391D01*
Y527400D01*
X541941Y527687D01*
X542052Y527937D01*
X542163Y528168D01*
X542265Y528362D01*
X542320Y528445D01*
X542367Y528519D01*
X542404Y528584D01*
X542441Y528630D01*
X542478Y528677D01*
X542496Y528704D01*
X542506Y528723D01*
X542515Y528732D01*
X542681Y528926D01*
X542866Y529093D01*
X543042Y529232D01*
X543209Y529352D01*
X543347Y529444D01*
X543412Y529481D01*
X543468Y529509D01*
X543514Y529537D01*
X543541Y529555D01*
X543560Y529565D01*
X543569D01*
X543810Y529666D01*
X544050Y529740D01*
X544281Y529786D01*
X544494Y529823D01*
X544596Y529833D01*
X544679Y529842D01*
X544763Y529851D01*
X544827Y529860D01*
X544957D01*
X545234Y529851D01*
X545484Y529833D01*
X545724Y529805D01*
X545928Y529777D01*
X546021Y529759D01*
X546095Y529740D01*
X546169Y529722D01*
X546224Y529712D01*
X546270Y529703D01*
X546307Y529694D01*
X546326Y529685D01*
X546335D01*
X546575Y529620D01*
X546798Y529537D01*
X547001Y529454D01*
X547186Y529380D01*
X547343Y529306D01*
X547408Y529278D01*
X547464Y529250D01*
X547510Y529222D01*
X547538Y529213D01*
X547556Y529194D01*
X547565D01*
Y530656D01*
X547343Y530749D01*
X547112Y530823D01*
X546899Y530897D01*
X546714Y530952D01*
X546548Y530989D01*
X546474Y531007D01*
X546418Y531017D01*
X546372Y531035D01*
X546335D01*
X546316Y531044D01*
X546307D01*
X546058Y531091D01*
X545817Y531118D01*
X545576Y531146D01*
X545364Y531155D01*
X545262Y531165D01*
X545179D01*
X545095Y531174D01*
D02*
G37*
G36*
X516957D02*
X516559D01*
X516356Y531155D01*
X515976Y531109D01*
X515801Y531081D01*
X515634Y531044D01*
X515486Y531007D01*
X515338Y530970D01*
X515209Y530934D01*
X515089Y530897D01*
X514987Y530860D01*
X514903Y530832D01*
X514839Y530804D01*
X514783Y530786D01*
X514755Y530776D01*
X514746Y530767D01*
X514423Y530601D01*
X514126Y530425D01*
X513997Y530323D01*
X513868Y530231D01*
X513747Y530138D01*
X513646Y530046D01*
X513544Y529962D01*
X513460Y529888D01*
X513386Y529814D01*
X513322Y529749D01*
X513275Y529703D01*
X513238Y529666D01*
X513220Y529638D01*
X513211Y529629D01*
X512989Y529343D01*
X512794Y529037D01*
X512628Y528741D01*
X512489Y528454D01*
X512434Y528325D01*
X512378Y528214D01*
X512341Y528103D01*
X512304Y528011D01*
X512277Y527937D01*
X512258Y527881D01*
X512240Y527844D01*
Y527835D01*
X512128Y527428D01*
X512045Y527021D01*
X511990Y526623D01*
X511962Y526438D01*
X511953Y526253D01*
X511934Y526087D01*
X511925Y525939D01*
X511916Y525800D01*
Y525689D01*
X511906Y525596D01*
Y525467D01*
X511925Y524976D01*
X511962Y524523D01*
X512017Y524088D01*
X512101Y523700D01*
X512193Y523330D01*
X512295Y522997D01*
X512406Y522692D01*
X512526Y522424D01*
X512637Y522183D01*
X512748Y521980D01*
X512850Y521795D01*
X512943Y521656D01*
X513026Y521545D01*
X513081Y521461D01*
X513128Y521415D01*
X513137Y521397D01*
X513377Y521156D01*
X513646Y520943D01*
X513923Y520758D01*
X514210Y520601D01*
X514506Y520463D01*
X514802Y520352D01*
X515089Y520268D01*
X515375Y520194D01*
X515644Y520139D01*
X515884Y520092D01*
X516106Y520065D01*
X516300Y520037D01*
X516384D01*
X516458Y520028D01*
X516522D01*
X516578Y520018D01*
X516679D01*
X516948Y520028D01*
X517207Y520046D01*
X517466Y520065D01*
X517716Y520102D01*
X517956Y520148D01*
X518178Y520194D01*
X518391Y520240D01*
X518594Y520296D01*
X518770Y520342D01*
X518936Y520389D01*
X519075Y520435D01*
X519196Y520481D01*
X519297Y520518D01*
X519371Y520537D01*
X519408Y520555D01*
X519427Y520564D01*
Y521961D01*
X519205Y521859D01*
X518983Y521767D01*
X518779Y521684D01*
X518585Y521619D01*
X518428Y521563D01*
X518354Y521545D01*
X518298Y521526D01*
X518252Y521517D01*
X518215Y521508D01*
X518196Y521498D01*
X518187D01*
X517947Y521443D01*
X517706Y521406D01*
X517484Y521378D01*
X517281Y521360D01*
X517188Y521350D01*
X517031D01*
X516966Y521341D01*
X516846D01*
X516541Y521350D01*
X516263Y521387D01*
X515995Y521443D01*
X515755Y521508D01*
X515532Y521591D01*
X515320Y521684D01*
X515135Y521776D01*
X514968Y521878D01*
X514820Y521980D01*
X514691Y522072D01*
X514580Y522164D01*
X514487Y522248D01*
X514423Y522312D01*
X514367Y522368D01*
X514339Y522405D01*
X514330Y522414D01*
X514182Y522627D01*
X514052Y522858D01*
X513932Y523108D01*
X513840Y523367D01*
X513757Y523626D01*
X513683Y523894D01*
X513627Y524162D01*
X513590Y524412D01*
X513553Y524653D01*
X513525Y524875D01*
X513507Y525078D01*
X513488Y525254D01*
Y525402D01*
X513479Y525467D01*
Y525513D01*
Y525550D01*
Y525578D01*
Y525596D01*
Y525605D01*
X513488Y525976D01*
X513516Y526308D01*
X513534Y526466D01*
X513553Y526614D01*
X513572Y526753D01*
X513599Y526882D01*
X513618Y526993D01*
X513636Y527095D01*
X513655Y527187D01*
X513673Y527261D01*
X513692Y527317D01*
X513701Y527363D01*
X513710Y527391D01*
Y527400D01*
X513803Y527687D01*
X513914Y527937D01*
X514025Y528168D01*
X514126Y528362D01*
X514182Y528445D01*
X514228Y528519D01*
X514265Y528584D01*
X514302Y528630D01*
X514339Y528677D01*
X514358Y528704D01*
X514367Y528723D01*
X514376Y528732D01*
X514543Y528926D01*
X514728Y529093D01*
X514903Y529232D01*
X515070Y529352D01*
X515209Y529444D01*
X515274Y529481D01*
X515329Y529509D01*
X515375Y529537D01*
X515403Y529555D01*
X515421Y529565D01*
X515431D01*
X515671Y529666D01*
X515912Y529740D01*
X516143Y529786D01*
X516356Y529823D01*
X516458Y529833D01*
X516541Y529842D01*
X516624Y529851D01*
X516689Y529860D01*
X516818D01*
X517096Y529851D01*
X517346Y529833D01*
X517586Y529805D01*
X517790Y529777D01*
X517882Y529759D01*
X517956Y529740D01*
X518030Y529722D01*
X518085Y529712D01*
X518132Y529703D01*
X518169Y529694D01*
X518187Y529685D01*
X518196D01*
X518437Y529620D01*
X518659Y529537D01*
X518862Y529454D01*
X519047Y529380D01*
X519205Y529306D01*
X519270Y529278D01*
X519325Y529250D01*
X519371Y529222D01*
X519399Y529213D01*
X519417Y529194D01*
X519427D01*
Y530656D01*
X519205Y530749D01*
X518973Y530823D01*
X518761Y530897D01*
X518576Y530952D01*
X518409Y530989D01*
X518335Y531007D01*
X518280Y531017D01*
X518233Y531035D01*
X518196D01*
X518178Y531044D01*
X518169D01*
X517919Y531091D01*
X517678Y531118D01*
X517438Y531146D01*
X517225Y531155D01*
X517124Y531165D01*
X517040D01*
X516957Y531174D01*
D02*
G37*
G36*
X557185Y531035D02*
X555428D01*
X551441Y525966D01*
Y531035D01*
X549961D01*
Y520148D01*
X551441D01*
Y525485D01*
X555511Y520148D01*
X557370D01*
X552884Y525855D01*
X557185Y531035D01*
D02*
G37*
G36*
X482630D02*
X481308D01*
X480873Y523090D01*
X480836Y521591D01*
X480327Y523025D01*
X478810Y527363D01*
X477783D01*
X476470Y523312D01*
X475943Y521591D01*
X475822Y523617D01*
X475397Y531035D01*
X474000D01*
X474749Y520148D01*
X476609D01*
X477848Y523922D01*
X478246Y525263D01*
X478616Y524024D01*
X479976Y520148D01*
X481899D01*
X482630Y531035D01*
D02*
G37*
G36*
X572087Y531192D02*
X571772D01*
X571578Y531174D01*
X571403Y531155D01*
X571227Y531128D01*
X571060Y531100D01*
X570912Y531063D01*
X570764Y531035D01*
X570635Y530998D01*
X570514Y530961D01*
X570413Y530924D01*
X570320Y530887D01*
X570237Y530860D01*
X570182Y530832D01*
X570135Y530813D01*
X570108Y530804D01*
X570098Y530795D01*
X569802Y530638D01*
X569534Y530471D01*
X569293Y530295D01*
X569192Y530212D01*
X569090Y530129D01*
X568997Y530046D01*
X568924Y529981D01*
X568850Y529916D01*
X568794Y529860D01*
X568748Y529814D01*
X568711Y529777D01*
X568692Y529759D01*
X568683Y529749D01*
X569479Y528797D01*
X569654Y528972D01*
X569839Y529130D01*
X570015Y529269D01*
X570172Y529380D01*
X570311Y529472D01*
X570366Y529509D01*
X570422Y529537D01*
X570459Y529565D01*
X570487Y529583D01*
X570505Y529592D01*
X570514D01*
X570737Y529694D01*
X570959Y529777D01*
X571171Y529833D01*
X571365Y529870D01*
X571532Y529888D01*
X571606Y529897D01*
X571662Y529907D01*
X571782D01*
X571957Y529897D01*
X572124Y529879D01*
X572272Y529851D01*
X572392Y529823D01*
X572494Y529796D01*
X572568Y529768D01*
X572614Y529749D01*
X572633Y529740D01*
X572762Y529675D01*
X572873Y529611D01*
X572975Y529537D01*
X573058Y529463D01*
X573123Y529398D01*
X573178Y529352D01*
X573206Y529315D01*
X573215Y529306D01*
X573299Y529204D01*
X573363Y529093D01*
X573428Y528991D01*
X573475Y528889D01*
X573512Y528806D01*
X573539Y528741D01*
X573549Y528695D01*
X573558Y528677D01*
X573595Y528538D01*
X573623Y528408D01*
X573641Y528279D01*
X573660Y528159D01*
Y528057D01*
X573669Y527983D01*
Y527927D01*
Y527918D01*
Y527909D01*
Y527751D01*
X573650Y527603D01*
X573641Y527474D01*
X573623Y527354D01*
X573604Y527252D01*
X573595Y527178D01*
X573576Y527132D01*
Y527113D01*
X573539Y526974D01*
X573493Y526836D01*
X573438Y526706D01*
X573382Y526586D01*
X573336Y526484D01*
X573289Y526410D01*
X573262Y526355D01*
X573252Y526345D01*
Y526336D01*
X573151Y526179D01*
X573049Y526022D01*
X572938Y525874D01*
X572827Y525735D01*
X572725Y525605D01*
X572651Y525513D01*
X572623Y525476D01*
X572596Y525448D01*
X572586Y525439D01*
X572577Y525430D01*
X572402Y525236D01*
X572217Y525032D01*
X572031Y524838D01*
X571846Y524653D01*
X571689Y524486D01*
X571625Y524422D01*
X571560Y524357D01*
X571514Y524310D01*
X571477Y524273D01*
X571458Y524255D01*
X571449Y524246D01*
X568637Y521443D01*
Y520148D01*
X575815D01*
Y521535D01*
X570524D01*
X572494Y523459D01*
X572744Y523709D01*
X572984Y523941D01*
X573188Y524153D01*
X573363Y524329D01*
X573512Y524486D01*
X573567Y524551D01*
X573613Y524597D01*
X573650Y524644D01*
X573687Y524671D01*
X573697Y524690D01*
X573706Y524699D01*
X573891Y524912D01*
X574057Y525106D01*
X574205Y525291D01*
X574326Y525457D01*
X574427Y525596D01*
X574464Y525652D01*
X574501Y525698D01*
X574520Y525735D01*
X574538Y525763D01*
X574557Y525781D01*
Y525791D01*
X574677Y525985D01*
X574779Y526179D01*
X574862Y526355D01*
X574936Y526521D01*
X574982Y526660D01*
X575010Y526716D01*
X575029Y526762D01*
X575038Y526799D01*
X575047Y526826D01*
X575056Y526845D01*
Y526854D01*
X575112Y527058D01*
X575158Y527261D01*
X575186Y527456D01*
X575213Y527631D01*
X575223Y527788D01*
Y527853D01*
X575232Y527909D01*
Y527946D01*
Y527983D01*
Y528001D01*
Y528011D01*
X575223Y528279D01*
X575195Y528528D01*
X575158Y528760D01*
X575112Y528954D01*
X575093Y529037D01*
X575066Y529120D01*
X575047Y529185D01*
X575029Y529241D01*
X575010Y529287D01*
X575001Y529315D01*
X574992Y529333D01*
Y529343D01*
X574890Y529555D01*
X574788Y529749D01*
X574677Y529916D01*
X574566Y530064D01*
X574464Y530184D01*
X574390Y530267D01*
X574335Y530323D01*
X574326Y530341D01*
X574316D01*
X574150Y530489D01*
X573974Y530619D01*
X573798Y530721D01*
X573641Y530813D01*
X573502Y530878D01*
X573438Y530906D01*
X573391Y530934D01*
X573345Y530952D01*
X573317Y530961D01*
X573299Y530970D01*
X573289D01*
X573068Y531044D01*
X572836Y531100D01*
X572614Y531137D01*
X572411Y531165D01*
X572318Y531174D01*
X572226Y531183D01*
X572152D01*
X572087Y531192D01*
D02*
G37*
G36*
X523969Y531035D02*
X522461D01*
Y520148D01*
X528723D01*
Y521415D01*
X523969D01*
Y531035D01*
D02*
G37*
G36*
X505580D02*
X502666D01*
Y520148D01*
X504997D01*
X505376Y520157D01*
X505727Y520176D01*
X505885Y520194D01*
X506042Y520213D01*
X506181Y520231D01*
X506310Y520250D01*
X506430Y520259D01*
X506532Y520278D01*
X506625Y520296D01*
X506708Y520315D01*
X506764Y520324D01*
X506810Y520333D01*
X506838Y520342D01*
X506847D01*
X507143Y520426D01*
X507420Y520509D01*
X507661Y520601D01*
X507772Y520647D01*
X507873Y520684D01*
X507966Y520731D01*
X508040Y520768D01*
X508114Y520805D01*
X508170Y520832D01*
X508216Y520851D01*
X508253Y520869D01*
X508271Y520888D01*
X508281D01*
X508502Y521027D01*
X508706Y521175D01*
X508882Y521323D01*
X509039Y521452D01*
X509159Y521572D01*
X509252Y521665D01*
X509279Y521702D01*
X509307Y521730D01*
X509316Y521739D01*
X509326Y521748D01*
X509474Y521943D01*
X509613Y522137D01*
X509733Y522331D01*
X509825Y522507D01*
X509908Y522655D01*
X509936Y522719D01*
X509964Y522775D01*
X509982Y522812D01*
X510001Y522849D01*
X510010Y522867D01*
Y522877D01*
X510103Y523108D01*
X510186Y523349D01*
X510251Y523570D01*
X510306Y523774D01*
X510325Y523867D01*
X510343Y523950D01*
X510362Y524024D01*
X510380Y524088D01*
X510390Y524135D01*
Y524181D01*
X510399Y524199D01*
Y524209D01*
X510445Y524477D01*
X510473Y524745D01*
X510500Y524995D01*
X510510Y525226D01*
X510519Y525328D01*
Y525421D01*
X510528Y525504D01*
Y525707D01*
X510519Y526197D01*
X510473Y526660D01*
X510408Y527085D01*
X510334Y527474D01*
X510232Y527835D01*
X510131Y528168D01*
X510019Y528464D01*
X509899Y528732D01*
X509779Y528963D01*
X509668Y529167D01*
X509566Y529333D01*
X509465Y529472D01*
X509390Y529583D01*
X509326Y529657D01*
X509289Y529703D01*
X509270Y529722D01*
X509021Y529953D01*
X508743Y530157D01*
X508456Y530332D01*
X508142Y530480D01*
X507827Y530610D01*
X507513Y530712D01*
X507198Y530804D01*
X506902Y530869D01*
X506606Y530924D01*
X506338Y530970D01*
X506098Y530998D01*
X505986Y531007D01*
X505885Y531017D01*
X505792Y531026D01*
X505644D01*
X505580Y531035D01*
D02*
G37*
G36*
X496866D02*
X493795D01*
Y520148D01*
X495275D01*
Y524995D01*
X496089D01*
X496200Y524986D01*
X496302Y524976D01*
X496394Y524958D01*
X496459Y524949D01*
X496515Y524930D01*
X496552Y524921D01*
X496561D01*
X496746Y524856D01*
X496829Y524819D01*
X496903Y524782D01*
X496958Y524754D01*
X497005Y524727D01*
X497032Y524708D01*
X497042Y524699D01*
X497125Y524644D01*
X497199Y524570D01*
X497273Y524505D01*
X497338Y524440D01*
X497384Y524375D01*
X497421Y524329D01*
X497449Y524292D01*
X497458Y524283D01*
X497532Y524181D01*
X497597Y524070D01*
X497661Y523959D01*
X497717Y523857D01*
X497773Y523765D01*
X497810Y523691D01*
X497828Y523644D01*
X497837Y523635D01*
Y523626D01*
X499456Y520148D01*
X501139D01*
X499410Y523728D01*
X499290Y523959D01*
X499169Y524172D01*
X499058Y524347D01*
X498956Y524496D01*
X498873Y524616D01*
X498808Y524699D01*
X498771Y524754D01*
X498753Y524773D01*
X498624Y524912D01*
X498494Y525032D01*
X498364Y525125D01*
X498244Y525199D01*
X498133Y525254D01*
X498050Y525300D01*
X497995Y525319D01*
X497985Y525328D01*
X497976D01*
X498179Y525384D01*
X498374Y525448D01*
X498540Y525522D01*
X498688Y525587D01*
X498808Y525642D01*
X498901Y525689D01*
X498929Y525707D01*
X498956Y525726D01*
X498966Y525735D01*
X498975D01*
X499132Y525837D01*
X499280Y525948D01*
X499401Y526059D01*
X499511Y526151D01*
X499595Y526244D01*
X499659Y526308D01*
X499706Y526355D01*
X499715Y526373D01*
X499817Y526521D01*
X499909Y526660D01*
X499983Y526808D01*
X500048Y526928D01*
X500094Y527039D01*
X500131Y527132D01*
X500150Y527187D01*
X500159Y527197D01*
Y527206D01*
X500214Y527382D01*
X500251Y527548D01*
X500279Y527705D01*
X500298Y527853D01*
X500307Y527983D01*
X500316Y528085D01*
Y528122D01*
Y528149D01*
Y528159D01*
Y528168D01*
X500307Y528399D01*
X500279Y528621D01*
X500251Y528815D01*
X500214Y528991D01*
X500168Y529130D01*
X500150Y529194D01*
X500140Y529241D01*
X500122Y529278D01*
X500113Y529306D01*
X500104Y529324D01*
Y529333D01*
X500020Y529528D01*
X499919Y529694D01*
X499817Y529851D01*
X499706Y529981D01*
X499613Y530083D01*
X499539Y530166D01*
X499484Y530212D01*
X499474Y530231D01*
X499465D01*
X499290Y530369D01*
X499104Y530480D01*
X498919Y530582D01*
X498744Y530665D01*
X498587Y530739D01*
X498522Y530758D01*
X498457Y530786D01*
X498411Y530804D01*
X498374Y530813D01*
X498355Y530823D01*
X498346D01*
X498078Y530897D01*
X497800Y530943D01*
X497532Y530980D01*
X497273Y531007D01*
X497153Y531017D01*
X497051Y531026D01*
X496949D01*
X496866Y531035D01*
D02*
G37*
G36*
X534772Y531192D02*
X534671D01*
X534347Y531174D01*
X534042Y531137D01*
X533755Y531081D01*
X533626Y531054D01*
X533505Y531026D01*
X533403Y530989D01*
X533302Y530961D01*
X533218Y530934D01*
X533145Y530906D01*
X533089Y530878D01*
X533043Y530869D01*
X533015Y530850D01*
X533006D01*
X532728Y530712D01*
X532460Y530545D01*
X532229Y530378D01*
X532034Y530212D01*
X531942Y530129D01*
X531868Y530055D01*
X531794Y529990D01*
X531739Y529925D01*
X531692Y529879D01*
X531665Y529842D01*
X531646Y529823D01*
X531637Y529814D01*
X531424Y529537D01*
X531239Y529250D01*
X531082Y528954D01*
X530952Y528667D01*
X530888Y528538D01*
X530841Y528427D01*
X530804Y528316D01*
X530767Y528223D01*
X530739Y528149D01*
X530721Y528094D01*
X530702Y528057D01*
Y528048D01*
X530591Y527631D01*
X530508Y527206D01*
X530453Y526790D01*
X530425Y526586D01*
X530416Y526392D01*
X530397Y526216D01*
X530388Y526050D01*
X530379Y525911D01*
Y525781D01*
X530370Y525679D01*
Y525541D01*
X530379Y525069D01*
X530397Y524847D01*
X530407Y524634D01*
X530425Y524431D01*
X530453Y524236D01*
X530471Y524052D01*
X530499Y523894D01*
X530517Y523737D01*
X530536Y523607D01*
X530564Y523487D01*
X530582Y523395D01*
X530601Y523312D01*
X530610Y523256D01*
X530619Y523219D01*
Y523210D01*
X530721Y522840D01*
X530786Y522664D01*
X530841Y522507D01*
X530906Y522350D01*
X530971Y522201D01*
X531036Y522072D01*
X531091Y521952D01*
X531146Y521841D01*
X531202Y521748D01*
X531248Y521665D01*
X531294Y521591D01*
X531331Y521535D01*
X531359Y521498D01*
X531368Y521471D01*
X531378Y521461D01*
X531581Y521212D01*
X531794Y520990D01*
X532007Y520805D01*
X532210Y520647D01*
X532395Y520527D01*
X532469Y520481D01*
X532534Y520444D01*
X532589Y520407D01*
X532626Y520389D01*
X532654Y520379D01*
X532663Y520370D01*
X532969Y520250D01*
X533283Y520157D01*
X533589Y520092D01*
X533875Y520046D01*
X534014Y520028D01*
X534125Y520018D01*
X534236Y520009D01*
X534329D01*
X534403Y520000D01*
X534504D01*
X534828Y520018D01*
X535133Y520055D01*
X535411Y520102D01*
X535540Y520139D01*
X535661Y520166D01*
X535772Y520194D01*
X535864Y520231D01*
X535947Y520259D01*
X536021Y520278D01*
X536086Y520305D01*
X536123Y520315D01*
X536151Y520333D01*
X536160D01*
X536447Y520472D01*
X536715Y520638D01*
X536946Y520805D01*
X537048Y520888D01*
X537150Y520971D01*
X537233Y521055D01*
X537316Y521119D01*
X537381Y521193D01*
X537436Y521249D01*
X537483Y521295D01*
X537510Y521332D01*
X537529Y521350D01*
X537538Y521360D01*
X537751Y521637D01*
X537936Y521933D01*
X538093Y522229D01*
X538232Y522507D01*
X538287Y522636D01*
X538334Y522756D01*
X538371Y522858D01*
X538408Y522951D01*
X538436Y523025D01*
X538454Y523080D01*
X538473Y523117D01*
Y523127D01*
X538593Y523543D01*
X538676Y523978D01*
X538741Y524403D01*
X538759Y524607D01*
X538778Y524801D01*
X538796Y524976D01*
X538805Y525143D01*
X538815Y525291D01*
Y525421D01*
X538824Y525522D01*
Y525661D01*
X538815Y526133D01*
X538796Y526355D01*
X538787Y526568D01*
X538768Y526771D01*
X538741Y526956D01*
X538722Y527132D01*
X538694Y527298D01*
X538667Y527446D01*
X538648Y527585D01*
X538630Y527696D01*
X538602Y527798D01*
X538593Y527872D01*
X538574Y527927D01*
X538565Y527964D01*
Y527974D01*
X538463Y528343D01*
X538399Y528519D01*
X538343Y528677D01*
X538278Y528834D01*
X538213Y528972D01*
X538149Y529111D01*
X538084Y529232D01*
X538028Y529333D01*
X537973Y529435D01*
X537927Y529518D01*
X537881Y529583D01*
X537844Y529638D01*
X537816Y529685D01*
X537807Y529703D01*
X537797Y529712D01*
X537594Y529962D01*
X537372Y530184D01*
X537159Y530369D01*
X536955Y530526D01*
X536770Y530647D01*
X536687Y530693D01*
X536622Y530730D01*
X536567Y530767D01*
X536530Y530786D01*
X536502Y530804D01*
X536493D01*
X536188Y530934D01*
X535883Y531026D01*
X535577Y531100D01*
X535290Y531146D01*
X535161Y531165D01*
X535041Y531174D01*
X534939Y531183D01*
X534846D01*
X534772Y531192D01*
D02*
G37*
G36*
X487875D02*
X487773D01*
X487450Y531174D01*
X487144Y531137D01*
X486858Y531081D01*
X486728Y531054D01*
X486608Y531026D01*
X486506Y530989D01*
X486404Y530961D01*
X486321Y530934D01*
X486247Y530906D01*
X486192Y530878D01*
X486145Y530869D01*
X486118Y530850D01*
X486108D01*
X485831Y530712D01*
X485563Y530545D01*
X485331Y530378D01*
X485137Y530212D01*
X485044Y530129D01*
X484971Y530055D01*
X484897Y529990D01*
X484841Y529925D01*
X484795Y529879D01*
X484767Y529842D01*
X484749Y529823D01*
X484739Y529814D01*
X484526Y529537D01*
X484341Y529250D01*
X484184Y528954D01*
X484055Y528667D01*
X483990Y528538D01*
X483944Y528427D01*
X483907Y528316D01*
X483870Y528223D01*
X483842Y528149D01*
X483823Y528094D01*
X483805Y528057D01*
Y528048D01*
X483694Y527631D01*
X483611Y527206D01*
X483555Y526790D01*
X483528Y526586D01*
X483518Y526392D01*
X483500Y526216D01*
X483491Y526050D01*
X483481Y525911D01*
Y525781D01*
X483472Y525679D01*
Y525541D01*
X483481Y525069D01*
X483500Y524847D01*
X483509Y524634D01*
X483528Y524431D01*
X483555Y524236D01*
X483574Y524052D01*
X483602Y523894D01*
X483620Y523737D01*
X483638Y523607D01*
X483666Y523487D01*
X483685Y523395D01*
X483703Y523312D01*
X483712Y523256D01*
X483722Y523219D01*
Y523210D01*
X483823Y522840D01*
X483888Y522664D01*
X483944Y522507D01*
X484009Y522350D01*
X484073Y522201D01*
X484138Y522072D01*
X484194Y521952D01*
X484249Y521841D01*
X484305Y521748D01*
X484351Y521665D01*
X484397Y521591D01*
X484434Y521535D01*
X484462Y521498D01*
X484471Y521471D01*
X484480Y521461D01*
X484684Y521212D01*
X484897Y520990D01*
X485109Y520805D01*
X485313Y520647D01*
X485498Y520527D01*
X485572Y520481D01*
X485637Y520444D01*
X485692Y520407D01*
X485729Y520389D01*
X485757Y520379D01*
X485766Y520370D01*
X486071Y520250D01*
X486386Y520157D01*
X486691Y520092D01*
X486978Y520046D01*
X487116Y520028D01*
X487227Y520018D01*
X487338Y520009D01*
X487431D01*
X487505Y520000D01*
X487607D01*
X487930Y520018D01*
X488236Y520055D01*
X488513Y520102D01*
X488643Y520139D01*
X488763Y520166D01*
X488874Y520194D01*
X488967Y520231D01*
X489050Y520259D01*
X489124Y520278D01*
X489188Y520305D01*
X489225Y520315D01*
X489253Y520333D01*
X489262D01*
X489549Y520472D01*
X489817Y520638D01*
X490049Y520805D01*
X490150Y520888D01*
X490252Y520971D01*
X490336Y521055D01*
X490419Y521119D01*
X490484Y521193D01*
X490539Y521249D01*
X490585Y521295D01*
X490613Y521332D01*
X490631Y521350D01*
X490641Y521360D01*
X490854Y521637D01*
X491039Y521933D01*
X491196Y522229D01*
X491334Y522507D01*
X491390Y522636D01*
X491436Y522756D01*
X491473Y522858D01*
X491510Y522951D01*
X491538Y523025D01*
X491557Y523080D01*
X491575Y523117D01*
Y523127D01*
X491695Y523543D01*
X491779Y523978D01*
X491843Y524403D01*
X491862Y524607D01*
X491880Y524801D01*
X491899Y524976D01*
X491908Y525143D01*
X491917Y525291D01*
Y525421D01*
X491926Y525522D01*
Y525661D01*
X491917Y526133D01*
X491899Y526355D01*
X491889Y526568D01*
X491871Y526771D01*
X491843Y526956D01*
X491825Y527132D01*
X491797Y527298D01*
X491769Y527446D01*
X491751Y527585D01*
X491732Y527696D01*
X491705Y527798D01*
X491695Y527872D01*
X491677Y527927D01*
X491668Y527964D01*
Y527974D01*
X491566Y528343D01*
X491501Y528519D01*
X491445Y528677D01*
X491381Y528834D01*
X491316Y528972D01*
X491251Y529111D01*
X491187Y529232D01*
X491131Y529333D01*
X491076Y529435D01*
X491029Y529518D01*
X490983Y529583D01*
X490946Y529638D01*
X490918Y529685D01*
X490909Y529703D01*
X490900Y529712D01*
X490696Y529962D01*
X490474Y530184D01*
X490262Y530369D01*
X490058Y530526D01*
X489873Y530647D01*
X489790Y530693D01*
X489725Y530730D01*
X489670Y530767D01*
X489633Y530786D01*
X489605Y530804D01*
X489596D01*
X489290Y530934D01*
X488985Y531026D01*
X488680Y531100D01*
X488393Y531146D01*
X488264Y531165D01*
X488143Y531174D01*
X488041Y531183D01*
X487949D01*
X487875Y531192D01*
D02*
G37*
%LPD*%
G36*
X505737Y529777D02*
X506042Y529749D01*
X506181Y529731D01*
X506310Y529712D01*
X506430Y529694D01*
X506541Y529675D01*
X506643Y529657D01*
X506727Y529638D01*
X506801Y529620D01*
X506865Y529601D01*
X506921Y529583D01*
X506958Y529574D01*
X506976Y529565D01*
X506986D01*
X507226Y529472D01*
X507439Y529361D01*
X507633Y529241D01*
X507790Y529130D01*
X507920Y529019D01*
X508012Y528935D01*
X508049Y528898D01*
X508077Y528871D01*
X508086Y528862D01*
X508096Y528852D01*
X508253Y528658D01*
X508382Y528445D01*
X508502Y528223D01*
X508595Y528020D01*
X508660Y527835D01*
X508687Y527761D01*
X508715Y527687D01*
X508734Y527631D01*
X508743Y527594D01*
X508752Y527566D01*
Y527557D01*
X508826Y527243D01*
X508882Y526919D01*
X508919Y526586D01*
X508937Y526429D01*
X508947Y526281D01*
X508956Y526142D01*
X508965Y526013D01*
Y525902D01*
X508974Y525800D01*
Y525716D01*
Y525661D01*
Y525615D01*
Y525605D01*
X508965Y525226D01*
X508937Y524875D01*
X508882Y524542D01*
X508817Y524227D01*
X508734Y523941D01*
X508632Y523672D01*
X508521Y523422D01*
X508392Y523191D01*
X508253Y522978D01*
X508114Y522793D01*
X507957Y522609D01*
X507799Y522451D01*
X507633Y522303D01*
X507457Y522174D01*
X507281Y522063D01*
X507115Y521952D01*
X506939Y521859D01*
X506764Y521785D01*
X506597Y521711D01*
X506430Y521656D01*
X506116Y521563D01*
X505968Y521526D01*
X505829Y521498D01*
X505700Y521480D01*
X505589Y521461D01*
X505487Y521452D01*
X505404Y521443D01*
X505339Y521434D01*
X504146D01*
Y529786D01*
X505413D01*
X505737Y529777D01*
D02*
G37*
G36*
X497023Y529768D02*
X497181Y529749D01*
X497329Y529722D01*
X497467Y529685D01*
X497597Y529648D01*
X497708Y529611D01*
X497810Y529574D01*
X497902Y529528D01*
X497985Y529491D01*
X498050Y529454D01*
X498105Y529417D01*
X498152Y529389D01*
X498179Y529370D01*
X498198Y529361D01*
X498207Y529352D01*
X498309Y529269D01*
X498392Y529167D01*
X498466Y529065D01*
X498531Y528963D01*
X498587Y528852D01*
X498624Y528741D01*
X498698Y528528D01*
X498735Y528343D01*
X498744Y528251D01*
X498753Y528186D01*
X498762Y528122D01*
Y528075D01*
Y528048D01*
Y528038D01*
X498753Y527881D01*
X498735Y527724D01*
X498707Y527594D01*
X498679Y527474D01*
X498651Y527382D01*
X498624Y527308D01*
X498605Y527261D01*
X498596Y527243D01*
X498531Y527122D01*
X498457Y527011D01*
X498374Y526910D01*
X498300Y526826D01*
X498235Y526753D01*
X498179Y526706D01*
X498142Y526669D01*
X498133Y526660D01*
X498013Y526577D01*
X497893Y526512D01*
X497773Y526447D01*
X497661Y526401D01*
X497560Y526355D01*
X497486Y526327D01*
X497430Y526318D01*
X497421Y526308D01*
X497412D01*
X497255Y526271D01*
X497088Y526244D01*
X496931Y526216D01*
X496783Y526207D01*
X496653Y526197D01*
X496561Y526188D01*
X495275D01*
Y529786D01*
X496857D01*
X497023Y529768D01*
D02*
G37*
G36*
X534856Y529879D02*
X535096Y529842D01*
X535309Y529786D01*
X535494Y529731D01*
X535577Y529694D01*
X535642Y529666D01*
X535707Y529638D01*
X535753Y529620D01*
X535790Y529592D01*
X535818Y529583D01*
X535836Y529565D01*
X535846D01*
X536030Y529435D01*
X536206Y529296D01*
X536354Y529148D01*
X536475Y529000D01*
X536576Y528871D01*
X536650Y528769D01*
X536669Y528732D01*
X536687Y528704D01*
X536706Y528686D01*
Y528677D01*
X536826Y528454D01*
X536918Y528223D01*
X537002Y527992D01*
X537076Y527779D01*
X537104Y527677D01*
X537122Y527594D01*
X537141Y527511D01*
X537159Y527437D01*
X537168Y527382D01*
X537178Y527345D01*
X537187Y527317D01*
Y527308D01*
X537242Y527002D01*
X537279Y526697D01*
X537307Y526401D01*
X537316Y526262D01*
X537325Y526133D01*
X537335Y526013D01*
Y525892D01*
X537344Y525800D01*
Y525716D01*
Y525642D01*
Y525596D01*
Y525559D01*
Y525550D01*
X537335Y525226D01*
X537316Y524921D01*
X537289Y524644D01*
X537279Y524514D01*
X537261Y524394D01*
X537242Y524283D01*
X537233Y524190D01*
X537215Y524098D01*
X537205Y524033D01*
X537196Y523968D01*
X537187Y523931D01*
X537178Y523904D01*
Y523894D01*
X537113Y523617D01*
X537030Y523358D01*
X536946Y523127D01*
X536863Y522932D01*
X536826Y522849D01*
X536789Y522766D01*
X536761Y522701D01*
X536733Y522646D01*
X536706Y522599D01*
X536696Y522572D01*
X536678Y522553D01*
Y522544D01*
X536549Y522340D01*
X536401Y522155D01*
X536262Y521998D01*
X536123Y521869D01*
X536003Y521767D01*
X535910Y521693D01*
X535873Y521665D01*
X535846Y521646D01*
X535827Y521628D01*
X535818D01*
X535614Y521517D01*
X535411Y521434D01*
X535198Y521378D01*
X535013Y521341D01*
X534837Y521313D01*
X534772Y521304D01*
X534708D01*
X534661Y521295D01*
X534587D01*
X534319Y521304D01*
X534079Y521341D01*
X533866Y521397D01*
X533681Y521452D01*
X533607Y521480D01*
X533533Y521508D01*
X533468Y521535D01*
X533422Y521563D01*
X533385Y521582D01*
X533357Y521600D01*
X533339Y521609D01*
X533329D01*
X533145Y521739D01*
X532978Y521878D01*
X532830Y522026D01*
X532710Y522164D01*
X532608Y522294D01*
X532543Y522396D01*
X532515Y522433D01*
X532497Y522461D01*
X532479Y522479D01*
Y522488D01*
X532368Y522710D01*
X532266Y522941D01*
X532183Y523173D01*
X532118Y523385D01*
X532090Y523487D01*
X532062Y523580D01*
X532044Y523654D01*
X532025Y523728D01*
X532016Y523783D01*
X532007Y523820D01*
X531997Y523848D01*
Y523857D01*
X531951Y524162D01*
X531914Y524468D01*
X531886Y524764D01*
X531877Y524902D01*
X531868Y525041D01*
X531859Y525162D01*
Y525273D01*
Y525374D01*
X531849Y525457D01*
Y525531D01*
Y525578D01*
Y525615D01*
Y525624D01*
X531859Y525948D01*
X531877Y526253D01*
X531896Y526531D01*
X531914Y526651D01*
X531933Y526771D01*
X531942Y526882D01*
X531960Y526974D01*
X531970Y527067D01*
X531979Y527132D01*
X531988Y527197D01*
X531997Y527234D01*
X532007Y527261D01*
Y527271D01*
X532081Y527548D01*
X532155Y527807D01*
X532238Y528038D01*
X532321Y528242D01*
X532358Y528325D01*
X532395Y528408D01*
X532423Y528473D01*
X532451Y528528D01*
X532479Y528575D01*
X532488Y528603D01*
X532506Y528621D01*
Y528630D01*
X532636Y528834D01*
X532774Y529019D01*
X532923Y529176D01*
X533052Y529306D01*
X533172Y529407D01*
X533265Y529481D01*
X533302Y529509D01*
X533329Y529528D01*
X533339Y529546D01*
X533348D01*
X533552Y529657D01*
X533764Y529740D01*
X533968Y529805D01*
X534162Y529842D01*
X534329Y529870D01*
X534403Y529879D01*
X534467D01*
X534514Y529888D01*
X534587D01*
X534856Y529879D01*
D02*
G37*
G36*
X487958D02*
X488199Y529842D01*
X488412Y529786D01*
X488596Y529731D01*
X488680Y529694D01*
X488744Y529666D01*
X488809Y529638D01*
X488856Y529620D01*
X488893Y529592D01*
X488920Y529583D01*
X488939Y529565D01*
X488948D01*
X489133Y529435D01*
X489309Y529296D01*
X489457Y529148D01*
X489577Y529000D01*
X489679Y528871D01*
X489753Y528769D01*
X489771Y528732D01*
X489790Y528704D01*
X489808Y528686D01*
Y528677D01*
X489928Y528454D01*
X490021Y528223D01*
X490104Y527992D01*
X490178Y527779D01*
X490206Y527677D01*
X490225Y527594D01*
X490243Y527511D01*
X490262Y527437D01*
X490271Y527382D01*
X490280Y527345D01*
X490289Y527317D01*
Y527308D01*
X490345Y527002D01*
X490382Y526697D01*
X490410Y526401D01*
X490419Y526262D01*
X490428Y526133D01*
X490437Y526013D01*
Y525892D01*
X490447Y525800D01*
Y525716D01*
Y525642D01*
Y525596D01*
Y525559D01*
Y525550D01*
X490437Y525226D01*
X490419Y524921D01*
X490391Y524644D01*
X490382Y524514D01*
X490363Y524394D01*
X490345Y524283D01*
X490336Y524190D01*
X490317Y524098D01*
X490308Y524033D01*
X490299Y523968D01*
X490289Y523931D01*
X490280Y523904D01*
Y523894D01*
X490215Y523617D01*
X490132Y523358D01*
X490049Y523127D01*
X489965Y522932D01*
X489928Y522849D01*
X489891Y522766D01*
X489864Y522701D01*
X489836Y522646D01*
X489808Y522599D01*
X489799Y522572D01*
X489781Y522553D01*
Y522544D01*
X489651Y522340D01*
X489503Y522155D01*
X489364Y521998D01*
X489225Y521869D01*
X489105Y521767D01*
X489013Y521693D01*
X488976Y521665D01*
X488948Y521646D01*
X488930Y521628D01*
X488920D01*
X488717Y521517D01*
X488513Y521434D01*
X488301Y521378D01*
X488116Y521341D01*
X487940Y521313D01*
X487875Y521304D01*
X487810D01*
X487764Y521295D01*
X487690D01*
X487422Y521304D01*
X487181Y521341D01*
X486969Y521397D01*
X486784Y521452D01*
X486709Y521480D01*
X486635Y521508D01*
X486571Y521535D01*
X486524Y521563D01*
X486487Y521582D01*
X486460Y521600D01*
X486441Y521609D01*
X486432D01*
X486247Y521739D01*
X486081Y521878D01*
X485932Y522026D01*
X485812Y522164D01*
X485710Y522294D01*
X485646Y522396D01*
X485618Y522433D01*
X485600Y522461D01*
X485581Y522479D01*
Y522488D01*
X485470Y522710D01*
X485368Y522941D01*
X485285Y523173D01*
X485220Y523385D01*
X485192Y523487D01*
X485165Y523580D01*
X485146Y523654D01*
X485128Y523728D01*
X485118Y523783D01*
X485109Y523820D01*
X485100Y523848D01*
Y523857D01*
X485054Y524162D01*
X485017Y524468D01*
X484989Y524764D01*
X484980Y524902D01*
X484971Y525041D01*
X484961Y525162D01*
Y525273D01*
Y525374D01*
X484952Y525457D01*
Y525531D01*
Y525578D01*
Y525615D01*
Y525624D01*
X484961Y525948D01*
X484980Y526253D01*
X484998Y526531D01*
X485017Y526651D01*
X485035Y526771D01*
X485044Y526882D01*
X485063Y526974D01*
X485072Y527067D01*
X485081Y527132D01*
X485091Y527197D01*
X485100Y527234D01*
X485109Y527261D01*
Y527271D01*
X485183Y527548D01*
X485257Y527807D01*
X485340Y528038D01*
X485424Y528242D01*
X485461Y528325D01*
X485498Y528408D01*
X485526Y528473D01*
X485553Y528528D01*
X485581Y528575D01*
X485590Y528603D01*
X485609Y528621D01*
Y528630D01*
X485738Y528834D01*
X485877Y529019D01*
X486025Y529176D01*
X486155Y529306D01*
X486275Y529407D01*
X486367Y529481D01*
X486404Y529509D01*
X486432Y529528D01*
X486441Y529546D01*
X486450D01*
X486654Y529657D01*
X486867Y529740D01*
X487070Y529805D01*
X487264Y529842D01*
X487431Y529870D01*
X487505Y529879D01*
X487570D01*
X487616Y529888D01*
X487690D01*
X487958Y529879D01*
D02*
G37*
%LPC*%
G36*
X535373Y267692D02*
X535179D01*
X534753Y267674D01*
X534365Y267628D01*
X534179Y267600D01*
X534004Y267572D01*
X533837Y267535D01*
X533689Y267498D01*
X533551Y267461D01*
X533430Y267424D01*
X533328Y267396D01*
X533236Y267369D01*
X533162Y267341D01*
X533116Y267322D01*
X533079Y267313D01*
X533070Y267304D01*
X532727Y267147D01*
X532413Y266962D01*
X532265Y266869D01*
X532135Y266777D01*
X532006Y266684D01*
X531895Y266592D01*
X531793Y266509D01*
X531701Y266435D01*
X531617Y266360D01*
X531553Y266296D01*
X531506Y266249D01*
X531460Y266213D01*
X531441Y266185D01*
X531432Y266176D01*
X531192Y265889D01*
X530979Y265583D01*
X530803Y265278D01*
X530655Y265001D01*
X530590Y264871D01*
X530535Y264751D01*
X530489Y264640D01*
X530452Y264547D01*
X530415Y264474D01*
X530396Y264418D01*
X530387Y264381D01*
X530378Y264372D01*
X530258Y263965D01*
X530165Y263548D01*
X530100Y263141D01*
X530072Y262957D01*
X530054Y262772D01*
X530035Y262605D01*
X530026Y262448D01*
X530017Y262309D01*
Y262189D01*
X530008Y262096D01*
Y261717D01*
X530026Y261476D01*
X530035Y261245D01*
X530063Y261023D01*
X530082Y260820D01*
X530110Y260626D01*
X530147Y260440D01*
X530174Y260274D01*
X530202Y260117D01*
X530239Y259987D01*
X530267Y259867D01*
X530285Y259774D01*
X530313Y259691D01*
X530322Y259636D01*
X530341Y259599D01*
Y259590D01*
X530479Y259229D01*
X530553Y259053D01*
X530637Y258896D01*
X530720Y258738D01*
X530803Y258600D01*
X530877Y258470D01*
X530951Y258350D01*
X531025Y258248D01*
X531099Y258156D01*
X531155Y258072D01*
X531210Y257998D01*
X531256Y257952D01*
X531284Y257906D01*
X531303Y257888D01*
X531312Y257878D01*
X531562Y257638D01*
X531821Y257425D01*
X532070Y257249D01*
X532311Y257101D01*
X532422Y257046D01*
X532524Y256990D01*
X532607Y256944D01*
X532690Y256907D01*
X532755Y256879D01*
X532801Y256861D01*
X532829Y256842D01*
X532838D01*
X533181Y256731D01*
X533532Y256648D01*
X533865Y256583D01*
X534031Y256565D01*
X534179Y256546D01*
X534318Y256528D01*
X534448Y256519D01*
X534559Y256509D01*
X534660D01*
X534734Y256500D01*
X534845D01*
X535123Y256509D01*
X535253Y256519D01*
X535363Y256528D01*
X535465D01*
X535539Y256537D01*
X535585Y256546D01*
X535604D01*
X535752Y256565D01*
X535891Y256583D01*
X536029Y256602D01*
X536150Y256620D01*
X536242Y256639D01*
X536326Y256657D01*
X536372Y256666D01*
X536390D01*
X536538Y256703D01*
X536677Y256731D01*
X536816Y256768D01*
X536927Y256796D01*
X537029Y256824D01*
X537103Y256852D01*
X537149Y256861D01*
X537167Y256870D01*
X537306Y256916D01*
X537445Y256972D01*
X537565Y257018D01*
X537676Y257064D01*
X537769Y257101D01*
X537843Y257129D01*
X537880Y257148D01*
X537898Y257157D01*
Y262725D01*
X534198D01*
Y261504D01*
X536427D01*
Y258026D01*
X536316Y257989D01*
X536214Y257952D01*
X536177Y257943D01*
X536140Y257934D01*
X536122Y257925D01*
X536113D01*
X535992Y257897D01*
X535872Y257878D01*
X535826Y257869D01*
X535789D01*
X535771Y257860D01*
X535761D01*
X535632Y257841D01*
X535511Y257823D01*
X535465D01*
X535428Y257814D01*
X535400D01*
X535271Y257804D01*
X535058D01*
X534725Y257814D01*
X534420Y257851D01*
X534281Y257869D01*
X534152Y257897D01*
X534031Y257925D01*
X533920Y257952D01*
X533819Y257971D01*
X533726Y257998D01*
X533652Y258026D01*
X533588Y258045D01*
X533532Y258063D01*
X533495Y258082D01*
X533476Y258091D01*
X533467D01*
X533236Y258211D01*
X533023Y258350D01*
X532838Y258489D01*
X532681Y258628D01*
X532551Y258748D01*
X532459Y258840D01*
X532431Y258877D01*
X532404Y258905D01*
X532394Y258924D01*
X532385Y258933D01*
X532237Y259145D01*
X532107Y259377D01*
X531996Y259599D01*
X531913Y259811D01*
X531876Y259904D01*
X531839Y259997D01*
X531821Y260070D01*
X531793Y260144D01*
X531775Y260200D01*
X531765Y260237D01*
X531756Y260265D01*
Y260274D01*
X531691Y260579D01*
X531645Y260894D01*
X531608Y261190D01*
X531599Y261338D01*
X531590Y261467D01*
X531580Y261597D01*
X531571Y261708D01*
Y261809D01*
X531562Y261902D01*
Y261967D01*
Y262022D01*
Y262059D01*
Y262069D01*
X531571Y262420D01*
X531599Y262744D01*
X531617Y262901D01*
X531636Y263049D01*
X531664Y263178D01*
X531682Y263308D01*
X531701Y263419D01*
X531728Y263521D01*
X531747Y263604D01*
X531765Y263678D01*
X531784Y263743D01*
X531793Y263780D01*
X531802Y263808D01*
Y263817D01*
X531904Y264104D01*
X532015Y264363D01*
X532135Y264594D01*
X532200Y264705D01*
X532256Y264797D01*
X532302Y264880D01*
X532357Y264954D01*
X532404Y265019D01*
X532441Y265075D01*
X532468Y265121D01*
X532496Y265149D01*
X532505Y265167D01*
X532514Y265177D01*
X532699Y265380D01*
X532885Y265546D01*
X533079Y265704D01*
X533254Y265824D01*
X533412Y265916D01*
X533486Y265963D01*
X533541Y265990D01*
X533588Y266018D01*
X533625Y266027D01*
X533643Y266046D01*
X533652D01*
X533911Y266148D01*
X534179Y266231D01*
X534439Y266286D01*
X534679Y266323D01*
X534790Y266333D01*
X534882Y266342D01*
X534975Y266351D01*
X535049Y266360D01*
X535197D01*
X535474Y266351D01*
X535734Y266333D01*
X535974Y266305D01*
X536177Y266268D01*
X536270Y266249D01*
X536353Y266231D01*
X536427Y266222D01*
X536483Y266203D01*
X536529Y266194D01*
X536566Y266185D01*
X536585Y266176D01*
X536594D01*
X536834Y266102D01*
X537066Y266027D01*
X537278Y265944D01*
X537463Y265861D01*
X537546Y265824D01*
X537620Y265787D01*
X537695Y265759D01*
X537750Y265732D01*
X537787Y265704D01*
X537824Y265694D01*
X537843Y265676D01*
X537852D01*
Y267147D01*
X537620Y267249D01*
X537398Y267332D01*
X537177Y267396D01*
X536982Y267452D01*
X536899Y267480D01*
X536816Y267498D01*
X536751Y267517D01*
X536686Y267526D01*
X536640Y267545D01*
X536603D01*
X536585Y267554D01*
X536575D01*
X536326Y267600D01*
X536076Y267637D01*
X535845Y267655D01*
X535632Y267674D01*
X535530Y267683D01*
X535447D01*
X535373Y267692D01*
D02*
G37*
G36*
X572622Y268423D02*
X570717D01*
X570948Y264510D01*
X572373D01*
X572622Y268423D01*
D02*
G37*
G36*
X500343Y267535D02*
X498863D01*
Y264437D01*
Y258609D01*
X497809Y261097D01*
X494913Y267535D01*
X492934D01*
Y256648D01*
X494414D01*
Y260126D01*
Y265620D01*
X495283Y263438D01*
X498336Y256648D01*
X500343D01*
Y267535D01*
D02*
G37*
G36*
X520046D02*
X518464D01*
X516105Y260191D01*
X515420Y258045D01*
X514754Y260191D01*
X512405Y267535D01*
X510731D01*
X514348Y256648D01*
X516346D01*
X520046Y267535D01*
D02*
G37*
G36*
X547324D02*
X545844D01*
Y260339D01*
X545834Y260117D01*
X545816Y259904D01*
X545788Y259700D01*
X545760Y259516D01*
X545714Y259340D01*
X545668Y259183D01*
X545612Y259044D01*
X545566Y258914D01*
X545511Y258794D01*
X545455Y258701D01*
X545409Y258609D01*
X545372Y258544D01*
X545335Y258489D01*
X545307Y258442D01*
X545289Y258424D01*
X545280Y258415D01*
X545168Y258295D01*
X545039Y258193D01*
X544909Y258100D01*
X544771Y258026D01*
X544623Y257962D01*
X544475Y257906D01*
X544336Y257860D01*
X544197Y257823D01*
X544059Y257795D01*
X543938Y257776D01*
X543827Y257758D01*
X543725Y257749D01*
X543642D01*
X543587Y257739D01*
X543531D01*
X543300Y257749D01*
X543096Y257767D01*
X542911Y257795D01*
X542754Y257823D01*
X542625Y257851D01*
X542532Y257878D01*
X542495Y257888D01*
X542467Y257897D01*
X542458Y257906D01*
X542449D01*
X542292Y257971D01*
X542153Y258054D01*
X542033Y258137D01*
X541931Y258211D01*
X541848Y258285D01*
X541783Y258341D01*
X541746Y258378D01*
X541737Y258396D01*
X541644Y258526D01*
X541561Y258655D01*
X541496Y258794D01*
X541441Y258924D01*
X541404Y259034D01*
X541376Y259118D01*
X541358Y259155D01*
Y259183D01*
X541348Y259192D01*
Y259201D01*
X541311Y259386D01*
X541284Y259580D01*
X541256Y259765D01*
X541247Y259950D01*
X541237Y260098D01*
X541228Y260163D01*
Y260219D01*
Y260265D01*
Y260302D01*
Y260320D01*
Y260330D01*
Y267535D01*
X539748D01*
Y260209D01*
X539757Y259904D01*
X539776Y259617D01*
X539813Y259358D01*
X539831Y259238D01*
X539850Y259127D01*
X539868Y259034D01*
X539887Y258942D01*
X539905Y258868D01*
X539924Y258803D01*
X539933Y258748D01*
X539942Y258711D01*
X539952Y258692D01*
Y258683D01*
X540035Y258433D01*
X540136Y258211D01*
X540247Y258008D01*
X540349Y257841D01*
X540451Y257702D01*
X540488Y257647D01*
X540525Y257592D01*
X540553Y257555D01*
X540581Y257527D01*
X540590Y257518D01*
X540599Y257508D01*
X540775Y257342D01*
X540969Y257185D01*
X541154Y257064D01*
X541339Y256953D01*
X541496Y256870D01*
X541570Y256833D01*
X541626Y256805D01*
X541681Y256787D01*
X541718Y256768D01*
X541737Y256759D01*
X541746D01*
X542024Y256676D01*
X542319Y256611D01*
X542606Y256565D01*
X542874Y256537D01*
X543004Y256519D01*
X543115D01*
X543217Y256509D01*
X543309Y256500D01*
X543476D01*
X543809Y256509D01*
X544123Y256546D01*
X544262Y256565D01*
X544401Y256592D01*
X544530Y256611D01*
X544641Y256639D01*
X544743Y256666D01*
X544836Y256694D01*
X544919Y256713D01*
X544983Y256731D01*
X545039Y256750D01*
X545085Y256768D01*
X545104Y256778D01*
X545113D01*
X545372Y256889D01*
X545603Y257018D01*
X545807Y257148D01*
X545983Y257277D01*
X546121Y257388D01*
X546177Y257434D01*
X546232Y257481D01*
X546269Y257518D01*
X546297Y257545D01*
X546306Y257555D01*
X546315Y257564D01*
X546491Y257767D01*
X546639Y257980D01*
X546769Y258184D01*
X546880Y258378D01*
X546963Y258544D01*
X546991Y258618D01*
X547018Y258683D01*
X547037Y258729D01*
X547055Y258775D01*
X547065Y258794D01*
Y258803D01*
X547148Y259081D01*
X547213Y259367D01*
X547259Y259636D01*
X547296Y259895D01*
X547305Y260006D01*
X547315Y260107D01*
Y260200D01*
X547324Y260283D01*
Y267535D01*
D02*
G37*
G36*
X592825D02*
X590743D01*
X586100Y260330D01*
Y259053D01*
X591344D01*
Y256648D01*
X592825D01*
Y259053D01*
X594684D01*
Y260330D01*
X592825D01*
Y267535D01*
D02*
G37*
G36*
X581031Y267692D02*
X580716D01*
X580522Y267674D01*
X580346Y267655D01*
X580170Y267628D01*
X580004Y267600D01*
X579856Y267563D01*
X579708Y267535D01*
X579578Y267498D01*
X579458Y267461D01*
X579356Y267424D01*
X579264Y267387D01*
X579181Y267359D01*
X579125Y267332D01*
X579079Y267313D01*
X579051Y267304D01*
X579042Y267295D01*
X578746Y267138D01*
X578478Y266971D01*
X578237Y266795D01*
X578135Y266712D01*
X578034Y266629D01*
X577941Y266546D01*
X577867Y266481D01*
X577793Y266416D01*
X577738Y266360D01*
X577692Y266314D01*
X577655Y266277D01*
X577636Y266259D01*
X577627Y266249D01*
X578422Y265297D01*
X578598Y265473D01*
X578783Y265630D01*
X578959Y265769D01*
X579116Y265880D01*
X579255Y265972D01*
X579310Y266009D01*
X579366Y266037D01*
X579403Y266065D01*
X579430Y266083D01*
X579449Y266092D01*
X579458D01*
X579680Y266194D01*
X579902Y266277D01*
X580115Y266333D01*
X580309Y266370D01*
X580476Y266388D01*
X580550Y266398D01*
X580605Y266407D01*
X580725D01*
X580901Y266398D01*
X581068Y266379D01*
X581216Y266351D01*
X581336Y266323D01*
X581438Y266296D01*
X581512Y266268D01*
X581558Y266249D01*
X581576Y266240D01*
X581706Y266176D01*
X581817Y266111D01*
X581919Y266037D01*
X582002Y265963D01*
X582067Y265898D01*
X582122Y265852D01*
X582150Y265815D01*
X582159Y265806D01*
X582242Y265704D01*
X582307Y265593D01*
X582372Y265491D01*
X582418Y265389D01*
X582455Y265306D01*
X582483Y265241D01*
X582492Y265195D01*
X582502Y265177D01*
X582539Y265038D01*
X582566Y264908D01*
X582585Y264779D01*
X582603Y264658D01*
Y264557D01*
X582613Y264483D01*
Y264427D01*
Y264418D01*
Y264409D01*
Y264251D01*
X582594Y264104D01*
X582585Y263974D01*
X582566Y263854D01*
X582548Y263752D01*
X582539Y263678D01*
X582520Y263632D01*
Y263613D01*
X582483Y263474D01*
X582437Y263336D01*
X582381Y263206D01*
X582326Y263086D01*
X582279Y262984D01*
X582233Y262910D01*
X582205Y262855D01*
X582196Y262845D01*
Y262836D01*
X582094Y262679D01*
X581993Y262522D01*
X581882Y262374D01*
X581771Y262235D01*
X581669Y262105D01*
X581595Y262013D01*
X581567Y261976D01*
X581539Y261948D01*
X581530Y261939D01*
X581521Y261930D01*
X581345Y261736D01*
X581160Y261532D01*
X580975Y261338D01*
X580790Y261153D01*
X580633Y260986D01*
X580568Y260922D01*
X580504Y260857D01*
X580457Y260810D01*
X580420Y260773D01*
X580402Y260755D01*
X580393Y260746D01*
X577580Y257943D01*
Y256648D01*
X584759D01*
Y258035D01*
X579467D01*
X581438Y259960D01*
X581687Y260209D01*
X581928Y260440D01*
X582131Y260653D01*
X582307Y260829D01*
X582455Y260986D01*
X582511Y261051D01*
X582557Y261097D01*
X582594Y261143D01*
X582631Y261171D01*
X582640Y261190D01*
X582650Y261199D01*
X582834Y261412D01*
X583001Y261606D01*
X583149Y261791D01*
X583269Y261958D01*
X583371Y262096D01*
X583408Y262152D01*
X583445Y262198D01*
X583463Y262235D01*
X583482Y262263D01*
X583500Y262281D01*
Y262291D01*
X583621Y262485D01*
X583722Y262679D01*
X583806Y262855D01*
X583880Y263021D01*
X583926Y263160D01*
X583954Y263215D01*
X583972Y263262D01*
X583982Y263299D01*
X583991Y263327D01*
X584000Y263345D01*
Y263354D01*
X584056Y263558D01*
X584102Y263761D01*
X584129Y263955D01*
X584157Y264131D01*
X584166Y264288D01*
Y264353D01*
X584176Y264409D01*
Y264446D01*
Y264483D01*
Y264501D01*
Y264510D01*
X584166Y264779D01*
X584139Y265029D01*
X584102Y265260D01*
X584056Y265454D01*
X584037Y265537D01*
X584009Y265620D01*
X583991Y265685D01*
X583972Y265741D01*
X583954Y265787D01*
X583945Y265815D01*
X583935Y265833D01*
Y265843D01*
X583834Y266055D01*
X583732Y266249D01*
X583621Y266416D01*
X583510Y266564D01*
X583408Y266684D01*
X583334Y266768D01*
X583279Y266823D01*
X583269Y266842D01*
X583260D01*
X583094Y266989D01*
X582918Y267119D01*
X582742Y267221D01*
X582585Y267313D01*
X582446Y267378D01*
X582381Y267406D01*
X582335Y267434D01*
X582289Y267452D01*
X582261Y267461D01*
X582242Y267471D01*
X582233D01*
X582011Y267545D01*
X581780Y267600D01*
X581558Y267637D01*
X581355Y267665D01*
X581262Y267674D01*
X581170Y267683D01*
X581096D01*
X581031Y267692D01*
D02*
G37*
G36*
X556083Y267535D02*
X549895D01*
Y256648D01*
X556083D01*
Y257915D01*
X551375D01*
Y261662D01*
X555899D01*
Y262910D01*
X551375D01*
Y266286D01*
X556083D01*
Y267535D01*
D02*
G37*
G36*
X528028D02*
X521516D01*
Y266286D01*
X524023D01*
Y257915D01*
X521516D01*
Y256648D01*
X528028D01*
Y257915D01*
X525522D01*
Y266286D01*
X528028D01*
Y267535D01*
D02*
G37*
G36*
X490427D02*
X484239D01*
Y256648D01*
X490427D01*
Y257915D01*
X485719D01*
Y261662D01*
X490242D01*
Y262910D01*
X485719D01*
Y266286D01*
X490427D01*
Y267535D01*
D02*
G37*
G36*
X477005D02*
X474091D01*
Y256648D01*
X476423D01*
X476802Y256657D01*
X477153Y256676D01*
X477311Y256694D01*
X477468Y256713D01*
X477606Y256731D01*
X477736Y256750D01*
X477856Y256759D01*
X477958Y256778D01*
X478051Y256796D01*
X478134Y256815D01*
X478189Y256824D01*
X478235Y256833D01*
X478263Y256842D01*
X478272D01*
X478569Y256926D01*
X478846Y257009D01*
X479086Y257101D01*
X479198Y257148D01*
X479299Y257185D01*
X479392Y257231D01*
X479466Y257268D01*
X479540Y257305D01*
X479595Y257332D01*
X479641Y257351D01*
X479678Y257369D01*
X479697Y257388D01*
X479706D01*
X479928Y257527D01*
X480132Y257675D01*
X480307Y257823D01*
X480465Y257952D01*
X480585Y258072D01*
X480678Y258165D01*
X480705Y258202D01*
X480733Y258230D01*
X480742Y258239D01*
X480752Y258248D01*
X480899Y258442D01*
X481038Y258637D01*
X481158Y258831D01*
X481251Y259007D01*
X481334Y259155D01*
X481362Y259220D01*
X481390Y259275D01*
X481408Y259312D01*
X481427Y259349D01*
X481436Y259367D01*
Y259377D01*
X481529Y259608D01*
X481612Y259848D01*
X481676Y260070D01*
X481732Y260274D01*
X481750Y260367D01*
X481769Y260450D01*
X481787Y260524D01*
X481806Y260589D01*
X481815Y260635D01*
Y260681D01*
X481824Y260700D01*
Y260709D01*
X481871Y260977D01*
X481898Y261245D01*
X481926Y261495D01*
X481936Y261726D01*
X481945Y261828D01*
Y261920D01*
X481954Y262004D01*
Y262207D01*
X481945Y262698D01*
X481898Y263160D01*
X481834Y263585D01*
X481760Y263974D01*
X481658Y264335D01*
X481556Y264668D01*
X481445Y264964D01*
X481325Y265232D01*
X481205Y265463D01*
X481094Y265667D01*
X480992Y265833D01*
X480890Y265972D01*
X480816Y266083D01*
X480752Y266157D01*
X480715Y266203D01*
X480696Y266222D01*
X480446Y266453D01*
X480169Y266656D01*
X479882Y266832D01*
X479567Y266980D01*
X479253Y267110D01*
X478938Y267212D01*
X478624Y267304D01*
X478328Y267369D01*
X478032Y267424D01*
X477764Y267471D01*
X477523Y267498D01*
X477412Y267508D01*
X477311Y267517D01*
X477218Y267526D01*
X477070D01*
X477005Y267535D01*
D02*
G37*
G36*
X471751D02*
X465239D01*
Y266286D01*
X467746D01*
Y257915D01*
X465239D01*
Y256648D01*
X471751D01*
Y257915D01*
X469244D01*
Y266286D01*
X471751D01*
Y267535D01*
D02*
G37*
G36*
X460152D02*
X458117D01*
X454500Y256648D01*
X456045D01*
X456803Y259025D01*
X461354D01*
X462104Y256648D01*
X463722D01*
X460152Y267535D01*
D02*
G37*
%LPD*%
G36*
X591344Y260330D02*
X587543D01*
X591344Y266129D01*
Y260330D01*
D02*
G37*
G36*
X477163Y266277D02*
X477468Y266249D01*
X477606Y266231D01*
X477736Y266213D01*
X477856Y266194D01*
X477967Y266176D01*
X478069Y266157D01*
X478152Y266139D01*
X478226Y266120D01*
X478291Y266102D01*
X478346Y266083D01*
X478383Y266074D01*
X478402Y266065D01*
X478411D01*
X478652Y265972D01*
X478864Y265861D01*
X479059Y265741D01*
X479216Y265630D01*
X479346Y265519D01*
X479438Y265436D01*
X479475Y265399D01*
X479503Y265371D01*
X479512Y265361D01*
X479521Y265352D01*
X479678Y265158D01*
X479808Y264945D01*
X479928Y264723D01*
X480021Y264520D01*
X480086Y264335D01*
X480113Y264261D01*
X480141Y264187D01*
X480160Y264131D01*
X480169Y264094D01*
X480178Y264067D01*
Y264057D01*
X480252Y263743D01*
X480307Y263419D01*
X480344Y263086D01*
X480363Y262929D01*
X480372Y262781D01*
X480381Y262642D01*
X480391Y262512D01*
Y262402D01*
X480400Y262300D01*
Y262216D01*
Y262161D01*
Y262115D01*
Y262105D01*
X480391Y261726D01*
X480363Y261375D01*
X480307Y261042D01*
X480243Y260727D01*
X480160Y260440D01*
X480058Y260172D01*
X479947Y259923D01*
X479817Y259691D01*
X479678Y259478D01*
X479540Y259294D01*
X479383Y259108D01*
X479225Y258951D01*
X479059Y258803D01*
X478883Y258674D01*
X478707Y258563D01*
X478541Y258452D01*
X478365Y258359D01*
X478189Y258285D01*
X478023Y258211D01*
X477856Y258156D01*
X477542Y258063D01*
X477394Y258026D01*
X477255Y257998D01*
X477126Y257980D01*
X477014Y257962D01*
X476913Y257952D01*
X476829Y257943D01*
X476765Y257934D01*
X475571D01*
Y266286D01*
X476839D01*
X477163Y266277D01*
D02*
G37*
G36*
X460929Y260348D02*
X457220D01*
X459079Y266176D01*
X460929Y260348D01*
D02*
G37*
D10*
X674016Y301476D02*
G03*
X674016Y301476I-492J0D01*
G01*
X805118D02*
G03*
X805118Y301476I-492J0D01*
G01*
X1001772D02*
G03*
X1001772Y301476I-492J0D01*
G01*
X608465D02*
G03*
X608465Y301476I-492J0D01*
G01*
Y563681D02*
G03*
X608465Y563681I-492J0D01*
G01*
X674016D02*
G03*
X674016Y563681I-492J0D01*
G01*
X739567Y301476D02*
G03*
X739567Y301476I-492J0D01*
G01*
X477362Y563681D02*
G03*
X477362Y563681I-492J0D01*
G01*
X542913Y301476D02*
G03*
X542913Y301476I-492J0D01*
G01*
X18504D02*
G03*
X18504Y301476I-492J0D01*
G01*
X346260D02*
G03*
X346260Y301476I-492J0D01*
G01*
X215158D02*
G03*
X215158Y301476I-492J0D01*
G01*
X84055D02*
G03*
X84055Y301476I-492J0D01*
G01*
X870669D02*
G03*
X870669Y301476I-492J0D01*
G01*
X936220D02*
G03*
X936220Y301476I-492J0D01*
G01*
X411811D02*
G03*
X411811Y301476I-492J0D01*
G01*
X477362D02*
G03*
X477362Y301476I-492J0D01*
G01*
Y629232D02*
G03*
X477362Y629232I-492J0D01*
G01*
Y498130D02*
G03*
X477362Y498130I-492J0D01*
G01*
X608465Y629232D02*
G03*
X608465Y629232I-492J0D01*
G01*
X542913D02*
G03*
X542913Y629232I-492J0D01*
G01*
X805118Y432579D02*
G03*
X805118Y432579I-492J0D01*
G01*
X674016D02*
G03*
X674016Y432579I-492J0D01*
G01*
X542913Y498130D02*
G03*
X542913Y498130I-492J0D01*
G01*
Y104823D02*
G03*
X542913Y104823I-492J0D01*
G01*
X739567Y498130D02*
G03*
X739567Y498130I-492J0D01*
G01*
Y563681D02*
G03*
X739567Y563681I-492J0D01*
G01*
X805118Y629232D02*
G03*
X805118Y629232I-492J0D01*
G01*
X542913Y563681D02*
G03*
X542913Y563681I-492J0D01*
G01*
X805118D02*
G03*
X805118Y563681I-492J0D01*
G01*
X608465Y498130D02*
G03*
X608465Y498130I-492J0D01*
G01*
X674016D02*
G03*
X674016Y498130I-492J0D01*
G01*
Y629232D02*
G03*
X674016Y629232I-492J0D01*
G01*
X739567D02*
G03*
X739567Y629232I-492J0D01*
G01*
X477362Y170374D02*
G03*
X477362Y170374I-492J0D01*
G01*
X542913D02*
G03*
X542913Y170374I-492J0D01*
G01*
X805118D02*
G03*
X805118Y170374I-492J0D01*
G01*
X411811D02*
G03*
X411811Y170374I-492J0D01*
G01*
X477362Y825886D02*
G03*
X477362Y825886I-492J0D01*
G01*
X542913D02*
G03*
X542913Y825886I-492J0D01*
G01*
X674016Y170374D02*
G03*
X674016Y170374I-492J0D01*
G01*
X608465D02*
G03*
X608465Y170374I-492J0D01*
G01*
X870669D02*
G03*
X870669Y170374I-492J0D01*
G01*
X1001772Y760335D02*
G03*
X1001772Y760335I-492J0D01*
G01*
Y694783D02*
G03*
X1001772Y694783I-492J0D01*
G01*
X870669D02*
G03*
X870669Y694783I-492J0D01*
G01*
X936220D02*
G03*
X936220Y694783I-492J0D01*
G01*
X1001772Y170374D02*
G03*
X1001772Y170374I-492J0D01*
G01*
X936220D02*
G03*
X936220Y170374I-492J0D01*
G01*
X1001772Y825886D02*
G03*
X1001772Y825886I-492J0D01*
G01*
X739567Y170374D02*
G03*
X739567Y170374I-492J0D01*
G01*
X280709Y694783D02*
G03*
X280709Y694783I-492J0D01*
G01*
X149606Y760335D02*
G03*
X149606Y760335I-492J0D01*
G01*
X280709Y825886D02*
G03*
X280709Y825886I-492J0D01*
G01*
Y760335D02*
G03*
X280709Y760335I-492J0D01*
G01*
Y301476D02*
G03*
X280709Y301476I-492J0D01*
G01*
X149606D02*
G03*
X149606Y301476I-492J0D01*
G01*
Y694783D02*
G03*
X149606Y694783I-492J0D01*
G01*
Y825886D02*
G03*
X149606Y825886I-492J0D01*
G01*
X215158D02*
G03*
X215158Y825886I-492J0D01*
G01*
X411811Y694783D02*
G03*
X411811Y694783I-492J0D01*
G01*
Y825886D02*
G03*
X411811Y825886I-492J0D01*
G01*
X608465D02*
G03*
X608465Y825886I-492J0D01*
G01*
X411811Y760335D02*
G03*
X411811Y760335I-492J0D01*
G01*
X346260Y825886D02*
G03*
X346260Y825886I-492J0D01*
G01*
X215158Y760335D02*
G03*
X215158Y760335I-492J0D01*
G01*
X346260D02*
G03*
X346260Y760335I-492J0D01*
G01*
Y694783D02*
G03*
X346260Y694783I-492J0D01*
G01*
X477362Y1022539D02*
G03*
X477362Y1022539I-492J0D01*
G01*
X411811D02*
G03*
X411811Y1022539I-492J0D01*
G01*
X477362Y956988D02*
G03*
X477362Y956988I-492J0D01*
G01*
X346260Y1022539D02*
G03*
X346260Y1022539I-492J0D01*
G01*
X149606D02*
G03*
X149606Y1022539I-492J0D01*
G01*
X18504Y956988D02*
G03*
X18504Y956988I-492J0D01*
G01*
X280709Y1022539D02*
G03*
X280709Y1022539I-492J0D01*
G01*
X215158D02*
G03*
X215158Y1022539I-492J0D01*
G01*
X411811Y956988D02*
G03*
X411811Y956988I-492J0D01*
G01*
X84055D02*
G03*
X84055Y956988I-492J0D01*
G01*
Y1022539D02*
G03*
X84055Y1022539I-492J0D01*
G01*
X346260Y891437D02*
G03*
X346260Y891437I-492J0D01*
G01*
X411811D02*
G03*
X411811Y891437I-492J0D01*
G01*
X280709Y956988D02*
G03*
X280709Y956988I-492J0D01*
G01*
X346260D02*
G03*
X346260Y956988I-492J0D01*
G01*
X149606D02*
G03*
X149606Y956988I-492J0D01*
G01*
X215158D02*
G03*
X215158Y956988I-492J0D01*
G01*
X542913D02*
G03*
X542913Y956988I-492J0D01*
G01*
X608465D02*
G03*
X608465Y956988I-492J0D01*
G01*
X936220D02*
G03*
X936220Y956988I-492J0D01*
G01*
X1001772D02*
G03*
X1001772Y956988I-492J0D01*
G01*
X542913Y1022539D02*
G03*
X542913Y1022539I-492J0D01*
G01*
X674016D02*
G03*
X674016Y1022539I-492J0D01*
G01*
Y956988D02*
G03*
X674016Y956988I-492J0D01*
G01*
X608465Y1022539D02*
G03*
X608465Y1022539I-492J0D01*
G01*
X1001772D02*
G03*
X1001772Y1022539I-492J0D01*
G01*
X870669D02*
G03*
X870669Y1022539I-492J0D01*
G01*
X739567D02*
G03*
X739567Y1022539I-492J0D01*
G01*
X18504D02*
G03*
X18504Y1022539I-492J0D01*
G01*
X805118D02*
G03*
X805118Y1022539I-492J0D01*
G01*
X870669Y956988D02*
G03*
X870669Y956988I-492J0D01*
G01*
X936220Y1022539D02*
G03*
X936220Y1022539I-492J0D01*
G01*
X739567Y956988D02*
G03*
X739567Y956988I-492J0D01*
G01*
X805118D02*
G03*
X805118Y956988I-492J0D01*
G01*
X477362Y367028D02*
G03*
X477362Y367028I-492J0D01*
G01*
X608465D02*
G03*
X608465Y367028I-492J0D01*
G01*
X674016Y104823D02*
G03*
X674016Y104823I-492J0D01*
G01*
X805118D02*
G03*
X805118Y104823I-492J0D01*
G01*
X215158Y170374D02*
G03*
X215158Y170374I-492J0D01*
G01*
X346260D02*
G03*
X346260Y170374I-492J0D01*
G01*
X542913Y367028D02*
G03*
X542913Y367028I-492J0D01*
G01*
X84055Y170374D02*
G03*
X84055Y170374I-492J0D01*
G01*
X739567Y104823D02*
G03*
X739567Y104823I-492J0D01*
G01*
X542913Y432579D02*
G03*
X542913Y432579I-492J0D01*
G01*
X739567D02*
G03*
X739567Y432579I-492J0D01*
G01*
X608465D02*
G03*
X608465Y432579I-492J0D01*
G01*
X477362D02*
G03*
X477362Y432579I-492J0D01*
G01*
X674016Y367028D02*
G03*
X674016Y367028I-492J0D01*
G01*
X608465Y104823D02*
G03*
X608465Y104823I-492J0D01*
G01*
X805118Y367028D02*
G03*
X805118Y367028I-492J0D01*
G01*
X739567D02*
G03*
X739567Y367028I-492J0D01*
G01*
X149606Y891437D02*
G03*
X149606Y891437I-492J0D01*
G01*
X84055D02*
G03*
X84055Y891437I-492J0D01*
G01*
X608465D02*
G03*
X608465Y891437I-492J0D01*
G01*
X674016D02*
G03*
X674016Y891437I-492J0D01*
G01*
X870669D02*
G03*
X870669Y891437I-492J0D01*
G01*
X936220D02*
G03*
X936220Y891437I-492J0D01*
G01*
X215158D02*
G03*
X215158Y891437I-492J0D01*
G01*
X280709D02*
G03*
X280709Y891437I-492J0D01*
G01*
X805118D02*
G03*
X805118Y891437I-492J0D01*
G01*
X18504Y170374D02*
G03*
X18504Y170374I-492J0D01*
G01*
X1001772Y891437D02*
G03*
X1001772Y891437I-492J0D01*
G01*
X280709Y170374D02*
G03*
X280709Y170374I-492J0D01*
G01*
X149606D02*
G03*
X149606Y170374I-492J0D01*
G01*
X477362Y891437D02*
G03*
X477362Y891437I-492J0D01*
G01*
X739567D02*
G03*
X739567Y891437I-492J0D01*
G01*
X18504D02*
G03*
X18504Y891437I-492J0D01*
G01*
X542913D02*
G03*
X542913Y891437I-492J0D01*
G01*
X280709Y235925D02*
G03*
X280709Y235925I-492J0D01*
G01*
X936220Y367028D02*
G03*
X936220Y367028I-492J0D01*
G01*
X411811Y235925D02*
G03*
X411811Y235925I-492J0D01*
G01*
X346260D02*
G03*
X346260Y235925I-492J0D01*
G01*
X805118Y498130D02*
G03*
X805118Y498130I-492J0D01*
G01*
X215158Y694783D02*
G03*
X215158Y694783I-492J0D01*
G01*
X1001772Y432579D02*
G03*
X1001772Y432579I-492J0D01*
G01*
Y367028D02*
G03*
X1001772Y367028I-492J0D01*
G01*
X542913Y235925D02*
G03*
X542913Y235925I-492J0D01*
G01*
X477362D02*
G03*
X477362Y235925I-492J0D01*
G01*
X215158D02*
G03*
X215158Y235925I-492J0D01*
G01*
X84055D02*
G03*
X84055Y235925I-492J0D01*
G01*
X149606D02*
G03*
X149606Y235925I-492J0D01*
G01*
X805118D02*
G03*
X805118Y235925I-492J0D01*
G01*
X608465D02*
G03*
X608465Y235925I-492J0D01*
G01*
X739567D02*
G03*
X739567Y235925I-492J0D01*
G01*
X674016D02*
G03*
X674016Y235925I-492J0D01*
G01*
X280709Y629232D02*
G03*
X280709Y629232I-492J0D01*
G01*
X346260Y563681D02*
G03*
X346260Y563681I-492J0D01*
G01*
X149606Y629232D02*
G03*
X149606Y629232I-492J0D01*
G01*
X280709Y563681D02*
G03*
X280709Y563681I-492J0D01*
G01*
X215158Y432579D02*
G03*
X215158Y432579I-492J0D01*
G01*
X280709D02*
G03*
X280709Y432579I-492J0D01*
G01*
X346260Y498130D02*
G03*
X346260Y498130I-492J0D01*
G01*
X215158Y563681D02*
G03*
X215158Y563681I-492J0D01*
G01*
X149606D02*
G03*
X149606Y563681I-492J0D01*
G01*
X411811Y432579D02*
G03*
X411811Y432579I-492J0D01*
G01*
X280709Y498130D02*
G03*
X280709Y498130I-492J0D01*
G01*
X215158Y629232D02*
G03*
X215158Y629232I-492J0D01*
G01*
X346260Y432579D02*
G03*
X346260Y432579I-492J0D01*
G01*
Y629232D02*
G03*
X346260Y629232I-492J0D01*
G01*
X411811D02*
G03*
X411811Y629232I-492J0D01*
G01*
X215158Y498130D02*
G03*
X215158Y498130I-492J0D01*
G01*
X149606D02*
G03*
X149606Y498130I-492J0D01*
G01*
X346260Y39272D02*
G03*
X346260Y39272I-492J0D01*
G01*
X936220D02*
G03*
X936220Y39272I-492J0D01*
G01*
X1001772D02*
G03*
X1001772Y39272I-492J0D01*
G01*
X608465D02*
G03*
X608465Y39272I-492J0D01*
G01*
X870669D02*
G03*
X870669Y39272I-492J0D01*
G01*
X805118D02*
G03*
X805118Y39272I-492J0D01*
G01*
X18504Y235925D02*
G03*
X18504Y235925I-492J0D01*
G01*
X674016Y39272D02*
G03*
X674016Y39272I-492J0D01*
G01*
X739567D02*
G03*
X739567Y39272I-492J0D01*
G01*
X477362Y104823D02*
G03*
X477362Y104823I-492J0D01*
G01*
X542913Y39272D02*
G03*
X542913Y39272I-492J0D01*
G01*
X870669Y104823D02*
G03*
X870669Y104823I-492J0D01*
G01*
X411811Y39272D02*
G03*
X411811Y39272I-492J0D01*
G01*
X477362D02*
G03*
X477362Y39272I-492J0D01*
G01*
X346260Y104823D02*
G03*
X346260Y104823I-492J0D01*
G01*
X411811D02*
G03*
X411811Y104823I-492J0D01*
G01*
X936220D02*
G03*
X936220Y104823I-492J0D01*
G01*
X1001772D02*
G03*
X1001772Y104823I-492J0D01*
G01*
X805118Y825886D02*
G03*
X805118Y825886I-492J0D01*
G01*
X870669Y760335D02*
G03*
X870669Y760335I-492J0D01*
G01*
X936220Y563681D02*
G03*
X936220Y563681I-492J0D01*
G01*
X1001772Y629232D02*
G03*
X1001772Y629232I-492J0D01*
G01*
X936220Y825886D02*
G03*
X936220Y825886I-492J0D01*
G01*
X674016Y694783D02*
G03*
X674016Y694783I-492J0D01*
G01*
X870669Y825886D02*
G03*
X870669Y825886I-492J0D01*
G01*
X936220Y760335D02*
G03*
X936220Y760335I-492J0D01*
G01*
X870669Y563681D02*
G03*
X870669Y563681I-492J0D01*
G01*
Y432579D02*
G03*
X870669Y432579I-492J0D01*
G01*
X936220Y498130D02*
G03*
X936220Y498130I-492J0D01*
G01*
X1001772D02*
G03*
X1001772Y498130I-492J0D01*
G01*
X870669D02*
G03*
X870669Y498130I-492J0D01*
G01*
X936220Y629232D02*
G03*
X936220Y629232I-492J0D01*
G01*
X1001772Y563681D02*
G03*
X1001772Y563681I-492J0D01*
G01*
X936220Y432579D02*
G03*
X936220Y432579I-492J0D01*
G01*
X870669Y629232D02*
G03*
X870669Y629232I-492J0D01*
G01*
X84055D02*
G03*
X84055Y629232I-492J0D01*
G01*
Y563681D02*
G03*
X84055Y563681I-492J0D01*
G01*
X18504Y760335D02*
G03*
X18504Y760335I-492J0D01*
G01*
X84055Y694783D02*
G03*
X84055Y694783I-492J0D01*
G01*
X18504Y825886D02*
G03*
X18504Y825886I-492J0D01*
G01*
X805118Y760335D02*
G03*
X805118Y760335I-492J0D01*
G01*
X84055Y498130D02*
G03*
X84055Y498130I-492J0D01*
G01*
Y825886D02*
G03*
X84055Y825886I-492J0D01*
G01*
Y760335D02*
G03*
X84055Y760335I-492J0D01*
G01*
X739567Y825886D02*
G03*
X739567Y825886I-492J0D01*
G01*
Y760335D02*
G03*
X739567Y760335I-492J0D01*
G01*
Y694783D02*
G03*
X739567Y694783I-492J0D01*
G01*
X805118D02*
G03*
X805118Y694783I-492J0D01*
G01*
X84055Y432579D02*
G03*
X84055Y432579I-492J0D01*
G01*
Y367028D02*
G03*
X84055Y367028I-492J0D01*
G01*
X18504Y432579D02*
G03*
X18504Y432579I-492J0D01*
G01*
Y367028D02*
G03*
X18504Y367028I-492J0D01*
G01*
X608465Y760335D02*
G03*
X608465Y760335I-492J0D01*
G01*
X477362D02*
G03*
X477362Y760335I-492J0D01*
G01*
X674016D02*
G03*
X674016Y760335I-492J0D01*
G01*
X542913D02*
G03*
X542913Y760335I-492J0D01*
G01*
X608465Y694783D02*
G03*
X608465Y694783I-492J0D01*
G01*
X18504Y629232D02*
G03*
X18504Y629232I-492J0D01*
G01*
X477362Y694783D02*
G03*
X477362Y694783I-492J0D01*
G01*
X542913D02*
G03*
X542913Y694783I-492J0D01*
G01*
X674016Y825886D02*
G03*
X674016Y825886I-492J0D01*
G01*
X149606Y367028D02*
G03*
X149606Y367028I-492J0D01*
G01*
X215158D02*
G03*
X215158Y367028I-492J0D01*
G01*
X280709D02*
G03*
X280709Y367028I-492J0D01*
G01*
X149606Y432579D02*
G03*
X149606Y432579I-492J0D01*
G01*
X411811Y563681D02*
G03*
X411811Y563681I-492J0D01*
G01*
Y498130D02*
G03*
X411811Y498130I-492J0D01*
G01*
Y367028D02*
G03*
X411811Y367028I-492J0D01*
G01*
X346260D02*
G03*
X346260Y367028I-492J0D01*
G01*
X18504Y39272D02*
G03*
X18504Y39272I-492J0D01*
G01*
X84055D02*
G03*
X84055Y39272I-492J0D01*
G01*
X149606Y104823D02*
G03*
X149606Y104823I-492J0D01*
G01*
X18504D02*
G03*
X18504Y104823I-492J0D01*
G01*
X936220Y235925D02*
G03*
X936220Y235925I-492J0D01*
G01*
X870669Y367028D02*
G03*
X870669Y367028I-492J0D01*
G01*
Y235925D02*
G03*
X870669Y235925I-492J0D01*
G01*
X1001772D02*
G03*
X1001772Y235925I-492J0D01*
G01*
X149606Y39272D02*
G03*
X149606Y39272I-492J0D01*
G01*
X18504Y498130D02*
G03*
X18504Y498130I-492J0D01*
G01*
X84055Y104823D02*
G03*
X84055Y104823I-492J0D01*
G01*
X18504Y694783D02*
G03*
X18504Y694783I-492J0D01*
G01*
Y563681D02*
G03*
X18504Y563681I-492J0D01*
G01*
X280709Y39272D02*
G03*
X280709Y39272I-492J0D01*
G01*
X215158Y104823D02*
G03*
X215158Y104823I-492J0D01*
G01*
X280709D02*
G03*
X280709Y104823I-492J0D01*
G01*
X215158Y39272D02*
G03*
X215158Y39272I-492J0D01*
G01*
D11*
X678445Y612894D02*
X698130D01*
X809547D02*
X829232D01*
X809547Y632579D02*
X829232D01*
X678445Y619587D02*
Y625886D01*
X698130Y619587D02*
Y625886D01*
X743996Y612894D02*
X763681D01*
X632579Y488484D02*
Y494783D01*
X743996Y632579D02*
X763681D01*
Y619587D02*
Y625886D01*
X678445Y632579D02*
X698130D01*
X743996Y619587D02*
Y625886D01*
X809547Y567028D02*
X829232D01*
X809547Y547342D02*
X829232D01*
X763681Y554036D02*
Y560335D01*
X743996Y554036D02*
Y560335D01*
X809547Y554036D02*
Y560335D01*
Y619587D02*
Y625886D01*
X829232Y619587D02*
Y625886D01*
X743996Y567028D02*
X763681D01*
X743996Y547342D02*
X763681D01*
X612894Y488484D02*
Y494783D01*
X743996Y481791D02*
X763681D01*
X743996Y501476D02*
X763681D01*
X612894Y619587D02*
Y625886D01*
X632579Y619587D02*
Y625886D01*
X612894Y501476D02*
X632579D01*
X678445Y488484D02*
Y494783D01*
X698130Y488484D02*
Y494783D01*
X612894Y481791D02*
X632579D01*
X763681Y488484D02*
Y494783D01*
X678445Y501476D02*
X698130D01*
X743996Y488484D02*
Y494783D01*
X678445Y481791D02*
X698130D01*
X829232Y554036D02*
Y560335D01*
X678445Y291831D02*
Y298130D01*
X698130Y291831D02*
Y298130D01*
X612894Y304823D02*
X632579D01*
X612894Y285138D02*
X632579D01*
X809547D02*
X829232D01*
X678445D02*
X698130D01*
X678445Y304823D02*
X698130D01*
X809547Y291831D02*
Y298130D01*
X829232Y291831D02*
Y298130D01*
X1025886Y291831D02*
Y298130D01*
X547343Y304823D02*
X567028D01*
X1006201D02*
X1025886D01*
X1006201Y285138D02*
X1025886D01*
X632579Y291831D02*
Y298130D01*
X612894Y291831D02*
Y298130D01*
X1006201Y291831D02*
Y298130D01*
X809547Y304823D02*
X829232D01*
X678445Y554036D02*
Y560335D01*
X612894Y547342D02*
X632579D01*
X698130Y554036D02*
Y560335D01*
X612894Y567028D02*
X632579D01*
X547343D02*
X567028D01*
X547343Y547342D02*
X567028D01*
X678445Y567028D02*
X698130D01*
X678445Y547342D02*
X698130D01*
X567028Y554036D02*
Y560335D01*
X547343Y554036D02*
Y560335D01*
X743996Y285138D02*
X763681D01*
X743996Y304823D02*
X763681D01*
X481791Y554036D02*
Y560335D01*
X501476Y554036D02*
Y560335D01*
X743996Y291831D02*
Y298130D01*
X763681Y291831D02*
Y298130D01*
X632579Y554036D02*
Y560335D01*
X481791Y567028D02*
X501476D01*
X612894Y554036D02*
Y560335D01*
X481791Y547342D02*
X501476D01*
X612894Y612894D02*
X632579D01*
X547343Y422933D02*
Y429232D01*
X567028Y422933D02*
Y429232D01*
X481791Y435925D02*
X501476D01*
X481791Y416240D02*
X501476D01*
X743996D02*
X763681D01*
X547343D02*
X567028D01*
X547343Y435925D02*
X567028D01*
X743996Y422933D02*
Y429232D01*
X763681Y422933D02*
Y429232D01*
X678445Y416240D02*
X698130D01*
X632579Y422933D02*
Y429232D01*
X678445Y435925D02*
X698130D01*
Y422933D02*
Y429232D01*
X809547Y435925D02*
X829232D01*
X678445Y422933D02*
Y429232D01*
X612894Y435925D02*
X632579D01*
X612894Y416240D02*
X632579D01*
X501476Y422933D02*
Y429232D01*
X481791Y422933D02*
Y429232D01*
X612894Y422933D02*
Y429232D01*
X743996Y435925D02*
X763681D01*
X612894Y95177D02*
Y101476D01*
X678445Y350689D02*
X698130D01*
X632579Y95177D02*
Y101476D01*
X678445Y370374D02*
X698130D01*
X743996Y108169D02*
X763681D01*
X743996Y88484D02*
X763681D01*
X612894Y108169D02*
X632579D01*
X612894Y88484D02*
X632579D01*
X763681Y95177D02*
Y101476D01*
X743996Y95177D02*
Y101476D01*
X809547Y350689D02*
X829232D01*
X809547Y370374D02*
X829232D01*
X743996Y357382D02*
Y363681D01*
X763681Y357382D02*
Y363681D01*
X809547Y357382D02*
Y363681D01*
X829232Y357382D02*
Y363681D01*
X698130Y357382D02*
Y363681D01*
X743996Y370374D02*
X763681D01*
X678445Y357382D02*
Y363681D01*
X743996Y350689D02*
X763681D01*
X809547Y416240D02*
X829232D01*
X501476Y488484D02*
Y494783D01*
X547343Y612894D02*
X567028D01*
X501476Y619587D02*
Y625886D01*
X547343Y632579D02*
X567028D01*
Y619587D02*
Y625886D01*
X612894Y632579D02*
X632579D01*
X547343Y619587D02*
Y625886D01*
X481791Y632579D02*
X501476D01*
X481791Y612894D02*
X501476D01*
X481791Y619587D02*
Y625886D01*
Y488484D02*
Y494783D01*
X567028Y95177D02*
Y101476D01*
X547343Y95177D02*
Y101476D01*
X809547Y422933D02*
Y429232D01*
X547343Y88484D02*
X567028D01*
X829232Y422933D02*
Y429232D01*
X547343Y108169D02*
X567028D01*
Y488484D02*
Y494783D01*
X481791Y501476D02*
X501476D01*
X547343Y488484D02*
Y494783D01*
X481791Y481791D02*
X501476D01*
X547343D02*
X567028D01*
X547343Y501476D02*
X567028D01*
X547343Y285138D02*
X567028D01*
X416240Y685138D02*
Y691437D01*
X435925Y685138D02*
Y691437D01*
X416240Y763681D02*
X435925D01*
X416240Y743996D02*
X435925D01*
Y816240D02*
Y822539D01*
X416240Y816240D02*
Y822539D01*
Y678445D02*
X435925D01*
X416240Y698130D02*
X435925D01*
X547343Y809547D02*
X567028D01*
X632579Y816240D02*
Y822539D01*
X547343Y829232D02*
X567028D01*
Y816240D02*
Y822539D01*
X481791Y829232D02*
X501476D01*
X547343Y816240D02*
Y822539D01*
X612894Y829232D02*
X632579D01*
X612894Y809547D02*
X632579D01*
X435925Y750689D02*
Y756988D01*
X416240Y750689D02*
Y756988D01*
X612894Y816240D02*
Y822539D01*
X350689Y816240D02*
Y822539D01*
X370374Y816240D02*
Y822539D01*
X219586Y763681D02*
X239272D01*
X219586Y743996D02*
X239272D01*
X350689Y829232D02*
X370374D01*
X350689Y809547D02*
X370374D01*
X239272Y750689D02*
Y756988D01*
X219586Y750689D02*
Y756988D01*
X350689Y750689D02*
Y756988D01*
X416240Y809547D02*
X435925D01*
X370374Y750689D02*
Y756988D01*
X416240Y829232D02*
X435925D01*
X350689Y698130D02*
X370374D01*
X350689Y678445D02*
X370374D01*
X350689Y763681D02*
X370374D01*
X350689Y743996D02*
X370374D01*
Y685138D02*
Y691437D01*
X350689Y685138D02*
Y691437D01*
X481791Y809547D02*
X501476D01*
X875098Y173721D02*
X894783D01*
X875098Y154035D02*
X894783D01*
X829232Y160728D02*
Y167027D01*
X809547Y160728D02*
Y167027D01*
X875098Y160728D02*
Y167027D01*
X416240Y160728D02*
Y167027D01*
X435925Y160728D02*
Y167027D01*
X809547Y173721D02*
X829232D01*
X809547Y154035D02*
X829232D01*
X1006201D02*
X1025886D01*
X743996D02*
X763681D01*
X743996Y173721D02*
X763681D01*
X1006201Y160728D02*
Y167027D01*
X1025886Y160728D02*
Y167027D01*
X940650Y154035D02*
X960335D01*
X894783Y160728D02*
Y167027D01*
X940650Y173721D02*
X960335D01*
Y160728D02*
Y167027D01*
X1006201Y173721D02*
X1025886D01*
X940650Y160728D02*
Y167027D01*
X632579Y160728D02*
Y167027D01*
X678445Y173721D02*
X698130D01*
X612894Y160728D02*
Y167027D01*
X678445Y154035D02*
X698130D01*
X481791Y816240D02*
Y822539D01*
X612894Y154035D02*
X632579D01*
X501476Y816240D02*
Y822539D01*
X612894Y173721D02*
X632579D01*
X481791D02*
X501476D01*
X481791Y154035D02*
X501476D01*
X416240Y173721D02*
X435925D01*
X416240Y154035D02*
X435925D01*
X501476Y160728D02*
Y167027D01*
X481791Y160728D02*
Y167027D01*
X547343Y154035D02*
X567028D01*
X547343Y173721D02*
X567028D01*
X678445Y160728D02*
Y167027D01*
X698130Y160728D02*
Y167027D01*
X547343Y160728D02*
Y167027D01*
X567028Y160728D02*
Y167027D01*
X22933Y285138D02*
X42618D01*
X370374Y291831D02*
Y298130D01*
X22933Y304823D02*
X42618D01*
Y291831D02*
Y298130D01*
X88484Y304823D02*
X108169D01*
X22933Y291831D02*
Y298130D01*
X350689Y304823D02*
X370374D01*
X350689Y285138D02*
X370374D01*
X435925Y291831D02*
Y298130D01*
X416240Y291831D02*
Y298130D01*
X350689Y291831D02*
Y298130D01*
X219586Y291831D02*
Y298130D01*
X239272Y291831D02*
Y298130D01*
X154035Y304823D02*
X173720D01*
X154035Y285138D02*
X173720D01*
X88484D02*
X108169D01*
X219586D02*
X239272D01*
X219586Y304823D02*
X239272D01*
X88484Y291831D02*
Y298130D01*
X108169Y291831D02*
Y298130D01*
X940650Y291831D02*
Y298130D01*
X875098Y285138D02*
X894783D01*
X960335Y291831D02*
Y298130D01*
X875098Y304823D02*
X894783D01*
X547343Y291831D02*
Y298130D01*
X940650Y304823D02*
X960335D01*
X940650Y285138D02*
X960335D01*
X567028Y291831D02*
Y298130D01*
X481791Y291831D02*
Y298130D01*
X416240Y285138D02*
X435925D01*
X501476Y291831D02*
Y298130D01*
X416240Y304823D02*
X435925D01*
X894783Y291831D02*
Y298130D01*
X875098Y291831D02*
Y298130D01*
X481791Y304823D02*
X501476D01*
X481791Y285138D02*
X501476D01*
X285138Y763681D02*
X304823D01*
X285138Y743996D02*
X304823D01*
Y685138D02*
Y691437D01*
X285138Y685138D02*
Y691437D01*
Y750689D02*
Y756988D01*
X173720Y750689D02*
Y756988D01*
X285138Y698130D02*
X304823D01*
X285138Y678445D02*
X304823D01*
X219586Y809547D02*
X239272D01*
X219586Y816240D02*
Y822539D01*
X239272Y816240D02*
Y822539D01*
X285138Y809547D02*
X304823D01*
Y750689D02*
Y756988D01*
X285138Y829232D02*
X304823D01*
Y816240D02*
Y822539D01*
X219586Y829232D02*
X239272D01*
X285138Y816240D02*
Y822539D01*
X154035Y750689D02*
Y756988D01*
Y809547D02*
X173720D01*
X154035Y829232D02*
X173720D01*
X285138Y285138D02*
X304823D01*
X285138Y304823D02*
X304823D01*
X154035Y291831D02*
Y298130D01*
X173720Y291831D02*
Y298130D01*
X285138Y291831D02*
Y298130D01*
X304823Y291831D02*
Y298130D01*
X173720Y685138D02*
Y691437D01*
X154035Y763681D02*
X173720D01*
X154035Y685138D02*
Y691437D01*
Y743996D02*
X173720D01*
Y816240D02*
Y822539D01*
X154035Y816240D02*
Y822539D01*
Y678445D02*
X173720D01*
X154035Y698130D02*
X173720D01*
X698130Y95177D02*
Y101476D01*
X481791Y947343D02*
Y953642D01*
X501476Y947343D02*
Y953642D01*
X416240Y960335D02*
X435925D01*
X416240Y940650D02*
X435925D01*
X350689Y1006201D02*
X370374D01*
X481791Y940650D02*
X501476D01*
X481791Y960335D02*
X501476D01*
X350689Y1012894D02*
Y1019193D01*
X370374Y1012894D02*
Y1019193D01*
X285138Y940650D02*
X304823D01*
X370374Y947343D02*
Y953642D01*
X285138Y960335D02*
X304823D01*
Y947343D02*
Y953642D01*
X219586Y960335D02*
X239272D01*
X285138Y947343D02*
Y953642D01*
X350689Y960335D02*
X370374D01*
X350689Y940650D02*
X370374D01*
X435925Y947343D02*
Y953642D01*
X416240Y947343D02*
Y953642D01*
X350689Y947343D02*
Y953642D01*
Y1025886D02*
X370374D01*
X219586Y1012894D02*
Y1019193D01*
X285138Y1006201D02*
X304823D01*
X239272Y1012894D02*
Y1019193D01*
X285138Y1025886D02*
X304823D01*
X154035D02*
X173720D01*
X154035Y1006201D02*
X173720D01*
X219586Y1025886D02*
X239272D01*
X219586Y1006201D02*
X239272D01*
X173720Y1012894D02*
Y1019193D01*
X154035Y1012894D02*
Y1019193D01*
X481791Y1006201D02*
X501476D01*
X481791Y1025886D02*
X501476D01*
X416240Y1012894D02*
Y1019193D01*
X435925Y1012894D02*
Y1019193D01*
X481791Y1012894D02*
Y1019193D01*
X501476Y1012894D02*
Y1019193D01*
X304823Y1012894D02*
Y1019193D01*
X416240Y1025886D02*
X435925D01*
X285138Y1012894D02*
Y1019193D01*
X416240Y1006201D02*
X435925D01*
X219586Y940650D02*
X239272D01*
X350689Y875099D02*
X370374D01*
X350689Y881791D02*
Y888091D01*
X370374Y881791D02*
Y888091D01*
X416240Y875099D02*
X435925D01*
X416240Y894783D02*
X435925D01*
Y881791D02*
Y888091D01*
X350689Y894783D02*
X370374D01*
X416240Y881791D02*
Y888091D01*
X940650Y894783D02*
X960335D01*
X940650Y875099D02*
X960335D01*
X940650Y881791D02*
Y888091D01*
X173720Y947343D02*
Y953642D01*
X88484Y1025886D02*
X108169D01*
X154035Y947343D02*
Y953642D01*
X88484Y1006201D02*
X108169D01*
X219586Y947343D02*
Y953642D01*
X154035Y940650D02*
X173720D01*
X239272Y947343D02*
Y953642D01*
X154035Y960335D02*
X173720D01*
X88484Y940650D02*
X108169D01*
X88484Y960335D02*
X108169D01*
X88484Y1012894D02*
Y1019193D01*
X108169Y1012894D02*
Y1019193D01*
X88484Y947343D02*
Y953642D01*
X108169Y947343D02*
Y953642D01*
X1006201Y940650D02*
X1025886D01*
X940650D02*
X960335D01*
X940650Y960335D02*
X960335D01*
X1006201Y947343D02*
Y953642D01*
X1025886Y947343D02*
Y953642D01*
X547343Y940650D02*
X567028D01*
X1006201Y960335D02*
X1025886D01*
X547343Y947343D02*
Y953642D01*
X567028Y947343D02*
Y953642D01*
X940650Y1025886D02*
X960335D01*
X940650Y1006201D02*
X960335D01*
X1025886Y1012894D02*
Y1019193D01*
X1006201Y1012894D02*
Y1019193D01*
X940650Y1012894D02*
Y1019193D01*
Y947343D02*
Y953642D01*
X960335Y947343D02*
Y953642D01*
X1006201Y1025886D02*
X1025886D01*
X1006201Y1006201D02*
X1025886D01*
X547343Y960335D02*
X567028D01*
X547343Y1012894D02*
Y1019193D01*
X612894Y1006201D02*
X632579D01*
X567028Y1012894D02*
Y1019193D01*
X612894Y1025886D02*
X632579D01*
X678445D02*
X698130D01*
X678445Y1006201D02*
X698130D01*
X547343Y1025886D02*
X567028D01*
X547343Y1006201D02*
X567028D01*
X698130Y1012894D02*
Y1019193D01*
X678445Y1012894D02*
Y1019193D01*
X612894Y940650D02*
X632579D01*
X612894Y960335D02*
X632579D01*
X678445Y947343D02*
Y953642D01*
X698130Y947343D02*
Y953642D01*
X612894Y947343D02*
Y953642D01*
X632579Y947343D02*
Y953642D01*
Y1012894D02*
Y1019193D01*
X678445Y960335D02*
X698130D01*
X612894Y1012894D02*
Y1019193D01*
X678445Y940650D02*
X698130D01*
X960335Y1012894D02*
Y1019193D01*
X875098Y1012894D02*
Y1019193D01*
X894783Y1012894D02*
Y1019193D01*
X809547Y1025886D02*
X829232D01*
X809547Y1006201D02*
X829232D01*
X743996D02*
X763681D01*
X875098D02*
X894783D01*
X875098Y1025886D02*
X894783D01*
X743996Y1012894D02*
Y1019193D01*
X763681Y1012894D02*
Y1019193D01*
X22933Y940650D02*
X42618D01*
Y1012894D02*
Y1019193D01*
X22933Y960335D02*
X42618D01*
Y947343D02*
Y953642D01*
X22933Y947343D02*
Y953642D01*
Y1025886D02*
X42618D01*
X22933Y1006201D02*
X42618D01*
X829232Y1012894D02*
Y1019193D01*
X809547Y1012894D02*
Y1019193D01*
X22933Y1012894D02*
Y1019193D01*
X743996Y1025886D02*
X763681D01*
X809547Y940650D02*
X829232D01*
X809547Y960335D02*
X829232D01*
X875098Y940650D02*
X894783D01*
X875098Y960335D02*
X894783D01*
X875098Y947343D02*
Y953642D01*
X894783Y947343D02*
Y953642D01*
X743996Y947343D02*
Y953642D01*
X763681Y947343D02*
Y953642D01*
X829232Y947343D02*
Y953642D01*
X743996Y960335D02*
X763681D01*
X809547Y947343D02*
Y953642D01*
X743996Y940650D02*
X763681D01*
X960335Y881791D02*
Y888091D01*
X154035Y173721D02*
X173720D01*
X154035Y154035D02*
X173720D01*
X42618Y160728D02*
Y167027D01*
X22933Y160728D02*
Y167027D01*
X154035Y160728D02*
Y167027D01*
X22933Y173721D02*
X42618D01*
X22933Y154035D02*
X42618D01*
X350689D02*
X370374D01*
X219586D02*
X239272D01*
X219586Y173721D02*
X239272D01*
X350689Y160728D02*
Y167027D01*
X370374Y160728D02*
Y167027D01*
X285138Y154035D02*
X304823D01*
X173720Y160728D02*
Y167027D01*
X285138Y173721D02*
X304823D01*
Y160728D02*
Y167027D01*
X350689Y173721D02*
X370374D01*
X285138Y160728D02*
Y167027D01*
X612894Y350689D02*
X632579D01*
X481791D02*
X501476D01*
X481791Y370374D02*
X501476D01*
X612894Y357382D02*
Y363681D01*
X632579Y357382D02*
Y363681D01*
X547343Y350689D02*
X567028D01*
X547343Y370374D02*
X567028D01*
Y357382D02*
Y363681D01*
X612894Y370374D02*
X632579D01*
X547343Y357382D02*
Y363681D01*
X678445Y108169D02*
X698130D01*
X678445Y88484D02*
X698130D01*
X829232Y95177D02*
Y101476D01*
X809547Y95177D02*
Y101476D01*
X678445Y95177D02*
Y101476D01*
X481791Y357382D02*
Y363681D01*
X501476Y357382D02*
Y363681D01*
X809547Y108169D02*
X829232D01*
X809547Y88484D02*
X829232D01*
X88484Y160728D02*
Y167027D01*
X108169Y160728D02*
Y167027D01*
X239272Y160728D02*
Y167027D01*
X88484Y173721D02*
X108169D01*
X219586Y160728D02*
Y167027D01*
X88484Y154035D02*
X108169D01*
X678445Y881791D02*
Y888091D01*
X698130Y881791D02*
Y888091D01*
X612894Y894783D02*
X632579D01*
X612894Y875099D02*
X632579D01*
X154035Y881791D02*
Y888091D01*
X173720Y881791D02*
Y888091D01*
X678445Y875099D02*
X698130D01*
X678445Y894783D02*
X698130D01*
X743996Y875099D02*
X763681D01*
X829232Y881791D02*
Y888091D01*
X743996Y894783D02*
X763681D01*
Y881791D02*
Y888091D01*
X481791Y894783D02*
X501476D01*
X743996Y881791D02*
Y888091D01*
X809547Y894783D02*
X829232D01*
X809547Y875099D02*
X829232D01*
X632579Y881791D02*
Y888091D01*
X612894Y881791D02*
Y888091D01*
X809547Y881791D02*
Y888091D01*
X285138Y894783D02*
X304823D01*
X285138Y875099D02*
X304823D01*
X219586Y894783D02*
X239272D01*
X219586Y875099D02*
X239272D01*
X304823Y881791D02*
Y888091D01*
X285138Y881791D02*
Y888091D01*
X875098Y894783D02*
X894783D01*
X875098Y875099D02*
X894783D01*
Y881791D02*
Y888091D01*
X875098Y881791D02*
Y888091D01*
X88484Y881791D02*
Y888091D01*
X154035Y894783D02*
X173720D01*
X154035Y875099D02*
X173720D01*
X108169Y881791D02*
Y888091D01*
X219586Y881791D02*
Y888091D01*
X88484Y894783D02*
X108169D01*
X88484Y875099D02*
X108169D01*
X239272Y881791D02*
Y888091D01*
X481791Y875099D02*
X501476D01*
X1006201Y881791D02*
Y888091D01*
X1025886Y881791D02*
Y888091D01*
X1006201Y875099D02*
X1025886D01*
X1006201Y894783D02*
X1025886D01*
X567028Y881791D02*
Y888091D01*
X547343Y881791D02*
Y888091D01*
X22933Y894783D02*
X42618D01*
X22933Y875099D02*
X42618D01*
X481791Y881791D02*
Y888091D01*
X547343Y875099D02*
X567028D01*
X501476Y881791D02*
Y888091D01*
X547343Y894783D02*
X567028D01*
X22933Y881791D02*
Y888091D01*
X42618Y881791D02*
Y888091D01*
X285138Y357382D02*
Y363681D01*
X304823Y357382D02*
Y363681D01*
X285138Y435925D02*
X304823D01*
X154035Y422933D02*
Y429232D01*
X173720Y422933D02*
Y429232D01*
X285138Y350689D02*
X304823D01*
X285138Y370374D02*
X304823D01*
X219586Y435925D02*
X239272D01*
X219586Y416240D02*
X239272D01*
X285138D02*
X304823D01*
X285138Y422933D02*
Y429232D01*
X304823Y422933D02*
Y429232D01*
X416240Y357382D02*
Y363681D01*
X219586Y350689D02*
X239272D01*
X435925Y357382D02*
Y363681D01*
X219586Y370374D02*
X239272D01*
X350689D02*
X370374D01*
X350689Y350689D02*
X370374D01*
X416240Y370374D02*
X435925D01*
X416240Y350689D02*
X435925D01*
X370374Y357382D02*
Y363681D01*
X350689Y357382D02*
Y363681D01*
X154035Y357382D02*
Y363681D01*
X1006201Y481791D02*
X1025886D01*
X875098Y370374D02*
X894783D01*
X940650Y29626D02*
Y35925D01*
X875098Y357382D02*
Y363681D01*
X894783Y422933D02*
Y429232D01*
X960335Y488484D02*
Y494783D01*
X894783Y357382D02*
Y363681D01*
X940650Y416240D02*
X960335D01*
X1025886Y29626D02*
Y35925D01*
X809547Y501476D02*
X829232D01*
X1006201Y357382D02*
Y363681D01*
X1025886Y488484D02*
Y494783D01*
X809547Y481791D02*
X829232D01*
X960335Y29626D02*
Y35925D01*
X875098Y350689D02*
X894783D01*
X1025886Y357382D02*
Y363681D01*
X894783Y488484D02*
Y494783D01*
X960335Y422933D02*
Y429232D01*
X940650Y481791D02*
X960335D01*
X1006201Y370374D02*
X1025886D01*
X940650Y422933D02*
Y429232D01*
X698130Y685138D02*
Y691437D01*
X743996Y698130D02*
X763681D01*
X940650Y501476D02*
X960335D01*
X678445Y685138D02*
Y691437D01*
X829232Y488484D02*
Y494783D01*
X875098Y416240D02*
X894783D01*
X875098Y501476D02*
X894783D01*
X940650Y435925D02*
X960335D01*
X875098Y481791D02*
X894783D01*
X809547Y488484D02*
Y494783D01*
X875098Y488484D02*
Y494783D01*
Y422933D02*
Y429232D01*
X940650Y488484D02*
Y494783D01*
X547343Y239272D02*
X567028D01*
X612894Y219587D02*
X632579D01*
X547343Y226280D02*
Y232579D01*
Y219587D02*
X567028D01*
X940650Y350689D02*
X960335D01*
X1006201Y435925D02*
X1025886D01*
X416240Y219587D02*
X435925D01*
X940650Y370374D02*
X960335D01*
X875098Y435925D02*
X894783D01*
X809547Y239272D02*
X829232D01*
X698130Y226280D02*
Y232579D01*
X678445Y219587D02*
X698130D01*
X678445Y226280D02*
Y232579D01*
X567028Y226280D02*
Y232579D01*
X612894Y239272D02*
X632579D01*
X743996D02*
X763681D01*
X416240Y226280D02*
Y232579D01*
X285138Y219587D02*
X304823D01*
X416240Y239272D02*
X435925D01*
X632579Y226280D02*
Y232579D01*
X285138Y239272D02*
X304823D01*
X1006201Y350689D02*
X1025886D01*
X1006201Y501476D02*
X1025886D01*
X940650Y357382D02*
Y363681D01*
X1006201Y488484D02*
Y494783D01*
X809547Y219587D02*
X829232D01*
X350689Y226280D02*
Y232579D01*
X1025886Y422933D02*
Y429232D01*
X1006201Y416240D02*
X1025886D01*
X370374Y226280D02*
Y232579D01*
X612894Y226280D02*
Y232579D01*
X809547Y226280D02*
Y232579D01*
X1006201Y422933D02*
Y429232D01*
X960335Y357382D02*
Y363681D01*
X285138Y554036D02*
Y560335D01*
X154035Y370374D02*
X173720D01*
X154035Y435925D02*
X173720D01*
X154035Y350689D02*
X173720D01*
X219586Y422933D02*
Y429232D01*
X350689Y481791D02*
X370374D01*
X219586Y357382D02*
Y363681D01*
Y567028D02*
X239272D01*
X173720Y357382D02*
Y363681D01*
Y554036D02*
Y560335D01*
X285138Y619587D02*
Y625886D01*
Y612894D02*
X304823D01*
X154035Y554036D02*
Y560335D01*
Y416240D02*
X173720D01*
X239272Y357382D02*
Y363681D01*
X304823Y619587D02*
Y625886D01*
Y554036D02*
Y560335D01*
X285138Y632579D02*
X304823D01*
X154035Y567028D02*
X173720D01*
X416240Y612894D02*
X435925D01*
X173720Y619587D02*
Y625886D01*
X875098Y108169D02*
X894783D01*
X875098Y95177D02*
Y101476D01*
X154035Y619587D02*
Y625886D01*
X960335Y95177D02*
Y101476D01*
X416240Y632579D02*
X435925D01*
X370374Y554036D02*
Y560335D01*
X239272Y422933D02*
Y429232D01*
X219586Y547342D02*
X239272D01*
Y554036D02*
Y560335D01*
X154035Y612894D02*
X173720D01*
X154035Y547342D02*
X173720D01*
X219586Y554036D02*
Y560335D01*
X350689Y501476D02*
X370374D01*
X809547Y698130D02*
X829232D01*
X350689Y567028D02*
X370374D01*
X350689Y488484D02*
Y494783D01*
X809547Y678445D02*
X829232D01*
X763681Y750689D02*
Y756988D01*
X743996Y809547D02*
X763681D01*
X435925Y554036D02*
Y560335D01*
X743996Y750689D02*
Y756988D01*
X350689Y554036D02*
Y560335D01*
X678445Y678445D02*
X698130D01*
X612894Y698130D02*
X632579D01*
X809547Y685138D02*
Y691437D01*
X743996Y678445D02*
X763681D01*
X350689Y547342D02*
X370374D01*
Y488484D02*
Y494783D01*
X612894Y678445D02*
X632579D01*
X829232Y685138D02*
Y691437D01*
X22933Y416240D02*
X42618D01*
X22933Y422933D02*
Y429232D01*
X743996Y685138D02*
Y691437D01*
X22933Y357382D02*
Y363681D01*
X285138Y567028D02*
X304823D01*
X154035Y632579D02*
X173720D01*
X42618Y357382D02*
Y363681D01*
X285138Y547342D02*
X304823D01*
X678445Y698130D02*
X698130D01*
X743996Y743996D02*
X763681D01*
X743996Y816240D02*
Y822539D01*
Y829232D02*
X763681D01*
X743996Y763681D02*
X763681D01*
Y685138D02*
Y691437D01*
X42618Y422933D02*
Y429232D01*
X763681Y816240D02*
Y822539D01*
X22933Y435925D02*
X42618D01*
X435925Y95177D02*
Y101476D01*
X1006201Y95177D02*
Y101476D01*
X350689Y88484D02*
X370374D01*
X239272Y685138D02*
Y691437D01*
X809547Y29626D02*
Y35925D01*
Y42618D02*
X829232D01*
X219586Y698130D02*
X239272D01*
X285138Y501476D02*
X304823D01*
X219586Y488484D02*
Y494783D01*
Y678445D02*
X239272D01*
Y488484D02*
Y494783D01*
X809547Y22933D02*
X829232D01*
X350689Y612894D02*
X370374D01*
X219586Y481791D02*
X239272D01*
X154035Y501476D02*
X173720D01*
X154035Y488484D02*
Y494783D01*
X829232Y29626D02*
Y35925D01*
X743996Y42618D02*
X763681D01*
X173720Y488484D02*
Y494783D01*
X219586Y685138D02*
Y691437D01*
X285138Y488484D02*
Y494783D01*
X370374Y619587D02*
Y625886D01*
X416240Y619587D02*
Y625886D01*
Y435925D02*
X435925D01*
X678445Y239272D02*
X698130D01*
X435925Y226280D02*
Y232579D01*
X304823Y488484D02*
Y494783D01*
X829232Y226280D02*
Y232579D01*
X350689Y632579D02*
X370374D01*
X501476Y95177D02*
Y101476D01*
X743996Y22933D02*
X763681D01*
X285138Y481791D02*
X304823D01*
X416240Y88484D02*
X435925D01*
Y619587D02*
Y625886D01*
X350689Y619587D02*
Y625886D01*
X416240Y108169D02*
X435925D01*
X416240Y416240D02*
X435925D01*
X940650Y88484D02*
X960335D01*
X481791Y108169D02*
X501476D01*
X416240Y95177D02*
Y101476D01*
X1006201Y88484D02*
X1025886D01*
X894783Y29626D02*
Y35925D01*
X875098Y22933D02*
X894783D01*
X481791Y88484D02*
X501476D01*
X612894Y22933D02*
X632579D01*
X481791Y95177D02*
Y101476D01*
X350689Y95177D02*
Y101476D01*
Y108169D02*
X370374D01*
X1025886Y95177D02*
Y101476D01*
X1006201Y108169D02*
X1025886D01*
X612894Y29626D02*
Y35925D01*
X632579Y29626D02*
Y35925D01*
X370374Y95177D02*
Y101476D01*
X940650Y108169D02*
X960335D01*
X678445Y42618D02*
X698130D01*
X743996Y29626D02*
Y35925D01*
X1006201Y42618D02*
X1025886D01*
X763681Y29626D02*
Y35925D01*
X219586Y501476D02*
X239272D01*
X416240Y422933D02*
Y429232D01*
X678445Y22933D02*
X698130D01*
X154035Y481791D02*
X173720D01*
X698130Y29626D02*
Y35925D01*
X1006201Y29626D02*
Y35925D01*
X875098Y29626D02*
Y35925D01*
X612894Y42618D02*
X632579D01*
X940650D02*
X960335D01*
X678445Y29626D02*
Y35925D01*
X1006201Y22933D02*
X1025886D01*
X940650D02*
X960335D01*
X875098Y42618D02*
X894783D01*
X285138Y226280D02*
Y232579D01*
X350689Y219587D02*
X370374D01*
X304823Y226280D02*
Y232579D01*
X350689Y239272D02*
X370374D01*
X809547Y750689D02*
Y756988D01*
X829232Y750689D02*
Y756988D01*
X940650Y829232D02*
X960335D01*
X940650Y809547D02*
X960335D01*
X875098Y678445D02*
X894783D01*
X809547Y743996D02*
X829232D01*
X809547Y763681D02*
X829232D01*
X875098Y685138D02*
Y691437D01*
X894783Y685138D02*
Y691437D01*
X875098Y829232D02*
X894783D01*
X875098Y809547D02*
X894783D01*
X960335Y750689D02*
Y756988D01*
X940650Y750689D02*
Y756988D01*
X875098Y816240D02*
Y822539D01*
X960335Y816240D02*
Y822539D01*
X940650Y816240D02*
Y822539D01*
Y763681D02*
X960335D01*
X940650Y743996D02*
X960335D01*
X875098Y698130D02*
X894783D01*
X1006201Y678445D02*
X1025886D01*
X1006201Y698130D02*
X1025886D01*
X1006201Y816240D02*
Y822539D01*
X1025886Y816240D02*
Y822539D01*
X1006201Y685138D02*
Y691437D01*
X1025886Y685138D02*
Y691437D01*
X763681Y160728D02*
Y167027D01*
X1006201Y829232D02*
X1025886D01*
X743996Y160728D02*
Y167027D01*
X1006201Y809547D02*
X1025886D01*
X940650Y685138D02*
Y691437D01*
X960335Y685138D02*
Y691437D01*
X1006201Y763681D02*
X1025886D01*
X1006201Y743996D02*
X1025886D01*
X940650Y698130D02*
X960335D01*
X940650Y678445D02*
X960335D01*
X1025886Y750689D02*
Y756988D01*
X1006201Y750689D02*
Y756988D01*
X894783Y816240D02*
Y822539D01*
X875098Y554036D02*
Y560335D01*
X894783Y554036D02*
Y560335D01*
X1006201Y567028D02*
X1025886D01*
X1006201Y547342D02*
X1025886D01*
X940650D02*
X960335D01*
X875098D02*
X894783D01*
X875098Y567028D02*
X894783D01*
X940650Y554036D02*
Y560335D01*
X960335Y554036D02*
Y560335D01*
X875098Y612894D02*
X894783D01*
X960335Y619587D02*
Y625886D01*
X875098Y632579D02*
X894783D01*
Y619587D02*
Y625886D01*
X875098Y619587D02*
Y625886D01*
X940650Y632579D02*
X960335D01*
X940650Y612894D02*
X960335D01*
X1025886Y554036D02*
Y560335D01*
X1006201Y554036D02*
Y560335D01*
X940650Y619587D02*
Y625886D01*
Y567028D02*
X960335D01*
X809547Y829232D02*
X829232D01*
X809547Y809547D02*
X829232D01*
Y816240D02*
Y822539D01*
X809547Y816240D02*
Y822539D01*
X875098Y743996D02*
X894783D01*
X875098Y763681D02*
X894783D01*
X875098Y750689D02*
Y756988D01*
X894783Y750689D02*
Y756988D01*
X1006201Y612894D02*
X1025886D01*
X1006201Y632579D02*
X1025886D01*
X1006201Y619587D02*
Y625886D01*
X1025886Y619587D02*
Y625886D01*
X743996Y219587D02*
X763681D01*
X22933Y632579D02*
X42618D01*
X22933Y612894D02*
X42618D01*
Y685138D02*
Y691437D01*
X22933Y619587D02*
Y625886D01*
Y698130D02*
X42618D01*
X22933Y678445D02*
X42618D01*
Y554036D02*
Y560335D01*
X22933Y685138D02*
Y691437D01*
X88484Y809547D02*
X108169D01*
X88484Y816240D02*
Y822539D01*
X108169Y816240D02*
Y822539D01*
X22933Y809547D02*
X42618D01*
Y619587D02*
Y625886D01*
X22933Y829232D02*
X42618D01*
Y816240D02*
Y822539D01*
X88484Y829232D02*
X108169D01*
X22933Y816240D02*
Y822539D01*
Y554036D02*
Y560335D01*
X88484Y88484D02*
X108169D01*
X88484Y108169D02*
X108169D01*
X88484Y95177D02*
Y101476D01*
X108169Y95177D02*
Y101476D01*
X285138Y88484D02*
X304823D01*
X285138Y108169D02*
X304823D01*
X219586Y29626D02*
Y35925D01*
X239272Y29626D02*
Y35925D01*
X285138Y95177D02*
Y101476D01*
X304823Y95177D02*
Y101476D01*
X42618Y488484D02*
Y494783D01*
X22933Y567028D02*
X42618D01*
X22933Y488484D02*
Y494783D01*
Y547342D02*
X42618D01*
X22933Y481791D02*
X42618D01*
X22933Y501476D02*
X42618D01*
X88484Y750689D02*
Y756988D01*
X108169Y750689D02*
Y756988D01*
X42618Y750689D02*
Y756988D01*
X22933Y750689D02*
Y756988D01*
X88484Y743996D02*
X108169D01*
X88484Y763681D02*
X108169D01*
X88484Y416240D02*
X108169D01*
X22933Y350689D02*
X42618D01*
X22933Y370374D02*
X42618D01*
X88484Y422933D02*
Y429232D01*
X108169Y422933D02*
Y429232D01*
X88484Y350689D02*
X108169D01*
X88484Y370374D02*
X108169D01*
Y357382D02*
Y363681D01*
X88484Y435925D02*
X108169D01*
X88484Y357382D02*
Y363681D01*
Y554036D02*
Y560335D01*
Y612894D02*
X108169D01*
Y554036D02*
Y560335D01*
X88484Y632579D02*
X108169D01*
X88484Y501476D02*
X108169D01*
X88484Y481791D02*
X108169D01*
X88484Y567028D02*
X108169D01*
X88484Y547342D02*
X108169D01*
Y488484D02*
Y494783D01*
X88484Y488484D02*
Y494783D01*
Y685138D02*
Y691437D01*
X567028Y750689D02*
Y756988D01*
X678445Y816240D02*
Y822539D01*
X698130Y750689D02*
Y756988D01*
X678445Y743996D02*
X698130D01*
X612894Y750689D02*
Y756988D01*
X632579Y685138D02*
Y691437D01*
X678445Y763681D02*
X698130D01*
X567028Y685138D02*
Y691437D01*
X678445Y809547D02*
X698130D01*
X416240Y481791D02*
X435925D01*
X416240Y488484D02*
Y494783D01*
Y567028D02*
X435925D01*
X416240Y501476D02*
X435925D01*
X678445Y829232D02*
X698130D01*
Y816240D02*
Y822539D01*
X416240Y554036D02*
Y560335D01*
X547343Y750689D02*
Y756988D01*
Y698130D02*
X567028D01*
X501476Y685138D02*
Y691437D01*
X481791Y678445D02*
X501476D01*
X547343D02*
X567028D01*
X154035Y42618D02*
X173720D01*
X154035Y88484D02*
X173720D01*
X481791Y685138D02*
Y691437D01*
X173720Y95177D02*
Y101476D01*
X481791Y698130D02*
X501476D01*
X481791Y750689D02*
Y756988D01*
X547343Y743996D02*
X567028D01*
X547343Y685138D02*
Y691437D01*
Y763681D02*
X567028D01*
X481791D02*
X501476D01*
X481791Y743996D02*
X501476D01*
X632579Y750689D02*
Y756988D01*
X612894Y685138D02*
Y691437D01*
X547343Y22933D02*
X567028D01*
Y29626D02*
Y35925D01*
X612894Y743996D02*
X632579D01*
X481791Y22933D02*
X501476D01*
X219586Y619587D02*
Y625886D01*
X370374Y422933D02*
Y429232D01*
X481791Y42618D02*
X501476D01*
X239272Y619587D02*
Y625886D01*
X612894Y763681D02*
X632579D01*
X350689Y22933D02*
X370374D01*
X940650Y95177D02*
Y101476D01*
X894783Y95177D02*
Y101476D01*
X350689Y42618D02*
X370374D01*
X501476Y750689D02*
Y756988D01*
X547343Y29626D02*
Y35925D01*
X875098Y88484D02*
X894783D01*
X547343Y42618D02*
X567028D01*
X435925Y29626D02*
Y35925D01*
X481791Y29626D02*
Y35925D01*
X350689Y29626D02*
Y35925D01*
X416240Y29626D02*
Y35925D01*
X435925Y488484D02*
Y494783D01*
X678445Y750689D02*
Y756988D01*
X501476Y29626D02*
Y35925D01*
X416240Y547342D02*
X435925D01*
X370374Y29626D02*
Y35925D01*
X350689Y422933D02*
Y429232D01*
Y435925D02*
X370374D01*
X219586Y632579D02*
X239272D01*
X435925Y422933D02*
Y429232D01*
X416240Y22933D02*
X435925D01*
X416240Y42618D02*
X435925D01*
X350689Y416240D02*
X370374D01*
X219586Y612894D02*
X239272D01*
X42618Y226280D02*
Y232579D01*
X88484Y619587D02*
Y625886D01*
X108169Y685138D02*
Y691437D01*
X88484Y678445D02*
X108169D01*
X154035Y226280D02*
Y232579D01*
X239272Y226280D02*
Y232579D01*
X88484Y698130D02*
X108169D01*
X763681Y226280D02*
Y232579D01*
X22933Y743996D02*
X42618D01*
X1006201Y226280D02*
Y232579D01*
Y219587D02*
X1025886D01*
X108169Y226280D02*
Y232579D01*
X875098Y239272D02*
X894783D01*
X22933Y763681D02*
X42618D01*
X108169Y619587D02*
Y625886D01*
X875098Y219587D02*
X894783D01*
X22933Y226280D02*
Y232579D01*
X219586Y239272D02*
X239272D01*
X1006201D02*
X1025886D01*
X940650Y219587D02*
X960335D01*
X219586D02*
X239272D01*
X22933Y42618D02*
X42618D01*
X88484Y29626D02*
Y35925D01*
X940650Y226280D02*
Y232579D01*
X22933Y22933D02*
X42618D01*
X1025886Y226280D02*
Y232579D01*
X481791Y239272D02*
X501476D01*
X88484D02*
X108169D01*
X743996Y226280D02*
Y232579D01*
X173720Y226280D02*
Y232579D01*
X940650Y239272D02*
X960335D01*
Y226280D02*
Y232579D01*
X88484Y219587D02*
X108169D01*
X219586Y226280D02*
Y232579D01*
X154035Y29626D02*
Y35925D01*
X481791Y226280D02*
Y232579D01*
X154035Y239272D02*
X173720D01*
X219586Y108169D02*
X239272D01*
X22933Y29626D02*
Y35925D01*
X875098Y226280D02*
Y232579D01*
X154035Y22933D02*
X173720D01*
X22933Y108169D02*
X42618D01*
X481791Y219587D02*
X501476D01*
X219586Y42618D02*
X239272D01*
X154035Y95177D02*
Y101476D01*
Y108169D02*
X173720D01*
X304823Y29626D02*
Y35925D01*
X154035Y219587D02*
X173720D01*
X501476Y226280D02*
Y232579D01*
X285138Y29626D02*
Y35925D01*
X173720Y29626D02*
Y35925D01*
X88484Y42618D02*
X108169D01*
X219586Y95177D02*
Y101476D01*
Y88484D02*
X239272D01*
X88484Y22933D02*
X108169D01*
X22933Y219587D02*
X42618D01*
X88484Y226280D02*
Y232579D01*
X239272Y95177D02*
Y101476D01*
X22933Y239272D02*
X42618D01*
X219586Y22933D02*
X239272D01*
X108169Y29626D02*
Y35925D01*
X42618Y29626D02*
Y35925D01*
X22933Y88484D02*
X42618D01*
Y95177D02*
Y101476D01*
X285138Y22933D02*
X304823D01*
X285138Y42618D02*
X304823D01*
X22933Y95177D02*
Y101476D01*
X894783Y226280D02*
Y232579D01*
M02*
