G04*
G04 #@! TF.GenerationSoftware,Altium Limited,Altium Designer,24.3.1 (35)*
G04*
G04 Layer_Color=32768*
%FSLAX25Y25*%
%MOIN*%
G70*
G04*
G04 #@! TF.SameCoordinates,990AA879-4203-459C-8826-AB23A681A769*
G04*
G04*
G04 #@! TF.FilePolarity,Positive*
G04*
G01*
G75*
%ADD53C,0.00394*%
%ADD54C,0.00197*%
D53*
X555413Y506134D02*
X558957D01*
X557185Y504362D02*
Y507905D01*
X489862Y506134D02*
X493405D01*
X491634Y504362D02*
Y507905D01*
X424311Y506134D02*
X427854D01*
X426083Y504362D02*
Y507905D01*
X358760Y506134D02*
X362303D01*
X360531Y504362D02*
Y507905D01*
X424311Y899441D02*
X427854D01*
X426083Y897669D02*
Y901213D01*
X883169Y637236D02*
X886713D01*
X884941Y635465D02*
Y639008D01*
X227658Y506134D02*
X231201D01*
X229429Y504362D02*
Y507905D01*
X293209Y506134D02*
X296752D01*
X294980Y504362D02*
Y507905D01*
X358760Y899441D02*
X362303D01*
X360531Y897669D02*
Y901213D01*
X752067Y637236D02*
X755610D01*
X753839Y635465D02*
Y639008D01*
X752067Y833890D02*
X755610D01*
X753839Y832118D02*
Y835661D01*
X686516Y571685D02*
X690059D01*
X688287Y569913D02*
Y573457D01*
X620965Y571685D02*
X624508D01*
X622736Y569913D02*
Y573457D01*
X555413Y571685D02*
X558957D01*
X557185Y569913D02*
Y573457D01*
X489862Y571685D02*
X493405D01*
X491634Y569913D02*
Y573457D01*
X752067Y571685D02*
X755610D01*
X753839Y569913D02*
Y573457D01*
X555413Y899441D02*
X558957D01*
X557185Y897669D02*
Y901213D01*
X358760Y375031D02*
X362303D01*
X360531Y373260D02*
Y376803D01*
X358760Y440583D02*
X362303D01*
X360531Y438811D02*
Y442354D01*
X424311Y440583D02*
X427854D01*
X426083Y438811D02*
Y442354D01*
X162106Y375031D02*
X165650D01*
X163878Y373260D02*
Y376803D01*
X96555Y375031D02*
X100098D01*
X98327Y373260D02*
Y376803D01*
X1014272Y47276D02*
X1017815D01*
X1016043Y45504D02*
Y49047D01*
X489862Y440583D02*
X493405D01*
X491634Y438811D02*
Y442354D01*
X1014272Y112827D02*
X1017815D01*
X1016043Y111055D02*
Y114598D01*
X1014272Y178378D02*
X1017815D01*
X1016043Y176606D02*
Y180150D01*
X1014272Y243929D02*
X1017815D01*
X1016043Y242158D02*
Y245701D01*
X1014272Y309480D02*
X1017815D01*
X1016043Y307709D02*
Y311252D01*
X1014272Y375031D02*
X1017815D01*
X1016043Y373260D02*
Y376803D01*
X1014272Y440583D02*
X1017815D01*
X1016043Y438811D02*
Y442354D01*
X1014272Y506134D02*
X1017815D01*
X1016043Y504362D02*
Y507905D01*
X1014272Y571685D02*
X1017815D01*
X1016043Y569913D02*
Y573457D01*
X424311Y964992D02*
X427854D01*
X426083Y963221D02*
Y966764D01*
X227658Y702787D02*
X231201D01*
X229429Y701016D02*
Y704559D01*
X162106Y702787D02*
X165650D01*
X163878Y701016D02*
Y704559D01*
X162106Y899441D02*
X165650D01*
X163878Y897669D02*
Y901213D01*
X96555Y702787D02*
X100098D01*
X98327Y701016D02*
Y704559D01*
X293209Y768339D02*
X296752D01*
X294980Y766567D02*
Y770110D01*
X227658Y768339D02*
X231201D01*
X229429Y766567D02*
Y770110D01*
X96555Y768339D02*
X100098D01*
X98327Y766567D02*
Y770110D01*
X883169Y1030543D02*
X886713D01*
X884941Y1028772D02*
Y1032315D01*
X883169Y964992D02*
X886713D01*
X884941Y963221D02*
Y966764D01*
X948720Y1030543D02*
X952264D01*
X950492Y1028772D02*
Y1032315D01*
X96555Y833890D02*
X100098D01*
X98327Y832118D02*
Y835661D01*
X752067Y1030543D02*
X755610D01*
X753839Y1028772D02*
Y1032315D01*
X948720Y964992D02*
X952264D01*
X950492Y963221D02*
Y966764D01*
X817618Y1030543D02*
X821161D01*
X819390Y1028772D02*
Y1032315D01*
X293209Y1030543D02*
X296752D01*
X294980Y1028772D02*
Y1032315D01*
X293209Y899441D02*
X296752D01*
X294980Y897669D02*
Y901213D01*
X686516Y637236D02*
X690059D01*
X688287Y635465D02*
Y639008D01*
X620965Y637236D02*
X624508D01*
X622736Y635465D02*
Y639008D01*
X555413Y637236D02*
X558957D01*
X557185Y635465D02*
Y639008D01*
X489862Y637236D02*
X493405D01*
X491634Y635465D02*
Y639008D01*
X293209Y637236D02*
X296752D01*
X294980Y635465D02*
Y639008D01*
X227658Y637236D02*
X231201D01*
X229429Y635465D02*
Y639008D01*
X358760Y637236D02*
X362303D01*
X360531Y635465D02*
Y639008D01*
X227658Y899441D02*
X231201D01*
X229429Y897669D02*
Y901213D01*
X555413Y702787D02*
X558957D01*
X557185Y701016D02*
Y704559D01*
X555413Y768339D02*
X558957D01*
X557185Y766567D02*
Y770110D01*
X555413Y833890D02*
X558957D01*
X557185Y832118D02*
Y835661D01*
X358760Y702787D02*
X362303D01*
X360531Y701016D02*
Y704559D01*
X489862Y768339D02*
X493405D01*
X491634Y766567D02*
Y770110D01*
X489862Y702787D02*
X493405D01*
X491634Y701016D02*
Y704559D01*
X424311Y702787D02*
X427854D01*
X426083Y701016D02*
Y704559D01*
X620965Y47276D02*
X624508D01*
X622736Y45504D02*
Y49047D01*
X686516Y47276D02*
X690059D01*
X688287Y45504D02*
Y49047D01*
X948720Y637236D02*
X952264D01*
X950492Y635465D02*
Y639008D01*
X752067Y47276D02*
X755610D01*
X753839Y45504D02*
Y49047D01*
X817618Y47276D02*
X821161D01*
X819390Y45504D02*
Y49047D01*
X883169Y47276D02*
X886713D01*
X884941Y45504D02*
Y49047D01*
X555413Y47276D02*
X558957D01*
X557185Y45504D02*
Y49047D01*
X948720Y47276D02*
X952264D01*
X950492Y45504D02*
Y49047D01*
X883169Y506134D02*
X886713D01*
X884941Y504362D02*
Y507905D01*
X948720Y506134D02*
X952264D01*
X950492Y504362D02*
Y507905D01*
X752067Y440583D02*
X755610D01*
X753839Y438811D02*
Y442354D01*
X948720Y571685D02*
X952264D01*
X950492Y569913D02*
Y573457D01*
X948720Y702787D02*
X952264D01*
X950492Y701016D02*
Y704559D01*
X948720Y768339D02*
X952264D01*
X950492Y766567D02*
Y770110D01*
X948720Y833890D02*
X952264D01*
X950492Y832118D02*
Y835661D01*
X948720Y899441D02*
X952264D01*
X950492Y897669D02*
Y901213D01*
X358760Y1030543D02*
X362303D01*
X360531Y1028772D02*
Y1032315D01*
X227658Y1030543D02*
X231201D01*
X229429Y1028772D02*
Y1032315D01*
X162106Y964992D02*
X165650D01*
X163878Y963221D02*
Y966764D01*
X162106Y1030543D02*
X165650D01*
X163878Y1028772D02*
Y1032315D01*
X96555Y1030543D02*
X100098D01*
X98327Y1028772D02*
Y1032315D01*
X227658Y964992D02*
X231201D01*
X229429Y963221D02*
Y966764D01*
X31004Y1030543D02*
X34547D01*
X32776Y1028772D02*
Y1032315D01*
X96555Y964992D02*
X100098D01*
X98327Y963221D02*
Y966764D01*
X31004Y47276D02*
X34547D01*
X32776Y45504D02*
Y49047D01*
X31004Y964992D02*
X34547D01*
X32776Y963221D02*
Y966764D01*
X31004Y178378D02*
X34547D01*
X32776Y176606D02*
Y180150D01*
X31004Y243929D02*
X34547D01*
X32776Y242158D02*
Y245701D01*
X31004Y309480D02*
X34547D01*
X32776Y307709D02*
Y311252D01*
X31004Y702787D02*
X34547D01*
X32776Y701016D02*
Y704559D01*
X31004Y375031D02*
X34547D01*
X32776Y373260D02*
Y376803D01*
X31004Y440583D02*
X34547D01*
X32776Y438811D02*
Y442354D01*
X227658Y243929D02*
X231201D01*
X229429Y242158D02*
Y245701D01*
X162106Y243929D02*
X165650D01*
X163878Y242158D02*
Y245701D01*
X424311Y309480D02*
X427854D01*
X426083Y307709D02*
Y311252D01*
X227658Y309480D02*
X231201D01*
X229429Y307709D02*
Y311252D01*
X358760Y178378D02*
X362303D01*
X360531Y176606D02*
Y180150D01*
X96555Y243929D02*
X100098D01*
X98327Y242158D02*
Y245701D01*
X162106Y309480D02*
X165650D01*
X163878Y307709D02*
Y311252D01*
X227658Y178378D02*
X231201D01*
X229429Y176606D02*
Y180150D01*
X96555Y112827D02*
X100098D01*
X98327Y111055D02*
Y114598D01*
X489862Y243929D02*
X493405D01*
X491634Y242158D02*
Y245701D01*
X227658Y112827D02*
X231201D01*
X229429Y111055D02*
Y114598D01*
X555413Y375031D02*
X558957D01*
X557185Y373260D02*
Y376803D01*
X489862Y375031D02*
X493405D01*
X491634Y373260D02*
Y376803D01*
X489862Y309480D02*
X493405D01*
X491634Y307709D02*
Y311252D01*
X424311Y375031D02*
X427854D01*
X426083Y373260D02*
Y376803D01*
X424311Y243929D02*
X427854D01*
X426083Y242158D02*
Y245701D01*
X752067Y112827D02*
X755610D01*
X753839Y111055D02*
Y114598D01*
X817618Y178378D02*
X821161D01*
X819390Y176606D02*
Y180150D01*
X555413Y309480D02*
X558957D01*
X557185Y307709D02*
Y311252D01*
X817618Y112827D02*
X821161D01*
X819390Y111055D02*
Y114598D01*
X883169Y112827D02*
X886713D01*
X884941Y111055D02*
Y114598D01*
X948720Y112827D02*
X952264D01*
X950492Y111055D02*
Y114598D01*
X948720Y178378D02*
X952264D01*
X950492Y176606D02*
Y180150D01*
X948720Y243929D02*
X952264D01*
X950492Y242158D02*
Y245701D01*
X620965Y112827D02*
X624508D01*
X622736Y111055D02*
Y114598D01*
X883169Y309480D02*
X886713D01*
X884941Y307709D02*
Y311252D01*
X686516Y899441D02*
X690059D01*
X688287Y897669D02*
Y901213D01*
X620965Y178378D02*
X624508D01*
X622736Y176606D02*
Y180150D01*
X620965Y243929D02*
X624508D01*
X622736Y242158D02*
Y245701D01*
X752067Y178378D02*
X755610D01*
X753839Y176606D02*
Y180150D01*
X752067Y243929D02*
X755610D01*
X753839Y242158D02*
Y245701D01*
X752067Y899441D02*
X755610D01*
X753839Y897669D02*
Y901213D01*
X424311Y571685D02*
X427854D01*
X426083Y569913D02*
Y573457D01*
X358760Y571685D02*
X362303D01*
X360531Y569913D02*
Y573457D01*
X293209Y571685D02*
X296752D01*
X294980Y569913D02*
Y573457D01*
X227658Y571685D02*
X231201D01*
X229429Y569913D02*
Y573457D01*
X96555Y637236D02*
X100098D01*
X98327Y635465D02*
Y639008D01*
X752067Y702787D02*
X755610D01*
X753839Y701016D02*
Y704559D01*
X752067Y768339D02*
X755610D01*
X753839Y766567D02*
Y770110D01*
X817618Y833890D02*
X821161D01*
X819390Y832118D02*
Y835661D01*
X424311Y637236D02*
X427854D01*
X426083Y635465D02*
Y639008D01*
X162106Y637236D02*
X165650D01*
X163878Y635465D02*
Y639008D01*
X686516Y702787D02*
X690059D01*
X688287Y701016D02*
Y704559D01*
X686516Y768339D02*
X690059D01*
X688287Y766567D02*
Y770110D01*
X686516Y833890D02*
X690059D01*
X688287Y832118D02*
Y835661D01*
X620965Y702787D02*
X624508D01*
X622736Y701016D02*
Y704559D01*
X620965Y768339D02*
X624508D01*
X622736Y766567D02*
Y770110D01*
X620965Y833890D02*
X624508D01*
X622736Y832118D02*
Y835661D01*
X1014272Y637236D02*
X1017815D01*
X1016043Y635465D02*
Y639008D01*
X489862Y899441D02*
X493405D01*
X491634Y897669D02*
Y901213D01*
X1014272Y702787D02*
X1017815D01*
X1016043Y701016D02*
Y704559D01*
X1014272Y768339D02*
X1017815D01*
X1016043Y766567D02*
Y770110D01*
X1014272Y833890D02*
X1017815D01*
X1016043Y832118D02*
Y835661D01*
X1014272Y899441D02*
X1017815D01*
X1016043Y897669D02*
Y901213D01*
X1014272Y964992D02*
X1017815D01*
X1016043Y963221D02*
Y966764D01*
X1014272Y1030543D02*
X1017815D01*
X1016043Y1028772D02*
Y1032315D01*
X883169Y768339D02*
X886713D01*
X884941Y766567D02*
Y770110D01*
X883169Y833890D02*
X886713D01*
X884941Y832118D02*
Y835661D01*
X817618Y571685D02*
X821161D01*
X819390Y569913D02*
Y573457D01*
X817618Y637236D02*
X821161D01*
X819390Y635465D02*
Y639008D01*
X817618Y702787D02*
X821161D01*
X819390Y701016D02*
Y704559D01*
X817618Y768339D02*
X821161D01*
X819390Y766567D02*
Y770110D01*
X883169Y571685D02*
X886713D01*
X884941Y569913D02*
Y573457D01*
X883169Y702787D02*
X886713D01*
X884941Y701016D02*
Y704559D01*
X620965Y1030543D02*
X624508D01*
X622736Y1028772D02*
Y1032315D01*
X686516Y1030543D02*
X690059D01*
X688287Y1028772D02*
Y1032315D01*
X555413Y1030543D02*
X558957D01*
X557185Y1028772D02*
Y1032315D01*
X489862Y1030543D02*
X493405D01*
X491634Y1028772D02*
Y1032315D01*
X424311Y1030543D02*
X427854D01*
X426083Y1028772D02*
Y1032315D01*
X358760Y964992D02*
X362303D01*
X360531Y963221D02*
Y966764D01*
X96555Y899441D02*
X100098D01*
X98327Y897669D02*
Y901213D01*
X293209Y964992D02*
X296752D01*
X294980Y963221D02*
Y966764D01*
X31004Y506134D02*
X34547D01*
X32776Y504362D02*
Y507905D01*
X31004Y637236D02*
X34547D01*
X32776Y635465D02*
Y639008D01*
X31004Y571685D02*
X34547D01*
X32776Y569913D02*
Y573457D01*
X883169Y375031D02*
X886713D01*
X884941Y373260D02*
Y376803D01*
X686516Y375031D02*
X690059D01*
X688287Y373260D02*
Y376803D01*
X752067Y375031D02*
X755610D01*
X753839Y373260D02*
Y376803D01*
X620965Y375031D02*
X624508D01*
X622736Y373260D02*
Y376803D01*
X162106Y506134D02*
X165650D01*
X163878Y504362D02*
Y507905D01*
X424311Y768339D02*
X427854D01*
X426083Y766567D02*
Y770110D01*
X358760Y768339D02*
X362303D01*
X360531Y766567D02*
Y770110D01*
X489862Y833890D02*
X493405D01*
X491634Y832118D02*
Y835661D01*
X424311Y833890D02*
X427854D01*
X426083Y832118D02*
Y835661D01*
X358760Y833890D02*
X362303D01*
X360531Y832118D02*
Y835661D01*
X293209Y702787D02*
X296752D01*
X294980Y701016D02*
Y704559D01*
X293209Y833890D02*
X296752D01*
X294980Y832118D02*
Y835661D01*
X227658Y833890D02*
X231201D01*
X229429Y832118D02*
Y835661D01*
X162106Y768339D02*
X165650D01*
X163878Y766567D02*
Y770110D01*
X162106Y833890D02*
X165650D01*
X163878Y832118D02*
Y835661D01*
X817618Y964992D02*
X821161D01*
X819390Y963221D02*
Y966764D01*
X752067Y964992D02*
X755610D01*
X753839Y963221D02*
Y966764D01*
X686516Y964992D02*
X690059D01*
X688287Y963221D02*
Y966764D01*
X620965Y964992D02*
X624508D01*
X622736Y963221D02*
Y966764D01*
X555413Y964992D02*
X558957D01*
X557185Y963221D02*
Y966764D01*
X489862Y964992D02*
X493405D01*
X491634Y963221D02*
Y966764D01*
X817618Y506134D02*
X821161D01*
X819390Y504362D02*
Y507905D01*
X817618Y440583D02*
X821161D01*
X819390Y438811D02*
Y442354D01*
X948720Y309480D02*
X952264D01*
X950492Y307709D02*
Y311252D01*
X883169Y440583D02*
X886713D01*
X884941Y438811D02*
Y442354D01*
X948720Y440583D02*
X952264D01*
X950492Y438811D02*
Y442354D01*
X620965Y506134D02*
X624508D01*
X622736Y504362D02*
Y507905D01*
X686516Y506134D02*
X690059D01*
X688287Y504362D02*
Y507905D01*
X752067Y506134D02*
X755610D01*
X753839Y504362D02*
Y507905D01*
X948720Y375031D02*
X952264D01*
X950492Y373260D02*
Y376803D01*
X817618Y375031D02*
X821161D01*
X819390Y373260D02*
Y376803D01*
X883169Y178378D02*
X886713D01*
X884941Y176606D02*
Y180150D01*
X555413Y178378D02*
X558957D01*
X557185Y176606D02*
Y180150D01*
X686516Y440583D02*
X690059D01*
X688287Y438811D02*
Y442354D01*
X817618Y899441D02*
X821161D01*
X819390Y897669D02*
Y901213D01*
X883169Y243929D02*
X886713D01*
X884941Y242158D02*
Y245701D01*
X817618Y243929D02*
X821161D01*
X819390Y242158D02*
Y245701D01*
X31004Y112827D02*
X34547D01*
X32776Y111055D02*
Y114598D01*
X31004Y768339D02*
X34547D01*
X32776Y766567D02*
Y770110D01*
X31004Y833890D02*
X34547D01*
X32776Y832118D02*
Y835661D01*
X31004Y899441D02*
X34547D01*
X32776Y897669D02*
Y901213D01*
X96555Y571685D02*
X100098D01*
X98327Y569913D02*
Y573457D01*
X162106Y571685D02*
X165650D01*
X163878Y569913D02*
Y573457D01*
X96555Y506134D02*
X100098D01*
X98327Y504362D02*
Y507905D01*
X96555Y440583D02*
X100098D01*
X98327Y438811D02*
Y442354D01*
X489862Y47276D02*
X493405D01*
X491634Y45504D02*
Y49047D01*
X96555Y47276D02*
X100098D01*
X98327Y45504D02*
Y49047D01*
X883169Y899441D02*
X886713D01*
X884941Y897669D02*
Y901213D01*
X162106Y47276D02*
X165650D01*
X163878Y45504D02*
Y49047D01*
X227658Y47276D02*
X231201D01*
X229429Y45504D02*
Y49047D01*
X293209Y47276D02*
X296752D01*
X294980Y45504D02*
Y49047D01*
X358760Y47276D02*
X362303D01*
X360531Y45504D02*
Y49047D01*
X424311Y47276D02*
X427854D01*
X426083Y45504D02*
Y49047D01*
X162106Y112827D02*
X165650D01*
X163878Y111055D02*
Y114598D01*
X489862Y178378D02*
X493405D01*
X491634Y176606D02*
Y180150D01*
X424311Y178378D02*
X427854D01*
X426083Y176606D02*
Y180150D01*
X293209Y112827D02*
X296752D01*
X294980Y111055D02*
Y114598D01*
X489862Y112827D02*
X493405D01*
X491634Y111055D02*
Y114598D01*
X424311Y112827D02*
X427854D01*
X426083Y111055D02*
Y114598D01*
X358760Y112827D02*
X362303D01*
X360531Y111055D02*
Y114598D01*
X620965Y899441D02*
X624508D01*
X622736Y897669D02*
Y901213D01*
X555413Y112827D02*
X558957D01*
X557185Y111055D02*
Y114598D01*
X555413Y440583D02*
X558957D01*
X557185Y438811D02*
Y442354D01*
X620965Y440583D02*
X624508D01*
X622736Y438811D02*
Y442354D01*
X293209Y375031D02*
X296752D01*
X294980Y373260D02*
Y376803D01*
X293209Y440583D02*
X296752D01*
X294980Y438811D02*
Y442354D01*
X227658Y375031D02*
X231201D01*
X229429Y373260D02*
Y376803D01*
X227658Y440583D02*
X231201D01*
X229429Y438811D02*
Y442354D01*
X162106Y440583D02*
X165650D01*
X163878Y438811D02*
Y442354D01*
X686516Y112827D02*
X690059D01*
X688287Y111055D02*
Y114598D01*
X686516Y178378D02*
X690059D01*
X688287Y176606D02*
Y180150D01*
X162106Y178378D02*
X165650D01*
X163878Y176606D02*
Y180150D01*
X686516Y243929D02*
X690059D01*
X688287Y242158D02*
Y245701D01*
X686516Y309480D02*
X690059D01*
X688287Y307709D02*
Y311252D01*
X620965Y309480D02*
X624508D01*
X622736Y307709D02*
Y311252D01*
X555413Y243929D02*
X558957D01*
X557185Y242158D02*
Y245701D01*
X752067Y309480D02*
X755610D01*
X753839Y307709D02*
Y311252D01*
X358760Y243929D02*
X362303D01*
X360531Y242158D02*
Y245701D01*
X96555Y178378D02*
X100098D01*
X98327Y176606D02*
Y180150D01*
X358760Y309480D02*
X362303D01*
X360531Y307709D02*
Y311252D01*
X293209Y243929D02*
X296752D01*
X294980Y242158D02*
Y245701D01*
X293209Y178378D02*
X296752D01*
X294980Y176606D02*
Y180150D01*
X293209Y309480D02*
X296752D01*
X294980Y307709D02*
Y311252D01*
X96555Y309480D02*
X100098D01*
X98327Y307709D02*
Y311252D01*
X817618Y309480D02*
X821161D01*
X819390Y307709D02*
Y311252D01*
X686319Y1016043D02*
X690256D01*
X688287Y1014075D02*
Y1018012D01*
X555217Y1016043D02*
X559154D01*
X557185Y1014075D02*
Y1018012D01*
X620768Y1016043D02*
X624705D01*
X622736Y1014075D02*
Y1018012D01*
X686319Y950492D02*
X690256D01*
X688287Y948524D02*
Y952461D01*
X620768Y950492D02*
X624705D01*
X622736Y948524D02*
Y952461D01*
X555217Y950492D02*
X559154D01*
X557185Y948524D02*
Y952461D01*
X1014075Y950492D02*
X1018012D01*
X1016043Y948524D02*
Y952461D01*
X948524Y950492D02*
X952461D01*
X950492Y948524D02*
Y952461D01*
X1014075Y1016043D02*
X1018012D01*
X1016043Y1014075D02*
Y1018012D01*
X948524Y1016043D02*
X952461D01*
X950492Y1014075D02*
Y1018012D01*
X882972Y950492D02*
X886909D01*
X884941Y948524D02*
Y952461D01*
X817421Y950492D02*
X821358D01*
X819390Y948524D02*
Y952461D01*
X751870Y950492D02*
X755807D01*
X753838Y948524D02*
Y952461D01*
X751870Y1016043D02*
X755807D01*
X753838Y1014075D02*
Y1018012D01*
X882972Y1016043D02*
X886909D01*
X884941Y1014075D02*
Y1018012D01*
X817421Y1016043D02*
X821358D01*
X819390Y1014075D02*
Y1018012D01*
X30807Y1016043D02*
X34744D01*
X32776Y1014075D02*
Y1018012D01*
X30807Y950492D02*
X34744D01*
X32776Y948524D02*
Y952461D01*
X161909Y1016043D02*
X165846D01*
X163878Y1014075D02*
Y1018012D01*
X227461Y1016043D02*
X231398D01*
X229429Y1014075D02*
Y1018012D01*
X293012Y1016043D02*
X296949D01*
X294980Y1014075D02*
Y1018012D01*
X424114Y1016043D02*
X428051D01*
X426083Y1014075D02*
Y1018012D01*
X489665Y1016043D02*
X493602D01*
X491634Y1014075D02*
Y1018012D01*
X358563Y1016043D02*
X362500D01*
X360532Y1014075D02*
Y1018012D01*
X489665Y950492D02*
X493602D01*
X491634Y948524D02*
Y952461D01*
X424114Y950492D02*
X428051D01*
X426083Y948524D02*
Y952461D01*
X358563Y950492D02*
X362500D01*
X360532Y948524D02*
Y952461D01*
X293012Y950492D02*
X296949D01*
X294980Y948524D02*
Y952461D01*
X227461Y950492D02*
X231398D01*
X229429Y948524D02*
Y952461D01*
X161909Y950492D02*
X165846D01*
X163878Y948524D02*
Y952461D01*
X96358Y1016043D02*
X100295D01*
X98327Y1014075D02*
Y1018012D01*
X96358Y950492D02*
X100295D01*
X98327Y948524D02*
Y952461D01*
X424114Y884941D02*
X428051D01*
X426083Y882973D02*
Y886909D01*
X358563Y884941D02*
X362500D01*
X360532Y882973D02*
Y886909D01*
X948524Y884941D02*
X952461D01*
X950492Y882973D02*
Y886909D01*
X882972Y884941D02*
X886909D01*
X884941Y882973D02*
Y886909D01*
X293012Y884941D02*
X296949D01*
X294980Y882973D02*
Y886909D01*
X227461Y884941D02*
X231398D01*
X229429Y882973D02*
Y886909D01*
X96358Y884941D02*
X100295D01*
X98327Y882973D02*
Y886909D01*
X161909Y884941D02*
X165846D01*
X163878Y882973D02*
Y886909D01*
X686319Y884941D02*
X690256D01*
X688287Y882973D02*
Y886909D01*
X620768Y884941D02*
X624705D01*
X622736Y882973D02*
Y886909D01*
X817421Y884941D02*
X821358D01*
X819390Y882973D02*
Y886909D01*
X751870Y884941D02*
X755807D01*
X753838Y882973D02*
Y886909D01*
X489665Y884941D02*
X493602D01*
X491634Y882973D02*
Y886909D01*
X555217Y884941D02*
X559154D01*
X557185Y882973D02*
Y886909D01*
X30807Y884941D02*
X34744D01*
X32776Y882973D02*
Y886909D01*
X1014075Y884941D02*
X1018012D01*
X1016043Y882973D02*
Y886909D01*
X30807Y163878D02*
X34744D01*
X32776Y161909D02*
Y165847D01*
X161909Y163878D02*
X165846D01*
X163878Y161909D02*
Y165847D01*
X293012Y163878D02*
X296949D01*
X294980Y161909D02*
Y165847D01*
X358563Y163878D02*
X362500D01*
X360532Y161909D02*
Y165847D01*
X227461Y163878D02*
X231398D01*
X229429Y161909D02*
Y165847D01*
X96358Y163878D02*
X100295D01*
X98327Y161909D02*
Y165847D01*
X555217Y360531D02*
X559154D01*
X557185Y358563D02*
Y362500D01*
X620768Y360531D02*
X624705D01*
X622736Y358563D02*
Y362500D01*
X489665Y360531D02*
X493602D01*
X491634Y358563D02*
Y362500D01*
X817421Y98327D02*
X821358D01*
X819390Y96358D02*
Y100295D01*
X686319Y98327D02*
X690256D01*
X688287Y96358D02*
Y100295D01*
X751870Y98327D02*
X755807D01*
X753838Y96358D02*
Y100295D01*
X620768Y98327D02*
X624705D01*
X622736Y96358D02*
Y100295D01*
X686319Y360531D02*
X690256D01*
X688287Y358563D02*
Y362500D01*
X751870Y360531D02*
X755807D01*
X753838Y358563D02*
Y362500D01*
X817421Y360531D02*
X821358D01*
X819390Y358563D02*
Y362500D01*
X751870Y426083D02*
X755807D01*
X753838Y424114D02*
Y428051D01*
X555217Y426083D02*
X559154D01*
X557185Y424114D02*
Y428051D01*
X489665Y426083D02*
X493602D01*
X491634Y424114D02*
Y428051D01*
X620768Y426083D02*
X624705D01*
X622736Y424114D02*
Y428051D01*
X686319Y426083D02*
X690256D01*
X688287Y424114D02*
Y428051D01*
X817421Y426083D02*
X821358D01*
X819390Y424114D02*
Y428051D01*
X555217Y98327D02*
X559154D01*
X557185Y96358D02*
Y100295D01*
X555217Y491634D02*
X559154D01*
X557185Y489665D02*
Y493602D01*
X489665Y491634D02*
X493602D01*
X491634Y489665D02*
Y493602D01*
X489665Y622736D02*
X493602D01*
X491634Y620768D02*
Y624705D01*
X555217Y622736D02*
X559154D01*
X557185Y620768D02*
Y624705D01*
X620768Y622736D02*
X624705D01*
X622736Y620768D02*
Y624705D01*
X751870Y491634D02*
X755807D01*
X753838Y489665D02*
Y493602D01*
X686319Y491634D02*
X690256D01*
X688287Y489665D02*
Y493602D01*
X620768Y491634D02*
X624705D01*
X622736Y489665D02*
Y493602D01*
X751870Y622736D02*
X755807D01*
X753838Y620768D02*
Y624705D01*
X686319Y622736D02*
X690256D01*
X688287Y620768D02*
Y624705D01*
X817421Y622736D02*
X821358D01*
X819390Y620768D02*
Y624705D01*
X751870Y557185D02*
X755807D01*
X753838Y555216D02*
Y559153D01*
X817421Y557185D02*
X821358D01*
X819390Y555216D02*
Y559153D01*
X555217Y557185D02*
X559154D01*
X557185Y555216D02*
Y559153D01*
X686319Y557185D02*
X690256D01*
X688287Y555216D02*
Y559153D01*
X620768Y557185D02*
X624705D01*
X622736Y555216D02*
Y559153D01*
X489665Y557185D02*
X493602D01*
X491634Y555216D02*
Y559153D01*
X751870Y294980D02*
X755807D01*
X753838Y293012D02*
Y296949D01*
X817421Y294980D02*
X821358D01*
X819390Y293012D02*
Y296949D01*
X686319Y294980D02*
X690256D01*
X688287Y293012D02*
Y296949D01*
X620768Y294980D02*
X624705D01*
X622736Y293012D02*
Y296949D01*
X1014075Y294980D02*
X1018012D01*
X1016043Y293012D02*
Y296949D01*
X555217Y294980D02*
X559154D01*
X557185Y293012D02*
Y296949D01*
X948524Y294980D02*
X952461D01*
X950492Y293012D02*
Y296949D01*
X882972Y294980D02*
X886909D01*
X884941Y293012D02*
Y296949D01*
X489665Y294980D02*
X493602D01*
X491634Y293012D02*
Y296949D01*
X424114Y294980D02*
X428051D01*
X426083Y293012D02*
Y296949D01*
X358563Y294980D02*
X362500D01*
X360532Y293012D02*
Y296949D01*
X30807Y294980D02*
X34744D01*
X32776Y293012D02*
Y296949D01*
X96358Y294980D02*
X100295D01*
X98327Y293012D02*
Y296949D01*
X227461Y294980D02*
X231398D01*
X229429Y293012D02*
Y296949D01*
X161909Y294980D02*
X165846D01*
X163878Y293012D02*
Y296949D01*
X293012Y294980D02*
X296949D01*
X294980Y293012D02*
Y296949D01*
X161909Y819390D02*
X165846D01*
X163878Y817421D02*
Y821358D01*
X161909Y688287D02*
X165846D01*
X163878Y686319D02*
Y690256D01*
X161909Y753839D02*
X165846D01*
X163878Y751870D02*
Y755807D01*
X293012Y688287D02*
X296949D01*
X294980Y686319D02*
Y690256D01*
X293012Y753839D02*
X296949D01*
X294980Y751870D02*
Y755807D01*
X293012Y819390D02*
X296949D01*
X294980Y817421D02*
Y821358D01*
X227461Y819390D02*
X231398D01*
X229429Y817421D02*
Y821358D01*
X227461Y753839D02*
X231398D01*
X229429Y751870D02*
Y755807D01*
X358563Y819390D02*
X362500D01*
X360532Y817421D02*
Y821358D01*
X358563Y688287D02*
X362500D01*
X360532Y686319D02*
Y690256D01*
X358563Y753839D02*
X362500D01*
X360532Y751870D02*
Y755807D01*
X424114Y819390D02*
X428051D01*
X426083Y817421D02*
Y821358D01*
X424114Y688287D02*
X428051D01*
X426083Y686319D02*
Y690256D01*
X424114Y753839D02*
X428051D01*
X426083Y751870D02*
Y755807D01*
X620768Y819390D02*
X624705D01*
X622736Y817421D02*
Y821358D01*
X555217Y819390D02*
X559154D01*
X557185Y817421D02*
Y821358D01*
X489665Y819390D02*
X493602D01*
X491634Y817421D02*
Y821358D01*
X620768Y163878D02*
X624705D01*
X622736Y161909D02*
Y165847D01*
X686319Y163878D02*
X690256D01*
X688287Y161909D02*
Y165847D01*
X555217Y163878D02*
X559154D01*
X557185Y161909D02*
Y165847D01*
X489665Y163878D02*
X493602D01*
X491634Y161909D02*
Y165847D01*
X424114Y163878D02*
X428051D01*
X426083Y161909D02*
Y165847D01*
X817421Y163878D02*
X821358D01*
X819390Y161909D02*
Y165847D01*
X882972Y163878D02*
X886909D01*
X884941Y161909D02*
Y165847D01*
X948524Y163878D02*
X952461D01*
X950492Y161909D02*
Y165847D01*
X1014075Y163878D02*
X1018012D01*
X1016043Y161909D02*
Y165847D01*
X751870Y163878D02*
X755807D01*
X753838Y161909D02*
Y165847D01*
X1014075Y819390D02*
X1018012D01*
X1016043Y817421D02*
Y821358D01*
X1014075Y688287D02*
X1018012D01*
X1016043Y686319D02*
Y690256D01*
X1014075Y753839D02*
X1018012D01*
X1016043Y751870D02*
Y755807D01*
X948524Y688287D02*
X952461D01*
X950492Y686319D02*
Y690256D01*
X882972Y688287D02*
X886909D01*
X884941Y686319D02*
Y690256D01*
X817421Y753839D02*
X821358D01*
X819390Y751870D02*
Y755807D01*
X948524Y819390D02*
X952461D01*
X950492Y817421D02*
Y821358D01*
X948524Y753839D02*
X952461D01*
X950492Y751870D02*
Y755807D01*
X882972Y819390D02*
X886909D01*
X884941Y817421D02*
Y821358D01*
X882972Y753839D02*
X886909D01*
X884941Y751870D02*
Y755807D01*
X817421Y819390D02*
X821358D01*
X819390Y817421D02*
Y821358D01*
X1014075Y622736D02*
X1018012D01*
X1016043Y620768D02*
Y624705D01*
X948524Y557185D02*
X952461D01*
X950492Y555216D02*
Y559153D01*
X882972Y557185D02*
X886909D01*
X884941Y555216D02*
Y559153D01*
X1014075Y557185D02*
X1018012D01*
X1016043Y555216D02*
Y559153D01*
X948524Y622736D02*
X952461D01*
X950492Y620768D02*
Y624705D01*
X882972Y622736D02*
X886909D01*
X884941Y620768D02*
Y624705D01*
X948524Y426083D02*
X952461D01*
X950492Y424114D02*
Y428051D01*
X948524Y491634D02*
X952461D01*
X950492Y489665D02*
Y493602D01*
X882972Y426083D02*
X886909D01*
X884941Y424114D02*
Y428051D01*
X882972Y491634D02*
X886909D01*
X884941Y489665D02*
Y493602D01*
X1014075Y491634D02*
X1018012D01*
X1016043Y489665D02*
Y493602D01*
X882972Y360531D02*
X886909D01*
X884941Y358563D02*
Y362500D01*
X817421Y491634D02*
X821358D01*
X819390Y489665D02*
Y493602D01*
X1014075Y360531D02*
X1018012D01*
X1016043Y358563D02*
Y362500D01*
X1014075Y426083D02*
X1018012D01*
X1016043Y424114D02*
Y428051D01*
X948524Y360531D02*
X952461D01*
X950492Y358563D02*
Y362500D01*
X293012Y229429D02*
X296949D01*
X294980Y227461D02*
Y231398D01*
X358563Y229429D02*
X362500D01*
X360532Y227461D02*
Y231398D01*
X424114Y229429D02*
X428051D01*
X426083Y227461D02*
Y231398D01*
X555217Y229429D02*
X559154D01*
X557185Y227461D02*
Y231398D01*
X620768Y229429D02*
X624705D01*
X622736Y227461D02*
Y231398D01*
X817421Y229429D02*
X821358D01*
X819390Y227461D02*
Y231398D01*
X686319Y229429D02*
X690256D01*
X688287Y227461D02*
Y231398D01*
X751870Y229429D02*
X755807D01*
X753838Y227461D02*
Y231398D01*
X227461Y229429D02*
X231398D01*
X229429Y227461D02*
Y231398D01*
X489665Y229429D02*
X493602D01*
X491634Y227461D02*
Y231398D01*
X161909Y229429D02*
X165846D01*
X163878Y227461D02*
Y231398D01*
X96358Y229429D02*
X100295D01*
X98327Y227461D02*
Y231398D01*
X30807Y229429D02*
X34744D01*
X32776Y227461D02*
Y231398D01*
X948524Y229429D02*
X952461D01*
X950492Y227461D02*
Y231398D01*
X1014075Y229429D02*
X1018012D01*
X1016043Y227461D02*
Y231398D01*
X882972Y229429D02*
X886909D01*
X884941Y227461D02*
Y231398D01*
X96358Y32776D02*
X100295D01*
X98327Y30807D02*
Y34744D01*
X30807Y32776D02*
X34744D01*
X32776Y30807D02*
Y34744D01*
X30807Y98327D02*
X34744D01*
X32776Y96358D02*
Y100295D01*
X161909Y98327D02*
X165846D01*
X163878Y96358D02*
Y100295D01*
X161909Y32776D02*
X165846D01*
X163878Y30807D02*
Y34744D01*
X227461Y98327D02*
X231398D01*
X229429Y96358D02*
Y100295D01*
X293012Y32776D02*
X296949D01*
X294980Y30807D02*
Y34744D01*
X227461Y32776D02*
X231398D01*
X229429Y30807D02*
Y34744D01*
X293012Y98327D02*
X296949D01*
X294980Y96358D02*
Y100295D01*
X96358Y98327D02*
X100295D01*
X98327Y96358D02*
Y100295D01*
X30807Y491634D02*
X34744D01*
X32776Y489665D02*
Y493602D01*
X30807Y557185D02*
X34744D01*
X32776Y555216D02*
Y559153D01*
X30807Y688287D02*
X34744D01*
X32776Y686319D02*
Y690256D01*
X30807Y622736D02*
X34744D01*
X32776Y620768D02*
Y624705D01*
X30807Y819390D02*
X34744D01*
X32776Y817421D02*
Y821358D01*
X96358Y819390D02*
X100295D01*
X98327Y817421D02*
Y821358D01*
X96358Y491634D02*
X100295D01*
X98327Y489665D02*
Y493602D01*
X96358Y557185D02*
X100295D01*
X98327Y555216D02*
Y559153D01*
X96358Y622736D02*
X100295D01*
X98327Y620768D02*
Y624705D01*
X96358Y688287D02*
X100295D01*
X98327Y686319D02*
Y690256D01*
X30807Y753839D02*
X34744D01*
X32776Y751870D02*
Y755807D01*
X96358Y753839D02*
X100295D01*
X98327Y751870D02*
Y755807D01*
X96358Y360531D02*
X100295D01*
X98327Y358563D02*
Y362500D01*
X96358Y426083D02*
X100295D01*
X98327Y424114D02*
Y428051D01*
X30807Y360531D02*
X34744D01*
X32776Y358563D02*
Y362500D01*
X30807Y426083D02*
X34744D01*
X32776Y424114D02*
Y428051D01*
X751870Y753839D02*
X755807D01*
X753838Y751870D02*
Y755807D01*
X751870Y819390D02*
X755807D01*
X753838Y817421D02*
Y821358D01*
X817421Y688287D02*
X821358D01*
X819390Y686319D02*
Y690256D01*
X751870Y688287D02*
X755807D01*
X753838Y686319D02*
Y690256D01*
X686319Y688287D02*
X690256D01*
X688287Y686319D02*
Y690256D01*
X620768Y688287D02*
X624705D01*
X622736Y686319D02*
Y690256D01*
X555217Y688287D02*
X559154D01*
X557185Y686319D02*
Y690256D01*
X489665Y688287D02*
X493602D01*
X491634Y686319D02*
Y690256D01*
X489665Y753839D02*
X493602D01*
X491634Y751870D02*
Y755807D01*
X620768Y753839D02*
X624705D01*
X622736Y751870D02*
Y755807D01*
X555217Y753839D02*
X559154D01*
X557185Y751870D02*
Y755807D01*
X686319Y753839D02*
X690256D01*
X688287Y751870D02*
Y755807D01*
X686319Y819390D02*
X690256D01*
X688287Y817421D02*
Y821358D01*
X424114Y491634D02*
X428051D01*
X426083Y489665D02*
Y493602D01*
X424114Y557185D02*
X428051D01*
X426083Y555216D02*
Y559153D01*
X358563Y360531D02*
X362500D01*
X360532Y358563D02*
Y362500D01*
X424114Y360531D02*
X428051D01*
X426083Y358563D02*
Y362500D01*
X227461Y360531D02*
X231398D01*
X229429Y358563D02*
Y362500D01*
X161909Y360531D02*
X165846D01*
X163878Y358563D02*
Y362500D01*
X161909Y426083D02*
X165846D01*
X163878Y424114D02*
Y428051D01*
X293012Y360531D02*
X296949D01*
X294980Y358563D02*
Y362500D01*
X293012Y426083D02*
X296949D01*
X294980Y424114D02*
Y428051D01*
X227461Y426083D02*
X231398D01*
X229429Y424114D02*
Y428051D01*
X227461Y557185D02*
X231398D01*
X229429Y555216D02*
Y559153D01*
X358563Y491634D02*
X362500D01*
X360532Y489665D02*
Y493602D01*
X358563Y557185D02*
X362500D01*
X360532Y555216D02*
Y559153D01*
X293012Y622736D02*
X296949D01*
X294980Y620768D02*
Y624705D01*
X293012Y557185D02*
X296949D01*
X294980Y555216D02*
Y559153D01*
X161909Y622736D02*
X165846D01*
X163878Y620768D02*
Y624705D01*
X161909Y557185D02*
X165846D01*
X163878Y555216D02*
Y559153D01*
X424114Y622736D02*
X428051D01*
X426083Y620768D02*
Y624705D01*
X358563Y622736D02*
X362500D01*
X360532Y620768D02*
Y624705D01*
X161909Y491634D02*
X165846D01*
X163878Y489665D02*
Y493602D01*
X227461Y491634D02*
X231398D01*
X229429Y489665D02*
Y493602D01*
X293012Y491634D02*
X296949D01*
X294980Y489665D02*
Y493602D01*
X424114Y426083D02*
X428051D01*
X426083Y424114D02*
Y428051D01*
X358563Y426083D02*
X362500D01*
X360532Y424114D02*
Y428051D01*
X227461Y622736D02*
X231398D01*
X229429Y620768D02*
Y624705D01*
X227461Y688287D02*
X231398D01*
X229429Y686319D02*
Y690256D01*
X817421Y32776D02*
X821358D01*
X819390Y30807D02*
Y34744D01*
X751870Y32776D02*
X755807D01*
X753838Y30807D02*
Y34744D01*
X686319Y32776D02*
X690256D01*
X688287Y30807D02*
Y34744D01*
X1014075Y32776D02*
X1018012D01*
X1016043Y30807D02*
Y34744D01*
X948524Y32776D02*
X952461D01*
X950492Y30807D02*
Y34744D01*
X882972Y32776D02*
X886909D01*
X884941Y30807D02*
Y34744D01*
X620768Y32776D02*
X624705D01*
X622736Y30807D02*
Y34744D01*
X489665Y98327D02*
X493602D01*
X491634Y96358D02*
Y100295D01*
X424114Y98327D02*
X428051D01*
X426083Y96358D02*
Y100295D01*
X358563Y98327D02*
X362500D01*
X360532Y96358D02*
Y100295D01*
X1014075Y98327D02*
X1018012D01*
X1016043Y96358D02*
Y100295D01*
X948524Y98327D02*
X952461D01*
X950492Y96358D02*
Y100295D01*
X882972Y98327D02*
X886909D01*
X884941Y96358D02*
Y100295D01*
X555217Y32776D02*
X559154D01*
X557185Y30807D02*
Y34744D01*
X489665Y32776D02*
X493602D01*
X491634Y30807D02*
Y34744D01*
X424114Y32776D02*
X428051D01*
X426083Y30807D02*
Y34744D01*
X358563Y32776D02*
X362500D01*
X360532Y30807D02*
Y34744D01*
D54*
X550492Y502000D02*
Y510268D01*
X563878Y502000D02*
Y510268D01*
X550492D02*
X563878D01*
X550492Y502000D02*
X563878D01*
X484941D02*
Y510268D01*
X498327Y502000D02*
Y510268D01*
X484941D02*
X498327D01*
X484941Y502000D02*
X498327D01*
X419390D02*
Y510268D01*
X432776Y502000D02*
Y510268D01*
X419390D02*
X432776D01*
X419390Y502000D02*
X432776D01*
X353839D02*
Y510268D01*
X367224Y502000D02*
Y510268D01*
X353839D02*
X367224D01*
X353839Y502000D02*
X367224D01*
X419390Y895307D02*
Y903575D01*
X432776Y895307D02*
Y903575D01*
X419390D02*
X432776D01*
X419390Y895307D02*
X432776D01*
X878248Y633102D02*
Y641370D01*
X891634Y633102D02*
Y641370D01*
X878248D02*
X891634D01*
X878248Y633102D02*
X891634D01*
X222736Y502000D02*
Y510268D01*
X236122Y502000D02*
Y510268D01*
X222736D02*
X236122D01*
X222736Y502000D02*
X236122D01*
X288287D02*
Y510268D01*
X301673Y502000D02*
Y510268D01*
X288287D02*
X301673D01*
X288287Y502000D02*
X301673D01*
X353839Y895307D02*
Y903575D01*
X367224Y895307D02*
Y903575D01*
X353839D02*
X367224D01*
X353839Y895307D02*
X367224D01*
X747146Y633102D02*
Y641370D01*
X760532Y633102D02*
Y641370D01*
X747146D02*
X760532D01*
X747146Y633102D02*
X760532D01*
X747146Y829756D02*
Y838024D01*
X760532Y829756D02*
Y838024D01*
X747146D02*
X760532D01*
X747146Y829756D02*
X760532D01*
X681595Y567551D02*
Y575819D01*
X694980Y567551D02*
Y575819D01*
X681595D02*
X694980D01*
X681595Y567551D02*
X694980D01*
X616043D02*
Y575819D01*
X629429Y567551D02*
Y575819D01*
X616043D02*
X629429D01*
X616043Y567551D02*
X629429D01*
X550492D02*
Y575819D01*
X563878Y567551D02*
Y575819D01*
X550492D02*
X563878D01*
X550492Y567551D02*
X563878D01*
X484941D02*
Y575819D01*
X498327Y567551D02*
Y575819D01*
X484941D02*
X498327D01*
X484941Y567551D02*
X498327D01*
X747146D02*
Y575819D01*
X760532Y567551D02*
Y575819D01*
X747146D02*
X760532D01*
X747146Y567551D02*
X760532D01*
X550492Y895307D02*
Y903575D01*
X563878Y895307D02*
Y903575D01*
X550492D02*
X563878D01*
X550492Y895307D02*
X563878D01*
X353839Y370898D02*
Y379165D01*
X367224Y370898D02*
Y379165D01*
X353839D02*
X367224D01*
X353839Y370898D02*
X367224D01*
X353839Y436449D02*
Y444717D01*
X367224Y436449D02*
Y444717D01*
X353839D02*
X367224D01*
X353839Y436449D02*
X367224D01*
X419390D02*
Y444717D01*
X432776Y436449D02*
Y444717D01*
X419390D02*
X432776D01*
X419390Y436449D02*
X432776D01*
X157185Y370898D02*
Y379165D01*
X170571Y370898D02*
Y379165D01*
X157185D02*
X170571D01*
X157185Y370898D02*
X170571D01*
X91634D02*
Y379165D01*
X105020Y370898D02*
Y379165D01*
X91634D02*
X105020D01*
X91634Y370898D02*
X105020D01*
X1009350Y43142D02*
Y51410D01*
X1022736Y43142D02*
Y51410D01*
X1009350D02*
X1022736D01*
X1009350Y43142D02*
X1022736D01*
X484941Y436449D02*
Y444717D01*
X498327Y436449D02*
Y444717D01*
X484941D02*
X498327D01*
X484941Y436449D02*
X498327D01*
X1009350Y108693D02*
Y116961D01*
X1022736Y108693D02*
Y116961D01*
X1009350D02*
X1022736D01*
X1009350Y108693D02*
X1022736D01*
X1009350Y174244D02*
Y182512D01*
X1022736Y174244D02*
Y182512D01*
X1009350D02*
X1022736D01*
X1009350Y174244D02*
X1022736D01*
X1009350Y239795D02*
Y248063D01*
X1022736Y239795D02*
Y248063D01*
X1009350D02*
X1022736D01*
X1009350Y239795D02*
X1022736D01*
X1009350Y305346D02*
Y313614D01*
X1022736Y305346D02*
Y313614D01*
X1009350D02*
X1022736D01*
X1009350Y305346D02*
X1022736D01*
X1009350Y370898D02*
Y379165D01*
X1022736Y370898D02*
Y379165D01*
X1009350D02*
X1022736D01*
X1009350Y370898D02*
X1022736D01*
X1009350Y436449D02*
Y444717D01*
X1022736Y436449D02*
Y444717D01*
X1009350D02*
X1022736D01*
X1009350Y436449D02*
X1022736D01*
X1009350Y502000D02*
Y510268D01*
X1022736Y502000D02*
Y510268D01*
X1009350D02*
X1022736D01*
X1009350Y502000D02*
X1022736D01*
X1009350Y567551D02*
Y575819D01*
X1022736Y567551D02*
Y575819D01*
X1009350D02*
X1022736D01*
X1009350Y567551D02*
X1022736D01*
X419390Y960858D02*
Y969126D01*
X432776Y960858D02*
Y969126D01*
X419390D02*
X432776D01*
X419390Y960858D02*
X432776D01*
X222736Y698654D02*
Y706921D01*
X236122Y698654D02*
Y706921D01*
X222736D02*
X236122D01*
X222736Y698654D02*
X236122D01*
X157185D02*
Y706921D01*
X170571Y698654D02*
Y706921D01*
X157185D02*
X170571D01*
X157185Y698654D02*
X170571D01*
X157185Y895307D02*
Y903575D01*
X170571Y895307D02*
Y903575D01*
X157185D02*
X170571D01*
X157185Y895307D02*
X170571D01*
X91634Y698654D02*
Y706921D01*
X105020Y698654D02*
Y706921D01*
X91634D02*
X105020D01*
X91634Y698654D02*
X105020D01*
X288287Y764205D02*
Y772472D01*
X301673Y764205D02*
Y772472D01*
X288287D02*
X301673D01*
X288287Y764205D02*
X301673D01*
X222736D02*
Y772472D01*
X236122Y764205D02*
Y772472D01*
X222736D02*
X236122D01*
X222736Y764205D02*
X236122D01*
X91634D02*
Y772472D01*
X105020Y764205D02*
Y772472D01*
X91634D02*
X105020D01*
X91634Y764205D02*
X105020D01*
X878248Y1026409D02*
Y1034677D01*
X891634Y1026409D02*
Y1034677D01*
X878248D02*
X891634D01*
X878248Y1026409D02*
X891634D01*
X878248Y960858D02*
Y969126D01*
X891634Y960858D02*
Y969126D01*
X878248D02*
X891634D01*
X878248Y960858D02*
X891634D01*
X943799Y1026409D02*
Y1034677D01*
X957185Y1026409D02*
Y1034677D01*
X943799D02*
X957185D01*
X943799Y1026409D02*
X957185D01*
X91634Y829756D02*
Y838024D01*
X105020Y829756D02*
Y838024D01*
X91634D02*
X105020D01*
X91634Y829756D02*
X105020D01*
X747146Y1026409D02*
Y1034677D01*
X760532Y1026409D02*
Y1034677D01*
X747146D02*
X760532D01*
X747146Y1026409D02*
X760532D01*
X943799Y960858D02*
Y969126D01*
X957185Y960858D02*
Y969126D01*
X943799D02*
X957185D01*
X943799Y960858D02*
X957185D01*
X812697Y1026409D02*
Y1034677D01*
X826083Y1026409D02*
Y1034677D01*
X812697D02*
X826083D01*
X812697Y1026409D02*
X826083D01*
X288287D02*
Y1034677D01*
X301673Y1026409D02*
Y1034677D01*
X288287D02*
X301673D01*
X288287Y1026409D02*
X301673D01*
X288287Y895307D02*
Y903575D01*
X301673Y895307D02*
Y903575D01*
X288287D02*
X301673D01*
X288287Y895307D02*
X301673D01*
X681595Y633102D02*
Y641370D01*
X694980Y633102D02*
Y641370D01*
X681595D02*
X694980D01*
X681595Y633102D02*
X694980D01*
X616043D02*
Y641370D01*
X629429Y633102D02*
Y641370D01*
X616043D02*
X629429D01*
X616043Y633102D02*
X629429D01*
X550492D02*
Y641370D01*
X563878Y633102D02*
Y641370D01*
X550492D02*
X563878D01*
X550492Y633102D02*
X563878D01*
X484941D02*
Y641370D01*
X498327Y633102D02*
Y641370D01*
X484941D02*
X498327D01*
X484941Y633102D02*
X498327D01*
X288287D02*
Y641370D01*
X301673Y633102D02*
Y641370D01*
X288287D02*
X301673D01*
X288287Y633102D02*
X301673D01*
X222736D02*
Y641370D01*
X236122Y633102D02*
Y641370D01*
X222736D02*
X236122D01*
X222736Y633102D02*
X236122D01*
X353839D02*
Y641370D01*
X367224Y633102D02*
Y641370D01*
X353839D02*
X367224D01*
X353839Y633102D02*
X367224D01*
X222736Y895307D02*
Y903575D01*
X236122Y895307D02*
Y903575D01*
X222736D02*
X236122D01*
X222736Y895307D02*
X236122D01*
X550492Y698654D02*
Y706921D01*
X563878Y698654D02*
Y706921D01*
X550492D02*
X563878D01*
X550492Y698654D02*
X563878D01*
X550492Y764205D02*
Y772472D01*
X563878Y764205D02*
Y772472D01*
X550492D02*
X563878D01*
X550492Y764205D02*
X563878D01*
X550492Y829756D02*
Y838024D01*
X563878Y829756D02*
Y838024D01*
X550492D02*
X563878D01*
X550492Y829756D02*
X563878D01*
X353839Y698654D02*
Y706921D01*
X367224Y698654D02*
Y706921D01*
X353839D02*
X367224D01*
X353839Y698654D02*
X367224D01*
X484941Y764205D02*
Y772472D01*
X498327Y764205D02*
Y772472D01*
X484941D02*
X498327D01*
X484941Y764205D02*
X498327D01*
X484941Y698654D02*
Y706921D01*
X498327Y698654D02*
Y706921D01*
X484941D02*
X498327D01*
X484941Y698654D02*
X498327D01*
X419390D02*
Y706921D01*
X432776Y698654D02*
Y706921D01*
X419390D02*
X432776D01*
X419390Y698654D02*
X432776D01*
X616043Y43142D02*
Y51410D01*
X629429Y43142D02*
Y51410D01*
X616043D02*
X629429D01*
X616043Y43142D02*
X629429D01*
X681595D02*
Y51410D01*
X694980Y43142D02*
Y51410D01*
X681595D02*
X694980D01*
X681595Y43142D02*
X694980D01*
X943799Y633102D02*
Y641370D01*
X957185Y633102D02*
Y641370D01*
X943799D02*
X957185D01*
X943799Y633102D02*
X957185D01*
X747146Y43142D02*
Y51410D01*
X760532Y43142D02*
Y51410D01*
X747146D02*
X760532D01*
X747146Y43142D02*
X760532D01*
X812697D02*
Y51410D01*
X826083Y43142D02*
Y51410D01*
X812697D02*
X826083D01*
X812697Y43142D02*
X826083D01*
X878248D02*
Y51410D01*
X891634Y43142D02*
Y51410D01*
X878248D02*
X891634D01*
X878248Y43142D02*
X891634D01*
X550492D02*
Y51410D01*
X563878Y43142D02*
Y51410D01*
X550492D02*
X563878D01*
X550492Y43142D02*
X563878D01*
X943799D02*
Y51410D01*
X957185Y43142D02*
Y51410D01*
X943799D02*
X957185D01*
X943799Y43142D02*
X957185D01*
X878248Y502000D02*
Y510268D01*
X891634Y502000D02*
Y510268D01*
X878248D02*
X891634D01*
X878248Y502000D02*
X891634D01*
X943799D02*
Y510268D01*
X957185Y502000D02*
Y510268D01*
X943799D02*
X957185D01*
X943799Y502000D02*
X957185D01*
X747146Y436449D02*
Y444717D01*
X760532Y436449D02*
Y444717D01*
X747146D02*
X760532D01*
X747146Y436449D02*
X760532D01*
X943799Y567551D02*
Y575819D01*
X957185Y567551D02*
Y575819D01*
X943799D02*
X957185D01*
X943799Y567551D02*
X957185D01*
X943799Y698654D02*
Y706921D01*
X957185Y698654D02*
Y706921D01*
X943799D02*
X957185D01*
X943799Y698654D02*
X957185D01*
X943799Y764205D02*
Y772472D01*
X957185Y764205D02*
Y772472D01*
X943799D02*
X957185D01*
X943799Y764205D02*
X957185D01*
X943799Y829756D02*
Y838024D01*
X957185Y829756D02*
Y838024D01*
X943799D02*
X957185D01*
X943799Y829756D02*
X957185D01*
X943799Y895307D02*
Y903575D01*
X957185Y895307D02*
Y903575D01*
X943799D02*
X957185D01*
X943799Y895307D02*
X957185D01*
X353839Y1026409D02*
Y1034677D01*
X367224Y1026409D02*
Y1034677D01*
X353839D02*
X367224D01*
X353839Y1026409D02*
X367224D01*
X222736D02*
Y1034677D01*
X236122Y1026409D02*
Y1034677D01*
X222736D02*
X236122D01*
X222736Y1026409D02*
X236122D01*
X157185Y960858D02*
Y969126D01*
X170571Y960858D02*
Y969126D01*
X157185D02*
X170571D01*
X157185Y960858D02*
X170571D01*
X157185Y1026409D02*
Y1034677D01*
X170571Y1026409D02*
Y1034677D01*
X157185D02*
X170571D01*
X157185Y1026409D02*
X170571D01*
X91634D02*
Y1034677D01*
X105020Y1026409D02*
Y1034677D01*
X91634D02*
X105020D01*
X91634Y1026409D02*
X105020D01*
X222736Y960858D02*
Y969126D01*
X236122Y960858D02*
Y969126D01*
X222736D02*
X236122D01*
X222736Y960858D02*
X236122D01*
X26083Y1026409D02*
Y1034677D01*
X39469Y1026409D02*
Y1034677D01*
X26083D02*
X39469D01*
X26083Y1026409D02*
X39469D01*
X91634Y960858D02*
Y969126D01*
X105020Y960858D02*
Y969126D01*
X91634D02*
X105020D01*
X91634Y960858D02*
X105020D01*
X26083Y43142D02*
Y51410D01*
X39469Y43142D02*
Y51410D01*
X26083D02*
X39469D01*
X26083Y43142D02*
X39469D01*
X26083Y960858D02*
Y969126D01*
X39469Y960858D02*
Y969126D01*
X26083D02*
X39469D01*
X26083Y960858D02*
X39469D01*
X26083Y174244D02*
Y182512D01*
X39469Y174244D02*
Y182512D01*
X26083D02*
X39469D01*
X26083Y174244D02*
X39469D01*
X26083Y239795D02*
Y248063D01*
X39469Y239795D02*
Y248063D01*
X26083D02*
X39469D01*
X26083Y239795D02*
X39469D01*
X26083Y305346D02*
Y313614D01*
X39469Y305346D02*
Y313614D01*
X26083D02*
X39469D01*
X26083Y305346D02*
X39469D01*
X26083Y698654D02*
Y706921D01*
X39469Y698654D02*
Y706921D01*
X26083D02*
X39469D01*
X26083Y698654D02*
X39469D01*
X26083Y370898D02*
Y379165D01*
X39469Y370898D02*
Y379165D01*
X26083D02*
X39469D01*
X26083Y370898D02*
X39469D01*
X26083Y436449D02*
Y444717D01*
X39469Y436449D02*
Y444717D01*
X26083D02*
X39469D01*
X26083Y436449D02*
X39469D01*
X222736Y239795D02*
Y248063D01*
X236122Y239795D02*
Y248063D01*
X222736D02*
X236122D01*
X222736Y239795D02*
X236122D01*
X157185D02*
Y248063D01*
X170571Y239795D02*
Y248063D01*
X157185D02*
X170571D01*
X157185Y239795D02*
X170571D01*
X419390Y305346D02*
Y313614D01*
X432776Y305346D02*
Y313614D01*
X419390D02*
X432776D01*
X419390Y305346D02*
X432776D01*
X222736D02*
Y313614D01*
X236122Y305346D02*
Y313614D01*
X222736D02*
X236122D01*
X222736Y305346D02*
X236122D01*
X353839Y174244D02*
Y182512D01*
X367224Y174244D02*
Y182512D01*
X353839D02*
X367224D01*
X353839Y174244D02*
X367224D01*
X91634Y239795D02*
Y248063D01*
X105020Y239795D02*
Y248063D01*
X91634D02*
X105020D01*
X91634Y239795D02*
X105020D01*
X157185Y305346D02*
Y313614D01*
X170571Y305346D02*
Y313614D01*
X157185D02*
X170571D01*
X157185Y305346D02*
X170571D01*
X222736Y174244D02*
Y182512D01*
X236122Y174244D02*
Y182512D01*
X222736D02*
X236122D01*
X222736Y174244D02*
X236122D01*
X91634Y108693D02*
Y116961D01*
X105020Y108693D02*
Y116961D01*
X91634D02*
X105020D01*
X91634Y108693D02*
X105020D01*
X484941Y239795D02*
Y248063D01*
X498327Y239795D02*
Y248063D01*
X484941D02*
X498327D01*
X484941Y239795D02*
X498327D01*
X222736Y108693D02*
Y116961D01*
X236122Y108693D02*
Y116961D01*
X222736D02*
X236122D01*
X222736Y108693D02*
X236122D01*
X550492Y370898D02*
Y379165D01*
X563878Y370898D02*
Y379165D01*
X550492D02*
X563878D01*
X550492Y370898D02*
X563878D01*
X484941D02*
Y379165D01*
X498327Y370898D02*
Y379165D01*
X484941D02*
X498327D01*
X484941Y370898D02*
X498327D01*
X484941Y305346D02*
Y313614D01*
X498327Y305346D02*
Y313614D01*
X484941D02*
X498327D01*
X484941Y305346D02*
X498327D01*
X419390Y370898D02*
Y379165D01*
X432776Y370898D02*
Y379165D01*
X419390D02*
X432776D01*
X419390Y370898D02*
X432776D01*
X419390Y239795D02*
Y248063D01*
X432776Y239795D02*
Y248063D01*
X419390D02*
X432776D01*
X419390Y239795D02*
X432776D01*
X747146Y108693D02*
Y116961D01*
X760532Y108693D02*
Y116961D01*
X747146D02*
X760532D01*
X747146Y108693D02*
X760532D01*
X812697Y174244D02*
Y182512D01*
X826083Y174244D02*
Y182512D01*
X812697D02*
X826083D01*
X812697Y174244D02*
X826083D01*
X550492Y305346D02*
Y313614D01*
X563878Y305346D02*
Y313614D01*
X550492D02*
X563878D01*
X550492Y305346D02*
X563878D01*
X812697Y108693D02*
Y116961D01*
X826083Y108693D02*
Y116961D01*
X812697D02*
X826083D01*
X812697Y108693D02*
X826083D01*
X878248D02*
Y116961D01*
X891634Y108693D02*
Y116961D01*
X878248D02*
X891634D01*
X878248Y108693D02*
X891634D01*
X943799D02*
Y116961D01*
X957185Y108693D02*
Y116961D01*
X943799D02*
X957185D01*
X943799Y108693D02*
X957185D01*
X943799Y174244D02*
Y182512D01*
X957185Y174244D02*
Y182512D01*
X943799D02*
X957185D01*
X943799Y174244D02*
X957185D01*
X943799Y239795D02*
Y248063D01*
X957185Y239795D02*
Y248063D01*
X943799D02*
X957185D01*
X943799Y239795D02*
X957185D01*
X616043Y108693D02*
Y116961D01*
X629429Y108693D02*
Y116961D01*
X616043D02*
X629429D01*
X616043Y108693D02*
X629429D01*
X878248Y305346D02*
Y313614D01*
X891634Y305346D02*
Y313614D01*
X878248D02*
X891634D01*
X878248Y305346D02*
X891634D01*
X681595Y895307D02*
Y903575D01*
X694980Y895307D02*
Y903575D01*
X681595D02*
X694980D01*
X681595Y895307D02*
X694980D01*
X616043Y174244D02*
Y182512D01*
X629429Y174244D02*
Y182512D01*
X616043D02*
X629429D01*
X616043Y174244D02*
X629429D01*
X616043Y239795D02*
Y248063D01*
X629429Y239795D02*
Y248063D01*
X616043D02*
X629429D01*
X616043Y239795D02*
X629429D01*
X747146Y174244D02*
Y182512D01*
X760532Y174244D02*
Y182512D01*
X747146D02*
X760532D01*
X747146Y174244D02*
X760532D01*
X747146Y239795D02*
Y248063D01*
X760532Y239795D02*
Y248063D01*
X747146D02*
X760532D01*
X747146Y239795D02*
X760532D01*
X747146Y895307D02*
Y903575D01*
X760532Y895307D02*
Y903575D01*
X747146D02*
X760532D01*
X747146Y895307D02*
X760532D01*
X419390Y567551D02*
Y575819D01*
X432776Y567551D02*
Y575819D01*
X419390D02*
X432776D01*
X419390Y567551D02*
X432776D01*
X353839D02*
Y575819D01*
X367224Y567551D02*
Y575819D01*
X353839D02*
X367224D01*
X353839Y567551D02*
X367224D01*
X288287D02*
Y575819D01*
X301673Y567551D02*
Y575819D01*
X288287D02*
X301673D01*
X288287Y567551D02*
X301673D01*
X222736D02*
Y575819D01*
X236122Y567551D02*
Y575819D01*
X222736D02*
X236122D01*
X222736Y567551D02*
X236122D01*
X91634Y633102D02*
Y641370D01*
X105020Y633102D02*
Y641370D01*
X91634D02*
X105020D01*
X91634Y633102D02*
X105020D01*
X747146Y698654D02*
Y706921D01*
X760532Y698654D02*
Y706921D01*
X747146D02*
X760532D01*
X747146Y698654D02*
X760532D01*
X747146Y764205D02*
Y772472D01*
X760532Y764205D02*
Y772472D01*
X747146D02*
X760532D01*
X747146Y764205D02*
X760532D01*
X812697Y829756D02*
Y838024D01*
X826083Y829756D02*
Y838024D01*
X812697D02*
X826083D01*
X812697Y829756D02*
X826083D01*
X419390Y633102D02*
Y641370D01*
X432776Y633102D02*
Y641370D01*
X419390D02*
X432776D01*
X419390Y633102D02*
X432776D01*
X157185D02*
Y641370D01*
X170571Y633102D02*
Y641370D01*
X157185D02*
X170571D01*
X157185Y633102D02*
X170571D01*
X681595Y698654D02*
Y706921D01*
X694980Y698654D02*
Y706921D01*
X681595D02*
X694980D01*
X681595Y698654D02*
X694980D01*
X681595Y764205D02*
Y772472D01*
X694980Y764205D02*
Y772472D01*
X681595D02*
X694980D01*
X681595Y764205D02*
X694980D01*
X681595Y829756D02*
Y838024D01*
X694980Y829756D02*
Y838024D01*
X681595D02*
X694980D01*
X681595Y829756D02*
X694980D01*
X616043Y698654D02*
Y706921D01*
X629429Y698654D02*
Y706921D01*
X616043D02*
X629429D01*
X616043Y698654D02*
X629429D01*
X616043Y764205D02*
Y772472D01*
X629429Y764205D02*
Y772472D01*
X616043D02*
X629429D01*
X616043Y764205D02*
X629429D01*
X616043Y829756D02*
Y838024D01*
X629429Y829756D02*
Y838024D01*
X616043D02*
X629429D01*
X616043Y829756D02*
X629429D01*
X1009350Y633102D02*
Y641370D01*
X1022736Y633102D02*
Y641370D01*
X1009350D02*
X1022736D01*
X1009350Y633102D02*
X1022736D01*
X484941Y895307D02*
Y903575D01*
X498327Y895307D02*
Y903575D01*
X484941D02*
X498327D01*
X484941Y895307D02*
X498327D01*
X1009350Y698654D02*
Y706921D01*
X1022736Y698654D02*
Y706921D01*
X1009350D02*
X1022736D01*
X1009350Y698654D02*
X1022736D01*
X1009350Y764205D02*
Y772472D01*
X1022736Y764205D02*
Y772472D01*
X1009350D02*
X1022736D01*
X1009350Y764205D02*
X1022736D01*
X1009350Y829756D02*
Y838024D01*
X1022736Y829756D02*
Y838024D01*
X1009350D02*
X1022736D01*
X1009350Y829756D02*
X1022736D01*
X1009350Y895307D02*
Y903575D01*
X1022736Y895307D02*
Y903575D01*
X1009350D02*
X1022736D01*
X1009350Y895307D02*
X1022736D01*
X1009350Y960858D02*
Y969126D01*
X1022736Y960858D02*
Y969126D01*
X1009350D02*
X1022736D01*
X1009350Y960858D02*
X1022736D01*
X1009350Y1026409D02*
Y1034677D01*
X1022736Y1026409D02*
Y1034677D01*
X1009350D02*
X1022736D01*
X1009350Y1026409D02*
X1022736D01*
X878248Y764205D02*
Y772472D01*
X891634Y764205D02*
Y772472D01*
X878248D02*
X891634D01*
X878248Y764205D02*
X891634D01*
X878248Y829756D02*
Y838024D01*
X891634Y829756D02*
Y838024D01*
X878248D02*
X891634D01*
X878248Y829756D02*
X891634D01*
X812697Y567551D02*
Y575819D01*
X826083Y567551D02*
Y575819D01*
X812697D02*
X826083D01*
X812697Y567551D02*
X826083D01*
X812697Y633102D02*
Y641370D01*
X826083Y633102D02*
Y641370D01*
X812697D02*
X826083D01*
X812697Y633102D02*
X826083D01*
X812697Y698654D02*
Y706921D01*
X826083Y698654D02*
Y706921D01*
X812697D02*
X826083D01*
X812697Y698654D02*
X826083D01*
X812697Y764205D02*
Y772472D01*
X826083Y764205D02*
Y772472D01*
X812697D02*
X826083D01*
X812697Y764205D02*
X826083D01*
X878248Y567551D02*
Y575819D01*
X891634Y567551D02*
Y575819D01*
X878248D02*
X891634D01*
X878248Y567551D02*
X891634D01*
X878248Y698654D02*
Y706921D01*
X891634Y698654D02*
Y706921D01*
X878248D02*
X891634D01*
X878248Y698654D02*
X891634D01*
X616043Y1026409D02*
Y1034677D01*
X629429Y1026409D02*
Y1034677D01*
X616043D02*
X629429D01*
X616043Y1026409D02*
X629429D01*
X681595D02*
Y1034677D01*
X694980Y1026409D02*
Y1034677D01*
X681595D02*
X694980D01*
X681595Y1026409D02*
X694980D01*
X550492D02*
Y1034677D01*
X563878Y1026409D02*
Y1034677D01*
X550492D02*
X563878D01*
X550492Y1026409D02*
X563878D01*
X484941D02*
Y1034677D01*
X498327Y1026409D02*
Y1034677D01*
X484941D02*
X498327D01*
X484941Y1026409D02*
X498327D01*
X419390D02*
Y1034677D01*
X432776Y1026409D02*
Y1034677D01*
X419390D02*
X432776D01*
X419390Y1026409D02*
X432776D01*
X353839Y960858D02*
Y969126D01*
X367224Y960858D02*
Y969126D01*
X353839D02*
X367224D01*
X353839Y960858D02*
X367224D01*
X91634Y895307D02*
Y903575D01*
X105020Y895307D02*
Y903575D01*
X91634D02*
X105020D01*
X91634Y895307D02*
X105020D01*
X288287Y960858D02*
Y969126D01*
X301673Y960858D02*
Y969126D01*
X288287D02*
X301673D01*
X288287Y960858D02*
X301673D01*
X26083Y502000D02*
Y510268D01*
X39469Y502000D02*
Y510268D01*
X26083D02*
X39469D01*
X26083Y502000D02*
X39469D01*
X26083Y633102D02*
Y641370D01*
X39469Y633102D02*
Y641370D01*
X26083D02*
X39469D01*
X26083Y633102D02*
X39469D01*
X26083Y567551D02*
Y575819D01*
X39469Y567551D02*
Y575819D01*
X26083D02*
X39469D01*
X26083Y567551D02*
X39469D01*
X878248Y370898D02*
Y379165D01*
X891634Y370898D02*
Y379165D01*
X878248D02*
X891634D01*
X878248Y370898D02*
X891634D01*
X681595D02*
Y379165D01*
X694980Y370898D02*
Y379165D01*
X681595D02*
X694980D01*
X681595Y370898D02*
X694980D01*
X747146D02*
Y379165D01*
X760532Y370898D02*
Y379165D01*
X747146D02*
X760532D01*
X747146Y370898D02*
X760532D01*
X616043D02*
Y379165D01*
X629429Y370898D02*
Y379165D01*
X616043D02*
X629429D01*
X616043Y370898D02*
X629429D01*
X157185Y502000D02*
Y510268D01*
X170571Y502000D02*
Y510268D01*
X157185D02*
X170571D01*
X157185Y502000D02*
X170571D01*
X419390Y764205D02*
Y772472D01*
X432776Y764205D02*
Y772472D01*
X419390D02*
X432776D01*
X419390Y764205D02*
X432776D01*
X353839D02*
Y772472D01*
X367224Y764205D02*
Y772472D01*
X353839D02*
X367224D01*
X353839Y764205D02*
X367224D01*
X484941Y829756D02*
Y838024D01*
X498327Y829756D02*
Y838024D01*
X484941D02*
X498327D01*
X484941Y829756D02*
X498327D01*
X419390D02*
Y838024D01*
X432776Y829756D02*
Y838024D01*
X419390D02*
X432776D01*
X419390Y829756D02*
X432776D01*
X353839D02*
Y838024D01*
X367224Y829756D02*
Y838024D01*
X353839D02*
X367224D01*
X353839Y829756D02*
X367224D01*
X288287Y698654D02*
Y706921D01*
X301673Y698654D02*
Y706921D01*
X288287D02*
X301673D01*
X288287Y698654D02*
X301673D01*
X288287Y829756D02*
Y838024D01*
X301673Y829756D02*
Y838024D01*
X288287D02*
X301673D01*
X288287Y829756D02*
X301673D01*
X222736D02*
Y838024D01*
X236122Y829756D02*
Y838024D01*
X222736D02*
X236122D01*
X222736Y829756D02*
X236122D01*
X157185Y764205D02*
Y772472D01*
X170571Y764205D02*
Y772472D01*
X157185D02*
X170571D01*
X157185Y764205D02*
X170571D01*
X157185Y829756D02*
Y838024D01*
X170571Y829756D02*
Y838024D01*
X157185D02*
X170571D01*
X157185Y829756D02*
X170571D01*
X812697Y960858D02*
Y969126D01*
X826083Y960858D02*
Y969126D01*
X812697D02*
X826083D01*
X812697Y960858D02*
X826083D01*
X747146D02*
Y969126D01*
X760532Y960858D02*
Y969126D01*
X747146D02*
X760532D01*
X747146Y960858D02*
X760532D01*
X681595D02*
Y969126D01*
X694980Y960858D02*
Y969126D01*
X681595D02*
X694980D01*
X681595Y960858D02*
X694980D01*
X616043D02*
Y969126D01*
X629429Y960858D02*
Y969126D01*
X616043D02*
X629429D01*
X616043Y960858D02*
X629429D01*
X550492D02*
Y969126D01*
X563878Y960858D02*
Y969126D01*
X550492D02*
X563878D01*
X550492Y960858D02*
X563878D01*
X484941D02*
Y969126D01*
X498327Y960858D02*
Y969126D01*
X484941D02*
X498327D01*
X484941Y960858D02*
X498327D01*
X812697Y502000D02*
Y510268D01*
X826083Y502000D02*
Y510268D01*
X812697D02*
X826083D01*
X812697Y502000D02*
X826083D01*
X812697Y436449D02*
Y444717D01*
X826083Y436449D02*
Y444717D01*
X812697D02*
X826083D01*
X812697Y436449D02*
X826083D01*
X943799Y305346D02*
Y313614D01*
X957185Y305346D02*
Y313614D01*
X943799D02*
X957185D01*
X943799Y305346D02*
X957185D01*
X878248Y436449D02*
Y444717D01*
X891634Y436449D02*
Y444717D01*
X878248D02*
X891634D01*
X878248Y436449D02*
X891634D01*
X943799D02*
Y444717D01*
X957185Y436449D02*
Y444717D01*
X943799D02*
X957185D01*
X943799Y436449D02*
X957185D01*
X616043Y502000D02*
Y510268D01*
X629429Y502000D02*
Y510268D01*
X616043D02*
X629429D01*
X616043Y502000D02*
X629429D01*
X681595D02*
Y510268D01*
X694980Y502000D02*
Y510268D01*
X681595D02*
X694980D01*
X681595Y502000D02*
X694980D01*
X747146D02*
Y510268D01*
X760532Y502000D02*
Y510268D01*
X747146D02*
X760532D01*
X747146Y502000D02*
X760532D01*
X943799Y370898D02*
Y379165D01*
X957185Y370898D02*
Y379165D01*
X943799D02*
X957185D01*
X943799Y370898D02*
X957185D01*
X812697D02*
Y379165D01*
X826083Y370898D02*
Y379165D01*
X812697D02*
X826083D01*
X812697Y370898D02*
X826083D01*
X878248Y174244D02*
Y182512D01*
X891634Y174244D02*
Y182512D01*
X878248D02*
X891634D01*
X878248Y174244D02*
X891634D01*
X550492D02*
Y182512D01*
X563878Y174244D02*
Y182512D01*
X550492D02*
X563878D01*
X550492Y174244D02*
X563878D01*
X681595Y436449D02*
Y444717D01*
X694980Y436449D02*
Y444717D01*
X681595D02*
X694980D01*
X681595Y436449D02*
X694980D01*
X812697Y895307D02*
Y903575D01*
X826083Y895307D02*
Y903575D01*
X812697D02*
X826083D01*
X812697Y895307D02*
X826083D01*
X878248Y239795D02*
Y248063D01*
X891634Y239795D02*
Y248063D01*
X878248D02*
X891634D01*
X878248Y239795D02*
X891634D01*
X812697D02*
Y248063D01*
X826083Y239795D02*
Y248063D01*
X812697D02*
X826083D01*
X812697Y239795D02*
X826083D01*
X26083Y108693D02*
Y116961D01*
X39469Y108693D02*
Y116961D01*
X26083D02*
X39469D01*
X26083Y108693D02*
X39469D01*
X26083Y764205D02*
Y772472D01*
X39469Y764205D02*
Y772472D01*
X26083D02*
X39469D01*
X26083Y764205D02*
X39469D01*
X26083Y829756D02*
Y838024D01*
X39469Y829756D02*
Y838024D01*
X26083D02*
X39469D01*
X26083Y829756D02*
X39469D01*
X26083Y895307D02*
Y903575D01*
X39469Y895307D02*
Y903575D01*
X26083D02*
X39469D01*
X26083Y895307D02*
X39469D01*
X91634Y567551D02*
Y575819D01*
X105020Y567551D02*
Y575819D01*
X91634D02*
X105020D01*
X91634Y567551D02*
X105020D01*
X157185D02*
Y575819D01*
X170571Y567551D02*
Y575819D01*
X157185D02*
X170571D01*
X157185Y567551D02*
X170571D01*
X91634Y502000D02*
Y510268D01*
X105020Y502000D02*
Y510268D01*
X91634D02*
X105020D01*
X91634Y502000D02*
X105020D01*
X91634Y436449D02*
Y444717D01*
X105020Y436449D02*
Y444717D01*
X91634D02*
X105020D01*
X91634Y436449D02*
X105020D01*
X484941Y43142D02*
Y51410D01*
X498327Y43142D02*
Y51410D01*
X484941D02*
X498327D01*
X484941Y43142D02*
X498327D01*
X91634D02*
Y51410D01*
X105020Y43142D02*
Y51410D01*
X91634D02*
X105020D01*
X91634Y43142D02*
X105020D01*
X878248Y895307D02*
Y903575D01*
X891634Y895307D02*
Y903575D01*
X878248D02*
X891634D01*
X878248Y895307D02*
X891634D01*
X157185Y43142D02*
Y51410D01*
X170571Y43142D02*
Y51410D01*
X157185D02*
X170571D01*
X157185Y43142D02*
X170571D01*
X222736D02*
Y51410D01*
X236122Y43142D02*
Y51410D01*
X222736D02*
X236122D01*
X222736Y43142D02*
X236122D01*
X288287D02*
Y51410D01*
X301673Y43142D02*
Y51410D01*
X288287D02*
X301673D01*
X288287Y43142D02*
X301673D01*
X353839D02*
Y51410D01*
X367224Y43142D02*
Y51410D01*
X353839D02*
X367224D01*
X353839Y43142D02*
X367224D01*
X419390D02*
Y51410D01*
X432776Y43142D02*
Y51410D01*
X419390D02*
X432776D01*
X419390Y43142D02*
X432776D01*
X157185Y108693D02*
Y116961D01*
X170571Y108693D02*
Y116961D01*
X157185D02*
X170571D01*
X157185Y108693D02*
X170571D01*
X484941Y174244D02*
Y182512D01*
X498327Y174244D02*
Y182512D01*
X484941D02*
X498327D01*
X484941Y174244D02*
X498327D01*
X419390D02*
Y182512D01*
X432776Y174244D02*
Y182512D01*
X419390D02*
X432776D01*
X419390Y174244D02*
X432776D01*
X288287Y108693D02*
Y116961D01*
X301673Y108693D02*
Y116961D01*
X288287D02*
X301673D01*
X288287Y108693D02*
X301673D01*
X484941D02*
Y116961D01*
X498327Y108693D02*
Y116961D01*
X484941D02*
X498327D01*
X484941Y108693D02*
X498327D01*
X419390D02*
Y116961D01*
X432776Y108693D02*
Y116961D01*
X419390D02*
X432776D01*
X419390Y108693D02*
X432776D01*
X353839D02*
Y116961D01*
X367224Y108693D02*
Y116961D01*
X353839D02*
X367224D01*
X353839Y108693D02*
X367224D01*
X616043Y895307D02*
Y903575D01*
X629429Y895307D02*
Y903575D01*
X616043D02*
X629429D01*
X616043Y895307D02*
X629429D01*
X550492Y108693D02*
Y116961D01*
X563878Y108693D02*
Y116961D01*
X550492D02*
X563878D01*
X550492Y108693D02*
X563878D01*
X550492Y436449D02*
Y444717D01*
X563878Y436449D02*
Y444717D01*
X550492D02*
X563878D01*
X550492Y436449D02*
X563878D01*
X616043D02*
Y444717D01*
X629429Y436449D02*
Y444717D01*
X616043D02*
X629429D01*
X616043Y436449D02*
X629429D01*
X288287Y370898D02*
Y379165D01*
X301673Y370898D02*
Y379165D01*
X288287D02*
X301673D01*
X288287Y370898D02*
X301673D01*
X288287Y436449D02*
Y444717D01*
X301673Y436449D02*
Y444717D01*
X288287D02*
X301673D01*
X288287Y436449D02*
X301673D01*
X222736Y370898D02*
Y379165D01*
X236122Y370898D02*
Y379165D01*
X222736D02*
X236122D01*
X222736Y370898D02*
X236122D01*
X222736Y436449D02*
Y444717D01*
X236122Y436449D02*
Y444717D01*
X222736D02*
X236122D01*
X222736Y436449D02*
X236122D01*
X157185D02*
Y444717D01*
X170571Y436449D02*
Y444717D01*
X157185D02*
X170571D01*
X157185Y436449D02*
X170571D01*
X681595Y108693D02*
Y116961D01*
X694980Y108693D02*
Y116961D01*
X681595D02*
X694980D01*
X681595Y108693D02*
X694980D01*
X681595Y174244D02*
Y182512D01*
X694980Y174244D02*
Y182512D01*
X681595D02*
X694980D01*
X681595Y174244D02*
X694980D01*
X157185D02*
Y182512D01*
X170571Y174244D02*
Y182512D01*
X157185D02*
X170571D01*
X157185Y174244D02*
X170571D01*
X681595Y239795D02*
Y248063D01*
X694980Y239795D02*
Y248063D01*
X681595D02*
X694980D01*
X681595Y239795D02*
X694980D01*
X681595Y305346D02*
Y313614D01*
X694980Y305346D02*
Y313614D01*
X681595D02*
X694980D01*
X681595Y305346D02*
X694980D01*
X616043D02*
Y313614D01*
X629429Y305346D02*
Y313614D01*
X616043D02*
X629429D01*
X616043Y305346D02*
X629429D01*
X550492Y239795D02*
Y248063D01*
X563878Y239795D02*
Y248063D01*
X550492D02*
X563878D01*
X550492Y239795D02*
X563878D01*
X747146Y305346D02*
Y313614D01*
X760532Y305346D02*
Y313614D01*
X747146D02*
X760532D01*
X747146Y305346D02*
X760532D01*
X353839Y239795D02*
Y248063D01*
X367224Y239795D02*
Y248063D01*
X353839D02*
X367224D01*
X353839Y239795D02*
X367224D01*
X91634Y174244D02*
Y182512D01*
X105020Y174244D02*
Y182512D01*
X91634D02*
X105020D01*
X91634Y174244D02*
X105020D01*
X353839Y305346D02*
Y313614D01*
X367224Y305346D02*
Y313614D01*
X353839D02*
X367224D01*
X353839Y305346D02*
X367224D01*
X288287Y239795D02*
Y248063D01*
X301673Y239795D02*
Y248063D01*
X288287D02*
X301673D01*
X288287Y239795D02*
X301673D01*
X288287Y174244D02*
Y182512D01*
X301673Y174244D02*
Y182512D01*
X288287D02*
X301673D01*
X288287Y174244D02*
X301673D01*
X288287Y305346D02*
Y313614D01*
X301673Y305346D02*
Y313614D01*
X288287D02*
X301673D01*
X288287Y305346D02*
X301673D01*
X91634D02*
Y313614D01*
X105020Y305346D02*
Y313614D01*
X91634D02*
X105020D01*
X91634Y305346D02*
X105020D01*
X812697D02*
Y313614D01*
X826083Y305346D02*
Y313614D01*
X812697D02*
X826083D01*
X812697Y305346D02*
X826083D01*
X675295Y1005807D02*
X701280D01*
X675295Y1026280D02*
X701280D01*
Y1005807D02*
Y1026280D01*
X675295Y1005807D02*
Y1026280D01*
X544193Y1005807D02*
X570177D01*
X544193Y1026280D02*
X570177D01*
Y1005807D02*
Y1026280D01*
X544193Y1005807D02*
Y1026280D01*
X609744Y1005807D02*
X635728D01*
X609744Y1026280D02*
X635728D01*
Y1005807D02*
Y1026280D01*
X609744Y1005807D02*
Y1026280D01*
X675295Y940256D02*
X701280D01*
X675295Y960728D02*
X701280D01*
Y940256D02*
Y960728D01*
X675295Y940256D02*
Y960728D01*
X609744Y940256D02*
X635728D01*
X609744Y960728D02*
X635728D01*
Y940256D02*
Y960728D01*
X609744Y940256D02*
Y960728D01*
X544193Y940256D02*
X570177D01*
X544193Y960728D02*
X570177D01*
Y940256D02*
Y960728D01*
X544193Y940256D02*
Y960728D01*
X1003051Y940256D02*
X1029035D01*
X1003051Y960728D02*
X1029035D01*
Y940256D02*
Y960728D01*
X1003051Y940256D02*
Y960728D01*
X937500Y940256D02*
X963484D01*
X937500Y960728D02*
X963484D01*
Y940256D02*
Y960728D01*
X937500Y940256D02*
Y960728D01*
X1003051Y1005807D02*
X1029035D01*
X1003051Y1026280D02*
X1029035D01*
Y1005807D02*
Y1026280D01*
X1003051Y1005807D02*
Y1026280D01*
X937500Y1005807D02*
X963484D01*
X937500Y1026280D02*
X963484D01*
Y1005807D02*
Y1026280D01*
X937500Y1005807D02*
Y1026280D01*
X871949Y940256D02*
X897933D01*
X871949Y960728D02*
X897933D01*
Y940256D02*
Y960728D01*
X871949Y940256D02*
Y960728D01*
X806398Y940256D02*
X832382D01*
X806398Y960728D02*
X832382D01*
Y940256D02*
Y960728D01*
X806398Y940256D02*
Y960728D01*
X740846Y940256D02*
X766831D01*
X740846Y960728D02*
X766831D01*
Y940256D02*
Y960728D01*
X740846Y940256D02*
Y960728D01*
Y1005807D02*
X766831D01*
X740846Y1026280D02*
X766831D01*
Y1005807D02*
Y1026280D01*
X740846Y1005807D02*
Y1026280D01*
X871949Y1005807D02*
X897933D01*
X871949Y1026280D02*
X897933D01*
Y1005807D02*
Y1026280D01*
X871949Y1005807D02*
Y1026280D01*
X806398Y1005807D02*
X832382D01*
X806398Y1026280D02*
X832382D01*
Y1005807D02*
Y1026280D01*
X806398Y1005807D02*
Y1026280D01*
X19783Y1005807D02*
X45768D01*
X19783Y1026280D02*
X45768D01*
Y1005807D02*
Y1026280D01*
X19783Y1005807D02*
Y1026280D01*
Y940256D02*
X45768D01*
X19783Y960728D02*
X45768D01*
Y940256D02*
Y960728D01*
X19783Y940256D02*
Y960728D01*
X150886Y1005807D02*
X176870D01*
X150886Y1026280D02*
X176870D01*
Y1005807D02*
Y1026280D01*
X150886Y1005807D02*
Y1026280D01*
X216437Y1005807D02*
X242421D01*
X216437Y1026280D02*
X242421D01*
Y1005807D02*
Y1026280D01*
X216437Y1005807D02*
Y1026280D01*
X281988Y1005807D02*
X307972D01*
X281988Y1026280D02*
X307972D01*
Y1005807D02*
Y1026280D01*
X281988Y1005807D02*
Y1026280D01*
X413091Y1005807D02*
X439075D01*
X413091Y1026280D02*
X439075D01*
Y1005807D02*
Y1026280D01*
X413091Y1005807D02*
Y1026280D01*
X478642Y1005807D02*
X504626D01*
X478642Y1026280D02*
X504626D01*
Y1005807D02*
Y1026280D01*
X478642Y1005807D02*
Y1026280D01*
X347539Y1005807D02*
X373524D01*
X347539Y1026280D02*
X373524D01*
Y1005807D02*
Y1026280D01*
X347539Y1005807D02*
Y1026280D01*
X478642Y940256D02*
X504626D01*
X478642Y960728D02*
X504626D01*
Y940256D02*
Y960728D01*
X478642Y940256D02*
Y960728D01*
X413091Y940256D02*
X439075D01*
X413091Y960728D02*
X439075D01*
Y940256D02*
Y960728D01*
X413091Y940256D02*
Y960728D01*
X347539Y940256D02*
X373524D01*
X347539Y960728D02*
X373524D01*
Y940256D02*
Y960728D01*
X347539Y940256D02*
Y960728D01*
X281988Y940256D02*
X307972D01*
X281988Y960728D02*
X307972D01*
Y940256D02*
Y960728D01*
X281988Y940256D02*
Y960728D01*
X216437Y940256D02*
X242421D01*
X216437Y960728D02*
X242421D01*
Y940256D02*
Y960728D01*
X216437Y940256D02*
Y960728D01*
X150886Y940256D02*
X176870D01*
X150886Y960728D02*
X176870D01*
Y940256D02*
Y960728D01*
X150886Y940256D02*
Y960728D01*
X85335Y1005807D02*
X111319D01*
X85335Y1026280D02*
X111319D01*
Y1005807D02*
Y1026280D01*
X85335Y1005807D02*
Y1026280D01*
Y940256D02*
X111319D01*
X85335Y960728D02*
X111319D01*
Y940256D02*
Y960728D01*
X85335Y940256D02*
Y960728D01*
X413091Y874705D02*
X439075D01*
X413091Y895177D02*
X439075D01*
Y874705D02*
Y895177D01*
X413091Y874705D02*
Y895177D01*
X347539Y874705D02*
X373524D01*
X347539Y895177D02*
X373524D01*
Y874705D02*
Y895177D01*
X347539Y874705D02*
Y895177D01*
X937500Y874705D02*
X963484D01*
X937500Y895177D02*
X963484D01*
Y874705D02*
Y895177D01*
X937500Y874705D02*
Y895177D01*
X871949Y874705D02*
X897933D01*
X871949Y895177D02*
X897933D01*
Y874705D02*
Y895177D01*
X871949Y874705D02*
Y895177D01*
X281988Y874705D02*
X307972D01*
X281988Y895177D02*
X307972D01*
Y874705D02*
Y895177D01*
X281988Y874705D02*
Y895177D01*
X216437Y874705D02*
X242421D01*
X216437Y895177D02*
X242421D01*
Y874705D02*
Y895177D01*
X216437Y874705D02*
Y895177D01*
X85335Y874705D02*
X111319D01*
X85335Y895177D02*
X111319D01*
Y874705D02*
Y895177D01*
X85335Y874705D02*
Y895177D01*
X150886Y874705D02*
X176870D01*
X150886Y895177D02*
X176870D01*
Y874705D02*
Y895177D01*
X150886Y874705D02*
Y895177D01*
X675295Y874705D02*
X701280D01*
X675295Y895177D02*
X701280D01*
Y874705D02*
Y895177D01*
X675295Y874705D02*
Y895177D01*
X609744Y874705D02*
X635728D01*
X609744Y895177D02*
X635728D01*
Y874705D02*
Y895177D01*
X609744Y874705D02*
Y895177D01*
X806398Y874705D02*
X832382D01*
X806398Y895177D02*
X832382D01*
Y874705D02*
Y895177D01*
X806398Y874705D02*
Y895177D01*
X740846Y874705D02*
X766831D01*
X740846Y895177D02*
X766831D01*
Y874705D02*
Y895177D01*
X740846Y874705D02*
Y895177D01*
X478642Y874705D02*
X504626D01*
X478642Y895177D02*
X504626D01*
Y874705D02*
Y895177D01*
X478642Y874705D02*
Y895177D01*
X544193Y874705D02*
X570177D01*
X544193Y895177D02*
X570177D01*
Y874705D02*
Y895177D01*
X544193Y874705D02*
Y895177D01*
X19783Y874705D02*
X45768D01*
X19783Y895177D02*
X45768D01*
Y874705D02*
Y895177D01*
X19783Y874705D02*
Y895177D01*
X1003051Y874705D02*
X1029035D01*
X1003051Y895177D02*
X1029035D01*
Y874705D02*
Y895177D01*
X1003051Y874705D02*
Y895177D01*
X19783Y153642D02*
X45768D01*
X19783Y174114D02*
X45768D01*
Y153642D02*
Y174114D01*
X19783Y153642D02*
Y174114D01*
X150886Y153642D02*
X176870D01*
X150886Y174114D02*
X176870D01*
Y153642D02*
Y174114D01*
X150886Y153642D02*
Y174114D01*
X281988Y153642D02*
X307972D01*
X281988Y174114D02*
X307972D01*
Y153642D02*
Y174114D01*
X281988Y153642D02*
Y174114D01*
X347539Y153642D02*
X373524D01*
X347539Y174114D02*
X373524D01*
Y153642D02*
Y174114D01*
X347539Y153642D02*
Y174114D01*
X216437Y153642D02*
X242421D01*
X216437Y174114D02*
X242421D01*
Y153642D02*
Y174114D01*
X216437Y153642D02*
Y174114D01*
X85335Y153642D02*
X111319D01*
X85335Y174114D02*
X111319D01*
Y153642D02*
Y174114D01*
X85335Y153642D02*
Y174114D01*
X544193Y350295D02*
X570177D01*
X544193Y370768D02*
X570177D01*
Y350295D02*
Y370768D01*
X544193Y350295D02*
Y370768D01*
X609744Y350295D02*
X635728D01*
X609744Y370768D02*
X635728D01*
Y350295D02*
Y370768D01*
X609744Y350295D02*
Y370768D01*
X478642Y350295D02*
X504626D01*
X478642Y370768D02*
X504626D01*
Y350295D02*
Y370768D01*
X478642Y350295D02*
Y370768D01*
X806398Y88091D02*
X832382D01*
X806398Y108563D02*
X832382D01*
Y88091D02*
Y108563D01*
X806398Y88091D02*
Y108563D01*
X675295Y88091D02*
X701280D01*
X675295Y108563D02*
X701280D01*
Y88091D02*
Y108563D01*
X675295Y88091D02*
Y108563D01*
X740846Y88091D02*
X766831D01*
X740846Y108563D02*
X766831D01*
Y88091D02*
Y108563D01*
X740846Y88091D02*
Y108563D01*
X609744Y88091D02*
X635728D01*
X609744Y108563D02*
X635728D01*
Y88091D02*
Y108563D01*
X609744Y88091D02*
Y108563D01*
X675295Y350295D02*
X701280D01*
X675295Y370768D02*
X701280D01*
Y350295D02*
Y370768D01*
X675295Y350295D02*
Y370768D01*
X740846Y350295D02*
X766831D01*
X740846Y370768D02*
X766831D01*
Y350295D02*
Y370768D01*
X740846Y350295D02*
Y370768D01*
X806398Y350295D02*
X832382D01*
X806398Y370768D02*
X832382D01*
Y350295D02*
Y370768D01*
X806398Y350295D02*
Y370768D01*
X740846Y415846D02*
X766831D01*
X740846Y436319D02*
X766831D01*
Y415846D02*
Y436319D01*
X740846Y415846D02*
Y436319D01*
X544193Y415846D02*
X570177D01*
X544193Y436319D02*
X570177D01*
Y415846D02*
Y436319D01*
X544193Y415846D02*
Y436319D01*
X478642Y415846D02*
X504626D01*
X478642Y436319D02*
X504626D01*
Y415846D02*
Y436319D01*
X478642Y415846D02*
Y436319D01*
X609744Y415846D02*
X635728D01*
X609744Y436319D02*
X635728D01*
Y415846D02*
Y436319D01*
X609744Y415846D02*
Y436319D01*
X675295Y415846D02*
X701280D01*
X675295Y436319D02*
X701280D01*
Y415846D02*
Y436319D01*
X675295Y415846D02*
Y436319D01*
X806398Y415846D02*
X832382D01*
X806398Y436319D02*
X832382D01*
Y415846D02*
Y436319D01*
X806398Y415846D02*
Y436319D01*
X544193Y88091D02*
X570177D01*
X544193Y108563D02*
X570177D01*
Y88091D02*
Y108563D01*
X544193Y88091D02*
Y108563D01*
Y481398D02*
X570177D01*
X544193Y501870D02*
X570177D01*
Y481398D02*
Y501870D01*
X544193Y481398D02*
Y501870D01*
X478642Y481398D02*
X504626D01*
X478642Y501870D02*
X504626D01*
Y481398D02*
Y501870D01*
X478642Y481398D02*
Y501870D01*
Y612500D02*
X504626D01*
X478642Y632972D02*
X504626D01*
Y612500D02*
Y632972D01*
X478642Y612500D02*
Y632972D01*
X544193Y612500D02*
X570177D01*
X544193Y632972D02*
X570177D01*
Y612500D02*
Y632972D01*
X544193Y612500D02*
Y632972D01*
X609744Y612500D02*
X635728D01*
X609744Y632972D02*
X635728D01*
Y612500D02*
Y632972D01*
X609744Y612500D02*
Y632972D01*
X740846Y481398D02*
X766831D01*
X740846Y501870D02*
X766831D01*
Y481398D02*
Y501870D01*
X740846Y481398D02*
Y501870D01*
X675295Y481398D02*
X701280D01*
X675295Y501870D02*
X701280D01*
Y481398D02*
Y501870D01*
X675295Y481398D02*
Y501870D01*
X609744Y481398D02*
X635728D01*
X609744Y501870D02*
X635728D01*
Y481398D02*
Y501870D01*
X609744Y481398D02*
Y501870D01*
X740846Y612500D02*
X766831D01*
X740846Y632972D02*
X766831D01*
Y612500D02*
Y632972D01*
X740846Y612500D02*
Y632972D01*
X675295Y612500D02*
X701280D01*
X675295Y632972D02*
X701280D01*
Y612500D02*
Y632972D01*
X675295Y612500D02*
Y632972D01*
X806398Y612500D02*
X832382D01*
X806398Y632972D02*
X832382D01*
Y612500D02*
Y632972D01*
X806398Y612500D02*
Y632972D01*
X740846Y546949D02*
X766831D01*
X740846Y567421D02*
X766831D01*
Y546949D02*
Y567421D01*
X740846Y546949D02*
Y567421D01*
X806398Y546949D02*
X832382D01*
X806398Y567421D02*
X832382D01*
Y546949D02*
Y567421D01*
X806398Y546949D02*
Y567421D01*
X544193Y546949D02*
X570177D01*
X544193Y567421D02*
X570177D01*
Y546949D02*
Y567421D01*
X544193Y546949D02*
Y567421D01*
X675295Y546949D02*
X701280D01*
X675295Y567421D02*
X701280D01*
Y546949D02*
Y567421D01*
X675295Y546949D02*
Y567421D01*
X609744Y546949D02*
X635728D01*
X609744Y567421D02*
X635728D01*
Y546949D02*
Y567421D01*
X609744Y546949D02*
Y567421D01*
X478642Y546949D02*
X504626D01*
X478642Y567421D02*
X504626D01*
Y546949D02*
Y567421D01*
X478642Y546949D02*
Y567421D01*
X740846Y284744D02*
X766831D01*
X740846Y305217D02*
X766831D01*
Y284744D02*
Y305217D01*
X740846Y284744D02*
Y305217D01*
X806398Y284744D02*
X832382D01*
X806398Y305217D02*
X832382D01*
Y284744D02*
Y305217D01*
X806398Y284744D02*
Y305217D01*
X675295Y284744D02*
X701280D01*
X675295Y305217D02*
X701280D01*
Y284744D02*
Y305217D01*
X675295Y284744D02*
Y305217D01*
X609744Y284744D02*
X635728D01*
X609744Y305217D02*
X635728D01*
Y284744D02*
Y305217D01*
X609744Y284744D02*
Y305217D01*
X1003051Y284744D02*
X1029035D01*
X1003051Y305217D02*
X1029035D01*
Y284744D02*
Y305217D01*
X1003051Y284744D02*
Y305217D01*
X544193Y284744D02*
X570177D01*
X544193Y305217D02*
X570177D01*
Y284744D02*
Y305217D01*
X544193Y284744D02*
Y305217D01*
X937500Y284744D02*
X963484D01*
X937500Y305217D02*
X963484D01*
Y284744D02*
Y305217D01*
X937500Y284744D02*
Y305217D01*
X871949Y284744D02*
X897933D01*
X871949Y305217D02*
X897933D01*
Y284744D02*
Y305217D01*
X871949Y284744D02*
Y305217D01*
X478642Y284744D02*
X504626D01*
X478642Y305217D02*
X504626D01*
Y284744D02*
Y305217D01*
X478642Y284744D02*
Y305217D01*
X413091Y284744D02*
X439075D01*
X413091Y305217D02*
X439075D01*
Y284744D02*
Y305217D01*
X413091Y284744D02*
Y305217D01*
X347539Y284744D02*
X373524D01*
X347539Y305217D02*
X373524D01*
Y284744D02*
Y305217D01*
X347539Y284744D02*
Y305217D01*
X19783Y284744D02*
X45768D01*
X19783Y305217D02*
X45768D01*
Y284744D02*
Y305217D01*
X19783Y284744D02*
Y305217D01*
X85335Y284744D02*
X111319D01*
X85335Y305217D02*
X111319D01*
Y284744D02*
Y305217D01*
X85335Y284744D02*
Y305217D01*
X216437Y284744D02*
X242421D01*
X216437Y305217D02*
X242421D01*
Y284744D02*
Y305217D01*
X216437Y284744D02*
Y305217D01*
X150886Y284744D02*
X176870D01*
X150886Y305217D02*
X176870D01*
Y284744D02*
Y305217D01*
X150886Y284744D02*
Y305217D01*
X281988Y284744D02*
X307972D01*
X281988Y305217D02*
X307972D01*
Y284744D02*
Y305217D01*
X281988Y284744D02*
Y305217D01*
X150886Y809154D02*
X176870D01*
X150886Y829626D02*
X176870D01*
Y809154D02*
Y829626D01*
X150886Y809154D02*
Y829626D01*
Y678051D02*
X176870D01*
X150886Y698524D02*
X176870D01*
Y678051D02*
Y698524D01*
X150886Y678051D02*
Y698524D01*
Y743602D02*
X176870D01*
X150886Y764075D02*
X176870D01*
Y743602D02*
Y764075D01*
X150886Y743602D02*
Y764075D01*
X281988Y678051D02*
X307972D01*
X281988Y698524D02*
X307972D01*
Y678051D02*
Y698524D01*
X281988Y678051D02*
Y698524D01*
Y743602D02*
X307972D01*
X281988Y764075D02*
X307972D01*
Y743602D02*
Y764075D01*
X281988Y743602D02*
Y764075D01*
Y809154D02*
X307972D01*
X281988Y829626D02*
X307972D01*
Y809154D02*
Y829626D01*
X281988Y809154D02*
Y829626D01*
X216437Y809154D02*
X242421D01*
X216437Y829626D02*
X242421D01*
Y809154D02*
Y829626D01*
X216437Y809154D02*
Y829626D01*
Y743602D02*
X242421D01*
X216437Y764075D02*
X242421D01*
Y743602D02*
Y764075D01*
X216437Y743602D02*
Y764075D01*
X347539Y809154D02*
X373524D01*
X347539Y829626D02*
X373524D01*
Y809154D02*
Y829626D01*
X347539Y809154D02*
Y829626D01*
Y678051D02*
X373524D01*
X347539Y698524D02*
X373524D01*
Y678051D02*
Y698524D01*
X347539Y678051D02*
Y698524D01*
Y743602D02*
X373524D01*
X347539Y764075D02*
X373524D01*
Y743602D02*
Y764075D01*
X347539Y743602D02*
Y764075D01*
X413091Y809154D02*
X439075D01*
X413091Y829626D02*
X439075D01*
Y809154D02*
Y829626D01*
X413091Y809154D02*
Y829626D01*
Y678051D02*
X439075D01*
X413091Y698524D02*
X439075D01*
Y678051D02*
Y698524D01*
X413091Y678051D02*
Y698524D01*
Y743602D02*
X439075D01*
X413091Y764075D02*
X439075D01*
Y743602D02*
Y764075D01*
X413091Y743602D02*
Y764075D01*
X609744Y809154D02*
X635728D01*
X609744Y829626D02*
X635728D01*
Y809154D02*
Y829626D01*
X609744Y809154D02*
Y829626D01*
X544193Y809154D02*
X570177D01*
X544193Y829626D02*
X570177D01*
Y809154D02*
Y829626D01*
X544193Y809154D02*
Y829626D01*
X478642Y809154D02*
X504626D01*
X478642Y829626D02*
X504626D01*
Y809154D02*
Y829626D01*
X478642Y809154D02*
Y829626D01*
X609744Y153642D02*
X635728D01*
X609744Y174114D02*
X635728D01*
Y153642D02*
Y174114D01*
X609744Y153642D02*
Y174114D01*
X675295Y153642D02*
X701280D01*
X675295Y174114D02*
X701280D01*
Y153642D02*
Y174114D01*
X675295Y153642D02*
Y174114D01*
X544193Y153642D02*
X570177D01*
X544193Y174114D02*
X570177D01*
Y153642D02*
Y174114D01*
X544193Y153642D02*
Y174114D01*
X478642Y153642D02*
X504626D01*
X478642Y174114D02*
X504626D01*
Y153642D02*
Y174114D01*
X478642Y153642D02*
Y174114D01*
X413091Y153642D02*
X439075D01*
X413091Y174114D02*
X439075D01*
Y153642D02*
Y174114D01*
X413091Y153642D02*
Y174114D01*
X806398Y153642D02*
X832382D01*
X806398Y174114D02*
X832382D01*
Y153642D02*
Y174114D01*
X806398Y153642D02*
Y174114D01*
X871949Y153642D02*
X897933D01*
X871949Y174114D02*
X897933D01*
Y153642D02*
Y174114D01*
X871949Y153642D02*
Y174114D01*
X937500Y153642D02*
X963484D01*
X937500Y174114D02*
X963484D01*
Y153642D02*
Y174114D01*
X937500Y153642D02*
Y174114D01*
X1003051Y153642D02*
X1029035D01*
X1003051Y174114D02*
X1029035D01*
Y153642D02*
Y174114D01*
X1003051Y153642D02*
Y174114D01*
X740846Y153642D02*
X766831D01*
X740846Y174114D02*
X766831D01*
Y153642D02*
Y174114D01*
X740846Y153642D02*
Y174114D01*
X1003051Y809154D02*
X1029035D01*
X1003051Y829626D02*
X1029035D01*
Y809154D02*
Y829626D01*
X1003051Y809154D02*
Y829626D01*
Y678051D02*
X1029035D01*
X1003051Y698524D02*
X1029035D01*
Y678051D02*
Y698524D01*
X1003051Y678051D02*
Y698524D01*
Y743602D02*
X1029035D01*
X1003051Y764075D02*
X1029035D01*
Y743602D02*
Y764075D01*
X1003051Y743602D02*
Y764075D01*
X937500Y678051D02*
X963484D01*
X937500Y698524D02*
X963484D01*
Y678051D02*
Y698524D01*
X937500Y678051D02*
Y698524D01*
X871949Y678051D02*
X897933D01*
X871949Y698524D02*
X897933D01*
Y678051D02*
Y698524D01*
X871949Y678051D02*
Y698524D01*
X806398Y743602D02*
X832382D01*
X806398Y764075D02*
X832382D01*
Y743602D02*
Y764075D01*
X806398Y743602D02*
Y764075D01*
X937500Y809154D02*
X963484D01*
X937500Y829626D02*
X963484D01*
Y809154D02*
Y829626D01*
X937500Y809154D02*
Y829626D01*
Y743602D02*
X963484D01*
X937500Y764075D02*
X963484D01*
Y743602D02*
Y764075D01*
X937500Y743602D02*
Y764075D01*
X871949Y809154D02*
X897933D01*
X871949Y829626D02*
X897933D01*
Y809154D02*
Y829626D01*
X871949Y809154D02*
Y829626D01*
Y743602D02*
X897933D01*
X871949Y764075D02*
X897933D01*
Y743602D02*
Y764075D01*
X871949Y743602D02*
Y764075D01*
X806398Y809154D02*
X832382D01*
X806398Y829626D02*
X832382D01*
Y809154D02*
Y829626D01*
X806398Y809154D02*
Y829626D01*
X1003051Y612500D02*
X1029035D01*
X1003051Y632972D02*
X1029035D01*
Y612500D02*
Y632972D01*
X1003051Y612500D02*
Y632972D01*
X937500Y546949D02*
X963484D01*
X937500Y567421D02*
X963484D01*
Y546949D02*
Y567421D01*
X937500Y546949D02*
Y567421D01*
X871949Y546949D02*
X897933D01*
X871949Y567421D02*
X897933D01*
Y546949D02*
Y567421D01*
X871949Y546949D02*
Y567421D01*
X1003051Y546949D02*
X1029035D01*
X1003051Y567421D02*
X1029035D01*
Y546949D02*
Y567421D01*
X1003051Y546949D02*
Y567421D01*
X937500Y612500D02*
X963484D01*
X937500Y632972D02*
X963484D01*
Y612500D02*
Y632972D01*
X937500Y612500D02*
Y632972D01*
X871949Y612500D02*
X897933D01*
X871949Y632972D02*
X897933D01*
Y612500D02*
Y632972D01*
X871949Y612500D02*
Y632972D01*
X937500Y415846D02*
X963484D01*
X937500Y436319D02*
X963484D01*
Y415846D02*
Y436319D01*
X937500Y415846D02*
Y436319D01*
Y481398D02*
X963484D01*
X937500Y501870D02*
X963484D01*
Y481398D02*
Y501870D01*
X937500Y481398D02*
Y501870D01*
X871949Y415846D02*
X897933D01*
X871949Y436319D02*
X897933D01*
Y415846D02*
Y436319D01*
X871949Y415846D02*
Y436319D01*
Y481398D02*
X897933D01*
X871949Y501870D02*
X897933D01*
Y481398D02*
Y501870D01*
X871949Y481398D02*
Y501870D01*
X1003051Y481398D02*
X1029035D01*
X1003051Y501870D02*
X1029035D01*
Y481398D02*
Y501870D01*
X1003051Y481398D02*
Y501870D01*
X871949Y350295D02*
X897933D01*
X871949Y370768D02*
X897933D01*
Y350295D02*
Y370768D01*
X871949Y350295D02*
Y370768D01*
X806398Y481398D02*
X832382D01*
X806398Y501870D02*
X832382D01*
Y481398D02*
Y501870D01*
X806398Y481398D02*
Y501870D01*
X1003051Y350295D02*
X1029035D01*
X1003051Y370768D02*
X1029035D01*
Y350295D02*
Y370768D01*
X1003051Y350295D02*
Y370768D01*
Y415846D02*
X1029035D01*
X1003051Y436319D02*
X1029035D01*
Y415846D02*
Y436319D01*
X1003051Y415846D02*
Y436319D01*
X937500Y350295D02*
X963484D01*
X937500Y370768D02*
X963484D01*
Y350295D02*
Y370768D01*
X937500Y350295D02*
Y370768D01*
X281988Y219193D02*
X307972D01*
X281988Y239665D02*
X307972D01*
Y219193D02*
Y239665D01*
X281988Y219193D02*
Y239665D01*
X347539Y219193D02*
X373524D01*
X347539Y239665D02*
X373524D01*
Y219193D02*
Y239665D01*
X347539Y219193D02*
Y239665D01*
X413091Y219193D02*
X439075D01*
X413091Y239665D02*
X439075D01*
Y219193D02*
Y239665D01*
X413091Y219193D02*
Y239665D01*
X544193Y219193D02*
X570177D01*
X544193Y239665D02*
X570177D01*
Y219193D02*
Y239665D01*
X544193Y219193D02*
Y239665D01*
X609744Y219193D02*
X635728D01*
X609744Y239665D02*
X635728D01*
Y219193D02*
Y239665D01*
X609744Y219193D02*
Y239665D01*
X806398Y219193D02*
X832382D01*
X806398Y239665D02*
X832382D01*
Y219193D02*
Y239665D01*
X806398Y219193D02*
Y239665D01*
X675295Y219193D02*
X701280D01*
X675295Y239665D02*
X701280D01*
Y219193D02*
Y239665D01*
X675295Y219193D02*
Y239665D01*
X740846Y219193D02*
X766831D01*
X740846Y239665D02*
X766831D01*
Y219193D02*
Y239665D01*
X740846Y219193D02*
Y239665D01*
X216437Y219193D02*
X242421D01*
X216437Y239665D02*
X242421D01*
Y219193D02*
Y239665D01*
X216437Y219193D02*
Y239665D01*
X478642Y219193D02*
X504626D01*
X478642Y239665D02*
X504626D01*
Y219193D02*
Y239665D01*
X478642Y219193D02*
Y239665D01*
X150886Y219193D02*
X176870D01*
X150886Y239665D02*
X176870D01*
Y219193D02*
Y239665D01*
X150886Y219193D02*
Y239665D01*
X85335Y219193D02*
X111319D01*
X85335Y239665D02*
X111319D01*
Y219193D02*
Y239665D01*
X85335Y219193D02*
Y239665D01*
X19783Y219193D02*
X45768D01*
X19783Y239665D02*
X45768D01*
Y219193D02*
Y239665D01*
X19783Y219193D02*
Y239665D01*
X937500Y219193D02*
X963484D01*
X937500Y239665D02*
X963484D01*
Y219193D02*
Y239665D01*
X937500Y219193D02*
Y239665D01*
X1003051Y219193D02*
X1029035D01*
X1003051Y239665D02*
X1029035D01*
Y219193D02*
Y239665D01*
X1003051Y219193D02*
Y239665D01*
X871949Y219193D02*
X897933D01*
X871949Y239665D02*
X897933D01*
Y219193D02*
Y239665D01*
X871949Y219193D02*
Y239665D01*
X85335Y22539D02*
X111319D01*
X85335Y43012D02*
X111319D01*
Y22539D02*
Y43012D01*
X85335Y22539D02*
Y43012D01*
X19783Y22539D02*
X45768D01*
X19783Y43012D02*
X45768D01*
Y22539D02*
Y43012D01*
X19783Y22539D02*
Y43012D01*
Y88091D02*
X45768D01*
X19783Y108563D02*
X45768D01*
Y88091D02*
Y108563D01*
X19783Y88091D02*
Y108563D01*
X150886Y88091D02*
X176870D01*
X150886Y108563D02*
X176870D01*
Y88091D02*
Y108563D01*
X150886Y88091D02*
Y108563D01*
Y22539D02*
X176870D01*
X150886Y43012D02*
X176870D01*
Y22539D02*
Y43012D01*
X150886Y22539D02*
Y43012D01*
X216437Y88091D02*
X242421D01*
X216437Y108563D02*
X242421D01*
Y88091D02*
Y108563D01*
X216437Y88091D02*
Y108563D01*
X281988Y22539D02*
X307972D01*
X281988Y43012D02*
X307972D01*
Y22539D02*
Y43012D01*
X281988Y22539D02*
Y43012D01*
X216437Y22539D02*
X242421D01*
X216437Y43012D02*
X242421D01*
Y22539D02*
Y43012D01*
X216437Y22539D02*
Y43012D01*
X281988Y88091D02*
X307972D01*
X281988Y108563D02*
X307972D01*
Y88091D02*
Y108563D01*
X281988Y88091D02*
Y108563D01*
X85335Y88091D02*
X111319D01*
X85335Y108563D02*
X111319D01*
Y88091D02*
Y108563D01*
X85335Y88091D02*
Y108563D01*
X19783Y481398D02*
X45768D01*
X19783Y501870D02*
X45768D01*
Y481398D02*
Y501870D01*
X19783Y481398D02*
Y501870D01*
Y546949D02*
X45768D01*
X19783Y567421D02*
X45768D01*
Y546949D02*
Y567421D01*
X19783Y546949D02*
Y567421D01*
Y678051D02*
X45768D01*
X19783Y698524D02*
X45768D01*
Y678051D02*
Y698524D01*
X19783Y678051D02*
Y698524D01*
Y612500D02*
X45768D01*
X19783Y632972D02*
X45768D01*
Y612500D02*
Y632972D01*
X19783Y612500D02*
Y632972D01*
Y809154D02*
X45768D01*
X19783Y829626D02*
X45768D01*
Y809154D02*
Y829626D01*
X19783Y809154D02*
Y829626D01*
X85335Y809154D02*
X111319D01*
X85335Y829626D02*
X111319D01*
Y809154D02*
Y829626D01*
X85335Y809154D02*
Y829626D01*
Y481398D02*
X111319D01*
X85335Y501870D02*
X111319D01*
Y481398D02*
Y501870D01*
X85335Y481398D02*
Y501870D01*
Y546949D02*
X111319D01*
X85335Y567421D02*
X111319D01*
Y546949D02*
Y567421D01*
X85335Y546949D02*
Y567421D01*
Y612500D02*
X111319D01*
X85335Y632972D02*
X111319D01*
Y612500D02*
Y632972D01*
X85335Y612500D02*
Y632972D01*
Y678051D02*
X111319D01*
X85335Y698524D02*
X111319D01*
Y678051D02*
Y698524D01*
X85335Y678051D02*
Y698524D01*
X19783Y743602D02*
X45768D01*
X19783Y764075D02*
X45768D01*
Y743602D02*
Y764075D01*
X19783Y743602D02*
Y764075D01*
X85335Y743602D02*
X111319D01*
X85335Y764075D02*
X111319D01*
Y743602D02*
Y764075D01*
X85335Y743602D02*
Y764075D01*
Y350295D02*
X111319D01*
X85335Y370768D02*
X111319D01*
Y350295D02*
Y370768D01*
X85335Y350295D02*
Y370768D01*
Y415846D02*
X111319D01*
X85335Y436319D02*
X111319D01*
Y415846D02*
Y436319D01*
X85335Y415846D02*
Y436319D01*
X19783Y350295D02*
X45768D01*
X19783Y370768D02*
X45768D01*
Y350295D02*
Y370768D01*
X19783Y350295D02*
Y370768D01*
Y415846D02*
X45768D01*
X19783Y436319D02*
X45768D01*
Y415846D02*
Y436319D01*
X19783Y415846D02*
Y436319D01*
X740846Y743602D02*
X766831D01*
X740846Y764075D02*
X766831D01*
Y743602D02*
Y764075D01*
X740846Y743602D02*
Y764075D01*
Y809154D02*
X766831D01*
X740846Y829626D02*
X766831D01*
Y809154D02*
Y829626D01*
X740846Y809154D02*
Y829626D01*
X806398Y678051D02*
X832382D01*
X806398Y698524D02*
X832382D01*
Y678051D02*
Y698524D01*
X806398Y678051D02*
Y698524D01*
X740846Y678051D02*
X766831D01*
X740846Y698524D02*
X766831D01*
Y678051D02*
Y698524D01*
X740846Y678051D02*
Y698524D01*
X675295Y678051D02*
X701280D01*
X675295Y698524D02*
X701280D01*
Y678051D02*
Y698524D01*
X675295Y678051D02*
Y698524D01*
X609744Y678051D02*
X635728D01*
X609744Y698524D02*
X635728D01*
Y678051D02*
Y698524D01*
X609744Y678051D02*
Y698524D01*
X544193Y678051D02*
X570177D01*
X544193Y698524D02*
X570177D01*
Y678051D02*
Y698524D01*
X544193Y678051D02*
Y698524D01*
X478642Y678051D02*
X504626D01*
X478642Y698524D02*
X504626D01*
Y678051D02*
Y698524D01*
X478642Y678051D02*
Y698524D01*
Y743602D02*
X504626D01*
X478642Y764075D02*
X504626D01*
Y743602D02*
Y764075D01*
X478642Y743602D02*
Y764075D01*
X609744Y743602D02*
X635728D01*
X609744Y764075D02*
X635728D01*
Y743602D02*
Y764075D01*
X609744Y743602D02*
Y764075D01*
X544193Y743602D02*
X570177D01*
X544193Y764075D02*
X570177D01*
Y743602D02*
Y764075D01*
X544193Y743602D02*
Y764075D01*
X675295Y743602D02*
X701280D01*
X675295Y764075D02*
X701280D01*
Y743602D02*
Y764075D01*
X675295Y743602D02*
Y764075D01*
Y809154D02*
X701280D01*
X675295Y829626D02*
X701280D01*
Y809154D02*
Y829626D01*
X675295Y809154D02*
Y829626D01*
X413091Y481398D02*
X439075D01*
X413091Y501870D02*
X439075D01*
Y481398D02*
Y501870D01*
X413091Y481398D02*
Y501870D01*
Y546949D02*
X439075D01*
X413091Y567421D02*
X439075D01*
Y546949D02*
Y567421D01*
X413091Y546949D02*
Y567421D01*
X347539Y350295D02*
X373524D01*
X347539Y370768D02*
X373524D01*
Y350295D02*
Y370768D01*
X347539Y350295D02*
Y370768D01*
X413091Y350295D02*
X439075D01*
X413091Y370768D02*
X439075D01*
Y350295D02*
Y370768D01*
X413091Y350295D02*
Y370768D01*
X216437Y350295D02*
X242421D01*
X216437Y370768D02*
X242421D01*
Y350295D02*
Y370768D01*
X216437Y350295D02*
Y370768D01*
X150886Y350295D02*
X176870D01*
X150886Y370768D02*
X176870D01*
Y350295D02*
Y370768D01*
X150886Y350295D02*
Y370768D01*
Y415846D02*
X176870D01*
X150886Y436319D02*
X176870D01*
Y415846D02*
Y436319D01*
X150886Y415846D02*
Y436319D01*
X281988Y350295D02*
X307972D01*
X281988Y370768D02*
X307972D01*
Y350295D02*
Y370768D01*
X281988Y350295D02*
Y370768D01*
Y415846D02*
X307972D01*
X281988Y436319D02*
X307972D01*
Y415846D02*
Y436319D01*
X281988Y415846D02*
Y436319D01*
X216437Y415846D02*
X242421D01*
X216437Y436319D02*
X242421D01*
Y415846D02*
Y436319D01*
X216437Y415846D02*
Y436319D01*
Y546949D02*
X242421D01*
X216437Y567421D02*
X242421D01*
Y546949D02*
Y567421D01*
X216437Y546949D02*
Y567421D01*
X347539Y481398D02*
X373524D01*
X347539Y501870D02*
X373524D01*
Y481398D02*
Y501870D01*
X347539Y481398D02*
Y501870D01*
Y546949D02*
X373524D01*
X347539Y567421D02*
X373524D01*
Y546949D02*
Y567421D01*
X347539Y546949D02*
Y567421D01*
X281988Y612500D02*
X307972D01*
X281988Y632972D02*
X307972D01*
Y612500D02*
Y632972D01*
X281988Y612500D02*
Y632972D01*
Y546949D02*
X307972D01*
X281988Y567421D02*
X307972D01*
Y546949D02*
Y567421D01*
X281988Y546949D02*
Y567421D01*
X150886Y612500D02*
X176870D01*
X150886Y632972D02*
X176870D01*
Y612500D02*
Y632972D01*
X150886Y612500D02*
Y632972D01*
Y546949D02*
X176870D01*
X150886Y567421D02*
X176870D01*
Y546949D02*
Y567421D01*
X150886Y546949D02*
Y567421D01*
X413091Y612500D02*
X439075D01*
X413091Y632972D02*
X439075D01*
Y612500D02*
Y632972D01*
X413091Y612500D02*
Y632972D01*
X347539Y612500D02*
X373524D01*
X347539Y632972D02*
X373524D01*
Y612500D02*
Y632972D01*
X347539Y612500D02*
Y632972D01*
X150886Y481398D02*
X176870D01*
X150886Y501870D02*
X176870D01*
Y481398D02*
Y501870D01*
X150886Y481398D02*
Y501870D01*
X216437Y481398D02*
X242421D01*
X216437Y501870D02*
X242421D01*
Y481398D02*
Y501870D01*
X216437Y481398D02*
Y501870D01*
X281988Y481398D02*
X307972D01*
X281988Y501870D02*
X307972D01*
Y481398D02*
Y501870D01*
X281988Y481398D02*
Y501870D01*
X413091Y415846D02*
X439075D01*
X413091Y436319D02*
X439075D01*
Y415846D02*
Y436319D01*
X413091Y415846D02*
Y436319D01*
X347539Y415846D02*
X373524D01*
X347539Y436319D02*
X373524D01*
Y415846D02*
Y436319D01*
X347539Y415846D02*
Y436319D01*
X216437Y612500D02*
X242421D01*
X216437Y632972D02*
X242421D01*
Y612500D02*
Y632972D01*
X216437Y612500D02*
Y632972D01*
Y678051D02*
X242421D01*
X216437Y698524D02*
X242421D01*
Y678051D02*
Y698524D01*
X216437Y678051D02*
Y698524D01*
X806398Y22539D02*
X832382D01*
X806398Y43012D02*
X832382D01*
Y22539D02*
Y43012D01*
X806398Y22539D02*
Y43012D01*
X740846Y22539D02*
X766831D01*
X740846Y43012D02*
X766831D01*
Y22539D02*
Y43012D01*
X740846Y22539D02*
Y43012D01*
X675295Y22539D02*
X701280D01*
X675295Y43012D02*
X701280D01*
Y22539D02*
Y43012D01*
X675295Y22539D02*
Y43012D01*
X1003051Y22539D02*
X1029035D01*
X1003051Y43012D02*
X1029035D01*
Y22539D02*
Y43012D01*
X1003051Y22539D02*
Y43012D01*
X937500Y22539D02*
X963484D01*
X937500Y43012D02*
X963484D01*
Y22539D02*
Y43012D01*
X937500Y22539D02*
Y43012D01*
X871949Y22539D02*
X897933D01*
X871949Y43012D02*
X897933D01*
Y22539D02*
Y43012D01*
X871949Y22539D02*
Y43012D01*
X609744Y22539D02*
X635728D01*
X609744Y43012D02*
X635728D01*
Y22539D02*
Y43012D01*
X609744Y22539D02*
Y43012D01*
X478642Y88091D02*
X504626D01*
X478642Y108563D02*
X504626D01*
Y88091D02*
Y108563D01*
X478642Y88091D02*
Y108563D01*
X413091Y88091D02*
X439075D01*
X413091Y108563D02*
X439075D01*
Y88091D02*
Y108563D01*
X413091Y88091D02*
Y108563D01*
X347539Y88091D02*
X373524D01*
X347539Y108563D02*
X373524D01*
Y88091D02*
Y108563D01*
X347539Y88091D02*
Y108563D01*
X1003051Y88091D02*
X1029035D01*
X1003051Y108563D02*
X1029035D01*
Y88091D02*
Y108563D01*
X1003051Y88091D02*
Y108563D01*
X937500Y88091D02*
X963484D01*
X937500Y108563D02*
X963484D01*
Y88091D02*
Y108563D01*
X937500Y88091D02*
Y108563D01*
X871949Y88091D02*
X897933D01*
X871949Y108563D02*
X897933D01*
Y88091D02*
Y108563D01*
X871949Y88091D02*
Y108563D01*
X544193Y22539D02*
X570177D01*
X544193Y43012D02*
X570177D01*
Y22539D02*
Y43012D01*
X544193Y22539D02*
Y43012D01*
X478642Y22539D02*
X504626D01*
X478642Y43012D02*
X504626D01*
Y22539D02*
Y43012D01*
X478642Y22539D02*
Y43012D01*
X413091Y22539D02*
X439075D01*
X413091Y43012D02*
X439075D01*
Y22539D02*
Y43012D01*
X413091Y22539D02*
Y43012D01*
X347539Y22539D02*
X373524D01*
X347539Y43012D02*
X373524D01*
Y22539D02*
Y43012D01*
X347539Y22539D02*
Y43012D01*
M02*
