G04*
G04 #@! TF.GenerationSoftware,Altium Limited,Altium Designer,24.3.1 (35)*
G04*
G04 Layer_Color=128*
%FSLAX25Y25*%
%MOIN*%
G70*
G04*
G04 #@! TF.SameCoordinates,990AA879-4203-459C-8826-AB23A681A769*
G04*
G04*
G04 #@! TF.FilePolarity,Positive*
G04*
G01*
G75*
%ADD13R,0.05906X0.03543*%
%ADD33R,0.03150X0.03740*%
%ADD34R,0.01860X0.02029*%
%ADD35R,0.11024X0.08661*%
%ADD36R,0.02894X0.03394*%
G04:AMPARAMS|DCode=37|XSize=124.02mil|YSize=57.09mil|CornerRadius=2mil|HoleSize=0mil|Usage=FLASHONLY|Rotation=180.000|XOffset=0mil|YOffset=0mil|HoleType=Round|Shape=RoundedRectangle|*
%AMROUNDEDRECTD37*
21,1,0.12402,0.05309,0,0,180.0*
21,1,0.12002,0.05709,0,0,180.0*
1,1,0.00400,-0.06001,0.02655*
1,1,0.00400,0.06001,0.02655*
1,1,0.00400,0.06001,-0.02655*
1,1,0.00400,-0.06001,-0.02655*
%
%ADD37ROUNDEDRECTD37*%
G04:AMPARAMS|DCode=38|XSize=35.43mil|YSize=57.09mil|CornerRadius=1.95mil|HoleSize=0mil|Usage=FLASHONLY|Rotation=180.000|XOffset=0mil|YOffset=0mil|HoleType=Round|Shape=RoundedRectangle|*
%AMROUNDEDRECTD38*
21,1,0.03543,0.05319,0,0,180.0*
21,1,0.03154,0.05709,0,0,180.0*
1,1,0.00390,-0.01577,0.02659*
1,1,0.00390,0.01577,0.02659*
1,1,0.00390,0.01577,-0.02659*
1,1,0.00390,-0.01577,-0.02659*
%
%ADD38ROUNDEDRECTD38*%
%ADD39R,0.03543X0.03543*%
%ADD40R,0.03543X0.05906*%
%ADD41R,0.01181X0.04528*%
%ADD42R,0.02362X0.04528*%
%ADD43R,0.08583X0.07874*%
D13*
X358500Y5500D02*
D03*
Y10500D02*
D03*
Y15500D02*
D03*
Y20500D02*
D03*
Y25500D02*
D03*
Y30500D02*
D03*
Y35500D02*
D03*
Y40500D02*
D03*
Y45500D02*
D03*
Y50500D02*
D03*
Y55500D02*
D03*
Y60500D02*
D03*
Y65500D02*
D03*
Y70500D02*
D03*
X427398D02*
D03*
Y65500D02*
D03*
Y60500D02*
D03*
Y55500D02*
D03*
Y50500D02*
D03*
Y45500D02*
D03*
Y40500D02*
D03*
Y35500D02*
D03*
Y30500D02*
D03*
Y25500D02*
D03*
Y20500D02*
D03*
Y15500D02*
D03*
Y10500D02*
D03*
Y5500D02*
D03*
D33*
X334059Y22320D02*
D03*
X328941D02*
D03*
D34*
X340104Y9010D02*
D03*
Y11990D02*
D03*
X346708Y9010D02*
D03*
Y11990D02*
D03*
D35*
X328949Y10500D02*
D03*
X310051D02*
D03*
D36*
X531577Y39879D02*
D03*
X536423D02*
D03*
X515423Y40000D02*
D03*
X510577D02*
D03*
D37*
X333000Y29219D02*
D03*
D38*
X342055Y53431D02*
D03*
X333000D02*
D03*
X323945D02*
D03*
D39*
X387043Y35894D02*
D03*
X381532D02*
D03*
X392555D02*
D03*
X381532Y41405D02*
D03*
X387043D02*
D03*
X392555D02*
D03*
X381532Y30382D02*
D03*
X387043D02*
D03*
X392555D02*
D03*
D40*
X365449Y75421D02*
D03*
X370449D02*
D03*
X375449D02*
D03*
X380449D02*
D03*
X385449D02*
D03*
X390449D02*
D03*
X395449D02*
D03*
X400449D02*
D03*
X405449D02*
D03*
X410449D02*
D03*
X415449D02*
D03*
X420449D02*
D03*
D41*
X517520Y29988D02*
D03*
X519488D02*
D03*
X521457D02*
D03*
X523425D02*
D03*
X525394D02*
D03*
X527362D02*
D03*
X529331D02*
D03*
X531299D02*
D03*
D42*
X514961D02*
D03*
X533858D02*
D03*
X511811D02*
D03*
X537008D02*
D03*
D43*
X504291Y27724D02*
D03*
X544528D02*
D03*
X504291Y12252D02*
D03*
X544528D02*
D03*
M02*
