M48
;Layer_Color=9474304
;FILE_FORMAT=2:5
INCH,LZ
;TYPE=PLATED
T01F00S00C0.00787
T02F00S00C0.01400
T03F00S00C0.02362
T04F00S00C0.05118
T05F00S00C0.12598
;TYPE=NON_PLATED
T06F00S00C0.02559
T07F00S00C0.03902
%
T01
X0384287Y0030382
X0381532Y0033138
X0384287Y0035894
X0387043Y0033138
X0389799Y0035894
X0392555Y0033138
Y003865
X0387043
X0381532
X0384287Y0041405
X0389799
Y0030382
T02
X0349Y00055
X0365Y00155
X0423945Y000575
X04395Y00355
X04645Y0011
T03
X10185Y0068
X09825Y0108
X0915Y00415
X05415Y00535
X05045Y0053
X044Y00615
Y0067
X03835
Y00615
X0342Y00535
X00655Y00815
X0051Y0105051
Y00395
X00655Y0147051
X0051Y0170602
X00655Y0212602
X0051Y0236153
X0983Y0238
X10165Y02655
Y0197
X0983Y01735
X10165Y0133
X10155Y0333
X0983Y0304
X09835Y03695
X1016Y04
X00655Y0409256
X0051Y0367256
X00655Y0343705
X0051Y0301705
X00655Y0278153
X0051Y0432807
X00655Y0474807
X0051Y0498358
X00655Y0540358
X0051Y0563909
X0983Y05665
Y05015
X1016Y053
Y04635
X0983Y0436
X10165Y05935
Y06595
X0983Y0632
X09835Y06975
X10165Y07265
X00655Y0737012
X0051Y0695012
X00655Y067146
X0051Y062946
X00655Y0605909
X0051Y0760563
X00655Y0802563
X0051Y0826114
X00655Y0868114
X0051Y0891665
X09835Y0894
X0983Y0829
X10175Y0855
X10165Y0789
X0983Y07635
X10175Y0923
X10195Y0985
X0983Y10255
X09175Y09595
X0051Y0957216
X00655Y0933665
Y0999216
X00515Y10225
T04
X0514409Y0064813
X053441
T05
X0983268Y0065551
X0065551
X0983268Y0983268
X0065551
T06
X0513031Y0025756
X0535787
T07
X0435Y001
X0455Y0014
Y0006
M30
